<svg width="833" height="119" viewBox="0 0 833 119" fill="none" xmlns="http://www.w3.org/2000/svg">
<path d="M106.654 67.9831L33.0247 70.342C14.9593 70.9207 0 56.4331 0 38.3584V32.3085C0 14.5154 14.5148 0.139276 32.3071 0.310003L468.35 4.49406C479.432 4.6004 485.412 17.5351 478.315 26.0467C471.179 34.6036 477.264 47.6 488.406 47.6H801C818.673 47.6 833 61.9269 833 79.6V86.7963C833 104.549 818.549 118.908 800.797 118.796L122.051 114.489C109.635 114.41 104.541 98.5132 114.599 91.2329C124.862 83.8045 119.317 67.5774 106.654 67.9831Z" fill="#040F16"/>
<path d="M15.6576 40.5316C15.4229 40.5318 15.2201 40.4468 15.0493 40.2763C14.8784 40.1058 14.7928 39.9033 14.7926 39.6686L14.7695 18.9966C14.7692 18.7619 14.8543 18.5592 15.0248 18.3883C15.1953 18.2174 15.3978 18.1319 15.6325 18.1316L26.2565 18.1191C28.3045 18.1167 29.9794 18.3708 31.2813 18.8812C32.5832 19.3704 33.5441 20.1159 34.1638 21.1179C34.8049 22.0984 35.1263 23.3354 35.128 24.8287C35.1288 25.5114 34.9801 26.1302 34.6821 26.6853C34.4053 27.2189 34.0645 27.6673 33.6596 28.0305C33.276 28.3936 32.9136 28.6607 32.5725 28.8317C33.3835 29.1721 34.0882 29.7686 34.6865 30.6213C35.3061 31.4525 35.6165 32.4015 35.6177 33.4682C35.6195 35.0682 35.2689 36.3912 34.5661 37.4374C33.8632 38.4622 32.8401 39.2314 31.4967 39.745C30.1746 40.2586 28.5429 40.5165 26.6015 40.5187L15.6576 40.5316ZM22.7874 35.0192L25.7634 35.0157C26.2967 35.0151 26.6699 34.844 26.8828 34.5024C27.1171 34.1395 27.234 33.7873 27.2336 33.446C27.2332 33.062 27.1048 32.7101 26.8485 32.3904C26.6134 32.0494 26.2505 31.8791 25.7599 31.8797L22.7839 31.8832L22.7874 35.0192ZM22.7779 26.5392L25.4659 26.5361C25.9352 26.5355 26.2657 26.3858 26.4574 26.0869C26.6704 25.7667 26.7767 25.4359 26.7763 25.0945C26.7759 24.7532 26.6689 24.4227 26.4552 24.1029C26.2628 23.7831 25.932 23.6235 25.4626 23.6241L22.7746 23.6272L22.7779 26.5392ZM46.1659 40.8158C44.2032 40.8181 42.5496 40.5534 41.205 40.0216C39.8604 39.4899 38.8248 38.6911 38.0983 37.6253C37.3931 36.5594 36.9863 35.2479 36.8779 33.6907C36.856 33.2 36.8448 32.6987 36.8442 32.1867C36.8436 31.6534 36.8537 31.1521 36.8745 30.6827C36.9794 29.1039 37.4153 27.7914 38.1821 26.7452C38.949 25.6776 40.0041 24.8764 41.3475 24.3414C42.6909 23.8065 44.2906 23.538 46.1466 23.5358C48.0026 23.5336 49.6029 23.7984 50.9475 24.3302C52.292 24.8619 53.3489 25.6607 54.1181 26.7265C54.8873 27.7709 55.3261 29.0824 55.4345 30.6609C55.4777 31.1302 55.4996 31.6315 55.5002 32.1649C55.5008 32.6769 55.48 33.1782 55.4379 33.6689C55.333 35.2264 54.9184 36.5389 54.1943 37.6064C53.4915 38.6739 52.4684 39.4751 51.125 40.01C49.7816 40.5449 48.1286 40.8135 46.1659 40.8158ZM46.1602 35.6958C46.7788 35.6951 47.1626 35.524 47.3116 35.1825C47.4605 34.8196 47.5559 34.2648 47.5977 33.5181C47.6187 33.1981 47.6289 32.7501 47.6282 32.1741C47.6276 31.5981 47.6164 31.1501 47.5947 30.8301C47.5513 30.1262 47.4547 29.593 47.3049 29.2305C47.1552 28.8466 46.771 28.6551 46.1523 28.6558C45.555 28.6565 45.1712 28.849 45.0009 29.2332C44.852 29.596 44.7566 30.1295 44.7147 30.8335C44.6937 31.1535 44.6836 31.6015 44.6842 32.1775C44.6849 32.7535 44.696 33.2015 44.7177 33.5215C44.7612 34.2681 44.8579 34.8227 45.0076 35.1852C45.1786 35.5263 45.5628 35.6965 46.1602 35.6958ZM65.2251 40.7935C63.5611 40.7954 62.1849 40.6264 61.0966 40.2863C60.0295 39.9462 59.1864 39.5099 58.5671 38.9773C57.9692 38.4446 57.5312 37.8905 57.2532 37.3148C56.9966 36.7178 56.8253 36.1846 56.7394 35.7154C56.6966 35.5661 56.7391 35.4381 56.867 35.3313C56.9949 35.2244 57.1228 35.171 57.2508 35.1708L62.8508 35.1642C63.1282 35.1639 63.3202 35.2064 63.427 35.2916C63.5337 35.3768 63.6405 35.462 63.7473 35.5472C63.8754 35.6324 64.0354 35.7175 64.2275 35.8026C64.4196 35.8877 64.729 35.93 65.1557 35.9295C65.4757 35.9292 65.7316 35.8969 65.9236 35.8326C66.1155 35.7471 66.2434 35.6403 66.3072 35.5122C66.3924 35.3628 66.4349 35.192 66.4346 35C66.4344 34.7654 66.3488 34.5735 66.178 34.4243C66.0285 34.2538 65.6764 34.1689 65.1217 34.1696L63.2977 34.1717C63.1057 34.1719 62.9456 34.0975 62.8175 33.9483C62.6893 33.7991 62.6251 33.6392 62.6249 33.4685L62.622 30.8125C62.6218 30.6418 62.6856 30.4818 62.8134 30.3323C62.9413 30.1828 63.1012 30.1079 63.2932 30.1077L65.1172 30.1056C65.6078 30.105 65.9278 30.03 66.0769 29.8805C66.2261 29.7309 66.3005 29.5282 66.3002 29.2722C66.3 29.1015 66.2572 28.9522 66.1717 28.8243C66.0863 28.6964 65.9582 28.6006 65.7874 28.5368C65.638 28.473 65.4246 28.4412 65.1473 28.4415C64.742 28.442 64.4327 28.4744 64.2194 28.5386C64.0275 28.6029 63.8463 28.7097 63.6758 28.8593C63.5692 28.9447 63.4626 29.0302 63.3561 29.1156C63.2495 29.2011 63.0575 29.244 62.7802 29.2443L57.3722 29.2507C57.2229 29.2508 57.0948 29.1977 56.988 29.0911C56.8812 28.9846 56.8384 28.8566 56.8596 28.7073C56.9444 28.2378 57.1251 27.7043 57.4018 27.1066C57.6785 26.509 58.1152 25.9431 58.7119 25.4091C59.33 24.8537 60.1615 24.4047 61.2064 24.0622C62.2513 23.6983 63.5845 23.5154 65.2058 23.5135C67.2111 23.5111 68.8114 23.7119 70.0065 24.1158C71.2229 24.4984 72.0982 25.0521 72.6323 25.7768C73.1665 26.4801 73.4341 27.3225 73.4352 28.3038C73.4359 28.9438 73.2766 29.584 72.9573 30.2244C72.638 30.8648 72.0839 31.3667 71.295 31.7303C72.2767 32.0705 72.9387 32.6351 73.2809 33.424C73.6444 34.1916 73.8266 34.9487 73.8274 35.6954C73.8285 36.6554 73.4988 37.5198 72.8383 38.2885C72.1779 39.0573 71.2079 39.6664 69.9284 40.1159C68.6489 40.5654 67.0811 40.7913 65.2251 40.7935ZM76.3498 40.4604C76.1791 40.4606 76.0297 40.3968 75.9015 40.2689C75.7734 40.1411 75.7092 39.9918 75.709 39.8212L75.6919 24.4612C75.6917 24.2905 75.7555 24.1411 75.8834 24.013C76.0112 23.8848 76.1605 23.8206 76.3311 23.8204L81.8031 23.814C82.2298 23.8135 82.5714 24.0264 82.8279 24.4528L86.2902 30.1448L89.7399 24.4447C89.9954 24.0177 90.3365 23.804 90.7631 23.8035L96.2351 23.7971C96.4271 23.7969 96.5872 23.8607 96.7153 23.9885C96.8435 24.1164 96.9077 24.2656 96.9078 24.4363L96.925 39.7963C96.9252 39.967 96.8614 40.1164 96.7335 40.2445C96.6057 40.3727 96.4457 40.4369 96.2537 40.4371L90.2377 40.4441C90.0457 40.4444 89.8857 40.3806 89.7575 40.2527C89.6507 40.1248 89.5972 39.9756 89.597 39.8049L89.5876 31.3569L91.5082 31.8986L87.9945 37.5028C87.888 37.6949 87.7708 37.8444 87.643 37.9512C87.5151 38.058 87.3445 38.1115 87.1311 38.1118L85.4671 38.1137C85.2965 38.1139 85.1364 38.0715 84.987 37.9863C84.8375 37.8798 84.6987 37.72 84.5705 37.5068L81.1082 31.8788L82.9956 31.3646L83.005 39.8126C83.0052 39.9833 82.9414 40.1327 82.8135 40.2608C82.6857 40.389 82.5364 40.4532 82.3658 40.4534L76.3498 40.4604ZM108.215 40.7431C106.252 40.7454 104.598 40.4806 103.254 39.9489C101.909 39.4171 100.874 38.6183 100.147 37.5525C99.4418 36.4867 99.035 35.1752 98.9266 33.6179C98.9047 33.1273 98.8935 32.626 98.8929 32.114C98.8923 31.5807 98.9024 31.0793 98.9233 30.6099C99.0282 29.0312 99.464 27.7186 100.231 26.6724C100.998 25.6048 102.053 24.8036 103.396 24.2687C104.74 23.7338 106.339 23.4652 108.195 23.4631C110.051 23.4609 111.652 23.7257 112.996 24.2574C114.341 24.7892 115.398 25.588 116.167 26.6537C116.936 27.6982 117.375 29.0096 117.483 30.5882C117.526 31.0575 117.548 31.5588 117.549 32.0921C117.549 32.6041 117.529 33.1055 117.487 33.5962C117.382 35.1536 116.967 36.4661 116.243 37.5336C115.54 38.6011 114.517 39.4023 113.174 39.9372C111.83 40.4722 110.177 40.7408 108.215 40.7431ZM108.209 35.6231C108.828 35.6223 109.211 35.4512 109.36 35.1097C109.509 34.7469 109.605 34.1921 109.646 33.4454C109.667 33.1254 109.678 32.6773 109.677 32.1013C109.676 31.5253 109.665 31.0774 109.643 30.7574C109.6 30.0534 109.503 29.5202 109.354 29.1577C109.204 28.7739 108.82 28.5823 108.201 28.5831C107.604 28.5838 107.22 28.7762 107.05 29.1604C106.901 29.5233 106.805 30.0567 106.763 30.7608C106.742 31.0808 106.732 31.5288 106.733 32.1048C106.734 32.6808 106.745 33.1288 106.766 33.4488C106.81 34.1954 106.907 34.7499 107.056 35.1124C107.227 35.4536 107.612 35.6238 108.209 35.6231ZM119.081 40.4103C118.868 40.4106 118.687 40.3361 118.537 40.187C118.388 40.0378 118.313 39.8566 118.313 39.6432C118.312 39.4939 118.355 39.3552 118.44 39.2271L123.296 31.8934L119.224 25.0181C119.203 24.9755 119.171 24.9115 119.128 24.8263C119.085 24.7196 119.064 24.6237 119.064 24.5383C119.063 24.325 119.138 24.1436 119.287 23.9941C119.436 23.8446 119.618 23.7697 119.831 23.7694L125.975 23.7622C126.274 23.7619 126.487 23.8363 126.615 23.9855C126.765 24.1133 126.861 24.2199 126.903 24.3051L129.661 29.1979L130.365 29.1971L130.36 24.6211C130.36 24.3864 130.445 24.1837 130.615 24.0128C130.786 23.8419 130.988 23.7564 131.223 23.7561L136.823 23.7495C137.058 23.7492 137.26 23.8343 137.431 24.0048C137.602 24.1753 137.688 24.3778 137.688 24.6125L137.693 29.1885L138.397 29.1877L141.143 24.2884C141.186 24.2031 141.282 24.0963 141.431 23.9681C141.58 23.8186 141.794 23.7437 142.071 23.7434L148.215 23.7362C148.428 23.7359 148.61 23.8104 148.759 23.9595C148.909 24.1087 148.983 24.2899 148.984 24.5033C148.984 24.5886 148.963 24.6846 148.92 24.7913C148.899 24.8767 148.867 24.9407 148.824 24.9834L144.768 31.8682L149.64 39.1905C149.726 39.3184 149.768 39.457 149.769 39.6063C149.769 39.8197 149.694 40.0011 149.545 40.1506C149.396 40.3001 149.215 40.375 149.001 40.3752L142.281 40.3831C141.961 40.3835 141.727 40.3091 141.577 40.16C141.428 39.9895 141.332 39.8829 141.289 39.8403L138.243 34.7879L137.699 34.7885L137.705 39.5245C137.705 39.7592 137.62 39.9619 137.449 40.1328C137.279 40.3037 137.076 40.3892 136.841 40.3895L131.241 40.3961C131.007 40.3963 130.804 40.3112 130.633 40.1408C130.462 39.9703 130.377 39.7677 130.377 39.5331L130.371 34.7971L129.827 34.7977L126.793 39.8573C126.772 39.9 126.676 40.0068 126.505 40.1776C126.356 40.3271 126.121 40.4021 125.801 40.4024L119.081 40.4103ZM151.904 40.3718C151.669 40.3721 151.466 40.287 151.295 40.1166C151.125 39.9461 151.039 39.7435 151.039 39.5089L151.022 24.5969C151.022 24.3622 151.107 24.1594 151.277 23.9886C151.448 23.8177 151.65 23.7321 151.885 23.7319L157.613 23.7251C157.848 23.7249 158.051 23.81 158.221 23.9804C158.392 24.1509 158.478 24.3535 158.478 24.5881L158.483 29.1641L161.683 29.1604L161.678 24.5844C161.678 24.3497 161.763 24.1469 161.933 23.9761C162.104 23.8052 162.306 23.7196 162.541 23.7194L168.269 23.7126C168.504 23.7124 168.707 23.7975 168.877 23.9679C169.048 24.1384 169.134 24.341 169.134 24.5756L169.151 39.4876C169.151 39.7223 169.066 39.9251 168.895 40.0959C168.725 40.2668 168.522 40.3524 168.288 40.3526L162.56 40.3594C162.325 40.3596 162.122 40.2745 161.951 40.1041C161.781 39.9336 161.695 39.731 161.695 39.4964L161.689 34.7604L158.489 34.7641L158.495 39.5001C158.495 39.7348 158.41 39.9376 158.239 40.1084C158.069 40.2793 157.866 40.3649 157.632 40.3651L151.904 40.3718ZM180.451 40.6584C178.488 40.6607 176.834 40.396 175.49 39.8642C174.145 39.3324 173.11 38.5336 172.383 37.4678C171.678 36.402 171.271 35.0905 171.163 33.5333C171.141 33.0426 171.13 32.5413 171.129 32.0293C171.129 31.496 171.139 30.9946 171.159 30.5253C171.264 28.9465 171.7 27.634 172.467 26.5877C173.234 25.5202 174.289 24.7189 175.632 24.184C176.976 23.6491 178.575 23.3806 180.431 23.3784C182.287 23.3762 183.888 23.641 185.232 24.1728C186.577 24.7045 187.634 25.5033 188.403 26.569C189.172 27.6135 189.611 28.925 189.719 30.5035C189.763 30.9728 189.785 31.4741 189.785 32.0074C189.786 32.5194 189.765 33.0208 189.723 33.5115C189.618 35.069 189.203 36.3814 188.479 37.449C187.776 38.5165 186.753 39.3177 185.41 39.8526C184.066 40.3875 182.413 40.6561 180.451 40.6584ZM180.445 35.5384C181.064 35.5377 181.448 35.3665 181.596 35.025C181.745 34.6622 181.841 34.1074 181.883 33.3607C181.904 33.0407 181.914 32.5927 181.913 32.0167C181.912 31.4407 181.901 30.9927 181.88 30.6727C181.836 29.9687 181.74 29.4355 181.59 29.073C181.44 28.6892 181.056 28.4977 180.437 28.4984C179.84 28.4991 179.456 28.6915 179.286 29.0757C179.137 29.4386 179.042 29.972 179 30.6761C178.979 30.9961 178.968 31.4441 178.969 32.0201C178.97 32.5961 178.981 33.0441 179.003 33.3641C179.046 34.1107 179.143 34.6652 179.292 35.0277C179.464 35.3689 179.848 35.5391 180.445 35.5384ZM199.99 40.6355C198.369 40.6374 196.896 40.3618 195.573 39.8086C194.25 39.2342 193.182 38.4035 192.37 37.3164C191.558 36.2294 191.109 34.8965 191.022 33.318C191 32.9767 190.989 32.55 190.988 32.038C190.988 31.526 190.998 31.0887 191.019 30.726C191.103 29.1472 191.538 27.8134 192.326 26.7244C193.136 25.6142 194.202 24.7809 195.524 24.2247C196.867 23.6471 198.349 23.3574 199.971 23.3555C201.656 23.3535 203.086 23.5972 204.26 24.0865C205.455 24.5544 206.415 25.1399 207.141 25.8431C207.889 26.5249 208.434 27.2069 208.776 27.8892C209.139 28.5714 209.332 29.1258 209.354 29.5525C209.375 29.7871 209.29 29.9899 209.098 30.1608C208.928 30.3317 208.725 30.4172 208.491 30.4175L202.251 30.4248C202.016 30.4251 201.824 30.372 201.674 30.2655C201.546 30.1376 201.429 29.9778 201.322 29.7859C201.172 29.4874 201.012 29.2529 200.841 29.0825C200.692 28.912 200.457 28.8269 200.137 28.8273C199.646 28.8279 199.316 29.0096 199.145 29.3725C198.975 29.7353 198.88 30.2368 198.859 30.8768C198.839 31.7941 198.84 32.5515 198.862 33.1488C198.905 33.8314 199.002 34.3433 199.151 34.6844C199.322 35.0042 199.653 35.1639 200.144 35.1633C200.528 35.1628 200.784 35.0772 200.912 34.9064C201.061 34.7355 201.199 34.5007 201.327 34.2019C201.412 34.0098 201.529 33.8603 201.678 33.7535C201.828 33.6253 202.019 33.5611 202.254 33.5608L208.494 33.5535C208.729 33.5532 208.932 33.6383 209.102 33.8088C209.295 33.9792 209.38 34.1818 209.359 34.4165C209.338 34.6938 209.221 35.0886 209.008 35.6009C208.817 36.0918 208.498 36.6255 208.05 37.202C207.624 37.7785 207.049 38.3339 206.324 38.868C205.599 39.3809 204.714 39.8086 203.669 40.1512C202.625 40.4724 201.398 40.6338 199.99 40.6355ZM215.8 40.2969C215.565 40.2972 215.362 40.2121 215.192 40.0416C215.021 39.8712 214.935 39.6686 214.935 39.4339L214.924 29.258L210.668 29.2629C210.433 29.2632 210.23 29.1781 210.059 29.0077C209.888 28.8372 209.803 28.6346 209.803 28.4L209.798 24.528C209.798 24.2933 209.883 24.0905 210.054 23.9197C210.224 23.7488 210.427 23.6632 210.661 23.6629L226.501 23.6444C226.736 23.6441 226.939 23.7292 227.11 23.8997C227.28 24.0701 227.366 24.2727 227.366 24.5074L227.371 28.3794C227.371 28.614 227.286 28.8168 227.115 28.9877C226.945 29.1585 226.742 29.2441 226.508 29.2444L222.252 29.2494L222.263 39.4254C222.263 39.66 222.178 39.8628 222.008 40.0337C221.837 40.2045 221.635 40.2901 221.4 40.2904L215.8 40.2969ZM229.531 40.2808C229.296 40.2811 229.094 40.196 228.923 40.0256C228.752 39.8551 228.666 39.6525 228.666 39.4179L228.65 24.5059C228.649 24.2712 228.734 24.0684 228.905 23.8976C229.075 23.7267 229.278 23.6411 229.513 23.6408L235.273 23.6341C235.507 23.6338 235.71 23.7189 235.881 23.8894C236.052 24.0598 236.137 24.2624 236.138 24.4971L236.142 28.4651L238.702 28.4621C240.835 28.4596 242.564 28.9802 243.888 30.024C245.212 31.0678 245.874 32.5177 245.877 34.3737C245.879 36.2297 245.219 37.6811 243.897 38.728C242.576 39.7535 240.848 40.2676 238.715 40.2701L229.531 40.2808ZM235.99 35.5053L238.07 35.5028C238.496 35.5023 238.816 35.4059 239.029 35.2137C239.243 35.0214 239.349 34.744 239.349 34.3813C239.348 34.0187 239.241 33.7414 239.028 33.5497C238.814 33.3366 238.494 33.2303 238.067 33.2308L235.987 33.2333L235.99 35.5053ZM253.657 40.2526C253.423 40.2528 253.22 40.1677 253.049 39.9973C252.878 39.8268 252.793 39.6242 252.792 39.3896L252.776 24.4776C252.775 24.2429 252.861 24.0401 253.031 23.8693C253.202 23.6984 253.404 23.6128 253.639 23.6126L270.023 23.5934C270.257 23.5931 270.46 23.6782 270.631 23.8486C270.802 24.0191 270.887 24.2217 270.888 24.4563L270.904 39.3683C270.905 39.603 270.82 39.8058 270.649 39.9766C270.479 40.1475 270.276 40.2331 270.041 40.2333L264.313 40.2401C264.079 40.2403 263.876 40.1552 263.705 39.9848C263.534 39.8143 263.449 39.6117 263.448 39.3771L263.437 29.2011L260.237 29.2048L260.248 39.3808C260.249 39.6155 260.164 39.8183 259.993 39.9891C259.823 40.16 259.62 40.2456 259.385 40.2458L253.657 40.2526ZM274.243 46.3084C274.008 46.3087 273.805 46.2236 273.635 46.0531C273.464 45.8827 273.378 45.6801 273.378 45.4454L273.354 24.4534C273.354 24.2188 273.439 24.016 273.61 23.8451C273.78 23.6743 273.983 23.5887 274.217 23.5884L279.657 23.5821C279.892 23.5818 280.095 23.6669 280.266 23.8373C280.437 24.0078 280.522 24.2104 280.522 24.445L280.524 25.405C281.014 24.7858 281.642 24.2731 282.41 23.8668C283.199 23.4606 284.148 23.2568 285.257 23.2555C286.196 23.2544 287.06 23.392 287.85 23.6685C288.639 23.9235 289.333 24.3494 289.931 24.946C290.55 25.5213 291.042 26.278 291.406 27.2163C291.769 28.1545 291.984 29.2956 292.049 30.6395C292.071 31.1088 292.082 31.5248 292.083 31.8875C292.083 32.2502 292.073 32.6768 292.052 33.1675C292.011 34.4263 291.81 35.5252 291.448 36.4642C291.086 37.382 290.596 38.1399 289.978 38.738C289.382 39.336 288.678 39.7848 287.868 40.0844C287.079 40.384 286.215 40.5344 285.276 40.5355C284.38 40.5365 283.57 40.3882 282.844 40.0903C282.118 39.7925 281.51 39.3026 281.018 38.6205L281.026 45.4365C281.026 45.6711 280.941 45.8739 280.771 46.0448C280.6 46.2156 280.398 46.3012 280.163 46.3015L274.243 46.3084ZM282.614 34.8106C283.019 34.8101 283.329 34.7351 283.542 34.5855C283.755 34.4359 283.904 34.2224 283.989 33.945C284.095 33.6675 284.17 33.3368 284.212 32.9527C284.275 32.2487 284.274 31.5447 284.21 30.8407C284.167 30.4568 284.091 30.1262 283.985 29.849C283.899 29.5718 283.749 29.3586 283.536 29.2095C283.322 29.0604 283.013 28.9861 282.608 28.9866C282.224 28.9871 281.914 29.0621 281.68 29.2117C281.445 29.3613 281.275 29.5748 281.169 29.8523C281.083 30.1297 281.031 30.4605 281.01 30.8445C280.989 31.3138 280.979 31.7085 280.979 32.0285C280.979 32.3272 280.99 32.7218 281.012 33.2125C281.034 33.5538 281.098 33.8417 281.205 34.0763C281.333 34.3108 281.504 34.4919 281.718 34.6197C281.953 34.7474 282.251 34.811 282.614 34.8106ZM302.497 40.5153C299.702 40.5186 297.472 39.8385 295.806 38.4751C294.162 37.0904 293.338 34.9047 293.335 31.918C293.335 31.8754 293.335 31.8327 293.335 31.79C293.335 31.7474 293.335 31.7154 293.335 31.694C293.375 29.8593 293.768 28.3122 294.514 27.0526C295.28 25.7931 296.335 24.8425 297.678 24.2009C299.043 23.5593 300.632 23.2375 302.445 23.2353C304.536 23.2329 306.254 23.6362 307.599 24.4453C308.944 25.2331 309.937 26.2879 310.578 27.6098C311.241 28.9104 311.573 30.35 311.575 31.9286L311.576 32.8886C311.576 33.1233 311.491 33.3261 311.321 33.4969C311.15 33.6678 310.948 33.7534 310.713 33.7537L301.177 33.7648C301.177 33.7862 301.177 33.8075 301.177 33.8288C301.177 33.8502 301.177 33.8822 301.177 33.9248C301.178 34.3515 301.21 34.7141 301.275 35.0127C301.36 35.29 301.499 35.5031 301.691 35.6522C301.883 35.8013 302.129 35.8757 302.428 35.8754C302.556 35.8752 302.662 35.8538 302.747 35.811C302.854 35.7682 302.95 35.7041 303.035 35.6187C303.142 35.5119 303.248 35.4051 303.355 35.2983C303.547 35.1061 303.707 34.9885 303.834 34.9457C303.962 34.8816 304.154 34.8493 304.41 34.849L310.458 34.842C310.672 34.8417 310.842 34.9055 310.971 35.0334C311.12 35.1612 311.184 35.3318 311.163 35.5451C311.142 35.9505 310.951 36.4414 310.589 37.0178C310.248 37.5729 309.726 38.1175 309.023 38.6516C308.319 39.1858 307.424 39.6349 306.336 39.9988C305.249 40.3414 303.969 40.5136 302.497 40.5153ZM301.173 29.7648L303.733 29.7618L303.733 29.7298C303.732 29.2605 303.678 28.8766 303.571 28.578C303.486 28.2795 303.347 28.0663 303.155 27.9385C302.962 27.7894 302.728 27.715 302.45 27.7153C302.173 27.7157 301.938 27.7906 301.747 27.9402C301.555 28.0684 301.406 28.2819 301.299 28.5807C301.214 28.8795 301.172 29.2635 301.173 29.7328L301.173 29.7648ZM313.414 43.7025C313.179 43.7028 312.976 43.6177 312.805 43.4472C312.635 43.2767 312.549 43.0742 312.549 42.8395L312.541 35.4475C312.54 35.2129 312.625 35.0101 312.796 34.8392C312.966 34.6684 313.169 34.5828 313.404 34.5825L313.852 34.582C314.364 34.5814 314.726 34.3463 314.939 33.8767C315.173 33.3858 315.311 32.7456 315.353 31.9562C315.416 31.1455 315.447 30.2494 315.446 29.2681L315.44 24.4041C315.44 24.1694 315.525 23.9667 315.696 23.7958C315.866 23.6249 316.069 23.5394 316.303 23.5391L330.895 23.522C331.13 23.5217 331.333 23.6068 331.503 23.7773C331.674 23.9477 331.76 24.1503 331.76 24.385L331.772 34.561L333.02 34.5595C333.254 34.5592 333.457 34.6443 333.628 34.8148C333.799 34.9853 333.884 35.1878 333.885 35.4225L333.893 42.8145C333.893 43.0492 333.808 43.2519 333.637 43.4228C333.467 43.5937 333.264 43.6792 333.03 43.6795L327.302 43.6862C327.067 43.6865 326.864 43.6014 326.693 43.4309C326.523 43.2605 326.437 43.0579 326.437 42.8232L326.434 40.1672L320.002 40.1748L320.005 42.8308C320.005 43.0654 319.92 43.2682 319.749 43.4391C319.579 43.6099 319.376 43.6955 319.142 43.6958L313.414 43.7025ZM321.916 34.5725L324.316 34.5697L324.309 29.1297L322.485 29.1319L322.487 30.0599C322.488 31.0625 322.435 31.9479 322.329 32.716C322.245 33.4628 322.107 34.0816 321.916 34.5725ZM335.301 40.1568C335.066 40.1571 334.864 40.072 334.693 39.9016C334.522 39.7311 334.436 39.5285 334.436 39.2939L334.431 35.1019C334.431 34.6325 334.719 34.3442 335.294 34.2368C335.87 34.1295 336.265 33.8624 336.478 33.4355C336.69 33.0085 336.807 32.4431 336.828 31.739C336.87 31.0137 336.89 30.1816 336.889 29.243L336.883 24.379C336.883 24.1443 336.968 23.9415 337.139 23.7707C337.309 23.5998 337.512 23.5142 337.746 23.514L352.338 23.4969C352.573 23.4966 352.776 23.5817 352.947 23.7521C353.118 23.9226 353.203 24.1252 353.203 24.3598L353.22 39.2718C353.22 39.5065 353.135 39.7093 352.965 39.8801C352.794 40.051 352.592 40.1366 352.357 40.1368L346.629 40.1436C346.394 40.1438 346.192 40.0587 346.021 39.8883C345.85 39.7178 345.764 39.5152 345.764 39.2806L345.753 29.1046L343.929 29.1067L343.93 30.0347C343.932 32.04 343.827 33.7042 343.615 35.0271C343.403 36.35 342.989 37.3852 342.371 38.1325C341.774 38.8586 340.9 39.3823 339.749 39.7036C338.618 40.0036 337.136 40.1547 335.301 40.1568ZM364.519 40.4426C362.557 40.4449 360.903 40.1802 359.559 39.6484C358.214 39.1166 357.178 38.3179 356.452 37.252C355.747 36.1862 355.34 34.8747 355.231 33.3175C355.21 32.8268 355.198 32.3255 355.198 31.8135C355.197 31.2802 355.207 30.7788 355.228 30.3095C355.333 28.7307 355.769 27.4182 356.536 26.3719C357.302 25.3044 358.358 24.5031 359.701 23.9682C361.044 23.4333 362.644 23.1648 364.5 23.1626C366.356 23.1604 367.956 23.4252 369.301 23.957C370.646 24.4887 371.702 25.2875 372.472 26.3533C373.241 27.3977 373.68 28.7092 373.788 30.2877C373.831 30.757 373.853 31.2583 373.854 31.7916C373.854 32.3036 373.834 32.805 373.791 33.2957C373.686 34.8532 373.272 36.1657 372.548 37.2332C371.845 38.3007 370.822 39.1019 369.479 39.6368C368.135 40.1717 366.482 40.4403 364.519 40.4426ZM364.514 35.3226C365.132 35.3219 365.516 35.1507 365.665 34.8092C365.814 34.4464 365.909 33.8916 365.951 33.1449C365.972 32.8249 365.982 32.3769 365.982 31.8009C365.981 31.2249 365.97 30.7769 365.948 30.4569C365.905 29.753 365.808 29.2197 365.658 28.8572C365.509 28.4734 365.124 28.2819 364.506 28.2826C363.908 28.2833 363.525 28.4757 363.354 28.8599C363.206 29.2228 363.11 29.7562 363.068 30.4603C363.047 30.7803 363.037 31.2283 363.038 31.8043C363.038 32.3803 363.05 32.8283 363.071 33.1483C363.115 33.8949 363.211 34.4494 363.361 34.8119C363.532 35.1531 363.916 35.3233 364.514 35.3226ZM375.386 40.1098C375.173 40.1101 374.992 40.0356 374.842 39.8865C374.693 39.7373 374.618 39.5561 374.617 39.3427C374.617 39.1934 374.66 39.0547 374.745 38.9266L379.601 31.5929L375.529 24.7177C375.508 24.675 375.476 24.6111 375.433 24.5258C375.39 24.4192 375.369 24.3232 375.369 24.2379C375.368 24.0245 375.443 23.8431 375.592 23.6936C375.741 23.5441 375.922 23.4692 376.136 23.469L382.28 23.4617C382.578 23.4614 382.792 23.5358 382.92 23.685C383.069 23.8128 383.166 23.9194 383.208 24.0047L385.966 28.8974L386.67 28.8966L386.665 24.3206C386.664 24.0859 386.749 23.8832 386.92 23.7123C387.09 23.5414 387.293 23.4559 387.528 23.4556L393.128 23.449C393.362 23.4488 393.565 23.5339 393.736 23.7043C393.907 23.8748 393.992 24.0774 393.993 24.312L393.998 28.888L394.702 28.8872L397.448 23.988C397.491 23.9026 397.587 23.7958 397.736 23.6676C397.885 23.5181 398.098 23.4432 398.376 23.4429L404.52 23.4357C404.733 23.4354 404.914 23.5099 405.064 23.659C405.213 23.8082 405.288 23.9894 405.289 24.2028C405.289 24.2881 405.267 24.3841 405.225 24.4909C405.204 24.5762 405.172 24.6402 405.129 24.683L401.073 31.5677L405.945 38.89C406.03 39.0179 406.073 39.1565 406.073 39.3059C406.074 39.5192 405.999 39.7006 405.85 39.8501C405.701 39.9996 405.52 40.0745 405.306 40.0748L398.586 40.0826C398.266 40.083 398.032 40.0086 397.882 39.8595C397.733 39.689 397.636 39.5824 397.594 39.5398L394.548 34.4874L394.004 34.488L394.009 39.224C394.01 39.4587 393.924 39.6614 393.754 39.8323C393.584 40.0032 393.381 40.0887 393.146 40.089L387.546 40.0956C387.312 40.0959 387.109 40.0108 386.938 39.8403C386.767 39.6698 386.682 39.4673 386.681 39.2326L386.676 34.4966L386.132 34.4972L383.098 39.5568C383.076 39.5995 382.981 39.7063 382.81 39.8771C382.661 40.0266 382.426 40.1016 382.106 40.102L375.386 40.1098ZM408.209 40.0714C407.974 40.0716 407.771 39.9865 407.6 39.8161C407.429 39.6456 407.344 39.443 407.344 39.2084L407.327 24.2964C407.327 24.0617 407.412 23.859 407.582 23.6881C407.753 23.5172 407.955 23.4316 408.19 23.4314L413.918 23.4247C414.153 23.4244 414.355 23.5095 414.526 23.6799C414.697 23.8504 414.783 24.053 414.783 24.2876L414.794 34.3676L412.841 33.7939L419.231 23.9624C419.337 23.7916 419.465 23.6635 419.614 23.578C419.785 23.4711 419.966 23.4176 420.158 23.4173L425.246 23.4114C425.481 23.4111 425.683 23.4962 425.854 23.6667C426.025 23.8371 426.111 24.0397 426.111 24.2744L426.128 39.1864C426.128 39.421 426.043 39.6238 425.872 39.7947C425.702 39.9655 425.499 40.0511 425.265 40.0514L419.537 40.0581C419.302 40.0584 419.099 39.9733 418.928 39.8028C418.757 39.6323 418.672 39.4298 418.672 39.1951L418.66 29.1151L420.613 29.6888L414.224 39.5203C414.117 39.6911 413.979 39.8299 413.808 39.9368C413.659 40.0223 413.489 40.0652 413.297 40.0654L408.209 40.0714ZM432.947 40.0424C432.713 40.0426 432.51 39.9575 432.339 39.7871C432.168 39.6166 432.083 39.414 432.082 39.1794L432.071 29.0034L427.815 29.0084C427.58 29.0086 427.377 28.9235 427.207 28.7531C427.036 28.5826 426.95 28.3801 426.95 28.1454L426.946 24.2734C426.945 24.0387 427.03 23.836 427.201 23.6651C427.371 23.4942 427.574 23.4086 427.809 23.4084L443.649 23.3898C443.883 23.3895 444.086 23.4746 444.257 23.6451C444.428 23.8156 444.513 24.0181 444.514 24.2528L444.518 28.1248C444.518 28.3595 444.433 28.5622 444.263 28.7331C444.092 28.904 443.89 28.9895 443.655 28.9898L439.399 28.9948L439.41 39.1708C439.411 39.4055 439.325 39.6082 439.155 39.7791C438.984 39.95 438.782 40.0355 438.547 40.0358L432.947 40.0424ZM446.678 40.0263C446.444 40.0265 446.241 39.9414 446.07 39.771C445.899 39.6005 445.814 39.3979 445.814 39.1633L445.797 24.2513C445.797 24.0166 445.882 23.8139 446.052 23.643C446.223 23.4721 446.425 23.3865 446.66 23.3863L452.42 23.3795C452.655 23.3792 452.857 23.4643 453.028 23.6348C453.199 23.8053 453.285 24.0078 453.285 24.2425L453.289 28.2105L455.849 28.2075C457.983 28.205 459.711 28.7256 461.035 29.7694C462.359 30.8132 463.022 32.2631 463.024 34.1191C463.026 35.9751 462.366 37.4265 461.045 38.4734C459.723 39.499 457.996 40.013 455.862 40.0155L446.678 40.0263ZM453.137 35.2507L455.217 35.2483C455.644 35.2478 455.964 35.1514 456.177 34.9591C456.39 34.7669 456.496 34.4894 456.496 34.1268C456.495 33.7641 456.389 33.4869 456.175 33.2951C455.961 33.082 455.641 32.9758 455.215 32.9763L453.135 32.9787L453.137 35.2507Z" fill="white"/>
<path d="M129.173 89C128.938 89 128.735 88.9147 128.565 88.744C128.394 88.5733 128.309 88.3707 128.309 88.136V73.224C128.309 72.9893 128.394 72.7867 128.565 72.616C128.735 72.4453 128.938 72.36 129.173 72.36H134.901C135.135 72.36 135.338 72.4453 135.509 72.616C135.679 72.7867 135.765 72.9893 135.765 73.224V77.8H138.965V73.224C138.965 72.9893 139.05 72.7867 139.221 72.616C139.391 72.4453 139.594 72.36 139.829 72.36H145.557C145.791 72.36 145.994 72.4453 146.165 72.616C146.335 72.7867 146.421 72.9893 146.421 73.224V88.136C146.421 88.3707 146.335 88.5733 146.165 88.744C145.994 88.9147 145.791 89 145.557 89H139.829C139.594 89 139.391 88.9147 139.221 88.744C139.05 88.5733 138.965 88.3707 138.965 88.136V83.4H135.765V88.136C135.765 88.3707 135.679 88.5733 135.509 88.744C135.338 88.9147 135.135 89 134.901 89H129.173ZM157.495 89.32C154.701 89.32 152.471 88.6373 150.807 87.272C149.165 85.8853 148.343 83.6987 148.343 80.712C148.343 80.6693 148.343 80.6267 148.343 80.584C148.343 80.5413 148.343 80.5093 148.343 80.488C148.386 78.6533 148.781 77.1067 149.527 75.848C150.295 74.5893 151.351 73.64 152.695 73C154.061 72.36 155.65 72.04 157.463 72.04C159.554 72.04 161.271 72.4453 162.615 73.256C163.959 74.0453 164.951 75.1013 165.591 76.424C166.253 77.7253 166.583 79.1653 166.583 80.744V81.704C166.583 81.9387 166.498 82.1413 166.327 82.312C166.157 82.4827 165.954 82.568 165.719 82.568H156.183C156.183 82.5893 156.183 82.6107 156.183 82.632C156.183 82.6533 156.183 82.6853 156.183 82.728C156.183 83.1547 156.215 83.5173 156.279 83.816C156.365 84.0933 156.503 84.3067 156.695 84.456C156.887 84.6053 157.133 84.68 157.431 84.68C157.559 84.68 157.666 84.6587 157.751 84.616C157.858 84.5733 157.954 84.5093 158.039 84.424C158.146 84.3173 158.253 84.2107 158.359 84.104C158.551 83.912 158.711 83.7947 158.839 83.752C158.967 83.688 159.159 83.656 159.415 83.656H165.463C165.677 83.656 165.847 83.72 165.975 83.848C166.125 83.976 166.189 84.1467 166.167 84.36C166.146 84.7653 165.954 85.256 165.591 85.832C165.25 86.3867 164.727 86.9307 164.023 87.464C163.319 87.9973 162.423 88.4453 161.335 88.808C160.247 89.1493 158.967 89.32 157.495 89.32ZM156.183 78.568H158.743V78.536C158.743 78.0667 158.69 77.6827 158.583 77.384C158.498 77.0853 158.359 76.872 158.167 76.744C157.975 76.5947 157.741 76.52 157.463 76.52C157.186 76.52 156.951 76.5947 156.759 76.744C156.567 76.872 156.418 77.0853 156.311 77.384C156.226 77.6827 156.183 78.0667 156.183 78.536V78.568ZM176.665 89.32C175.044 89.32 173.572 89.0427 172.249 88.488C170.926 87.912 169.86 87.08 169.049 85.992C168.238 84.904 167.79 83.5707 167.705 81.992C167.684 81.6507 167.673 81.224 167.673 80.712C167.673 80.2 167.684 79.7627 167.705 79.4C167.79 77.8213 168.228 76.488 169.017 75.4C169.828 74.2907 170.894 73.4587 172.217 72.904C173.561 72.328 175.044 72.04 176.665 72.04C178.35 72.04 179.78 72.2853 180.953 72.776C182.148 73.2453 183.108 73.832 183.833 74.536C184.58 75.2187 185.124 75.9013 185.465 76.584C185.828 77.2667 186.02 77.8213 186.041 78.248C186.062 78.4827 185.977 78.6853 185.785 78.856C185.614 79.0267 185.412 79.112 185.177 79.112H178.937C178.702 79.112 178.51 79.0587 178.361 78.952C178.233 78.824 178.116 78.664 178.009 78.472C177.86 78.1733 177.7 77.9387 177.529 77.768C177.38 77.5973 177.145 77.512 176.825 77.512C176.334 77.512 176.004 77.6933 175.833 78.056C175.662 78.4187 175.566 78.92 175.545 79.56C175.524 80.4773 175.524 81.2347 175.545 81.832C175.588 82.5147 175.684 83.0267 175.833 83.368C176.004 83.688 176.334 83.848 176.825 83.848C177.209 83.848 177.465 83.7627 177.593 83.592C177.742 83.4213 177.881 83.1867 178.009 82.888C178.094 82.696 178.212 82.5467 178.361 82.44C178.51 82.312 178.702 82.248 178.937 82.248H185.177C185.412 82.248 185.614 82.3333 185.785 82.504C185.977 82.6747 186.062 82.8773 186.041 83.112C186.02 83.3893 185.902 83.784 185.689 84.296C185.497 84.7867 185.177 85.32 184.729 85.896C184.302 86.472 183.726 87.0267 183.001 87.56C182.276 88.072 181.39 88.4987 180.345 88.84C179.3 89.16 178.073 89.32 176.665 89.32ZM188.315 89C188.081 89 187.878 88.9147 187.707 88.744C187.537 88.5733 187.451 88.3707 187.451 88.136V73.224C187.451 72.9893 187.537 72.7867 187.707 72.616C187.878 72.4453 188.081 72.36 188.315 72.36H193.915C194.15 72.36 194.353 72.4453 194.523 72.616C194.694 72.7867 194.779 72.9893 194.779 73.224V77.8H195.483L198.235 72.904C198.278 72.8187 198.374 72.712 198.523 72.584C198.673 72.4347 198.886 72.36 199.163 72.36H205.307C205.521 72.36 205.702 72.4347 205.851 72.584C206.001 72.7333 206.075 72.9147 206.075 73.128C206.075 73.2133 206.054 73.3093 206.011 73.416C205.99 73.5013 205.958 73.5653 205.915 73.608L201.851 80.488L206.715 87.816C206.801 87.944 206.843 88.0827 206.843 88.232C206.843 88.4453 206.769 88.6267 206.619 88.776C206.47 88.9253 206.289 89 206.075 89H199.355C199.099 89 198.897 88.9467 198.747 88.84C198.598 88.7333 198.47 88.6053 198.363 88.456L195.323 83.4H194.779V88.136C194.779 88.3707 194.694 88.5733 194.523 88.744C194.353 88.9147 194.15 89 193.915 89H188.315ZM216.956 89.32C214.993 89.32 213.34 89.0533 211.996 88.52C210.652 87.9867 209.617 87.1867 208.892 86.12C208.188 85.0533 207.782 83.7413 207.676 82.184C207.654 81.6933 207.644 81.192 207.644 80.68C207.644 80.1467 207.654 79.6453 207.676 79.176C207.782 77.5973 208.22 76.2853 208.988 75.24C209.756 74.1733 210.812 73.3733 212.156 72.84C213.5 72.3067 215.1 72.04 216.956 72.04C218.812 72.04 220.412 72.3067 221.756 72.84C223.1 73.3733 224.156 74.1733 224.924 75.24C225.692 76.2853 226.129 77.5973 226.236 79.176C226.278 79.6453 226.3 80.1467 226.3 80.68C226.3 81.192 226.278 81.6933 226.236 82.184C226.129 83.7413 225.713 85.0533 224.988 86.12C224.284 87.1867 223.26 87.9867 221.916 88.52C220.572 89.0533 218.918 89.32 216.956 89.32ZM216.956 84.2C217.574 84.2 217.958 84.0293 218.108 83.688C218.257 83.3253 218.353 82.7707 218.396 82.024C218.417 81.704 218.428 81.256 218.428 80.68C218.428 80.104 218.417 79.656 218.396 79.336C218.353 78.632 218.257 78.0987 218.108 77.736C217.958 77.352 217.574 77.16 216.956 77.16C216.358 77.16 215.974 77.352 215.804 77.736C215.654 78.0987 215.558 78.632 215.516 79.336C215.494 79.656 215.484 80.104 215.484 80.68C215.484 81.256 215.494 81.704 215.516 82.024C215.558 82.7707 215.654 83.3253 215.804 83.688C215.974 84.0293 216.358 84.2 216.956 84.2ZM228.239 89C228.004 89 227.802 88.9147 227.631 88.744C227.46 88.5733 227.375 88.3707 227.375 88.136V83.944C227.375 83.4747 227.663 83.1867 228.239 83.08C228.815 82.9733 229.21 82.7067 229.423 82.28C229.636 81.8533 229.754 81.288 229.775 80.584C229.818 79.8587 229.839 79.0267 229.839 78.088V73.224C229.839 72.9893 229.924 72.7867 230.095 72.616C230.266 72.4453 230.468 72.36 230.703 72.36H245.295C245.53 72.36 245.732 72.4453 245.903 72.616C246.074 72.7867 246.159 72.9893 246.159 73.224V88.136C246.159 88.3707 246.074 88.5733 245.903 88.744C245.732 88.9147 245.53 89 245.295 89H239.567C239.332 89 239.13 88.9147 238.959 88.744C238.788 88.5733 238.703 88.3707 238.703 88.136V77.96H236.879V78.888C236.879 80.8933 236.772 82.5573 236.559 83.88C236.346 85.2027 235.93 86.2373 235.311 86.984C234.714 87.7093 233.839 88.232 232.687 88.552C231.556 88.8507 230.074 89 228.239 89ZM249.489 89C249.254 89 249.052 88.9147 248.881 88.744C248.71 88.5733 248.625 88.3707 248.625 88.136V73.224C248.625 72.9893 248.71 72.7867 248.881 72.616C249.052 72.4453 249.254 72.36 249.489 72.36H255.249C255.484 72.36 255.686 72.4453 255.857 72.616C256.028 72.7867 256.113 72.9893 256.113 73.224V77.192H258.673C260.806 77.192 262.534 77.7147 263.857 78.76C265.18 79.8053 265.841 81.256 265.841 83.112C265.841 84.968 265.18 86.4187 263.857 87.464C262.534 88.488 260.806 89 258.673 89H249.489ZM255.953 84.232H258.033C258.46 84.232 258.78 84.136 258.993 83.944C259.206 83.752 259.313 83.4747 259.313 83.112C259.313 82.7493 259.206 82.472 258.993 82.28C258.78 82.0667 258.46 81.96 258.033 81.96H255.953V84.232ZM268.318 89C268.083 89 267.88 88.9147 267.71 88.744C267.539 88.5733 267.454 88.3707 267.454 88.136V73.224C267.454 72.9893 267.539 72.7867 267.71 72.616C267.88 72.4453 268.083 72.36 268.318 72.36H273.918C274.152 72.36 274.355 72.4453 274.526 72.616C274.696 72.7867 274.782 72.9893 274.782 73.224V77.8H275.486L278.238 72.904C278.28 72.8187 278.376 72.712 278.526 72.584C278.675 72.4347 278.888 72.36 279.166 72.36H285.31C285.523 72.36 285.704 72.4347 285.854 72.584C286.003 72.7333 286.078 72.9147 286.078 73.128C286.078 73.2133 286.056 73.3093 286.014 73.416C285.992 73.5013 285.96 73.5653 285.918 73.608L281.854 80.488L286.718 87.816C286.803 87.944 286.846 88.0827 286.846 88.232C286.846 88.4453 286.771 88.6267 286.622 88.776C286.472 88.9253 286.291 89 286.078 89H279.358C279.102 89 278.899 88.9467 278.75 88.84C278.6 88.7333 278.472 88.6053 278.366 88.456L275.326 83.4H274.782V88.136C274.782 88.3707 274.696 88.5733 274.526 88.744C274.355 88.9147 274.152 89 273.918 89H268.318ZM296.958 89.32C294.996 89.32 293.342 89.0533 291.998 88.52C290.654 87.9867 289.62 87.1867 288.894 86.12C288.19 85.0533 287.785 83.7413 287.678 82.184C287.657 81.6933 287.646 81.192 287.646 80.68C287.646 80.1467 287.657 79.6453 287.678 79.176C287.785 77.5973 288.222 76.2853 288.99 75.24C289.758 74.1733 290.814 73.3733 292.158 72.84C293.502 72.3067 295.102 72.04 296.958 72.04C298.814 72.04 300.414 72.3067 301.758 72.84C303.102 73.3733 304.158 74.1733 304.926 75.24C305.694 76.2853 306.132 77.5973 306.238 79.176C306.281 79.6453 306.302 80.1467 306.302 80.68C306.302 81.192 306.281 81.6933 306.238 82.184C306.132 83.7413 305.716 85.0533 304.99 86.12C304.286 87.1867 303.262 87.9867 301.918 88.52C300.574 89.0533 298.921 89.32 296.958 89.32ZM296.958 84.2C297.577 84.2 297.961 84.0293 298.11 83.688C298.26 83.3253 298.356 82.7707 298.398 82.024C298.42 81.704 298.43 81.256 298.43 80.68C298.43 80.104 298.42 79.656 298.398 79.336C298.356 78.632 298.26 78.0987 298.11 77.736C297.961 77.352 297.577 77.16 296.958 77.16C296.361 77.16 295.977 77.352 295.806 77.736C295.657 78.0987 295.561 78.632 295.518 79.336C295.497 79.656 295.486 80.104 295.486 80.68C295.486 81.256 295.497 81.704 295.518 82.024C295.561 82.7707 295.657 83.3253 295.806 83.688C295.977 84.0293 296.361 84.2 296.958 84.2ZM314.179 89C313.944 89 313.742 88.9147 313.571 88.744C313.4 88.5733 313.315 88.3707 313.315 88.136V73.224C313.315 72.9893 313.4 72.7867 313.571 72.616C313.742 72.4453 313.944 72.36 314.179 72.36H322.403C325.39 72.36 327.523 72.808 328.803 73.704C330.104 74.6 330.755 75.816 330.755 77.352C330.755 78.0347 330.616 78.632 330.339 79.144C330.062 79.656 329.71 80.0933 329.283 80.456C329.902 80.8187 330.403 81.2773 330.787 81.832C331.192 82.3653 331.395 83.0587 331.395 83.912C331.395 85.448 330.744 86.6853 329.443 87.624C328.163 88.5413 326.03 89 323.043 89H314.179ZM320.483 84.616H322.723C323.086 84.616 323.363 84.5627 323.555 84.456C323.768 84.3493 323.875 84.136 323.875 83.816C323.875 83.496 323.768 83.2827 323.555 83.176C323.363 83.048 323.086 82.984 322.723 82.984H320.483V84.616ZM320.483 78.376H322.723C323.107 78.376 323.395 78.3227 323.587 78.216C323.779 78.1093 323.875 77.896 323.875 77.576C323.875 77.256 323.768 77.0427 323.555 76.936C323.363 76.808 323.086 76.744 322.723 76.744H320.483V78.376ZM338.581 89.32C337.365 89.32 336.287 89.096 335.349 88.648C334.41 88.2 333.674 87.592 333.141 86.824C332.629 86.056 332.373 85.192 332.373 84.232C332.373 82.6747 333.002 81.4587 334.261 80.584C335.541 79.688 337.247 79.0587 339.381 78.696L342.773 78.152V78.12C342.773 77.5653 342.719 77.16 342.613 76.904C342.527 76.648 342.261 76.52 341.813 76.52C341.514 76.52 341.269 76.584 341.077 76.712C340.906 76.8187 340.714 76.9787 340.501 77.192C340.266 77.4267 339.967 77.544 339.605 77.544H334.165C333.951 77.544 333.77 77.48 333.621 77.352C333.493 77.224 333.439 77.0533 333.461 76.84C333.482 76.4347 333.653 75.9653 333.973 75.432C334.293 74.8773 334.783 74.344 335.445 73.832C336.127 73.32 336.991 72.8933 338.037 72.552C339.103 72.2107 340.383 72.04 341.877 72.04C343.327 72.04 344.586 72.2 345.653 72.52C346.741 72.8187 347.637 73.2667 348.341 73.864C349.045 74.44 349.567 75.1653 349.909 76.04C350.271 76.8933 350.453 77.864 350.453 78.952V88.136C350.453 88.3707 350.367 88.5733 350.197 88.744C350.026 88.9147 349.823 89 349.589 89H343.989C343.754 89 343.551 88.9147 343.381 88.744C343.21 88.5733 343.125 88.3707 343.125 88.136V87.24C342.826 87.6667 342.442 88.04 341.973 88.36C341.525 88.6587 341.013 88.8933 340.437 89.064C339.861 89.2347 339.242 89.32 338.581 89.32ZM340.789 84.584C341.215 84.584 341.578 84.4987 341.877 84.328C342.197 84.1573 342.442 83.8907 342.613 83.528C342.783 83.144 342.869 82.6747 342.869 82.12V82.088L340.981 82.504C340.426 82.632 340.053 82.8027 339.861 83.016C339.669 83.2293 339.573 83.4533 339.573 83.688C339.573 83.8373 339.615 83.9867 339.701 84.136C339.807 84.264 339.946 84.3707 340.117 84.456C340.309 84.5413 340.533 84.584 340.789 84.584ZM353.399 95.08C353.164 95.08 352.962 94.9947 352.791 94.824C352.62 94.6533 352.535 94.4507 352.535 94.216V73.224C352.535 72.9893 352.62 72.7867 352.791 72.616C352.962 72.4453 353.164 72.36 353.399 72.36H358.839C359.074 72.36 359.276 72.4453 359.447 72.616C359.618 72.7867 359.703 72.9893 359.703 73.224V74.184C360.194 73.5653 360.823 73.0533 361.591 72.648C362.38 72.2427 363.33 72.04 364.439 72.04C365.378 72.04 366.242 72.1787 367.031 72.456C367.82 72.712 368.514 73.1387 369.111 73.736C369.73 74.312 370.22 75.0693 370.583 76.008C370.946 76.9467 371.159 78.088 371.223 79.432C371.244 79.9013 371.255 80.3173 371.255 80.68C371.255 81.0427 371.244 81.4693 371.223 81.96C371.18 83.2187 370.978 84.3173 370.615 85.256C370.252 86.1733 369.762 86.9307 369.143 87.528C368.546 88.1253 367.842 88.5733 367.031 88.872C366.242 89.1707 365.378 89.32 364.439 89.32C363.543 89.32 362.732 89.1707 362.007 88.872C361.282 88.5733 360.674 88.0827 360.183 87.4V94.216C360.183 94.4507 360.098 94.6533 359.927 94.824C359.756 94.9947 359.554 95.08 359.319 95.08H353.399ZM361.783 83.592C362.188 83.592 362.498 83.5173 362.711 83.368C362.924 83.2187 363.074 83.0053 363.159 82.728C363.266 82.4507 363.34 82.12 363.383 81.736C363.447 81.032 363.447 80.328 363.383 79.624C363.34 79.24 363.266 78.9093 363.159 78.632C363.074 78.3547 362.924 78.1413 362.711 77.992C362.498 77.8427 362.188 77.768 361.783 77.768C361.399 77.768 361.09 77.8427 360.855 77.992C360.62 78.1413 360.45 78.3547 360.343 78.632C360.258 78.9093 360.204 79.24 360.183 79.624C360.162 80.0933 360.151 80.488 360.151 80.808C360.151 81.1067 360.162 81.5013 360.183 81.992C360.204 82.3333 360.268 82.6213 360.375 82.856C360.503 83.0907 360.674 83.272 360.887 83.4C361.122 83.528 361.42 83.592 361.783 83.592ZM373.915 89C373.681 89 373.478 88.9147 373.307 88.744C373.137 88.5733 373.051 88.3707 373.051 88.136V73.224C373.051 72.9893 373.137 72.7867 373.307 72.616C373.478 72.4453 373.681 72.36 373.915 72.36H379.643C379.878 72.36 380.081 72.4453 380.251 72.616C380.422 72.7867 380.507 72.9893 380.507 73.224V83.304L378.555 82.728L384.955 72.904C385.062 72.7333 385.19 72.6053 385.339 72.52C385.51 72.4133 385.691 72.36 385.883 72.36H390.971C391.206 72.36 391.409 72.4453 391.579 72.616C391.75 72.7867 391.835 72.9893 391.835 73.224V88.136C391.835 88.3707 391.75 88.5733 391.579 88.744C391.409 88.9147 391.206 89 390.971 89H385.243C385.009 89 384.806 88.9147 384.635 88.744C384.465 88.5733 384.379 88.3707 384.379 88.136V78.056L386.331 78.632L379.931 88.456C379.825 88.6267 379.686 88.7653 379.515 88.872C379.366 88.9573 379.195 89 379.003 89H373.915ZM398.942 89.32C397.726 89.32 396.649 89.096 395.71 88.648C394.771 88.2 394.035 87.592 393.502 86.824C392.99 86.056 392.734 85.192 392.734 84.232C392.734 82.6747 393.363 81.4587 394.622 80.584C395.902 79.688 397.609 79.0587 399.742 78.696L403.134 78.152V78.12C403.134 77.5653 403.081 77.16 402.974 76.904C402.889 76.648 402.622 76.52 402.174 76.52C401.875 76.52 401.63 76.584 401.438 76.712C401.267 76.8187 401.075 76.9787 400.862 77.192C400.627 77.4267 400.329 77.544 399.966 77.544H394.526C394.313 77.544 394.131 77.48 393.982 77.352C393.854 77.224 393.801 77.0533 393.822 76.84C393.843 76.4347 394.014 75.9653 394.334 75.432C394.654 74.8773 395.145 74.344 395.806 73.832C396.489 73.32 397.353 72.8933 398.398 72.552C399.465 72.2107 400.745 72.04 402.238 72.04C403.689 72.04 404.947 72.2 406.014 72.52C407.102 72.8187 407.998 73.2667 408.702 73.864C409.406 74.44 409.929 75.1653 410.27 76.04C410.633 76.8933 410.814 77.864 410.814 78.952V88.136C410.814 88.3707 410.729 88.5733 410.558 88.744C410.387 88.9147 410.185 89 409.95 89H404.35C404.115 89 403.913 88.9147 403.742 88.744C403.571 88.5733 403.486 88.3707 403.486 88.136V87.24C403.187 87.6667 402.803 88.04 402.334 88.36C401.886 88.6587 401.374 88.8933 400.798 89.064C400.222 89.2347 399.603 89.32 398.942 89.32ZM401.15 84.584C401.577 84.584 401.939 84.4987 402.238 84.328C402.558 84.1573 402.803 83.8907 402.974 83.528C403.145 83.144 403.23 82.6747 403.23 82.12V82.088L401.342 82.504C400.787 82.632 400.414 82.8027 400.222 83.016C400.03 83.2293 399.934 83.4533 399.934 83.688C399.934 83.8373 399.977 83.9867 400.062 84.136C400.169 84.264 400.307 84.3707 400.478 84.456C400.67 84.5413 400.894 84.584 401.15 84.584ZM413.76 89C413.526 89 413.323 88.9147 413.152 88.744C412.982 88.5733 412.896 88.3707 412.896 88.136V73.224C412.896 72.9893 412.982 72.7867 413.152 72.616C413.323 72.4453 413.526 72.36 413.76 72.36H419.488C419.723 72.36 419.926 72.4453 420.096 72.616C420.267 72.7867 420.352 72.9893 420.352 73.224V77.8H423.552V73.224C423.552 72.9893 423.638 72.7867 423.808 72.616C423.979 72.4453 424.182 72.36 424.416 72.36H430.144C430.379 72.36 430.582 72.4453 430.752 72.616C430.923 72.7867 431.008 72.9893 431.008 73.224V88.136C431.008 88.3707 430.923 88.5733 430.752 88.744C430.582 88.9147 430.379 89 430.144 89H424.416C424.182 89 423.979 88.9147 423.808 88.744C423.638 88.5733 423.552 88.3707 423.552 88.136V83.4H420.352V88.136C420.352 88.3707 420.267 88.5733 420.096 88.744C419.926 88.9147 419.723 89 419.488 89H413.76ZM438.499 89C438.264 89 438.062 88.9147 437.891 88.744C437.72 88.5733 437.635 88.3707 437.635 88.136V77.96H433.379C433.144 77.96 432.942 77.8747 432.771 77.704C432.6 77.5333 432.515 77.3307 432.515 77.096V73.224C432.515 72.9893 432.6 72.7867 432.771 72.616C432.942 72.4453 433.144 72.36 433.379 72.36H449.219C449.454 72.36 449.656 72.4453 449.827 72.616C449.998 72.7867 450.083 72.9893 450.083 73.224V77.096C450.083 77.3307 449.998 77.5333 449.827 77.704C449.656 77.8747 449.454 77.96 449.219 77.96H444.963V88.136C444.963 88.3707 444.878 88.5733 444.707 88.744C444.536 88.9147 444.334 89 444.099 89H438.499ZM460.198 89.32C458.236 89.32 456.582 89.0533 455.238 88.52C453.894 87.9867 452.86 87.1867 452.134 86.12C451.43 85.0533 451.025 83.7413 450.918 82.184C450.897 81.6933 450.886 81.192 450.886 80.68C450.886 80.1467 450.897 79.6453 450.918 79.176C451.025 77.5973 451.462 76.2853 452.23 75.24C452.998 74.1733 454.054 73.3733 455.398 72.84C456.742 72.3067 458.342 72.04 460.198 72.04C462.054 72.04 463.654 72.3067 464.998 72.84C466.342 73.3733 467.398 74.1733 468.166 75.24C468.934 76.2853 469.372 77.5973 469.478 79.176C469.521 79.6453 469.542 80.1467 469.542 80.68C469.542 81.192 469.521 81.6933 469.478 82.184C469.372 83.7413 468.956 85.0533 468.23 86.12C467.526 87.1867 466.502 87.9867 465.158 88.52C463.814 89.0533 462.161 89.32 460.198 89.32ZM460.198 84.2C460.817 84.2 461.201 84.0293 461.35 83.688C461.5 83.3253 461.596 82.7707 461.638 82.024C461.66 81.704 461.67 81.256 461.67 80.68C461.67 80.104 461.66 79.656 461.638 79.336C461.596 78.632 461.5 78.0987 461.35 77.736C461.201 77.352 460.817 77.16 460.198 77.16C459.601 77.16 459.217 77.352 459.046 77.736C458.897 78.0987 458.801 78.632 458.758 79.336C458.737 79.656 458.726 80.104 458.726 80.68C458.726 81.256 458.737 81.704 458.758 82.024C458.801 82.7707 458.897 83.3253 459.046 83.688C459.217 84.0293 459.601 84.2 460.198 84.2ZM472.121 89C471.887 89 471.684 88.9147 471.513 88.744C471.343 88.5733 471.257 88.3707 471.257 88.136V73.224C471.257 72.9893 471.343 72.7867 471.513 72.616C471.684 72.4453 471.887 72.36 472.121 72.36H480.345C483.332 72.36 485.465 72.808 486.745 73.704C488.047 74.6 488.697 75.816 488.697 77.352C488.697 78.0347 488.559 78.632 488.281 79.144C488.004 79.656 487.652 80.0933 487.225 80.456C487.844 80.8187 488.345 81.2773 488.729 81.832C489.135 82.3653 489.337 83.0587 489.337 83.912C489.337 85.448 488.687 86.6853 487.385 87.624C486.105 88.5413 483.972 89 480.985 89H472.121ZM478.425 84.616H480.665C481.028 84.616 481.305 84.5627 481.497 84.456C481.711 84.3493 481.817 84.136 481.817 83.816C481.817 83.496 481.711 83.2827 481.497 83.176C481.305 83.048 481.028 82.984 480.665 82.984H478.425V84.616ZM478.425 78.376H480.665C481.049 78.376 481.337 78.3227 481.529 78.216C481.721 78.1093 481.817 77.896 481.817 77.576C481.817 77.256 481.711 77.0427 481.497 76.936C481.305 76.808 481.028 76.744 480.665 76.744H478.425V78.376ZM497.373 95.08C497.138 95.08 496.935 94.9947 496.765 94.824C496.594 94.6533 496.509 94.4507 496.509 94.216V73.224C496.509 72.9893 496.594 72.7867 496.765 72.616C496.935 72.4453 497.138 72.36 497.373 72.36H502.813C503.047 72.36 503.25 72.4453 503.421 72.616C503.591 72.7867 503.677 72.9893 503.677 73.224V74.184C504.167 73.5653 504.797 73.0533 505.565 72.648C506.354 72.2427 507.303 72.04 508.413 72.04C509.351 72.04 510.215 72.1787 511.005 72.456C511.794 72.712 512.487 73.1387 513.085 73.736C513.703 74.312 514.194 75.0693 514.557 76.008C514.919 76.9467 515.133 78.088 515.197 79.432C515.218 79.9013 515.229 80.3173 515.229 80.68C515.229 81.0427 515.218 81.4693 515.197 81.96C515.154 83.2187 514.951 84.3173 514.589 85.256C514.226 86.1733 513.735 86.9307 513.117 87.528C512.519 88.1253 511.815 88.5733 511.005 88.872C510.215 89.1707 509.351 89.32 508.413 89.32C507.517 89.32 506.706 89.1707 505.981 88.872C505.255 88.5733 504.647 88.0827 504.157 87.4V94.216C504.157 94.4507 504.071 94.6533 503.901 94.824C503.73 94.9947 503.527 95.08 503.293 95.08H497.373ZM505.757 83.592C506.162 83.592 506.471 83.5173 506.685 83.368C506.898 83.2187 507.047 83.0053 507.133 82.728C507.239 82.4507 507.314 82.12 507.357 81.736C507.421 81.032 507.421 80.328 507.357 79.624C507.314 79.24 507.239 78.9093 507.133 78.632C507.047 78.3547 506.898 78.1413 506.685 77.992C506.471 77.8427 506.162 77.768 505.757 77.768C505.373 77.768 505.063 77.8427 504.829 77.992C504.594 78.1413 504.423 78.3547 504.317 78.632C504.231 78.9093 504.178 79.24 504.157 79.624C504.135 80.0933 504.125 80.488 504.125 80.808C504.125 81.1067 504.135 81.5013 504.157 81.992C504.178 82.3333 504.242 82.6213 504.349 82.856C504.477 83.0907 504.647 83.272 504.861 83.4C505.095 83.528 505.394 83.592 505.757 83.592ZM525.633 89.32C522.838 89.32 520.609 88.6373 518.945 87.272C517.302 85.8853 516.481 83.6987 516.481 80.712C516.481 80.6693 516.481 80.6267 516.481 80.584C516.481 80.5413 516.481 80.5093 516.481 80.488C516.524 78.6533 516.918 77.1067 517.665 75.848C518.433 74.5893 519.489 73.64 520.833 73C522.198 72.36 523.788 72.04 525.601 72.04C527.692 72.04 529.409 72.4453 530.753 73.256C532.097 74.0453 533.089 75.1013 533.729 76.424C534.39 77.7253 534.721 79.1653 534.721 80.744V81.704C534.721 81.9387 534.636 82.1413 534.465 82.312C534.294 82.4827 534.092 82.568 533.857 82.568H524.321C524.321 82.5893 524.321 82.6107 524.321 82.632C524.321 82.6533 524.321 82.6853 524.321 82.728C524.321 83.1547 524.353 83.5173 524.417 83.816C524.502 84.0933 524.641 84.3067 524.833 84.456C525.025 84.6053 525.27 84.68 525.569 84.68C525.697 84.68 525.804 84.6587 525.889 84.616C525.996 84.5733 526.092 84.5093 526.177 84.424C526.284 84.3173 526.39 84.2107 526.497 84.104C526.689 83.912 526.849 83.7947 526.977 83.752C527.105 83.688 527.297 83.656 527.553 83.656H533.601C533.814 83.656 533.985 83.72 534.113 83.848C534.262 83.976 534.326 84.1467 534.305 84.36C534.284 84.7653 534.092 85.256 533.729 85.832C533.388 86.3867 532.865 86.9307 532.161 87.464C531.457 87.9973 530.561 88.4453 529.473 88.808C528.385 89.1493 527.105 89.32 525.633 89.32ZM524.321 78.568H526.881V78.536C526.881 78.0667 526.828 77.6827 526.721 77.384C526.636 77.0853 526.497 76.872 526.305 76.744C526.113 76.5947 525.878 76.52 525.601 76.52C525.324 76.52 525.089 76.5947 524.897 76.744C524.705 76.872 524.556 77.0853 524.449 77.384C524.364 77.6827 524.321 78.0667 524.321 78.536V78.568ZM537.186 89C536.952 89 536.749 88.9147 536.578 88.744C536.408 88.5733 536.322 88.3707 536.322 88.136V73.224C536.322 72.9893 536.408 72.7867 536.578 72.616C536.749 72.4453 536.952 72.36 537.186 72.36H542.594C542.829 72.36 543.032 72.4453 543.202 72.616C543.373 72.7867 543.458 72.9893 543.458 73.224V83.4H545.314V73.224C545.314 72.9893 545.4 72.7867 545.57 72.616C545.741 72.4453 545.944 72.36 546.178 72.36H551.106C551.341 72.36 551.544 72.4453 551.714 72.616C551.885 72.7867 551.97 72.9893 551.97 73.224V83.4H553.826V73.224C553.826 72.9893 553.912 72.7867 554.082 72.616C554.253 72.4453 554.456 72.36 554.69 72.36H560.098C560.333 72.36 560.536 72.4453 560.706 72.616C560.877 72.7867 560.962 72.9893 560.962 73.224V88.136C560.962 88.3707 560.877 88.5733 560.706 88.744C560.536 88.9147 560.333 89 560.098 89H537.186ZM572.04 89.32C569.246 89.32 567.016 88.6373 565.352 87.272C563.71 85.8853 562.888 83.6987 562.888 80.712C562.888 80.6693 562.888 80.6267 562.888 80.584C562.888 80.5413 562.888 80.5093 562.888 80.488C562.931 78.6533 563.326 77.1067 564.072 75.848C564.84 74.5893 565.896 73.64 567.24 73C568.606 72.36 570.195 72.04 572.008 72.04C574.099 72.04 575.816 72.4453 577.16 73.256C578.504 74.0453 579.496 75.1013 580.136 76.424C580.798 77.7253 581.128 79.1653 581.128 80.744V81.704C581.128 81.9387 581.043 82.1413 580.872 82.312C580.702 82.4827 580.499 82.568 580.264 82.568H570.728C570.728 82.5893 570.728 82.6107 570.728 82.632C570.728 82.6533 570.728 82.6853 570.728 82.728C570.728 83.1547 570.76 83.5173 570.824 83.816C570.91 84.0933 571.048 84.3067 571.24 84.456C571.432 84.6053 571.678 84.68 571.976 84.68C572.104 84.68 572.211 84.6587 572.296 84.616C572.403 84.5733 572.499 84.5093 572.584 84.424C572.691 84.3173 572.798 84.2107 572.904 84.104C573.096 83.912 573.256 83.7947 573.384 83.752C573.512 83.688 573.704 83.656 573.96 83.656H580.008C580.222 83.656 580.392 83.72 580.52 83.848C580.67 83.976 580.734 84.1467 580.712 84.36C580.691 84.7653 580.499 85.256 580.136 85.832C579.795 86.3867 579.272 86.9307 578.568 87.464C577.864 87.9973 576.968 88.4453 575.88 88.808C574.792 89.1493 573.512 89.32 572.04 89.32ZM570.728 78.568H573.288V78.536C573.288 78.0667 573.235 77.6827 573.128 77.384C573.043 77.0853 572.904 76.872 572.712 76.744C572.52 76.5947 572.286 76.52 572.008 76.52C571.731 76.52 571.496 76.5947 571.304 76.744C571.112 76.872 570.963 77.0853 570.856 77.384C570.771 77.6827 570.728 78.0667 570.728 78.536V78.568ZM583.594 89C583.359 89 583.157 88.9147 582.986 88.744C582.815 88.5733 582.73 88.3707 582.73 88.136V73.224C582.73 72.9893 582.815 72.7867 582.986 72.616C583.157 72.4453 583.359 72.36 583.594 72.36H589.322C589.557 72.36 589.759 72.4453 589.93 72.616C590.101 72.7867 590.186 72.9893 590.186 73.224V77.8H593.386V73.224C593.386 72.9893 593.471 72.7867 593.642 72.616C593.813 72.4453 594.015 72.36 594.25 72.36H599.978C600.213 72.36 600.415 72.4453 600.586 72.616C600.757 72.7867 600.842 72.9893 600.842 73.224V88.136C600.842 88.3707 600.757 88.5733 600.586 88.744C600.415 88.9147 600.213 89 599.978 89H594.25C594.015 89 593.813 88.9147 593.642 88.744C593.471 88.5733 593.386 88.3707 593.386 88.136V83.4H590.186V88.136C590.186 88.3707 590.101 88.5733 589.93 88.744C589.759 88.9147 589.557 89 589.322 89H583.594ZM604.173 89C603.938 89 603.735 88.9147 603.565 88.744C603.394 88.5733 603.309 88.3707 603.309 88.136V73.224C603.309 72.9893 603.394 72.7867 603.565 72.616C603.735 72.4453 603.938 72.36 604.173 72.36H609.901C610.135 72.36 610.338 72.4453 610.509 72.616C610.679 72.7867 610.765 72.9893 610.765 73.224V83.304L608.813 82.728L615.213 72.904C615.319 72.7333 615.447 72.6053 615.597 72.52C615.767 72.4133 615.949 72.36 616.141 72.36H621.229C621.463 72.36 621.666 72.4453 621.837 72.616C622.007 72.7867 622.093 72.9893 622.093 73.224V88.136C622.093 88.3707 622.007 88.5733 621.837 88.744C621.666 88.9147 621.463 89 621.229 89H615.501C615.266 89 615.063 88.9147 614.893 88.744C614.722 88.5733 614.637 88.3707 614.637 88.136V78.056L616.589 78.632L610.189 88.456C610.082 88.6267 609.943 88.7653 609.773 88.872C609.623 88.9573 609.453 89 609.261 89H604.173ZM634.959 89C634.725 89 634.522 88.9147 634.351 88.744C634.181 88.5733 634.095 88.3707 634.095 88.136V84.168H632.271V84.008C629.775 84.008 627.834 83.5173 626.447 82.536C625.061 81.5333 624.367 80.104 624.367 78.248C624.367 76.392 625.029 74.952 626.351 73.928C627.674 72.8827 629.402 72.36 631.535 72.36H640.879C641.114 72.36 641.317 72.4453 641.487 72.616C641.658 72.7867 641.743 72.9893 641.743 73.224V88.136C641.743 88.3707 641.658 88.5733 641.487 88.744C641.317 88.9147 641.114 89 640.879 89H634.959ZM624.431 89C624.218 89 624.047 88.936 623.919 88.808C623.791 88.68 623.727 88.5307 623.727 88.36C623.727 88.3173 623.738 88.264 623.759 88.2C623.781 88.136 623.802 88.072 623.823 88.008L626.927 82.408L632.975 83.688L630.895 88.52C630.831 88.6693 630.735 88.7867 630.607 88.872C630.501 88.9573 630.362 89 630.191 89H624.431ZM632.175 79.4H634.255V77.128H632.175C631.749 77.128 631.429 77.224 631.215 77.416C631.002 77.608 630.895 77.8853 630.895 78.248C630.895 78.6107 631.002 78.8987 631.215 79.112C631.429 79.304 631.749 79.4 632.175 79.4ZM650.378 89C650.143 89 649.94 88.9147 649.77 88.744C649.599 88.5733 649.514 88.3707 649.514 88.136V73.224C649.514 72.9893 649.599 72.7867 649.77 72.616C649.94 72.4453 650.143 72.36 650.378 72.36H666.762C666.996 72.36 667.199 72.4453 667.37 72.616C667.54 72.7867 667.626 72.9893 667.626 73.224V88.136C667.626 88.3707 667.54 88.5733 667.37 88.744C667.199 88.9147 666.996 89 666.762 89H661.034C660.799 89 660.596 88.9147 660.426 88.744C660.255 88.5733 660.17 88.3707 660.17 88.136V77.96H656.97V88.136C656.97 88.3707 656.884 88.5733 656.714 88.744C656.543 88.9147 656.34 89 656.106 89H650.378ZM670.956 95.08C670.722 95.08 670.519 94.9947 670.348 94.824C670.178 94.6533 670.092 94.4507 670.092 94.216V73.224C670.092 72.9893 670.178 72.7867 670.348 72.616C670.519 72.4453 670.722 72.36 670.956 72.36H676.396C676.631 72.36 676.834 72.4453 677.004 72.616C677.175 72.7867 677.26 72.9893 677.26 73.224V74.184C677.751 73.5653 678.38 73.0533 679.148 72.648C679.938 72.2427 680.887 72.04 681.996 72.04C682.935 72.04 683.799 72.1787 684.588 72.456C685.378 72.712 686.071 73.1387 686.668 73.736C687.287 74.312 687.778 75.0693 688.14 76.008C688.503 76.9467 688.716 78.088 688.78 79.432C688.802 79.9013 688.812 80.3173 688.812 80.68C688.812 81.0427 688.802 81.4693 688.78 81.96C688.738 83.2187 688.535 84.3173 688.172 85.256C687.81 86.1733 687.319 86.9307 686.7 87.528C686.103 88.1253 685.399 88.5733 684.588 88.872C683.799 89.1707 682.935 89.32 681.996 89.32C681.1 89.32 680.29 89.1707 679.564 88.872C678.839 88.5733 678.231 88.0827 677.74 87.4V94.216C677.74 94.4507 677.655 94.6533 677.484 94.824C677.314 94.9947 677.111 95.08 676.876 95.08H670.956ZM679.34 83.592C679.746 83.592 680.055 83.5173 680.268 83.368C680.482 83.2187 680.631 83.0053 680.716 82.728C680.823 82.4507 680.898 82.12 680.94 81.736C681.004 81.032 681.004 80.328 680.94 79.624C680.898 79.24 680.823 78.9093 680.716 78.632C680.631 78.3547 680.482 78.1413 680.268 77.992C680.055 77.8427 679.746 77.768 679.34 77.768C678.956 77.768 678.647 77.8427 678.412 77.992C678.178 78.1413 678.007 78.3547 677.9 78.632C677.815 78.9093 677.762 79.24 677.74 79.624C677.719 80.0933 677.708 80.488 677.708 80.808C677.708 81.1067 677.719 81.5013 677.74 81.992C677.762 82.3333 677.826 82.6213 677.932 82.856C678.06 83.0907 678.231 83.272 678.444 83.4C678.679 83.528 678.978 83.592 679.34 83.592ZM699.441 89.32C697.478 89.32 695.825 89.0533 694.481 88.52C693.137 87.9867 692.102 87.1867 691.377 86.12C690.673 85.0533 690.267 83.7413 690.161 82.184C690.139 81.6933 690.129 81.192 690.129 80.68C690.129 80.1467 690.139 79.6453 690.161 79.176C690.267 77.5973 690.705 76.2853 691.473 75.24C692.241 74.1733 693.297 73.3733 694.641 72.84C695.985 72.3067 697.585 72.04 699.441 72.04C701.297 72.04 702.897 72.3067 704.241 72.84C705.585 73.3733 706.641 74.1733 707.409 75.24C708.177 76.2853 708.614 77.5973 708.721 79.176C708.763 79.6453 708.785 80.1467 708.785 80.68C708.785 81.192 708.763 81.6933 708.721 82.184C708.614 83.7413 708.198 85.0533 707.473 86.12C706.769 87.1867 705.745 87.9867 704.401 88.52C703.057 89.0533 701.403 89.32 699.441 89.32ZM699.441 84.2C700.059 84.2 700.443 84.0293 700.593 83.688C700.742 83.3253 700.838 82.7707 700.881 82.024C700.902 81.704 700.913 81.256 700.913 80.68C700.913 80.104 700.902 79.656 700.881 79.336C700.838 78.632 700.742 78.0987 700.593 77.736C700.443 77.352 700.059 77.16 699.441 77.16C698.843 77.16 698.459 77.352 698.289 77.736C698.139 78.0987 698.043 78.632 698.001 79.336C697.979 79.656 697.969 80.104 697.969 80.68C697.969 81.256 697.979 81.704 698.001 82.024C698.043 82.7707 698.139 83.3253 698.289 83.688C698.459 84.0293 698.843 84.2 699.441 84.2ZM719.332 89.32C717.177 89.32 715.439 89.0213 714.116 88.424C712.793 87.8053 711.812 86.8133 711.172 85.448C710.553 84.0613 710.18 82.216 710.052 79.912C710.031 79.2933 710.02 78.6427 710.02 77.96C710.02 77.256 710.031 76.6053 710.052 76.008C710.137 74.344 710.361 72.9253 710.724 71.752C711.087 70.5787 711.62 69.5867 712.324 68.776C713.049 67.944 713.977 67.24 715.108 66.664C716.26 66.088 717.647 65.5867 719.268 65.16C720.911 64.712 722.831 64.264 725.028 63.816C725.263 63.7733 725.487 63.816 725.7 63.944C725.913 64.072 726.031 64.2747 726.052 64.552L726.852 68.872C726.895 69.1493 726.852 69.384 726.724 69.576C726.596 69.768 726.415 69.8853 726.18 69.928C724.495 70.184 723.097 70.4293 721.988 70.664C720.9 70.8987 720.025 71.176 719.364 71.496C718.703 71.7947 718.212 72.1893 717.892 72.68C717.593 73.1493 717.391 73.7467 717.284 74.472C717.199 75.1973 717.156 76.104 717.156 77.192L716.292 75.752C716.527 75.432 716.868 75.1333 717.316 74.856C717.764 74.5787 718.276 74.3547 718.852 74.184C719.449 74.0133 720.079 73.928 720.74 73.928C722.404 73.928 723.801 74.1733 724.932 74.664C726.063 75.1333 726.927 75.8373 727.524 76.776C728.143 77.7147 728.505 78.888 728.612 80.296C728.676 81.1707 728.676 82.056 728.612 82.952C728.505 84.3387 728.089 85.512 727.364 86.472C726.66 87.4107 725.636 88.1253 724.292 88.616C722.948 89.0853 721.295 89.32 719.332 89.32ZM719.332 84.776C719.951 84.776 720.335 84.616 720.484 84.296C720.655 83.976 720.751 83.4853 720.772 82.824C720.793 82.5253 720.804 82.12 720.804 81.608C720.804 81.096 720.793 80.7013 720.772 80.424C720.751 79.8053 720.665 79.336 720.516 79.016C720.367 78.6747 720.015 78.504 719.46 78.504C718.799 78.504 718.383 78.6747 718.212 79.016C718.041 79.336 717.935 79.8053 717.892 80.424C717.871 80.7013 717.86 81.096 717.86 81.608C717.86 82.12 717.871 82.5253 717.892 82.824C717.935 83.4853 718.031 83.976 718.18 84.296C718.351 84.616 718.735 84.776 719.332 84.776ZM730.615 89C730.381 89 730.178 88.9147 730.007 88.744C729.837 88.5733 729.751 88.3707 729.751 88.136V83.944C729.751 83.4747 730.039 83.1867 730.615 83.08C731.191 82.9733 731.586 82.7067 731.799 82.28C732.013 81.8533 732.13 81.288 732.151 80.584C732.194 79.8587 732.215 79.0267 732.215 78.088V73.224C732.215 72.9893 732.301 72.7867 732.471 72.616C732.642 72.4453 732.845 72.36 733.079 72.36H747.671C747.906 72.36 748.109 72.4453 748.279 72.616C748.45 72.7867 748.535 72.9893 748.535 73.224V88.136C748.535 88.3707 748.45 88.5733 748.279 88.744C748.109 88.9147 747.906 89 747.671 89H741.943C741.709 89 741.506 88.9147 741.335 88.744C741.165 88.5733 741.079 88.3707 741.079 88.136V77.96H739.255V78.888C739.255 80.8933 739.149 82.5573 738.935 83.88C738.722 85.2027 738.306 86.2373 737.687 86.984C737.09 87.7093 736.215 88.232 735.063 88.552C733.933 88.8507 732.45 89 730.615 89ZM759.609 89.32C756.815 89.32 754.585 88.6373 752.921 87.272C751.279 85.8853 750.457 83.6987 750.457 80.712C750.457 80.6693 750.457 80.6267 750.457 80.584C750.457 80.5413 750.457 80.5093 750.457 80.488C750.5 78.6533 750.895 77.1067 751.641 75.848C752.409 74.5893 753.465 73.64 754.809 73C756.175 72.36 757.764 72.04 759.577 72.04C761.668 72.04 763.385 72.4453 764.729 73.256C766.073 74.0453 767.065 75.1013 767.705 76.424C768.367 77.7253 768.697 79.1653 768.697 80.744V81.704C768.697 81.9387 768.612 82.1413 768.441 82.312C768.271 82.4827 768.068 82.568 767.833 82.568H758.297C758.297 82.5893 758.297 82.6107 758.297 82.632C758.297 82.6533 758.297 82.6853 758.297 82.728C758.297 83.1547 758.329 83.5173 758.393 83.816C758.479 84.0933 758.617 84.3067 758.809 84.456C759.001 84.6053 759.247 84.68 759.545 84.68C759.673 84.68 759.78 84.6587 759.865 84.616C759.972 84.5733 760.068 84.5093 760.153 84.424C760.26 84.3173 760.367 84.2107 760.473 84.104C760.665 83.912 760.825 83.7947 760.953 83.752C761.081 83.688 761.273 83.656 761.529 83.656H767.577C767.791 83.656 767.961 83.72 768.089 83.848C768.239 83.976 768.303 84.1467 768.281 84.36C768.26 84.7653 768.068 85.256 767.705 85.832C767.364 86.3867 766.841 86.9307 766.137 87.464C765.433 87.9973 764.537 88.4453 763.449 88.808C762.361 89.1493 761.081 89.32 759.609 89.32ZM758.297 78.568H760.857V78.536C760.857 78.0667 760.804 77.6827 760.697 77.384C760.612 77.0853 760.473 76.872 760.281 76.744C760.089 76.5947 759.855 76.52 759.577 76.52C759.3 76.52 759.065 76.5947 758.873 76.744C758.681 76.872 758.532 77.0853 758.425 77.384C758.34 77.6827 758.297 78.0667 758.297 78.536V78.568ZM770.939 89C770.768 89 770.619 88.936 770.491 88.808C770.363 88.68 770.299 88.5307 770.299 88.36V73C770.299 72.8293 770.363 72.68 770.491 72.552C770.619 72.424 770.768 72.36 770.939 72.36H776.411C776.837 72.36 777.179 72.5733 777.435 73L780.891 78.696L784.347 73C784.603 72.5733 784.944 72.36 785.371 72.36H790.843C791.035 72.36 791.195 72.424 791.323 72.552C791.451 72.68 791.515 72.8293 791.515 73V88.36C791.515 88.5307 791.451 88.68 791.323 88.808C791.195 88.936 791.035 89 790.843 89H784.827C784.635 89 784.475 88.936 784.347 88.808C784.24 88.68 784.187 88.5307 784.187 88.36V79.912L786.107 80.456L782.587 86.056C782.48 86.248 782.363 86.3973 782.235 86.504C782.107 86.6107 781.936 86.664 781.723 86.664H780.059C779.888 86.664 779.728 86.6213 779.579 86.536C779.429 86.4293 779.291 86.2693 779.163 86.056L775.707 80.424L777.595 79.912V88.36C777.595 88.5307 777.531 88.68 777.403 88.808C777.275 88.936 777.125 89 776.955 89H770.939ZM794.835 89C794.601 89 794.398 88.9147 794.227 88.744C794.057 88.5733 793.971 88.3707 793.971 88.136V73.224C793.971 72.9893 794.057 72.7867 794.227 72.616C794.398 72.4453 794.601 72.36 794.835 72.36H800.595C800.83 72.36 801.033 72.4453 801.203 72.616C801.374 72.7867 801.459 72.9893 801.459 73.224V77.192H804.019C806.153 77.192 807.881 77.7147 809.203 78.76C810.526 79.8053 811.187 81.256 811.187 83.112C811.187 84.968 810.526 86.4187 809.203 87.464C807.881 88.488 806.153 89 804.019 89H794.835ZM801.299 84.232H803.379C803.806 84.232 804.126 84.136 804.339 83.944C804.553 83.752 804.659 83.4747 804.659 83.112C804.659 82.7493 804.553 82.472 804.339 82.28C804.126 82.0667 803.806 81.96 803.379 81.96H801.299V84.232ZM813.747 89C813.513 89 813.31 88.9147 813.139 88.744C812.969 88.5733 812.883 88.3707 812.883 88.136V73.224C812.883 72.9893 812.969 72.7867 813.139 72.616C813.31 72.4453 813.513 72.36 813.747 72.36H819.475C819.71 72.36 819.913 72.4453 820.083 72.616C820.254 72.7867 820.339 72.9893 820.339 73.224V88.136C820.339 88.3707 820.254 88.5733 820.083 88.744C819.913 88.9147 819.71 89 819.475 89H813.747Z" fill="white"/>
</svg>
