<svg width="760" height="119" viewBox="0 0 760 119" fill="none" xmlns="http://www.w3.org/2000/svg">
<path d="M95.9668 68.0301L33.123 70.2369C15.0208 70.8725 0 56.37 0 38.2566V32.3383C0 14.5336 14.5329 0.152845 32.3366 0.340089L425.857 4.47881C436.9 4.59496 443.091 17.2496 436.404 26.039C429.677 34.8803 435.982 47.6 447.092 47.6H728C745.673 47.6 760 61.9269 760 79.6V86.7767C760 104.537 745.537 118.899 727.777 118.776L112.53 114.497C100.232 114.412 94.8877 98.9031 104.522 91.2598C114.373 83.4448 108.533 67.5889 95.9668 68.0301Z" fill="#040F16"/>
<path d="M74.6803 40.3878C74.4456 40.388 74.2428 40.3029 74.0719 40.1324C73.901 39.9619 73.8154 39.7593 73.8151 39.5246L73.8082 34.4046C73.8079 34.17 73.893 33.9672 74.0634 33.7964C74.2339 33.6255 74.4364 33.54 74.6711 33.5398L75.9831 33.5385C76.4524 33.538 76.847 33.4843 77.1669 33.3773C77.508 33.249 77.7958 33.0674 78.0301 32.8325C78.2858 32.5763 78.4987 32.2454 78.6688 31.8399L84.3792 18.7463C84.4856 18.4902 84.624 18.2981 84.7945 18.1699C84.9863 18.0417 85.2102 17.9775 85.4662 17.9772L91.7702 17.9711C91.9835 17.9709 92.1543 18.0454 92.2825 18.1946C92.432 18.3224 92.5069 18.4717 92.5071 18.6424C92.5072 18.749 92.4861 18.877 92.4436 19.0264C92.4011 19.1545 92.3586 19.2718 92.3161 19.3785L86.1275 33.8486C85.5746 35.1291 85.0213 36.1963 84.4678 37.0502C83.9356 37.8827 83.3285 38.5447 82.6465 39.036C81.9858 39.5273 81.1756 39.8801 80.2159 40.0944C79.2775 40.2873 78.1256 40.3844 76.7603 40.3857L74.6803 40.3878ZM78.3522 34.3682L70.2355 18.9841C70.1928 18.8988 70.1713 18.8242 70.1712 18.7602C70.171 18.5682 70.2561 18.3974 70.4265 18.2479C70.597 18.0771 70.7889 17.9916 71.0022 17.9914L77.6902 17.9848C77.9675 17.9846 78.181 18.059 78.3305 18.2082C78.48 18.3361 78.6083 18.5173 78.7152 18.7518L82.3738 26.6523L78.3522 34.3682ZM93.9178 40.369C93.7471 40.3692 93.5977 40.3053 93.4695 40.1774C93.3413 40.0496 93.2771 39.9003 93.2769 39.7296L93.2563 24.3696C93.2561 24.199 93.3199 24.0496 93.4477 23.9214C93.5755 23.7933 93.7248 23.7292 93.8954 23.729L99.3674 23.7237C99.7941 23.7232 100.136 23.9362 100.392 24.3627L103.856 30.0553L107.304 24.3559C107.56 23.929 107.901 23.7153 108.327 23.7149L113.799 23.7096C113.991 23.7094 114.152 23.7732 114.28 23.9011C114.408 24.029 114.472 24.1782 114.472 24.3489L114.493 39.7089C114.493 39.8796 114.429 40.029 114.302 40.1571C114.174 40.2852 114.014 40.3494 113.822 40.3496L107.806 40.3554C107.614 40.3556 107.454 40.2918 107.326 40.1639C107.219 40.036 107.165 39.8867 107.165 39.7161L107.154 31.2681L109.074 31.8102L105.562 37.4136C105.455 37.6057 105.338 37.7552 105.21 37.862C105.083 37.9688 104.912 38.0223 104.699 38.0225L103.035 38.0241C102.864 38.0243 102.704 37.9817 102.554 37.8966C102.405 37.79 102.266 37.6302 102.138 37.417L98.6743 31.7883L100.562 31.2745L100.573 39.7225C100.573 39.8932 100.509 40.0426 100.382 40.1707C100.254 40.2988 100.104 40.363 99.9338 40.3631L93.9178 40.369ZM125.559 40.6581C122.764 40.6608 120.534 39.9803 118.868 38.6166C117.223 37.2316 116.399 35.0457 116.395 32.059C116.395 32.0164 116.395 31.9737 116.395 31.931C116.395 31.8884 116.395 31.8564 116.395 31.835C116.435 30.0003 116.828 28.4533 117.573 27.1939C118.339 25.9345 119.394 24.9841 120.737 24.3428C122.101 23.7015 123.69 23.3799 125.503 23.3781C127.594 23.3761 129.312 23.7798 130.657 24.5891C132.002 25.3771 132.996 26.4322 133.637 27.7542C134.3 29.0549 134.633 30.4946 134.635 32.0732L134.636 33.0332C134.637 33.2679 134.552 33.4706 134.381 33.6415C134.211 33.8123 134.008 33.8978 133.774 33.8981L124.238 33.9074C124.238 33.9287 124.238 33.95 124.238 33.9714C124.238 33.9927 124.238 34.0247 124.238 34.0674C124.238 34.494 124.271 34.8567 124.335 35.1553C124.421 35.4325 124.56 35.6457 124.752 35.7949C124.944 35.944 125.19 36.0185 125.488 36.0182C125.616 36.018 125.723 35.9966 125.808 35.9539C125.915 35.9111 126.011 35.847 126.096 35.7616C126.203 35.6548 126.309 35.548 126.416 35.4413C126.607 35.2491 126.767 35.1316 126.895 35.0888C127.023 35.0247 127.215 34.9925 127.471 34.9922L133.519 34.9863C133.732 34.9861 133.903 35.0499 134.031 35.1778C134.181 35.3057 134.245 35.4763 134.224 35.6896C134.203 36.095 134.012 36.5858 133.65 37.1622C133.309 37.7172 132.787 38.2617 132.084 38.7957C131.381 39.3297 130.486 39.7786 129.398 40.1423C128.31 40.4847 127.031 40.6567 125.559 40.6581ZM124.232 29.9074L126.792 29.9049L126.792 29.8729C126.792 29.4036 126.738 29.0196 126.631 28.721C126.545 28.4225 126.406 28.2093 126.214 28.0815C126.022 27.9323 125.787 27.8579 125.51 27.8581C125.232 27.8584 124.998 27.9333 124.806 28.0828C124.614 28.211 124.465 28.4245 124.359 28.7233C124.274 29.022 124.232 29.4061 124.232 29.8754L124.232 29.9074ZM137.112 40.3268C136.877 40.327 136.674 40.2419 136.503 40.0714C136.333 39.9009 136.247 39.6983 136.247 39.4637L136.227 24.5517C136.226 24.317 136.311 24.1143 136.482 23.9434C136.652 23.7726 136.855 23.6871 137.089 23.6868L142.817 23.6812C143.052 23.681 143.255 23.7661 143.426 23.9366C143.597 24.1071 143.682 24.3097 143.683 24.5444L143.689 29.1204L146.889 29.1173L146.883 24.5413C146.882 24.3066 146.967 24.1039 147.138 23.933C147.308 23.7622 147.511 23.6767 147.745 23.6764L153.473 23.6708C153.708 23.6706 153.911 23.7557 154.082 23.9262C154.253 24.0967 154.338 24.2993 154.339 24.534L154.359 39.446C154.359 39.6806 154.274 39.8834 154.103 40.0542C153.933 40.2251 153.73 40.3106 153.496 40.3108L147.768 40.3164C147.533 40.3166 147.33 40.2315 147.159 40.061C146.989 39.8905 146.903 39.6879 146.903 39.4533L146.896 34.7173L143.696 34.7204L143.703 39.4564C143.703 39.691 143.618 39.8938 143.447 40.0646C143.277 40.2355 143.074 40.321 142.84 40.3212L137.112 40.3268ZM157.69 40.3067C157.456 40.307 157.253 40.2218 157.082 40.0513C156.911 39.8808 156.826 39.6782 156.825 39.4436L156.805 24.5316C156.805 24.2969 156.89 24.0942 157.06 23.9233C157.231 23.7525 157.433 23.667 157.668 23.6667L163.396 23.6611C163.631 23.6609 163.834 23.746 164.004 23.9165C164.175 24.087 164.261 24.2896 164.261 24.5243L164.275 34.6043L162.322 34.0302L168.709 24.2C168.815 24.0292 168.943 23.9011 169.092 23.8156C169.263 23.7087 169.444 23.6552 169.636 23.655L174.724 23.6501C174.959 23.6499 175.162 23.735 175.332 23.9055C175.503 24.076 175.589 24.2786 175.589 24.5132L175.609 39.4252C175.61 39.6599 175.525 39.8626 175.354 40.0335C175.184 40.2043 174.981 40.2898 174.746 40.2901L169.018 40.2957C168.784 40.2959 168.581 40.2108 168.41 40.0403C168.239 39.8698 168.154 39.6672 168.153 39.4325L168.14 29.3525L170.093 29.9266L163.706 39.7568C163.599 39.9276 163.461 40.0664 163.29 40.1733C163.141 40.2587 162.97 40.3016 162.778 40.3018L157.69 40.3067ZM186.014 40.5991C183.219 40.6018 180.989 39.9213 179.323 38.5576C177.678 37.1725 176.854 34.9867 176.85 32C176.85 31.9573 176.85 31.9147 176.85 31.872C176.85 31.8293 176.85 31.7973 176.85 31.776C176.89 29.9413 177.283 28.3943 178.028 27.1349C178.794 25.8754 179.849 24.9251 181.192 24.2838C182.556 23.6424 184.145 23.3209 185.958 23.3191C188.049 23.3171 189.767 23.7207 191.112 24.5301C192.457 25.3181 193.451 26.3731 194.092 27.6952C194.755 28.9959 195.088 30.4355 195.09 32.0142L195.091 32.9742C195.092 33.2089 195.007 33.4116 194.836 33.5824C194.666 33.7533 194.463 33.8388 194.229 33.839L184.693 33.8484C184.693 33.8697 184.693 33.891 184.693 33.9124C184.693 33.9337 184.693 33.9657 184.693 34.0084C184.693 34.435 184.726 34.7977 184.79 35.0963C184.876 35.3735 185.015 35.5867 185.207 35.7359C185.399 35.885 185.645 35.9594 185.943 35.9591C186.071 35.959 186.178 35.9376 186.263 35.8948C186.37 35.852 186.466 35.788 186.551 35.7025C186.658 35.5958 186.764 35.489 186.871 35.3822C187.062 35.19 187.222 35.0725 187.35 35.0298C187.478 34.9656 187.67 34.9334 187.926 34.9332L193.974 34.9273C194.187 34.9271 194.358 34.9909 194.486 35.1188C194.636 35.2466 194.7 35.4172 194.679 35.6306C194.658 36.036 194.467 36.5268 194.105 37.1032C193.764 37.6582 193.242 38.2027 192.539 38.7367C191.836 39.2707 190.94 39.7196 189.853 40.0833C188.765 40.4257 187.486 40.5976 186.014 40.5991ZM184.687 29.8484L187.247 29.8459L187.247 29.8139C187.247 29.3445 187.193 28.9606 187.086 28.662C187 28.3634 186.861 28.1502 186.669 28.0224C186.477 27.8733 186.242 27.7988 185.964 27.7991C185.687 27.7994 185.453 27.8743 185.261 28.0238C185.069 28.152 184.92 28.3655 184.814 28.6642C184.729 28.963 184.687 29.347 184.687 29.8164L184.687 29.8484ZM202.229 43.7832C201.994 43.7835 201.792 43.6983 201.621 43.5278C201.45 43.3573 201.364 43.1547 201.364 42.9201L201.354 35.5281C201.354 35.2934 201.439 35.0907 201.609 34.9198C201.779 34.749 201.982 34.6635 202.217 34.6632L202.665 34.6628C203.177 34.6623 203.539 34.4273 203.752 33.9577C203.986 33.4668 204.124 32.8267 204.165 32.0373C204.228 31.2266 204.259 30.3306 204.258 29.3492L204.251 24.4852C204.251 24.2506 204.336 24.0478 204.506 23.877C204.677 23.7062 204.879 23.6206 205.114 23.6204L219.706 23.6062C219.941 23.6059 220.143 23.6911 220.314 23.8616C220.485 24.0321 220.571 24.2346 220.571 24.4693L220.585 34.6453L221.833 34.6441C222.067 34.6439 222.27 34.729 222.441 34.8995C222.612 35.07 222.698 35.2726 222.698 35.5072L222.708 42.8992C222.708 43.1339 222.623 43.3367 222.453 43.5075C222.282 43.6783 222.08 43.7639 221.845 43.7641L216.117 43.7697C215.882 43.7699 215.679 43.6848 215.509 43.5143C215.338 43.3438 215.252 43.1412 215.252 42.9065L215.248 40.2505L208.816 40.2568L208.82 42.9128C208.82 43.1475 208.735 43.3502 208.565 43.521C208.394 43.6919 208.192 43.7774 207.957 43.7776L202.229 43.7832ZM210.729 34.6549L213.129 34.6526L213.121 29.2126L211.297 29.2144L211.299 30.1424C211.3 31.145 211.248 32.0304 211.142 32.7985C211.058 33.5453 210.92 34.1641 210.729 34.6549ZM232.724 40.5535C230.761 40.5554 229.108 40.2903 227.763 39.7583C226.418 39.2263 225.382 38.4273 224.656 37.3613C223.95 36.2954 223.543 34.9838 223.434 33.4265C223.412 32.9359 223.401 32.4346 223.4 31.9226C223.4 31.3892 223.41 30.8879 223.43 30.4185C223.535 28.8398 223.97 27.5273 224.737 26.4812C225.504 25.4138 226.558 24.6128 227.902 24.0782C229.245 23.5435 230.845 23.2753 232.701 23.2735C234.557 23.2717 236.157 23.5368 237.502 24.0688C238.846 24.6008 239.904 25.3998 240.673 26.4657C241.442 27.5103 241.881 28.8218 241.99 30.4004C242.034 30.8697 242.056 31.371 242.056 31.9043C242.057 32.4163 242.036 32.9177 241.994 33.4084C241.89 34.9658 241.475 36.2782 240.752 37.3456C240.049 38.413 239.026 39.214 237.683 39.7486C236.34 40.2833 234.687 40.5515 232.724 40.5535ZM232.717 35.4335C233.336 35.4329 233.719 35.2618 233.868 34.9203C234.017 34.5575 234.112 34.0028 234.154 33.2561C234.175 32.936 234.185 32.488 234.184 31.912C234.184 31.336 234.172 30.888 234.15 30.5681C234.107 29.8641 234.01 29.3309 233.86 28.9683C233.71 28.5845 233.326 28.3929 232.708 28.3935C232.11 28.394 231.726 28.5864 231.556 28.9706C231.407 29.3334 231.312 29.8668 231.27 30.5709C231.25 30.8909 231.24 31.3389 231.24 31.9149C231.241 32.4909 231.252 32.9389 231.274 33.2589C231.318 34.0055 231.415 34.5601 231.564 34.9226C231.735 35.2638 232.12 35.434 232.717 35.4335ZM252.263 40.5344C250.642 40.536 249.169 40.2601 247.846 39.7067C246.523 39.132 245.455 38.301 244.643 37.2138C243.831 36.1266 243.381 34.7937 243.293 33.2151C243.272 32.8738 243.26 32.4472 243.26 31.9352C243.259 31.4232 243.269 30.9858 243.29 30.6231C243.373 29.0444 243.809 27.7106 244.596 26.6219C245.406 25.5117 246.471 24.6787 247.793 24.1227C249.136 23.5454 250.619 23.256 252.24 23.2544C253.925 23.2527 255.355 23.4967 256.529 23.9862C257.724 24.4544 258.685 25.0401 259.411 25.7434C260.159 26.4253 260.704 27.1075 261.046 27.7898C261.41 28.4721 261.602 29.0266 261.624 29.4532C261.646 29.6879 261.561 29.8906 261.369 30.0615C261.199 30.2323 260.996 30.3178 260.761 30.3181L254.521 30.3242C254.287 30.3244 254.095 30.2712 253.945 30.1647C253.817 30.0369 253.699 29.877 253.593 29.6851C253.443 29.3866 253.283 29.152 253.112 28.9815C252.962 28.811 252.727 28.7259 252.407 28.7262C251.917 28.7267 251.586 28.9084 251.416 29.2712C251.246 29.634 251.151 30.1355 251.13 30.7755C251.11 31.6928 251.111 32.4502 251.133 33.0475C251.177 33.7301 251.273 34.242 251.423 34.5832C251.594 34.903 251.925 35.0627 252.416 35.0622C252.8 35.0618 253.056 34.9763 253.183 34.8055C253.333 34.6347 253.471 34.3999 253.598 34.1011C253.684 33.909 253.801 33.7595 253.95 33.6527C254.099 33.5246 254.291 33.4604 254.526 33.4602L260.766 33.4541C261 33.4538 261.203 33.539 261.374 33.7095C261.566 33.88 261.652 34.0825 261.631 34.3172C261.61 34.5946 261.493 34.9894 261.28 35.5016C261.089 35.9924 260.77 36.5261 260.323 37.1025C259.897 37.6789 259.321 38.2341 258.597 38.7682C257.872 39.2809 256.987 39.7084 255.942 40.0508C254.898 40.3718 253.671 40.533 252.263 40.5344ZM268.073 40.1989C267.838 40.1992 267.635 40.114 267.465 39.9435C267.294 39.773 267.208 39.5704 267.208 39.3358L267.194 29.1598L262.938 29.1639C262.703 29.1642 262.501 29.079 262.33 28.9085C262.159 28.738 262.073 28.5355 262.073 28.3008L262.068 24.4288C262.067 24.1941 262.153 23.9914 262.323 23.8205C262.493 23.6497 262.696 23.5642 262.931 23.564L278.771 23.5485C279.005 23.5483 279.208 23.6334 279.379 23.8039C279.55 23.9744 279.635 24.177 279.636 24.4116L279.641 28.2836C279.641 28.5183 279.556 28.7211 279.386 28.8919C279.215 29.0627 279.013 29.1483 278.778 29.1485L274.522 29.1526L274.536 39.3286C274.536 39.5633 274.451 39.766 274.281 39.9369C274.11 40.1077 273.908 40.1932 273.673 40.1935L268.073 40.1989ZM281.804 40.1855C281.57 40.1858 281.367 40.1006 281.196 39.9301C281.025 39.7596 280.939 39.557 280.939 39.3224L280.919 24.4104C280.919 24.1757 281.004 23.973 281.174 23.8021C281.345 23.6313 281.547 23.5458 281.782 23.5455L287.51 23.54C287.745 23.5397 287.947 23.6249 288.118 23.7954C288.289 23.9659 288.375 24.1684 288.375 24.4031L288.389 34.4831L286.436 33.909L292.823 24.0788C292.929 23.908 293.057 23.7799 293.206 23.6944C293.377 23.5876 293.558 23.534 293.75 23.5339L298.838 23.5289C299.073 23.5287 299.275 23.6138 299.446 23.7843C299.617 23.9548 299.703 24.1574 299.703 24.392L299.723 39.304C299.723 39.5387 299.638 39.7414 299.468 39.9123C299.297 40.0831 299.095 40.1686 298.86 40.1689L293.132 40.1745C292.898 40.1747 292.695 40.0896 292.524 39.9191C292.353 39.7486 292.267 39.546 292.267 39.3113L292.253 29.2313L294.206 29.8054L287.819 39.6357C287.713 39.8064 287.575 39.9452 287.404 40.0521C287.255 40.1375 287.084 40.1804 286.892 40.1806L281.804 40.1855ZM302.383 40.1654C302.148 40.1657 301.945 40.0805 301.775 39.91C301.604 39.7395 301.518 39.5369 301.518 39.3023L301.498 24.3903C301.497 24.1556 301.582 23.9529 301.753 23.782C301.923 23.6112 302.126 23.5257 302.361 23.5255L314.041 23.514C314.275 23.5138 314.478 23.599 314.649 23.7695C314.82 23.94 314.905 24.1425 314.906 24.3772L314.911 28.2492C314.911 28.4839 314.826 28.6866 314.656 28.8574C314.485 29.0283 314.283 29.1138 314.048 29.114L308.96 29.119L308.974 39.295C308.974 39.5297 308.889 39.7324 308.719 39.9032C308.548 40.0741 308.346 40.1596 308.111 40.1598L302.383 40.1654ZM321.691 40.4666C320.475 40.4678 319.398 40.2448 318.458 39.7977C317.519 39.3507 316.782 38.7434 316.248 37.9759C315.735 37.2084 315.478 36.3446 315.477 35.3846C315.474 33.8273 316.102 32.6107 317.36 31.7348C318.638 30.8376 320.344 30.2066 322.477 29.8418L325.868 29.2945L325.868 29.2625C325.868 28.7078 325.814 28.3026 325.707 28.0467C325.621 27.7907 325.354 27.663 324.906 27.6634C324.607 27.6637 324.362 27.728 324.17 27.8562C324 27.963 323.808 28.1232 323.595 28.3367C323.361 28.5716 323.062 28.6892 322.7 28.6896L317.26 28.6949C317.046 28.6951 316.865 28.6313 316.715 28.5034C316.587 28.3756 316.534 28.2049 316.555 27.9916C316.575 27.5862 316.745 27.1167 317.065 26.5831C317.384 26.0281 317.874 25.4943 318.535 24.9817C319.217 24.469 320.08 24.0415 321.125 23.6991C322.191 23.3568 323.471 23.1848 324.964 23.1834C326.415 23.182 327.674 23.3407 328.741 23.6597C329.829 23.9573 330.726 24.4044 331.431 25.0011C332.135 25.5764 332.659 26.3012 333.001 27.1755C333.365 28.0285 333.548 28.999 333.549 30.087L333.562 39.271C333.562 39.5057 333.477 39.7084 333.307 39.8792C333.136 40.0501 332.934 40.1356 332.699 40.1358L327.099 40.1413C326.864 40.1415 326.661 40.0564 326.491 39.8859C326.32 39.7154 326.234 39.5128 326.234 39.2781L326.233 38.3821C325.934 38.8091 325.551 39.1828 325.082 39.5033C324.634 39.8024 324.123 40.0375 323.547 40.2088C322.971 40.38 322.353 40.4659 321.691 40.4666ZM323.893 35.7284C324.32 35.728 324.682 35.6423 324.981 35.4714C325.3 35.3004 325.545 35.0335 325.716 34.6707C325.886 34.2865 325.97 33.8171 325.97 33.2624L325.97 33.2304L324.082 33.6482C323.528 33.7768 323.155 33.9478 322.963 34.1613C322.771 34.3749 322.675 34.599 322.676 34.8336C322.676 34.983 322.719 35.1322 322.804 35.2815C322.911 35.4094 323.05 35.5159 323.221 35.6011C323.413 35.6862 323.637 35.7287 323.893 35.7284ZM340.669 40.1281C340.434 40.1283 340.232 40.0431 340.061 39.8726C339.89 39.7021 339.804 39.4996 339.804 39.2649L339.79 29.0889L335.534 29.0931C335.3 29.0933 335.097 29.0082 334.926 28.8377C334.755 28.6672 334.669 28.4646 334.669 28.2299L334.664 24.3579C334.664 24.1232 334.749 23.9205 334.919 23.7497C335.09 23.5788 335.292 23.4933 335.527 23.4931L351.367 23.4776C351.601 23.4774 351.804 23.5625 351.975 23.733C352.146 23.9035 352.232 24.1061 352.232 24.3408L352.237 28.2128C352.237 28.4474 352.152 28.6502 351.982 28.821C351.812 28.9918 351.609 29.0774 351.374 29.0776L347.118 29.0817L347.132 39.2577C347.132 39.4924 347.047 39.6952 346.877 39.866C346.706 40.0368 346.504 40.1224 346.269 40.1226L340.669 40.1281ZM354.4 40.1146C354.166 40.1149 353.963 40.0297 353.792 39.8592C353.621 39.6887 353.536 39.4862 353.535 39.2515L353.515 24.3395C353.515 24.1048 353.6 23.9021 353.77 23.7313C353.941 23.5604 354.143 23.4749 354.378 23.4747L360.138 23.469C360.373 23.4688 360.575 23.5539 360.746 23.7244C360.917 23.8949 361.003 24.0975 361.003 24.3322L361.009 28.3002L363.569 28.2977C365.702 28.2956 367.431 28.8166 368.755 29.8606C370.079 30.9047 370.742 32.3547 370.744 34.2107C370.747 36.0667 370.088 37.518 368.766 38.5646C367.445 39.5899 365.718 40.1036 363.584 40.1057L354.4 40.1146ZM360.858 35.3403L362.938 35.3383C363.365 35.3379 363.685 35.2416 363.898 35.0494C364.111 34.8572 364.217 34.5797 364.216 34.2171C364.216 33.8544 364.109 33.5772 363.895 33.3854C363.682 33.1722 363.362 33.0659 362.935 33.0663L360.855 33.0683L360.858 35.3403Z" fill="white"/>
<path d="M200.385 89C200.15 89 199.948 88.9147 199.777 88.744C199.606 88.5733 199.521 88.3707 199.521 88.136V73.224C199.521 72.9893 199.606 72.7867 199.777 72.616C199.948 72.4453 200.15 72.36 200.385 72.36H206.113C206.348 72.36 206.55 72.4453 206.721 72.616C206.892 72.7867 206.977 72.9893 206.977 73.224V77.8H210.177V73.224C210.177 72.9893 210.262 72.7867 210.433 72.616C210.604 72.4453 210.806 72.36 211.041 72.36H216.769C217.004 72.36 217.206 72.4453 217.377 72.616C217.548 72.7867 217.633 72.9893 217.633 73.224V88.136C217.633 88.3707 217.548 88.5733 217.377 88.744C217.206 88.9147 217.004 89 216.769 89H211.041C210.806 89 210.604 88.9147 210.433 88.744C210.262 88.5733 210.177 88.3707 210.177 88.136V83.4H206.977V88.136C206.977 88.3707 206.892 88.5733 206.721 88.744C206.55 88.9147 206.348 89 206.113 89H200.385ZM222.436 95.112C222.201 95.112 221.998 95.0267 221.828 94.856C221.657 94.6853 221.572 94.4827 221.572 94.248V90.376C221.572 90.1413 221.657 89.9387 221.828 89.768C221.998 89.5973 222.201 89.512 222.436 89.512H223.78C224.1 89.512 224.366 89.4587 224.58 89.352C224.793 89.2667 224.985 89.1067 225.156 88.872C225.326 88.6373 225.486 88.328 225.636 87.944L231.556 73.128C231.641 72.936 231.758 72.7653 231.908 72.616C232.078 72.4453 232.324 72.36 232.644 72.36H237.796C237.988 72.36 238.158 72.4347 238.308 72.584C238.457 72.712 238.532 72.8613 238.532 73.032C238.532 73.0747 238.532 73.128 238.532 73.192C238.553 73.2347 238.542 73.288 238.5 73.352L232.42 88.232C231.908 89.512 231.385 90.5893 230.852 91.464C230.34 92.3387 229.774 93.0427 229.156 93.576C228.558 94.1307 227.865 94.5253 227.076 94.76C226.286 94.9947 225.369 95.112 224.324 95.112H222.436ZM225.636 88.776L219.012 73.352C218.99 73.288 218.98 73.2133 218.98 73.128C219.022 72.9147 219.108 72.7333 219.236 72.584C219.385 72.4347 219.566 72.36 219.78 72.36H225.188C225.508 72.36 225.742 72.4453 225.892 72.616C226.041 72.7867 226.148 72.9573 226.212 73.128L230.18 84.008L225.636 88.776ZM239.455 89C239.242 89 239.06 88.9253 238.911 88.776C238.762 88.6267 238.687 88.4453 238.687 88.232C238.687 88.0827 238.73 87.944 238.815 87.816L243.679 80.488L239.615 73.608C239.594 73.5653 239.562 73.5013 239.519 73.416C239.476 73.3093 239.455 73.2133 239.455 73.128C239.455 72.9147 239.53 72.7333 239.679 72.584C239.828 72.4347 240.01 72.36 240.223 72.36H246.367C246.666 72.36 246.879 72.4347 247.007 72.584C247.156 72.712 247.252 72.8187 247.295 72.904L250.047 77.8H250.751V73.224C250.751 72.9893 250.836 72.7867 251.007 72.616C251.178 72.4453 251.38 72.36 251.615 72.36H257.215C257.45 72.36 257.652 72.4453 257.823 72.616C257.994 72.7867 258.079 72.9893 258.079 73.224V77.8H258.783L261.535 72.904C261.578 72.8187 261.674 72.712 261.823 72.584C261.972 72.4347 262.186 72.36 262.463 72.36H268.607C268.82 72.36 269.002 72.4347 269.151 72.584C269.3 72.7333 269.375 72.9147 269.375 73.128C269.375 73.2133 269.354 73.3093 269.311 73.416C269.29 73.5013 269.258 73.5653 269.215 73.608L265.151 80.488L270.015 87.816C270.1 87.944 270.143 88.0827 270.143 88.232C270.143 88.4453 270.068 88.6267 269.919 88.776C269.77 88.9253 269.588 89 269.375 89H262.655C262.335 89 262.1 88.9253 261.951 88.776C261.802 88.6053 261.706 88.4987 261.663 88.456L258.623 83.4H258.079V88.136C258.079 88.3707 257.994 88.5733 257.823 88.744C257.652 88.9147 257.45 89 257.215 89H251.615C251.38 89 251.178 88.9147 251.007 88.744C250.836 88.5733 250.751 88.3707 250.751 88.136V83.4H250.207L247.167 88.456C247.146 88.4987 247.05 88.6053 246.879 88.776C246.73 88.9253 246.495 89 246.175 89H239.455ZM272.277 89C272.043 89 271.84 88.9147 271.669 88.744C271.499 88.5733 271.413 88.3707 271.413 88.136V73.224C271.413 72.9893 271.499 72.7867 271.669 72.616C271.84 72.4453 272.043 72.36 272.277 72.36H278.005C278.24 72.36 278.443 72.4453 278.613 72.616C278.784 72.7867 278.869 72.9893 278.869 73.224V77.8H282.069V73.224C282.069 72.9893 282.155 72.7867 282.325 72.616C282.496 72.4453 282.699 72.36 282.933 72.36H288.661C288.896 72.36 289.099 72.4453 289.269 72.616C289.44 72.7867 289.525 72.9893 289.525 73.224V88.136C289.525 88.3707 289.44 88.5733 289.269 88.744C289.099 88.9147 288.896 89 288.661 89H282.933C282.699 89 282.496 88.9147 282.325 88.744C282.155 88.5733 282.069 88.3707 282.069 88.136V83.4H278.869V88.136C278.869 88.3707 278.784 88.5733 278.613 88.744C278.443 88.9147 278.24 89 278.005 89H272.277ZM292.856 89C292.621 89 292.419 88.9147 292.248 88.744C292.077 88.5733 291.992 88.3707 291.992 88.136V73.224C291.992 72.9893 292.077 72.7867 292.248 72.616C292.419 72.4453 292.621 72.36 292.856 72.36H298.616C298.851 72.36 299.053 72.4453 299.224 72.616C299.395 72.7867 299.48 72.9893 299.48 73.224V77.192H302.04C304.173 77.192 305.901 77.7147 307.224 78.76C308.547 79.8053 309.208 81.256 309.208 83.112C309.208 84.968 308.547 86.4187 307.224 87.464C305.901 88.488 304.173 89 302.04 89H292.856ZM299.32 84.232H301.4C301.827 84.232 302.147 84.136 302.36 83.944C302.573 83.752 302.68 83.4747 302.68 83.112C302.68 82.7493 302.573 82.472 302.36 82.28C302.147 82.0667 301.827 81.96 301.4 81.96H299.32V84.232ZM311.768 89C311.533 89 311.331 88.9147 311.16 88.744C310.989 88.5733 310.904 88.3707 310.904 88.136V73.224C310.904 72.9893 310.989 72.7867 311.16 72.616C311.331 72.4453 311.533 72.36 311.768 72.36H317.496C317.731 72.36 317.933 72.4453 318.104 72.616C318.275 72.7867 318.36 72.9893 318.36 73.224V88.136C318.36 88.3707 318.275 88.5733 318.104 88.744C317.933 88.9147 317.731 89 317.496 89H311.768ZM321.685 89C321.45 89 321.248 88.9147 321.077 88.744C320.906 88.5733 320.821 88.3707 320.821 88.136V73.224C320.821 72.9893 320.906 72.7867 321.077 72.616C321.248 72.4453 321.45 72.36 321.685 72.36H327.413C327.648 72.36 327.85 72.4453 328.021 72.616C328.192 72.7867 328.277 72.9893 328.277 73.224V83.304L326.325 82.728L332.725 72.904C332.832 72.7333 332.96 72.6053 333.109 72.52C333.28 72.4133 333.461 72.36 333.653 72.36H338.741C338.976 72.36 339.178 72.4453 339.349 72.616C339.52 72.7867 339.605 72.9893 339.605 73.224V88.136C339.605 88.3707 339.52 88.5733 339.349 88.744C339.178 88.9147 338.976 89 338.741 89H333.013C332.778 89 332.576 88.9147 332.405 88.744C332.234 88.5733 332.149 88.3707 332.149 88.136V78.056L334.101 78.632L327.701 88.456C327.594 88.6267 327.456 88.7653 327.285 88.872C327.136 88.9573 326.965 89 326.773 89H321.685ZM330.645 70.248C329.216 70.248 328.032 70.024 327.093 69.576C326.176 69.128 325.482 68.52 325.013 67.752C324.565 66.984 324.341 66.1093 324.341 65.128C324.341 64.9573 324.384 64.8187 324.469 64.712C324.576 64.584 324.736 64.52 324.949 64.52H328.757C328.949 64.52 329.098 64.584 329.205 64.712C329.312 64.8187 329.365 64.9573 329.365 65.128C329.365 65.5333 329.45 65.8747 329.621 66.152C329.792 66.4293 330.133 66.568 330.645 66.568C331.157 66.568 331.498 66.4293 331.669 66.152C331.84 65.8747 331.925 65.5333 331.925 65.128C331.925 64.9573 331.978 64.8187 332.085 64.712C332.192 64.584 332.341 64.52 332.533 64.52H336.341C336.533 64.52 336.682 64.584 336.789 64.712C336.896 64.8187 336.949 64.9573 336.949 65.128C336.949 66.1093 336.714 66.984 336.245 67.752C335.797 68.52 335.104 69.128 334.165 69.576C333.248 70.024 332.074 70.248 330.645 70.248ZM347.561 89C347.326 89 347.124 88.9147 346.953 88.744C346.782 88.5733 346.697 88.3707 346.697 88.136V73.224C346.697 72.9893 346.782 72.7867 346.953 72.616C347.124 72.4453 347.326 72.36 347.561 72.36H353.161C353.396 72.36 353.598 72.4453 353.769 72.616C353.94 72.7867 354.025 72.9893 354.025 73.224V77.8H354.729L357.481 72.904C357.524 72.8187 357.62 72.712 357.769 72.584C357.918 72.4347 358.132 72.36 358.409 72.36H364.553C364.766 72.36 364.948 72.4347 365.097 72.584C365.246 72.7333 365.321 72.9147 365.321 73.128C365.321 73.2133 365.3 73.3093 365.257 73.416C365.236 73.5013 365.204 73.5653 365.161 73.608L361.097 80.488L365.961 87.816C366.046 87.944 366.089 88.0827 366.089 88.232C366.089 88.4453 366.014 88.6267 365.865 88.776C365.716 88.9253 365.534 89 365.321 89H358.601C358.345 89 358.142 88.9467 357.993 88.84C357.844 88.7333 357.716 88.6053 357.609 88.456L354.569 83.4H354.025V88.136C354.025 88.3707 353.94 88.5733 353.769 88.744C353.598 88.9147 353.396 89 353.161 89H347.561ZM367.594 89C367.359 89 367.156 88.9147 366.986 88.744C366.815 88.5733 366.73 88.3707 366.73 88.136V83.944C366.73 83.4747 367.018 83.1867 367.594 83.08C368.17 82.9733 368.564 82.7067 368.778 82.28C368.991 81.8533 369.108 81.288 369.13 80.584C369.172 79.8587 369.194 79.0267 369.194 78.088V73.224C369.194 72.9893 369.279 72.7867 369.45 72.616C369.62 72.4453 369.823 72.36 370.058 72.36H384.65C384.884 72.36 385.087 72.4453 385.258 72.616C385.428 72.7867 385.514 72.9893 385.514 73.224V88.136C385.514 88.3707 385.428 88.5733 385.258 88.744C385.087 88.9147 384.884 89 384.65 89H378.922C378.687 89 378.484 88.9147 378.314 88.744C378.143 88.5733 378.058 88.3707 378.058 88.136V77.96H376.234V78.888C376.234 80.8933 376.127 82.5573 375.914 83.88C375.7 85.2027 375.284 86.2373 374.666 86.984C374.068 87.7093 373.194 88.232 372.042 88.552C370.911 88.8507 369.428 89 367.594 89ZM388.844 89C388.609 89 388.406 88.9147 388.236 88.744C388.065 88.5733 387.98 88.3707 387.98 88.136V73.224C387.98 72.9893 388.065 72.7867 388.236 72.616C388.406 72.4453 388.609 72.36 388.844 72.36H394.572C394.806 72.36 395.009 72.4453 395.18 72.616C395.35 72.7867 395.436 72.9893 395.436 73.224V83.304L393.484 82.728L399.884 72.904C399.99 72.7333 400.118 72.6053 400.268 72.52C400.438 72.4133 400.62 72.36 400.812 72.36H405.9C406.134 72.36 406.337 72.4453 406.508 72.616C406.678 72.7867 406.764 72.9893 406.764 73.224V88.136C406.764 88.3707 406.678 88.5733 406.508 88.744C406.337 88.9147 406.134 89 405.9 89H400.172C399.937 89 399.734 88.9147 399.564 88.744C399.393 88.5733 399.308 88.3707 399.308 88.136V78.056L401.26 78.632L394.86 88.456C394.753 88.6267 394.614 88.7653 394.444 88.872C394.294 88.9573 394.124 89 393.932 89H388.844ZM417.166 89.32C414.372 89.32 412.142 88.6373 410.478 87.272C408.836 85.8853 408.014 83.6987 408.014 80.712C408.014 80.6693 408.014 80.6267 408.014 80.584C408.014 80.5413 408.014 80.5093 408.014 80.488C408.057 78.6533 408.452 77.1067 409.198 75.848C409.966 74.5893 411.022 73.64 412.366 73C413.732 72.36 415.321 72.04 417.134 72.04C419.225 72.04 420.942 72.4453 422.286 73.256C423.63 74.0453 424.622 75.1013 425.262 76.424C425.924 77.7253 426.254 79.1653 426.254 80.744V81.704C426.254 81.9387 426.169 82.1413 425.998 82.312C425.828 82.4827 425.625 82.568 425.39 82.568H415.854C415.854 82.5893 415.854 82.6107 415.854 82.632C415.854 82.6533 415.854 82.6853 415.854 82.728C415.854 83.1547 415.886 83.5173 415.95 83.816C416.036 84.0933 416.174 84.3067 416.366 84.456C416.558 84.6053 416.804 84.68 417.102 84.68C417.23 84.68 417.337 84.6587 417.422 84.616C417.529 84.5733 417.625 84.5093 417.71 84.424C417.817 84.3173 417.924 84.2107 418.03 84.104C418.222 83.912 418.382 83.7947 418.51 83.752C418.638 83.688 418.83 83.656 419.086 83.656H425.134C425.348 83.656 425.518 83.72 425.646 83.848C425.796 83.976 425.86 84.1467 425.838 84.36C425.817 84.7653 425.625 85.256 425.262 85.832C424.921 86.3867 424.398 86.9307 423.694 87.464C422.99 87.9973 422.094 88.4453 421.006 88.808C419.918 89.1493 418.638 89.32 417.166 89.32ZM415.854 78.568H418.414V78.536C418.414 78.0667 418.361 77.6827 418.254 77.384C418.169 77.0853 418.03 76.872 417.838 76.744C417.646 76.5947 417.412 76.52 417.134 76.52C416.857 76.52 416.622 76.5947 416.43 76.744C416.238 76.872 416.089 77.0853 415.982 77.384C415.897 77.6827 415.854 78.0667 415.854 78.536V78.568ZM428.72 89C428.485 89 428.282 88.9147 428.112 88.744C427.941 88.5733 427.856 88.3707 427.856 88.136V73.224C427.856 72.9893 427.941 72.7867 428.112 72.616C428.282 72.4453 428.485 72.36 428.72 72.36H434.448C434.682 72.36 434.885 72.4453 435.056 72.616C435.226 72.7867 435.312 72.9893 435.312 73.224V77.8H438.512V73.224C438.512 72.9893 438.597 72.7867 438.768 72.616C438.938 72.4453 439.141 72.36 439.376 72.36H445.104C445.339 72.36 445.541 72.4453 445.712 72.616C445.882 72.7867 445.968 72.9893 445.968 73.224V88.136C445.968 88.3707 445.882 88.5733 445.712 88.744C445.541 88.9147 445.339 89 445.104 89H439.376C439.141 89 438.938 88.9147 438.768 88.744C438.597 88.5733 438.512 88.3707 438.512 88.136V83.4H435.312V88.136C435.312 88.3707 435.226 88.5733 435.056 88.744C434.885 88.9147 434.682 89 434.448 89H428.72ZM453.459 89C453.224 89 453.021 88.9147 452.851 88.744C452.68 88.5733 452.595 88.3707 452.595 88.136V77.96H448.339C448.104 77.96 447.901 77.8747 447.731 77.704C447.56 77.5333 447.475 77.3307 447.475 77.096V73.224C447.475 72.9893 447.56 72.7867 447.731 72.616C447.901 72.4453 448.104 72.36 448.339 72.36H464.179C464.413 72.36 464.616 72.4453 464.787 72.616C464.957 72.7867 465.043 72.9893 465.043 73.224V77.096C465.043 77.3307 464.957 77.5333 464.787 77.704C464.616 77.8747 464.413 77.96 464.179 77.96H459.923V88.136C459.923 88.3707 459.837 88.5733 459.667 88.744C459.496 88.9147 459.293 89 459.059 89H453.459ZM468.662 95.112C468.427 95.112 468.225 95.0267 468.054 94.856C467.883 94.6853 467.798 94.4827 467.798 94.248V90.376C467.798 90.1413 467.883 89.9387 468.054 89.768C468.225 89.5973 468.427 89.512 468.662 89.512H470.006C470.326 89.512 470.593 89.4587 470.806 89.352C471.019 89.2667 471.211 89.1067 471.382 88.872C471.553 88.6373 471.713 88.328 471.862 87.944L477.782 73.128C477.867 72.936 477.985 72.7653 478.134 72.616C478.305 72.4453 478.55 72.36 478.87 72.36H484.022C484.214 72.36 484.385 72.4347 484.534 72.584C484.683 72.712 484.758 72.8613 484.758 73.032C484.758 73.0747 484.758 73.128 484.758 73.192C484.779 73.2347 484.769 73.288 484.726 73.352L478.646 88.232C478.134 89.512 477.611 90.5893 477.078 91.464C476.566 92.3387 476.001 93.0427 475.382 93.576C474.785 94.1307 474.091 94.5253 473.302 94.76C472.513 94.9947 471.595 95.112 470.55 95.112H468.662ZM471.862 88.776L465.238 73.352C465.217 73.288 465.206 73.2133 465.206 73.128C465.249 72.9147 465.334 72.7333 465.462 72.584C465.611 72.4347 465.793 72.36 466.006 72.36H471.414C471.734 72.36 471.969 72.4453 472.118 72.616C472.267 72.7867 472.374 72.9573 472.438 73.128L476.406 84.008L471.862 88.776ZM492.035 95.08C491.8 95.08 491.598 94.9947 491.427 94.824C491.256 94.6533 491.171 94.4507 491.171 94.216V73.224C491.171 72.9893 491.256 72.7867 491.427 72.616C491.598 72.4453 491.8 72.36 492.035 72.36H497.475C497.71 72.36 497.912 72.4453 498.083 72.616C498.254 72.7867 498.339 72.9893 498.339 73.224V74.184C498.83 73.5653 499.459 73.0533 500.227 72.648C501.016 72.2427 501.966 72.04 503.075 72.04C504.014 72.04 504.878 72.1787 505.667 72.456C506.456 72.712 507.15 73.1387 507.747 73.736C508.366 74.312 508.856 75.0693 509.219 76.008C509.582 76.9467 509.795 78.088 509.859 79.432C509.88 79.9013 509.891 80.3173 509.891 80.68C509.891 81.0427 509.88 81.4693 509.859 81.96C509.816 83.2187 509.614 84.3173 509.251 85.256C508.888 86.1733 508.398 86.9307 507.779 87.528C507.182 88.1253 506.478 88.5733 505.667 88.872C504.878 89.1707 504.014 89.32 503.075 89.32C502.179 89.32 501.368 89.1707 500.643 88.872C499.918 88.5733 499.31 88.0827 498.819 87.4V94.216C498.819 94.4507 498.734 94.6533 498.563 94.824C498.392 94.9947 498.19 95.08 497.955 95.08H492.035ZM500.419 83.592C500.824 83.592 501.134 83.5173 501.347 83.368C501.56 83.2187 501.71 83.0053 501.795 82.728C501.902 82.4507 501.976 82.12 502.019 81.736C502.083 81.032 502.083 80.328 502.019 79.624C501.976 79.24 501.902 78.9093 501.795 78.632C501.71 78.3547 501.56 78.1413 501.347 77.992C501.134 77.8427 500.824 77.768 500.419 77.768C500.035 77.768 499.726 77.8427 499.491 77.992C499.256 78.1413 499.086 78.3547 498.979 78.632C498.894 78.9093 498.84 79.24 498.819 79.624C498.798 80.0933 498.787 80.488 498.787 80.808C498.787 81.1067 498.798 81.5013 498.819 81.992C498.84 82.3333 498.904 82.6213 499.011 82.856C499.139 83.0907 499.31 83.272 499.523 83.4C499.758 83.528 500.056 83.592 500.419 83.592ZM520.295 89.32C517.5 89.32 515.271 88.6373 513.607 87.272C511.964 85.8853 511.143 83.6987 511.143 80.712C511.143 80.6693 511.143 80.6267 511.143 80.584C511.143 80.5413 511.143 80.5093 511.143 80.488C511.186 78.6533 511.58 77.1067 512.327 75.848C513.095 74.5893 514.151 73.64 515.495 73C516.86 72.36 518.45 72.04 520.263 72.04C522.354 72.04 524.071 72.4453 525.415 73.256C526.759 74.0453 527.751 75.1013 528.391 76.424C529.052 77.7253 529.383 79.1653 529.383 80.744V81.704C529.383 81.9387 529.298 82.1413 529.127 82.312C528.956 82.4827 528.754 82.568 528.519 82.568H518.983C518.983 82.5893 518.983 82.6107 518.983 82.632C518.983 82.6533 518.983 82.6853 518.983 82.728C518.983 83.1547 519.015 83.5173 519.079 83.816C519.164 84.0933 519.303 84.3067 519.495 84.456C519.687 84.6053 519.932 84.68 520.231 84.68C520.359 84.68 520.466 84.6587 520.551 84.616C520.658 84.5733 520.754 84.5093 520.839 84.424C520.946 84.3173 521.052 84.2107 521.159 84.104C521.351 83.912 521.511 83.7947 521.639 83.752C521.767 83.688 521.959 83.656 522.215 83.656H528.263C528.476 83.656 528.647 83.72 528.775 83.848C528.924 83.976 528.988 84.1467 528.967 84.36C528.946 84.7653 528.754 85.256 528.391 85.832C528.05 86.3867 527.527 86.9307 526.823 87.464C526.119 87.9973 525.223 88.4453 524.135 88.808C523.047 89.1493 521.767 89.32 520.295 89.32ZM518.983 78.568H521.543V78.536C521.543 78.0667 521.49 77.6827 521.383 77.384C521.298 77.0853 521.159 76.872 520.967 76.744C520.775 76.5947 520.54 76.52 520.263 76.52C519.986 76.52 519.751 76.5947 519.559 76.744C519.367 76.872 519.218 77.0853 519.111 77.384C519.026 77.6827 518.983 78.0667 518.983 78.536V78.568ZM538.985 89.32C537.321 89.32 535.945 89.1493 534.857 88.808C533.79 88.4667 532.947 88.0293 532.329 87.496C531.731 86.9627 531.294 86.408 531.017 85.832C530.761 85.2347 530.59 84.7013 530.505 84.232C530.462 84.0827 530.505 83.9547 530.633 83.848C530.761 83.7413 530.889 83.688 531.017 83.688H536.617C536.894 83.688 537.086 83.7307 537.193 83.816C537.299 83.9013 537.406 83.9867 537.513 84.072C537.641 84.1573 537.801 84.2427 537.993 84.328C538.185 84.4133 538.494 84.456 538.921 84.456C539.241 84.456 539.497 84.424 539.689 84.36C539.881 84.2747 540.009 84.168 540.073 84.04C540.158 83.8907 540.201 83.72 540.201 83.528C540.201 83.2933 540.115 83.1013 539.945 82.952C539.795 82.7813 539.443 82.696 538.889 82.696H537.065C536.873 82.696 536.713 82.6213 536.585 82.472C536.457 82.3227 536.393 82.1627 536.393 81.992V79.336C536.393 79.1653 536.457 79.0053 536.585 78.856C536.713 78.7067 536.873 78.632 537.065 78.632H538.889C539.379 78.632 539.699 78.5573 539.849 78.408C539.998 78.2587 540.073 78.056 540.073 77.8C540.073 77.6293 540.03 77.48 539.945 77.352C539.859 77.224 539.731 77.128 539.561 77.064C539.411 77 539.198 76.968 538.921 76.968C538.515 76.968 538.206 77 537.993 77.064C537.801 77.128 537.619 77.2347 537.449 77.384C537.342 77.4693 537.235 77.5547 537.129 77.64C537.022 77.7253 536.83 77.768 536.553 77.768H531.145C530.995 77.768 530.867 77.7147 530.761 77.608C530.654 77.5013 530.611 77.3733 530.633 77.224C530.718 76.7547 530.899 76.2213 531.177 75.624C531.454 75.0267 531.891 74.4613 532.489 73.928C533.107 73.3733 533.939 72.9253 534.985 72.584C536.03 72.2213 537.363 72.04 538.985 72.04C540.99 72.04 542.59 72.2427 543.785 72.648C545.001 73.032 545.875 73.5867 546.409 74.312C546.942 75.016 547.209 75.8587 547.209 76.84C547.209 77.48 547.049 78.12 546.729 78.76C546.409 79.4 545.854 79.9013 545.065 80.264C546.046 80.6053 546.707 81.1707 547.049 81.96C547.411 82.728 547.593 83.4853 547.593 84.232C547.593 85.192 547.262 86.056 546.601 86.824C545.939 87.592 544.969 88.2 543.689 88.648C542.409 89.096 540.841 89.32 538.985 89.32ZM551.806 95.112C551.571 95.112 551.368 95.0267 551.198 94.856C551.027 94.6853 550.942 94.4827 550.942 94.248V90.376C550.942 90.1413 551.027 89.9387 551.198 89.768C551.368 89.5973 551.571 89.512 551.806 89.512H553.15C553.47 89.512 553.736 89.4587 553.95 89.352C554.163 89.2667 554.355 89.1067 554.526 88.872C554.696 88.6373 554.856 88.328 555.006 87.944L560.926 73.128C561.011 72.936 561.128 72.7653 561.278 72.616C561.448 72.4453 561.694 72.36 562.014 72.36H567.166C567.358 72.36 567.528 72.4347 567.678 72.584C567.827 72.712 567.902 72.8613 567.902 73.032C567.902 73.0747 567.902 73.128 567.902 73.192C567.923 73.2347 567.912 73.288 567.87 73.352L561.79 88.232C561.278 89.512 560.755 90.5893 560.222 91.464C559.71 92.3387 559.144 93.0427 558.526 93.576C557.928 94.1307 557.235 94.5253 556.446 94.76C555.656 94.9947 554.739 95.112 553.694 95.112H551.806ZM555.006 88.776L548.382 73.352C548.36 73.288 548.35 73.2133 548.35 73.128C548.392 72.9147 548.478 72.7333 548.606 72.584C548.755 72.4347 548.936 72.36 549.15 72.36H554.558C554.878 72.36 555.112 72.4453 555.262 72.616C555.411 72.7867 555.518 72.9573 555.582 73.128L559.55 84.008L555.006 88.776ZM569.241 89C569.006 89 568.804 88.9147 568.633 88.744C568.462 88.5733 568.377 88.3707 568.377 88.136V83.944C568.377 83.4747 568.665 83.1867 569.241 83.08C569.817 82.9733 570.212 82.7067 570.425 82.28C570.638 81.8533 570.756 81.288 570.777 80.584C570.82 79.8587 570.841 79.0267 570.841 78.088V73.224C570.841 72.9893 570.926 72.7867 571.097 72.616C571.268 72.4453 571.47 72.36 571.705 72.36H586.297C586.532 72.36 586.734 72.4453 586.905 72.616C587.076 72.7867 587.161 72.9893 587.161 73.224V88.136C587.161 88.3707 587.076 88.5733 586.905 88.744C586.734 88.9147 586.532 89 586.297 89H580.569C580.334 89 580.132 88.9147 579.961 88.744C579.79 88.5733 579.705 88.3707 579.705 88.136V77.96H577.881V78.888C577.881 80.8933 577.774 82.5573 577.561 83.88C577.348 85.2027 576.932 86.2373 576.313 86.984C575.716 87.7093 574.841 88.232 573.689 88.552C572.558 88.8507 571.076 89 569.241 89ZM590.491 89C590.256 89 590.054 88.9147 589.883 88.744C589.712 88.5733 589.627 88.3707 589.627 88.136V73.224C589.627 72.9893 589.712 72.7867 589.883 72.616C590.054 72.4453 590.256 72.36 590.491 72.36H596.251C596.486 72.36 596.688 72.4453 596.859 72.616C597.03 72.7867 597.115 72.9893 597.115 73.224V77.192H599.675C601.808 77.192 603.536 77.7147 604.859 78.76C606.182 79.8053 606.843 81.256 606.843 83.112C606.843 84.968 606.182 86.4187 604.859 87.464C603.536 88.488 601.808 89 599.675 89H590.491ZM596.955 84.232H599.035C599.462 84.232 599.782 84.136 599.995 83.944C600.208 83.752 600.315 83.4747 600.315 83.112C600.315 82.7493 600.208 82.472 599.995 82.28C599.782 82.0667 599.462 81.96 599.035 81.96H596.955V84.232ZM613.48 89C613.245 89 613.043 88.9147 612.872 88.744C612.701 88.5733 612.616 88.3707 612.616 88.136V77.96H608.36C608.125 77.96 607.923 77.8747 607.752 77.704C607.581 77.5333 607.496 77.3307 607.496 77.096V73.224C607.496 72.9893 607.581 72.7867 607.752 72.616C607.923 72.4453 608.125 72.36 608.36 72.36H624.2C624.435 72.36 624.637 72.4453 624.808 72.616C624.979 72.7867 625.064 72.9893 625.064 73.224V77.096C625.064 77.3307 624.979 77.5333 624.808 77.704C624.637 77.8747 624.435 77.96 624.2 77.96H619.944V88.136C619.944 88.3707 619.859 88.5733 619.688 88.744C619.517 88.9147 619.315 89 619.08 89H613.48ZM631.659 89.32C630.443 89.32 629.366 89.096 628.427 88.648C627.488 88.2 626.752 87.592 626.219 86.824C625.707 86.056 625.451 85.192 625.451 84.232C625.451 82.6747 626.08 81.4587 627.339 80.584C628.619 79.688 630.326 79.0587 632.459 78.696L635.851 78.152V78.12C635.851 77.5653 635.798 77.16 635.691 76.904C635.606 76.648 635.339 76.52 634.891 76.52C634.592 76.52 634.347 76.584 634.155 76.712C633.984 76.8187 633.792 76.9787 633.579 77.192C633.344 77.4267 633.046 77.544 632.683 77.544H627.243C627.03 77.544 626.848 77.48 626.699 77.352C626.571 77.224 626.518 77.0533 626.539 76.84C626.56 76.4347 626.731 75.9653 627.051 75.432C627.371 74.8773 627.862 74.344 628.523 73.832C629.206 73.32 630.07 72.8933 631.115 72.552C632.182 72.2107 633.462 72.04 634.955 72.04C636.406 72.04 637.664 72.2 638.731 72.52C639.819 72.8187 640.715 73.2667 641.419 73.864C642.123 74.44 642.646 75.1653 642.987 76.04C643.35 76.8933 643.531 77.864 643.531 78.952V88.136C643.531 88.3707 643.446 88.5733 643.275 88.744C643.104 88.9147 642.902 89 642.667 89H637.067C636.832 89 636.63 88.9147 636.459 88.744C636.288 88.5733 636.203 88.3707 636.203 88.136V87.24C635.904 87.6667 635.52 88.04 635.051 88.36C634.603 88.6587 634.091 88.8933 633.515 89.064C632.939 89.2347 632.32 89.32 631.659 89.32ZM633.867 84.584C634.294 84.584 634.656 84.4987 634.955 84.328C635.275 84.1573 635.52 83.8907 635.691 83.528C635.862 83.144 635.947 82.6747 635.947 82.12V82.088L634.059 82.504C633.504 82.632 633.131 82.8027 632.939 83.016C632.747 83.2293 632.651 83.4533 632.651 83.688C632.651 83.8373 632.694 83.9867 632.779 84.136C632.886 84.264 633.024 84.3707 633.195 84.456C633.387 84.5413 633.611 84.584 633.867 84.584ZM650.637 89C650.403 89 650.2 88.9147 650.029 88.744C649.859 88.5733 649.773 88.3707 649.773 88.136V77.96H645.517C645.283 77.96 645.08 77.8747 644.909 77.704C644.739 77.5333 644.653 77.3307 644.653 77.096V73.224C644.653 72.9893 644.739 72.7867 644.909 72.616C645.08 72.4453 645.283 72.36 645.517 72.36H661.357C661.592 72.36 661.795 72.4453 661.965 72.616C662.136 72.7867 662.221 72.9893 662.221 73.224V77.096C662.221 77.3307 662.136 77.5333 661.965 77.704C661.795 77.8747 661.592 77.96 661.357 77.96H657.101V88.136C657.101 88.3707 657.016 88.5733 656.845 88.744C656.675 88.9147 656.472 89 656.237 89H650.637Z" fill="white"/>
</svg>
