<svg width="760" height="119" viewBox="0 0 760 119" fill="none" xmlns="http://www.w3.org/2000/svg">
<path d="M95.9668 68.0301L33.123 70.2369C15.0208 70.8725 0 56.37 0 38.2566V32.3383C0 14.5336 14.5329 0.152845 32.3366 0.340089L425.857 4.47881C436.9 4.59496 443.091 17.2496 436.404 26.039C429.677 34.8803 435.982 47.6 447.092 47.6H728C745.673 47.6 760 61.9269 760 79.6V86.7767C760 104.537 745.537 118.899 727.777 118.776L112.53 114.497C100.232 114.412 94.8877 98.9031 104.522 91.2598C114.373 83.4448 108.533 67.5889 95.9668 68.0301Z" fill="#040F16"/>
<path d="M16.6643 40.3897C16.4296 40.39 16.2268 40.3048 16.0559 40.1343C15.885 39.9638 15.7994 39.7613 15.7991 39.5266L15.7714 18.8546C15.771 18.6199 15.8561 18.4172 16.0265 18.2464C16.197 18.0755 16.3995 17.99 16.6342 17.9898L31.6742 17.9751C31.9089 17.9748 32.1116 18.06 32.2825 18.2305C32.4534 18.401 32.539 18.6036 32.5394 18.8382L32.5458 23.6702C32.5462 23.9049 32.4611 24.1076 32.2907 24.2785C32.1202 24.4493 31.9177 24.5348 31.683 24.5351L23.779 24.5428L23.7991 39.5188C23.7994 39.7534 23.7144 39.9562 23.5439 40.127C23.3735 40.2979 23.1709 40.3834 22.9363 40.3836L16.6643 40.3897ZM34.8605 40.372C34.6259 40.3722 34.4231 40.2871 34.2522 40.1166C34.0813 39.9461 33.9957 39.7435 33.9954 39.5088L33.9753 24.5968C33.975 24.3622 34.0601 24.1594 34.2305 23.9886C34.401 23.8178 34.6035 23.7322 34.8382 23.732L40.5662 23.7264C40.8008 23.7262 41.0036 23.8113 41.1745 23.9818C41.3454 24.1523 41.431 24.3549 41.4313 24.5896L41.4449 34.6695L39.4921 34.0955L45.8789 24.2652C45.9853 24.0944 46.1132 23.9663 46.2624 23.8808C46.4329 23.774 46.6142 23.7205 46.8062 23.7203L51.8942 23.7153C52.1288 23.7151 52.3316 23.8002 52.5025 23.9707C52.6734 24.1412 52.759 24.3438 52.7593 24.5785L52.7794 39.4905C52.7797 39.7251 52.6946 39.9279 52.5242 40.0987C52.3537 40.2696 52.1512 40.3551 51.9165 40.3553L46.1885 40.3609C45.9539 40.3611 45.7511 40.276 45.5802 40.1055C45.4093 39.935 45.3237 39.7324 45.3234 39.4978L45.3098 29.4178L47.2626 29.9919L40.8758 39.8221C40.7694 39.9929 40.6309 40.1317 40.4604 40.2385C40.3111 40.324 40.1405 40.3668 39.9485 40.367L34.8605 40.372ZM63.4077 40.6641C61.253 40.6662 59.514 40.3692 58.1905 39.7732C56.867 39.1558 55.8843 38.1648 55.2425 36.8001C54.622 35.414 54.2462 33.569 54.1151 31.2652C54.0929 30.6465 54.0814 29.9959 54.0804 29.3132C54.0795 28.6092 54.0893 27.9585 54.1098 27.3612C54.1929 25.6971 54.415 24.2782 54.7761 23.1045C55.1372 21.9308 55.6692 20.9383 56.3721 20.127C57.0963 19.2943 58.0234 18.5894 59.1533 18.0122C60.3045 17.4351 61.6905 16.9324 63.3112 16.5042C64.9533 16.0546 66.8727 15.6047 69.0694 15.1546C69.3041 15.1117 69.5281 15.1541 69.7416 15.2819C69.9551 15.4097 70.0727 15.6122 70.0944 15.8896L70.9002 20.2088C70.9433 20.4861 70.9009 20.7208 70.7732 20.9129C70.6454 21.105 70.4643 21.2225 70.2296 21.2654C68.5447 21.5231 67.1477 21.7698 66.0386 22.0055C64.951 22.2413 64.0767 22.5194 63.4158 22.8401C62.7548 23.1394 62.2647 23.5345 61.9453 24.0255C61.6473 24.4951 61.4454 25.0927 61.3398 25.8181C61.2554 26.5435 61.2139 27.4502 61.2154 28.5382L60.3495 27.0991C60.5837 26.7789 60.9246 26.4799 61.3723 26.2021C61.8199 25.9243 62.3316 25.6998 62.9074 25.5286C63.5045 25.3573 64.1337 25.2714 64.795 25.2707C66.459 25.2691 67.8567 25.5131 68.988 26.0026C70.1193 26.4709 70.9843 27.174 71.5828 28.1121C72.2028 29.0502 72.567 30.2232 72.6756 31.631C72.7407 32.5057 72.7419 33.391 72.6791 34.287C72.5743 35.6738 72.1599 36.8476 71.4359 37.8083C70.7331 38.7476 69.7101 39.4633 68.3667 39.9553C67.0234 40.4259 65.3704 40.6622 63.4077 40.6641ZM63.4016 36.1201C64.0203 36.1195 64.404 35.9591 64.5529 35.639C64.7232 35.3188 64.8185 34.8281 64.839 34.1667C64.8599 33.868 64.87 33.4627 64.8693 32.9507C64.8686 32.4387 64.8575 32.044 64.8357 31.7667C64.8136 31.1481 64.7276 30.6788 64.5779 30.359C64.4281 30.0178 64.0758 29.8474 63.5212 29.848C62.8598 29.8486 62.4441 30.0197 62.2739 30.3612C62.1036 30.6814 61.9976 31.1508 61.9557 31.7695C61.9348 32.0469 61.9246 32.4415 61.9253 32.9535C61.926 33.4655 61.9372 33.8709 61.959 34.1695C62.0025 34.8308 62.0992 35.3214 62.2489 35.6412C62.42 35.9611 62.8043 36.1207 63.4016 36.1201ZM75.3305 40.3325C75.0958 40.3327 74.8931 40.2476 74.7222 40.0771C74.5513 39.9066 74.4657 39.704 74.4653 39.4693L74.4453 24.5573C74.445 24.3227 74.5301 24.1199 74.7005 23.9491C74.8709 23.7782 75.0735 23.6927 75.3082 23.6925L80.9082 23.687C81.1428 23.6868 81.3456 23.7719 81.5165 23.9424C81.6874 24.1129 81.773 24.3155 81.7733 24.5502L81.7795 29.1262L82.4835 29.1255L85.2289 24.2268C85.2714 24.1414 85.3673 24.0347 85.5165 23.9065C85.6656 23.757 85.8788 23.6822 86.1562 23.6819L92.3002 23.6759C92.5135 23.6757 92.6949 23.7502 92.8445 23.8994C92.994 24.0485 93.0689 24.2298 93.0692 24.4431C93.0693 24.5285 93.0481 24.6245 93.0056 24.7312C92.9844 24.8165 92.9524 24.8806 92.9098 24.9233L88.8551 31.8073L93.7289 39.1305C93.8144 39.2584 93.8573 39.397 93.8575 39.5464C93.8578 39.7597 93.7833 39.9411 93.6342 40.0906C93.4851 40.2401 93.3038 40.3149 93.0905 40.3151L86.3705 40.3217C86.1145 40.3219 85.9118 40.2688 85.7623 40.1623C85.6128 40.0558 85.4846 39.9279 85.3778 39.7786L82.331 34.7256L81.787 34.7262L81.7933 39.4621C81.7937 39.6968 81.7086 39.8996 81.5382 40.0704C81.3677 40.2412 81.1652 40.3268 80.9305 40.327L75.3305 40.3325ZM96.003 40.3123C95.7683 40.3125 95.5655 40.2274 95.3947 40.0569C95.2238 39.8864 95.1382 39.6838 95.1378 39.4491L95.1178 24.5371C95.1175 24.3025 95.2026 24.0997 95.373 23.9289C95.5434 23.758 95.746 23.6725 95.9807 23.6723L101.709 23.6667C101.943 23.6665 102.146 23.7516 102.317 23.9221C102.488 24.0926 102.573 24.2952 102.574 24.5299L102.587 34.6098L100.635 34.0357L107.021 24.2055C107.128 24.0347 107.256 23.9066 107.405 23.8211C107.575 23.7143 107.757 23.6608 107.949 23.6606L113.037 23.6556C113.271 23.6554 113.474 23.7405 113.645 23.911C113.816 24.0815 113.901 24.2841 113.902 24.5188L113.922 39.4308C113.922 39.6654 113.837 39.8682 113.667 40.039C113.496 40.2099 113.294 40.2954 113.059 40.2956L107.331 40.3012C107.096 40.3014 106.894 40.2163 106.723 40.0458C106.552 39.8753 106.466 39.6727 106.466 39.4381L106.452 29.3581L108.405 29.9322L102.018 39.7624C101.912 39.9332 101.773 40.072 101.603 40.1788C101.454 40.2643 101.283 40.3071 101.091 40.3073L96.003 40.3123ZM116.582 40.2922C116.347 40.2924 116.144 40.2073 115.973 40.0368C115.802 39.8663 115.717 39.6637 115.717 39.429L115.697 24.517C115.696 24.2824 115.781 24.0796 115.952 23.9088C116.122 23.738 116.325 23.6524 116.559 23.6522L122.287 23.6466C122.522 23.6464 122.725 23.7315 122.896 23.902C123.067 24.0725 123.152 24.2751 123.153 24.5098L123.166 34.5897L121.213 34.0157L127.6 24.1854C127.707 24.0146 127.834 23.8865 127.984 23.801C128.154 23.6942 128.335 23.6407 128.527 23.6405L133.615 23.6355C133.85 23.6353 134.053 23.7204 134.224 23.8909C134.395 24.0614 134.48 24.264 134.481 24.4987L134.501 39.4107C134.501 39.6453 134.416 39.8481 134.245 40.0189C134.075 40.1898 133.872 40.2753 133.638 40.2755L127.91 40.2811C127.675 40.2813 127.472 40.1962 127.301 40.0257C127.13 39.8552 127.045 39.6526 127.045 39.418L127.031 29.338L128.984 29.9121L122.597 39.7423C122.491 39.9131 122.352 40.0519 122.182 40.1587C122.032 40.2442 121.862 40.287 121.67 40.2872L116.582 40.2922ZM125.517 21.5314C124.087 21.5328 122.903 21.31 121.964 20.8629C121.046 20.4158 120.352 19.8085 119.881 19.0409C119.432 18.2734 119.207 17.3989 119.206 16.4176C119.205 16.2469 119.248 16.1082 119.333 16.0015C119.44 15.8734 119.6 15.8092 119.813 15.809L123.621 15.8053C123.813 15.8051 123.962 15.869 124.069 15.9969C124.176 16.1034 124.229 16.242 124.23 16.4127C124.23 16.818 124.316 17.1593 124.487 17.4365C124.658 17.7136 125 17.852 125.512 17.8515C126.024 17.851 126.365 17.712 126.535 17.4345C126.705 17.157 126.79 16.8155 126.79 16.4102C126.789 16.2395 126.843 16.1008 126.949 15.994C127.056 15.8659 127.205 15.8018 127.397 15.8016L131.205 15.7979C131.397 15.7977 131.546 15.8616 131.653 15.9895C131.76 16.096 131.813 16.2346 131.814 16.4053C131.815 17.3866 131.582 18.2615 131.113 19.03C130.666 19.7984 129.974 20.4071 129.036 20.856C128.119 21.3049 126.946 21.5301 125.517 21.5314ZM146.618 40.2629C146.383 40.2631 146.181 40.1779 146.01 40.0074C145.839 39.8369 145.753 39.6344 145.753 39.3997L145.739 29.2237L141.483 29.2279C141.248 29.2281 141.046 29.143 140.875 28.9725C140.704 28.802 140.618 28.5994 140.618 28.3647L140.613 24.4927C140.612 24.258 140.698 24.0553 140.868 23.8845C141.038 23.7136 141.241 23.6281 141.476 23.6279L157.316 23.6124C157.55 23.6122 157.753 23.6973 157.924 23.8678C158.095 24.0383 158.18 24.2409 158.181 24.4756L158.186 28.3476C158.186 28.5822 158.101 28.785 157.931 28.9558C157.76 29.1266 157.558 29.2122 157.323 29.2124L153.067 29.2165L153.081 39.3925C153.081 39.6272 152.996 39.83 152.826 40.0008C152.655 40.1716 152.453 40.2572 152.218 40.2574L146.618 40.2629ZM164.798 40.5651C163.582 40.5663 162.504 40.3433 161.565 39.8963C160.625 39.4492 159.889 38.8419 159.354 38.0744C158.841 37.3069 158.584 36.4432 158.583 35.4832C158.581 33.9258 159.208 32.7092 160.466 31.8333C161.745 30.9361 163.451 30.3051 165.583 29.9403L168.975 29.393L168.975 29.361C168.974 28.8064 168.92 28.4011 168.813 28.1452C168.727 27.8893 168.46 27.7615 168.012 27.762C167.714 27.7622 167.469 27.8265 167.277 27.9547C167.106 28.0615 166.914 28.2217 166.701 28.4352C166.467 28.6701 166.169 28.7878 165.806 28.7881L160.366 28.7934C160.153 28.7936 159.971 28.7298 159.822 28.602C159.693 28.4741 159.64 28.3035 159.661 28.0901C159.682 27.6848 159.852 27.2153 160.171 26.6816C160.49 26.1266 160.98 25.5928 161.641 25.0802C162.323 24.5675 163.186 24.14 164.231 23.7976C165.297 23.4553 166.577 23.2834 168.07 23.2819C169.521 23.2805 170.78 23.4393 171.847 23.7582C172.935 24.0558 173.832 24.5029 174.537 25.0996C175.242 25.6749 175.765 26.3997 176.108 27.2741C176.472 28.127 176.654 29.0975 176.656 30.1855L176.668 39.3695C176.668 39.6042 176.583 39.8069 176.413 39.9778C176.242 40.1486 176.04 40.2341 175.805 40.2344L170.205 40.2398C169.971 40.24 169.768 40.1549 169.597 39.9844C169.426 39.8139 169.34 39.6113 169.34 39.3767L169.339 38.4807C169.041 38.9076 168.657 39.2813 168.188 39.6018C167.741 39.9009 167.229 40.1361 166.653 40.3073C166.078 40.4785 165.459 40.5645 164.798 40.5651ZM166.999 35.8269C167.426 35.8265 167.789 35.7408 168.087 35.5699C168.407 35.3989 168.652 35.132 168.822 34.7692C168.992 34.385 169.077 33.9156 169.076 33.3609L169.076 33.3289L167.188 33.7468C166.634 33.8753 166.261 34.0463 166.069 34.2599C165.877 34.4734 165.782 34.6975 165.782 34.9321C165.782 35.0815 165.825 35.2308 165.911 35.38C166.018 35.5079 166.156 35.6144 166.327 35.6996C166.519 35.7848 166.743 35.8272 166.999 35.8269ZM179.624 46.3106C179.389 46.3109 179.186 46.2257 179.015 46.0552C178.844 45.8847 178.759 45.6821 178.758 45.4475L178.73 24.4555C178.73 24.2208 178.815 24.0181 178.985 23.8472C179.156 23.6764 179.358 23.5909 179.593 23.5906L185.033 23.5853C185.268 23.5851 185.471 23.6702 185.641 23.8407C185.812 24.0112 185.898 24.2138 185.898 24.4485L185.9 25.4085C186.389 24.7893 187.018 24.2767 187.785 23.8706C188.574 23.4645 189.523 23.2609 190.633 23.2599C191.571 23.2589 192.436 23.3968 193.225 23.6733C194.015 23.9286 194.709 24.3546 195.307 24.9513C195.926 25.5267 196.418 26.2836 196.782 27.2219C197.146 28.1602 197.361 29.3013 197.427 30.6452C197.449 31.1145 197.46 31.5305 197.46 31.8932C197.461 32.2559 197.451 32.6825 197.43 33.1732C197.389 34.4319 197.188 35.5308 196.826 36.4698C196.465 37.3875 195.975 38.1453 195.357 38.7433C194.761 39.3412 194.058 39.7899 193.247 40.0893C192.458 40.3888 191.595 40.5389 190.656 40.5399C189.76 40.5407 188.949 40.3922 188.223 40.0942C187.498 39.7963 186.889 39.3062 186.397 38.624L186.406 45.44C186.407 45.6747 186.322 45.8774 186.151 46.0483C185.981 46.2191 185.778 46.3046 185.544 46.3048L179.624 46.3106ZM187.992 34.8144C188.398 34.8141 188.707 34.7391 188.92 34.5895C189.133 34.44 189.282 34.2265 189.367 33.9491C189.473 33.6717 189.548 33.3409 189.59 32.9569C189.653 32.2528 189.652 31.5488 189.587 30.8449C189.544 30.4609 189.469 30.1303 189.362 29.8531C189.276 29.5759 189.126 29.3627 188.913 29.2135C188.699 29.0644 188.39 28.9901 187.984 28.9905C187.6 28.9908 187.291 29.0658 187.057 29.2154C186.822 29.3649 186.652 29.5784 186.546 29.8559C186.461 30.1333 186.408 30.464 186.387 30.848C186.366 31.3174 186.356 31.712 186.356 32.032C186.357 32.3307 186.368 32.7254 186.39 33.216C186.412 33.5573 186.476 33.8453 186.583 34.0798C186.712 34.3144 186.882 34.4955 187.096 34.6233C187.331 34.7511 187.63 34.8148 187.992 34.8144ZM200.132 40.2106C199.897 40.2108 199.694 40.1257 199.523 39.9552C199.352 39.7847 199.267 39.5821 199.267 39.3474L199.247 24.4355C199.246 24.2008 199.331 23.998 199.502 23.8272C199.672 23.6564 199.875 23.5708 200.109 23.5706L205.837 23.565C206.072 23.5648 206.275 23.6499 206.446 23.8204C206.617 23.9909 206.702 24.1935 206.703 24.4282L206.716 34.5082L204.763 33.9341L211.15 24.1038C211.257 23.9331 211.384 23.8049 211.534 23.7195C211.704 23.6126 211.885 23.5591 212.077 23.5589L217.165 23.554C217.4 23.5537 217.603 23.6389 217.774 23.8094C217.945 23.9799 218.03 24.1824 218.031 24.4171L218.051 39.3291C218.051 39.5638 217.966 39.7665 217.795 39.9374C217.625 40.1082 217.422 40.1937 217.188 40.1939L211.46 40.1995C211.225 40.1998 211.022 40.1146 210.851 39.9441C210.68 39.7736 210.595 39.571 210.595 39.3364L210.581 29.2564L212.534 29.8305L206.147 39.6607C206.041 39.8315 205.902 39.9703 205.732 40.0771C205.582 40.1626 205.412 40.2054 205.22 40.2056L200.132 40.2106ZM229.679 46.2618C229.444 46.262 229.241 46.1768 229.07 46.0063C228.899 45.8358 228.814 45.6333 228.813 45.3986L228.806 40.1826C226.822 40.1845 225.147 39.9302 223.781 39.4195C222.415 38.9088 221.369 38.1525 220.642 37.1506C219.916 36.1273 219.498 34.869 219.389 33.3758C219.324 32.3732 219.323 31.3705 219.385 30.3678C219.49 28.8744 219.926 27.6259 220.692 26.6225C221.48 25.5977 222.556 24.8287 223.921 24.3154C225.307 23.802 226.928 23.5444 228.784 23.5426L228.777 18.3266C228.777 18.092 228.862 17.8892 229.032 17.7184C229.203 17.5475 229.405 17.462 229.64 17.4618L235.368 17.4562C235.603 17.456 235.805 17.5411 235.976 17.7116C236.147 17.8821 236.233 18.0847 236.233 18.3193L236.24 23.5353C238.117 23.5335 239.739 23.7879 241.105 24.2986C242.471 24.8092 243.539 25.5762 244.308 26.5995C245.099 27.6014 245.549 28.8489 245.657 30.3421C245.723 31.3447 245.724 32.3474 245.661 33.3501C245.557 34.8436 245.142 36.1026 244.418 37.1274C243.694 38.1307 242.65 38.8891 241.285 39.4024C239.942 39.9157 238.268 40.1734 236.262 40.1753L236.269 45.3913C236.27 45.626 236.185 45.8287 236.014 45.9996C235.844 46.1704 235.641 46.2559 235.407 46.2562L229.679 46.2618ZM228.864 35.0625L228.855 28.6625C228.066 28.6633 227.533 28.8345 227.256 29.1761C226.979 29.5177 226.82 30.0725 226.778 30.8406C226.757 31.1179 226.747 31.4699 226.747 31.8966C226.748 32.3233 226.759 32.6539 226.781 32.8886C226.867 33.7418 227.049 34.3176 227.327 34.616C227.605 34.9144 228.117 35.0633 228.864 35.0625ZM236.192 35.0554C237.002 35.0546 237.535 34.8941 237.791 34.5738C238.046 34.2536 238.206 33.6881 238.269 32.8774C238.29 32.6427 238.3 32.312 238.299 31.8853C238.299 31.4587 238.288 31.1067 238.266 30.8294C238.243 30.0187 238.072 29.4535 237.752 29.1339C237.453 28.8142 236.93 28.6547 236.183 28.6554L236.192 35.0554ZM248.32 40.1635C248.086 40.1638 247.883 40.0786 247.712 39.9081C247.541 39.7376 247.456 39.5351 247.455 39.3004L247.435 24.3884C247.435 24.1537 247.52 23.951 247.69 23.7802C247.861 23.6093 248.063 23.5238 248.298 23.5236L254.026 23.518C254.261 23.5177 254.464 23.6029 254.634 23.7734C254.805 23.9439 254.891 24.1465 254.891 24.3811L254.897 28.9571L258.097 28.954L258.091 24.378C258.091 24.1433 258.176 23.9406 258.346 23.7697C258.517 23.5989 258.719 23.5134 258.954 23.5132L264.682 23.5076C264.917 23.5073 265.12 23.5925 265.29 23.763C265.461 23.9335 265.547 24.1361 265.547 24.3707L265.567 39.2827C265.568 39.5174 265.483 39.7201 265.312 39.891C265.142 40.0618 264.939 40.1473 264.704 40.1475L258.976 40.1531C258.742 40.1534 258.539 40.0682 258.368 39.8977C258.197 39.7272 258.112 39.5247 258.111 39.29L258.105 34.554L254.905 34.5571L254.911 39.2931C254.912 39.5278 254.827 39.7305 254.656 39.9014C254.486 40.0722 254.283 40.1577 254.048 40.158L248.32 40.1635ZM268.899 40.1435C268.664 40.1437 268.462 40.0585 268.291 39.888C268.12 39.7175 268.034 39.515 268.034 39.2803L268.014 24.3683C268.014 24.1336 268.099 23.9309 268.269 23.7601C268.44 23.5892 268.642 23.5037 268.877 23.5035L274.637 23.4978C274.871 23.4976 275.074 23.5827 275.245 23.7532C275.416 23.9237 275.502 24.1263 275.502 24.361L275.507 28.329L278.067 28.3265C280.201 28.3244 281.929 28.8454 283.253 29.8894C284.577 30.9335 285.241 32.3835 285.243 34.2395C285.246 36.0955 284.586 37.5468 283.265 38.5934C281.944 39.6187 280.216 40.1324 278.083 40.1345L268.899 40.1435ZM275.357 35.3691L277.437 35.3671C277.863 35.3667 278.183 35.2704 278.396 35.0782C278.609 34.886 278.716 34.6085 278.715 34.2459C278.715 33.8832 278.608 33.606 278.394 33.4142C278.181 33.2011 277.86 33.0947 277.434 33.0951L275.354 33.0971L275.357 35.3691ZM287.811 40.125C287.576 40.1252 287.374 40.0401 287.203 39.8696C287.032 39.6991 286.946 39.4965 286.946 39.2618L286.926 24.3498C286.926 24.1152 287.011 23.9124 287.181 23.7416C287.352 23.5708 287.554 23.4852 287.789 23.485L293.517 23.4794C293.751 23.4792 293.954 23.5643 294.125 23.7348C294.296 23.9053 294.382 24.1079 294.382 24.3426L294.402 39.2545C294.402 39.4892 294.317 39.692 294.147 39.8628C293.976 40.0336 293.774 40.1192 293.539 40.1194L287.811 40.125ZM297.728 40.1153C297.493 40.1155 297.29 40.0304 297.12 39.8599C296.949 39.6894 296.863 39.4868 296.863 39.2521L296.843 24.3402C296.842 24.1055 296.927 23.9027 297.098 23.7319C297.268 23.5611 297.471 23.4755 297.706 23.4753L303.434 23.4697C303.668 23.4695 303.871 23.5546 304.042 23.7251C304.213 23.8956 304.298 24.0982 304.299 24.3329L304.312 34.4129L302.359 33.8388L308.746 24.0085C308.853 23.8378 308.981 23.7096 309.13 23.6242C309.3 23.5173 309.482 23.4638 309.674 23.4636L314.762 23.4587C314.996 23.4584 315.199 23.5436 315.37 23.7141C315.541 23.8846 315.626 24.0872 315.627 24.3218L315.647 39.2338C315.647 39.4685 315.562 39.6712 315.392 39.8421C315.221 40.0129 315.019 40.0984 314.784 40.0986L309.056 40.1042C308.821 40.1045 308.618 40.0193 308.448 39.8488C308.277 39.6783 308.191 39.4758 308.191 39.2411L308.177 29.1611L310.13 29.7352L303.743 39.5654C303.637 39.7362 303.498 39.875 303.328 39.9818C303.179 40.0673 303.008 40.1101 302.816 40.1103L297.728 40.1153ZM306.663 21.3546C305.233 21.356 304.049 21.1331 303.11 20.686C302.192 20.2389 301.498 19.6316 301.027 18.8641C300.578 18.0965 300.353 17.2221 300.352 16.2407C300.352 16.0701 300.394 15.9314 300.479 15.8246C300.586 15.6965 300.746 15.6323 300.959 15.6321L304.767 15.6284C304.959 15.6282 305.108 15.6921 305.215 15.82C305.322 15.9265 305.376 16.0652 305.376 16.2358C305.376 16.6412 305.462 16.9824 305.633 17.2596C305.804 17.5367 306.146 17.6751 306.658 17.6746C307.17 17.6741 307.511 17.5351 307.681 17.2576C307.852 16.9801 307.936 16.6387 307.936 16.2333C307.936 16.0627 307.989 15.9239 308.095 15.8172C308.202 15.6891 308.351 15.6249 308.543 15.6247L312.351 15.621C312.543 15.6208 312.692 15.6847 312.799 15.8126C312.906 15.9191 312.96 16.0578 312.96 16.2284C312.961 17.2097 312.728 18.0846 312.259 18.8531C311.812 19.6215 311.12 20.2302 310.182 20.6791C309.265 21.128 308.092 21.3532 306.663 21.3546ZM323.604 40.09C323.369 40.0903 323.167 40.0051 322.996 39.8346C322.825 39.6641 322.739 39.4615 322.739 39.2269L322.719 24.3149C322.719 24.0802 322.804 23.8775 322.974 23.7066C323.145 23.5358 323.347 23.4503 323.582 23.45L339.966 23.434C340.2 23.4338 340.403 23.519 340.574 23.6895C340.745 23.86 340.831 24.0625 340.831 24.2972L340.851 39.2092C340.851 39.4439 340.766 39.6466 340.596 39.8174C340.425 39.9883 340.223 40.0738 339.988 40.074L334.26 40.0796C334.025 40.0799 333.823 39.9947 333.652 39.8242C333.481 39.6537 333.395 39.4511 333.395 39.2165L333.381 29.0405L330.181 29.0436L330.195 39.2196C330.195 39.4543 330.11 39.657 329.94 39.8278C329.769 39.9987 329.567 40.0842 329.332 40.0844L323.604 40.09ZM343.543 40.0706C343.308 40.0708 343.105 39.9857 342.935 39.8152C342.764 39.6447 342.678 39.4421 342.678 39.2074L342.672 35.0154C342.671 34.5461 342.959 34.2578 343.535 34.1506C344.111 34.0433 344.505 33.7763 344.718 33.3494C344.931 32.9225 345.047 32.3571 345.068 31.6531C345.109 30.9277 345.129 30.0957 345.128 29.157L345.122 24.293C345.121 24.0583 345.206 23.8556 345.377 23.6848C345.547 23.5139 345.75 23.4284 345.985 23.4282L360.577 23.4139C360.811 23.4137 361.014 23.4988 361.185 23.6693C361.356 23.8398 361.441 24.0424 361.442 24.2771L361.462 39.1891C361.462 39.4237 361.377 39.6265 361.207 39.7973C361.036 39.9682 360.834 40.0537 360.599 40.0539L354.871 40.0595C354.636 40.0597 354.433 39.9746 354.263 39.8041C354.092 39.6336 354.006 39.431 354.006 39.1963L353.992 29.0204L352.168 29.0221L352.169 29.9501C352.172 31.9555 352.068 33.6196 351.856 34.9424C351.644 36.2653 351.23 37.3004 350.612 38.0477C350.016 38.7736 349.142 39.2971 347.99 39.6182C346.86 39.918 345.378 40.0688 343.543 40.0706ZM369.241 40.3655C368.025 40.3667 366.948 40.1437 366.008 39.6966C365.069 39.2495 364.332 38.6423 363.798 37.8748C363.285 37.1073 363.028 36.2435 363.026 35.2835C363.024 33.7262 363.652 32.5096 364.91 31.6337C366.188 30.7364 367.894 30.1054 370.027 29.7407L373.418 29.1934L373.418 29.1614C373.418 28.6067 373.364 28.2014 373.257 27.9455C373.171 27.6896 372.904 27.5619 372.456 27.5623C372.157 27.5626 371.912 27.6269 371.72 27.755C371.55 27.8619 371.358 28.0221 371.145 28.2356C370.911 28.4705 370.612 28.5881 370.249 28.5885L364.809 28.5938C364.596 28.594 364.415 28.5302 364.265 28.4023C364.137 28.2745 364.084 28.1038 364.105 27.8905C364.125 27.4851 364.295 27.0156 364.615 26.482C364.934 25.927 365.424 25.3932 366.085 24.8805C366.766 24.3679 367.63 23.9404 368.675 23.598C369.741 23.2556 371.021 23.0837 372.514 23.0823C373.965 23.0809 375.224 23.2396 376.291 23.5586C377.379 23.8562 378.276 24.3033 378.981 24.9C379.685 25.4753 380.209 26.2001 380.551 27.0744C380.915 27.9274 381.098 28.8979 381.099 29.9859L381.112 39.1699C381.112 39.4045 381.027 39.6073 380.857 39.7781C380.686 39.949 380.484 40.0345 380.249 40.0347L374.649 40.0402C374.414 40.0404 374.211 39.9553 374.041 39.7848C373.87 39.6143 373.784 39.4117 373.784 39.177L373.783 38.281C373.484 38.708 373.101 39.0817 372.632 39.4022C372.184 39.7013 371.673 39.9364 371.097 40.1077C370.521 40.2789 369.903 40.3648 369.241 40.3655ZM371.443 35.6273C371.87 35.6269 372.232 35.5412 372.531 35.3703C372.85 35.1993 373.095 34.9324 373.266 34.5695C373.436 34.1854 373.52 33.716 373.52 33.1613L373.52 33.1293L371.632 33.5471C371.078 33.6757 370.705 33.8467 370.513 34.0602C370.321 34.2737 370.225 34.4978 370.226 34.7325C370.226 34.8818 370.269 35.0311 370.354 35.1804C370.461 35.3083 370.6 35.4148 370.771 35.5C370.963 35.5851 371.187 35.6276 371.443 35.6273ZM384.059 40.031C383.824 40.0312 383.622 39.9461 383.451 39.7756C383.28 39.6051 383.194 39.4025 383.194 39.1678L383.174 24.2559C383.174 24.0212 383.259 23.8184 383.429 23.6476C383.6 23.4768 383.802 23.3912 384.037 23.391L389.765 23.3854C389.999 23.3852 390.202 23.4703 390.373 23.6408C390.544 23.8113 390.63 24.0139 390.63 24.2486L390.636 28.8246L393.836 28.8215L393.83 24.2455C393.83 24.0108 393.915 23.808 394.085 23.6372C394.256 23.4664 394.458 23.3808 394.693 23.3806L400.421 23.375C400.655 23.3748 400.858 23.4599 401.029 23.6304C401.2 23.8009 401.286 24.0035 401.286 24.2382L401.306 39.1502C401.306 39.3848 401.221 39.5876 401.051 39.7584C400.88 39.9292 400.678 40.0148 400.443 40.015L394.715 40.0206C394.48 40.0208 394.278 39.9357 394.107 39.7652C393.936 39.5947 393.85 39.3921 393.85 39.1574L393.844 34.4214L390.644 34.4246L390.65 39.1606C390.65 39.3952 390.565 39.598 390.395 39.7688C390.224 39.9396 390.022 40.0252 389.787 40.0254L384.059 40.031Z" fill="white"/>
<path d="M122.394 89C122.159 89 121.957 88.9147 121.786 88.744C121.615 88.5733 121.53 88.3707 121.53 88.136V73.224C121.53 72.9893 121.615 72.7867 121.786 72.616C121.957 72.4453 122.159 72.36 122.394 72.36H128.122C128.357 72.36 128.559 72.4453 128.73 72.616C128.901 72.7867 128.986 72.9893 128.986 73.224V83.304L127.034 82.728L133.434 72.904C133.541 72.7333 133.669 72.6053 133.818 72.52C133.989 72.4133 134.17 72.36 134.362 72.36H139.45C139.685 72.36 139.887 72.4453 140.058 72.616C140.229 72.7867 140.314 72.9893 140.314 73.224V88.136C140.314 88.3707 140.229 88.5733 140.058 88.744C139.887 88.9147 139.685 89 139.45 89H133.722C133.487 89 133.285 88.9147 133.114 88.744C132.943 88.5733 132.858 88.3707 132.858 88.136V78.056L134.81 78.632L128.41 88.456C128.303 88.6267 128.165 88.7653 127.994 88.872C127.845 88.9573 127.674 89 127.482 89H122.394ZM148.27 89C148.036 89 147.833 88.9147 147.662 88.744C147.492 88.5733 147.406 88.3707 147.406 88.136V73.224C147.406 72.9893 147.492 72.7867 147.662 72.616C147.833 72.4453 148.036 72.36 148.27 72.36H156.494C159.481 72.36 161.614 72.808 162.894 73.704C164.196 74.6 164.846 75.816 164.846 77.352C164.846 78.0347 164.708 78.632 164.43 79.144C164.153 79.656 163.801 80.0933 163.374 80.456C163.993 80.8187 164.494 81.2773 164.878 81.832C165.284 82.3653 165.486 83.0587 165.486 83.912C165.486 85.448 164.836 86.6853 163.534 87.624C162.254 88.5413 160.121 89 157.134 89H148.27ZM154.574 84.616H156.814C157.177 84.616 157.454 84.5627 157.646 84.456C157.86 84.3493 157.966 84.136 157.966 83.816C157.966 83.496 157.86 83.2827 157.646 83.176C157.454 83.048 157.177 82.984 156.814 82.984H154.574V84.616ZM154.574 78.376H156.814C157.198 78.376 157.486 78.3227 157.678 78.216C157.87 78.1093 157.966 77.896 157.966 77.576C157.966 77.256 157.86 77.0427 157.646 76.936C157.454 76.808 157.177 76.744 156.814 76.744H154.574V78.376ZM176.192 89.32C174.229 89.32 172.576 89.0533 171.232 88.52C169.888 87.9867 168.853 87.1867 168.128 86.12C167.424 85.0533 167.019 83.7413 166.912 82.184C166.891 81.6933 166.88 81.192 166.88 80.68C166.88 80.1467 166.891 79.6453 166.912 79.176C167.019 77.5973 167.456 76.2853 168.224 75.24C168.992 74.1733 170.048 73.3733 171.392 72.84C172.736 72.3067 174.336 72.04 176.192 72.04C178.048 72.04 179.648 72.3067 180.992 72.84C182.336 73.3733 183.392 74.1733 184.16 75.24C184.928 76.2853 185.365 77.5973 185.472 79.176C185.515 79.6453 185.536 80.1467 185.536 80.68C185.536 81.192 185.515 81.6933 185.472 82.184C185.365 83.7413 184.949 85.0533 184.224 86.12C183.52 87.1867 182.496 87.9867 181.152 88.52C179.808 89.0533 178.155 89.32 176.192 89.32ZM176.192 84.2C176.811 84.2 177.195 84.0293 177.344 83.688C177.493 83.3253 177.589 82.7707 177.632 82.024C177.653 81.704 177.664 81.256 177.664 80.68C177.664 80.104 177.653 79.656 177.632 79.336C177.589 78.632 177.493 78.0987 177.344 77.736C177.195 77.352 176.811 77.16 176.192 77.16C175.595 77.16 175.211 77.352 175.04 77.736C174.891 78.0987 174.795 78.632 174.752 79.336C174.731 79.656 174.72 80.104 174.72 80.68C174.72 81.256 174.731 81.704 174.752 82.024C174.795 82.7707 174.891 83.3253 175.04 83.688C175.211 84.0293 175.595 84.2 176.192 84.2ZM195.251 89.32C193.587 89.32 192.211 89.1493 191.123 88.808C190.057 88.4667 189.214 88.0293 188.595 87.496C187.998 86.9627 187.561 86.408 187.283 85.832C187.027 85.2347 186.857 84.7013 186.771 84.232C186.729 84.0827 186.771 83.9547 186.899 83.848C187.027 83.7413 187.155 83.688 187.283 83.688H192.883C193.161 83.688 193.353 83.7307 193.459 83.816C193.566 83.9013 193.673 83.9867 193.779 84.072C193.907 84.1573 194.067 84.2427 194.259 84.328C194.451 84.4133 194.761 84.456 195.187 84.456C195.507 84.456 195.763 84.424 195.955 84.36C196.147 84.2747 196.275 84.168 196.339 84.04C196.425 83.8907 196.467 83.72 196.467 83.528C196.467 83.2933 196.382 83.1013 196.211 82.952C196.062 82.7813 195.71 82.696 195.155 82.696H193.331C193.139 82.696 192.979 82.6213 192.851 82.472C192.723 82.3227 192.659 82.1627 192.659 81.992V79.336C192.659 79.1653 192.723 79.0053 192.851 78.856C192.979 78.7067 193.139 78.632 193.331 78.632H195.155C195.646 78.632 195.966 78.5573 196.115 78.408C196.265 78.2587 196.339 78.056 196.339 77.8C196.339 77.6293 196.297 77.48 196.211 77.352C196.126 77.224 195.998 77.128 195.827 77.064C195.678 77 195.465 76.968 195.187 76.968C194.782 76.968 194.473 77 194.259 77.064C194.067 77.128 193.886 77.2347 193.715 77.384C193.609 77.4693 193.502 77.5547 193.395 77.64C193.289 77.7253 193.097 77.768 192.819 77.768H187.411C187.262 77.768 187.134 77.7147 187.027 77.608C186.921 77.5013 186.878 77.3733 186.899 77.224C186.985 76.7547 187.166 76.2213 187.443 75.624C187.721 75.0267 188.158 74.4613 188.755 73.928C189.374 73.3733 190.206 72.9253 191.251 72.584C192.297 72.2213 193.63 72.04 195.251 72.04C197.257 72.04 198.857 72.2427 200.051 72.648C201.267 73.032 202.142 73.5867 202.675 74.312C203.209 75.016 203.475 75.8587 203.475 76.84C203.475 77.48 203.315 78.12 202.995 78.76C202.675 79.4 202.121 79.9013 201.331 80.264C202.313 80.6053 202.974 81.1707 203.315 81.96C203.678 82.728 203.859 83.4853 203.859 84.232C203.859 85.192 203.529 86.056 202.867 86.824C202.206 87.592 201.235 88.2 199.955 88.648C198.675 89.096 197.107 89.32 195.251 89.32ZM206.376 89C206.206 89 206.056 88.936 205.928 88.808C205.8 88.68 205.736 88.5307 205.736 88.36V73C205.736 72.8293 205.8 72.68 205.928 72.552C206.056 72.424 206.206 72.36 206.376 72.36H211.848C212.275 72.36 212.616 72.5733 212.872 73L216.328 78.696L219.784 73C220.04 72.5733 220.382 72.36 220.808 72.36H226.28C226.472 72.36 226.632 72.424 226.76 72.552C226.888 72.68 226.952 72.8293 226.952 73V88.36C226.952 88.5307 226.888 88.68 226.76 88.808C226.632 88.936 226.472 89 226.28 89H220.264C220.072 89 219.912 88.936 219.784 88.808C219.678 88.68 219.624 88.5307 219.624 88.36V79.912L221.544 80.456L218.024 86.056C217.918 86.248 217.8 86.3973 217.672 86.504C217.544 86.6107 217.374 86.664 217.16 86.664H215.496C215.326 86.664 215.166 86.6213 215.016 86.536C214.867 86.4293 214.728 86.2693 214.6 86.056L211.144 80.424L213.032 79.912V88.36C213.032 88.5307 212.968 88.68 212.84 88.808C212.712 88.936 212.563 89 212.392 89H206.376ZM238.241 89.32C236.278 89.32 234.625 89.0533 233.281 88.52C231.937 87.9867 230.902 87.1867 230.177 86.12C229.473 85.0533 229.067 83.7413 228.961 82.184C228.939 81.6933 228.929 81.192 228.929 80.68C228.929 80.1467 228.939 79.6453 228.961 79.176C229.067 77.5973 229.505 76.2853 230.273 75.24C231.041 74.1733 232.097 73.3733 233.441 72.84C234.785 72.3067 236.385 72.04 238.241 72.04C240.097 72.04 241.697 72.3067 243.041 72.84C244.385 73.3733 245.441 74.1733 246.209 75.24C246.977 76.2853 247.414 77.5973 247.521 79.176C247.563 79.6453 247.585 80.1467 247.585 80.68C247.585 81.192 247.563 81.6933 247.521 82.184C247.414 83.7413 246.998 85.0533 246.273 86.12C245.569 87.1867 244.545 87.9867 243.201 88.52C241.857 89.0533 240.203 89.32 238.241 89.32ZM238.241 84.2C238.859 84.2 239.243 84.0293 239.393 83.688C239.542 83.3253 239.638 82.7707 239.681 82.024C239.702 81.704 239.713 81.256 239.713 80.68C239.713 80.104 239.702 79.656 239.681 79.336C239.638 78.632 239.542 78.0987 239.393 77.736C239.243 77.352 238.859 77.16 238.241 77.16C237.643 77.16 237.259 77.352 237.089 77.736C236.939 78.0987 236.843 78.632 236.801 79.336C236.779 79.656 236.769 80.104 236.769 80.68C236.769 81.256 236.779 81.704 236.801 82.024C236.843 82.7707 236.939 83.3253 237.089 83.688C237.259 84.0293 237.643 84.2 238.241 84.2ZM249.108 89C248.895 89 248.713 88.9253 248.564 88.776C248.415 88.6267 248.34 88.4453 248.34 88.232C248.34 88.0827 248.383 87.944 248.468 87.816L253.332 80.488L249.268 73.608C249.247 73.5653 249.215 73.5013 249.172 73.416C249.129 73.3093 249.108 73.2133 249.108 73.128C249.108 72.9147 249.183 72.7333 249.332 72.584C249.481 72.4347 249.663 72.36 249.876 72.36H256.02C256.319 72.36 256.532 72.4347 256.66 72.584C256.809 72.712 256.905 72.8187 256.948 72.904L259.7 77.8H260.404V73.224C260.404 72.9893 260.489 72.7867 260.66 72.616C260.831 72.4453 261.033 72.36 261.268 72.36H266.868C267.103 72.36 267.305 72.4453 267.476 72.616C267.647 72.7867 267.732 72.9893 267.732 73.224V77.8H268.436L271.188 72.904C271.231 72.8187 271.327 72.712 271.476 72.584C271.625 72.4347 271.839 72.36 272.116 72.36H278.26C278.473 72.36 278.655 72.4347 278.804 72.584C278.953 72.7333 279.028 72.9147 279.028 73.128C279.028 73.2133 279.007 73.3093 278.964 73.416C278.943 73.5013 278.911 73.5653 278.868 73.608L274.804 80.488L279.668 87.816C279.753 87.944 279.796 88.0827 279.796 88.232C279.796 88.4453 279.721 88.6267 279.572 88.776C279.423 88.9253 279.241 89 279.028 89H272.308C271.988 89 271.753 88.9253 271.604 88.776C271.455 88.6053 271.359 88.4987 271.316 88.456L268.276 83.4H267.732V88.136C267.732 88.3707 267.647 88.5733 267.476 88.744C267.305 88.9147 267.103 89 266.868 89H261.268C261.033 89 260.831 88.9147 260.66 88.744C260.489 88.5733 260.404 88.3707 260.404 88.136V83.4H259.86L256.82 88.456C256.799 88.4987 256.703 88.6053 256.532 88.776C256.383 88.9253 256.148 89 255.828 89H249.108ZM281.93 89C281.696 89 281.493 88.9147 281.322 88.744C281.152 88.5733 281.066 88.3707 281.066 88.136V73.224C281.066 72.9893 281.152 72.7867 281.322 72.616C281.493 72.4453 281.696 72.36 281.93 72.36H287.658C287.893 72.36 288.096 72.4453 288.266 72.616C288.437 72.7867 288.522 72.9893 288.522 73.224V77.8H291.722V73.224C291.722 72.9893 291.808 72.7867 291.978 72.616C292.149 72.4453 292.352 72.36 292.586 72.36H298.314C298.549 72.36 298.752 72.4453 298.922 72.616C299.093 72.7867 299.178 72.9893 299.178 73.224V88.136C299.178 88.3707 299.093 88.5733 298.922 88.744C298.752 88.9147 298.549 89 298.314 89H292.586C292.352 89 292.149 88.9147 291.978 88.744C291.808 88.5733 291.722 88.3707 291.722 88.136V83.4H288.522V88.136C288.522 88.3707 288.437 88.5733 288.266 88.744C288.096 88.9147 287.893 89 287.658 89H281.93ZM310.477 89.32C308.514 89.32 306.861 89.0533 305.517 88.52C304.173 87.9867 303.138 87.1867 302.413 86.12C301.709 85.0533 301.304 83.7413 301.197 82.184C301.176 81.6933 301.165 81.192 301.165 80.68C301.165 80.1467 301.176 79.6453 301.197 79.176C301.304 77.5973 301.741 76.2853 302.509 75.24C303.277 74.1733 304.333 73.3733 305.677 72.84C307.021 72.3067 308.621 72.04 310.477 72.04C312.333 72.04 313.933 72.3067 315.277 72.84C316.621 73.3733 317.677 74.1733 318.445 75.24C319.213 76.2853 319.65 77.5973 319.757 79.176C319.8 79.6453 319.821 80.1467 319.821 80.68C319.821 81.192 319.8 81.6933 319.757 82.184C319.65 83.7413 319.234 85.0533 318.509 86.12C317.805 87.1867 316.781 87.9867 315.437 88.52C314.093 89.0533 312.44 89.32 310.477 89.32ZM310.477 84.2C311.096 84.2 311.48 84.0293 311.629 83.688C311.778 83.3253 311.874 82.7707 311.917 82.024C311.938 81.704 311.949 81.256 311.949 80.68C311.949 80.104 311.938 79.656 311.917 79.336C311.874 78.632 311.778 78.0987 311.629 77.736C311.48 77.352 311.096 77.16 310.477 77.16C309.88 77.16 309.496 77.352 309.325 77.736C309.176 78.0987 309.08 78.632 309.037 79.336C309.016 79.656 309.005 80.104 309.005 80.68C309.005 81.256 309.016 81.704 309.037 82.024C309.08 82.7707 309.176 83.3253 309.325 83.688C309.496 84.0293 309.88 84.2 310.477 84.2ZM330.016 89.32C328.395 89.32 326.923 89.0427 325.6 88.488C324.278 87.912 323.211 87.08 322.4 85.992C321.59 84.904 321.142 83.5707 321.056 81.992C321.035 81.6507 321.024 81.224 321.024 80.712C321.024 80.2 321.035 79.7627 321.056 79.4C321.142 77.8213 321.579 76.488 322.368 75.4C323.179 74.2907 324.246 73.4587 325.568 72.904C326.912 72.328 328.395 72.04 330.016 72.04C331.702 72.04 333.131 72.2853 334.304 72.776C335.499 73.2453 336.459 73.832 337.184 74.536C337.931 75.2187 338.475 75.9013 338.816 76.584C339.179 77.2667 339.371 77.8213 339.392 78.248C339.414 78.4827 339.328 78.6853 339.136 78.856C338.966 79.0267 338.763 79.112 338.528 79.112H332.288C332.054 79.112 331.862 79.0587 331.712 78.952C331.584 78.824 331.467 78.664 331.36 78.472C331.211 78.1733 331.051 77.9387 330.88 77.768C330.731 77.5973 330.496 77.512 330.176 77.512C329.686 77.512 329.355 77.6933 329.184 78.056C329.014 78.4187 328.918 78.92 328.896 79.56C328.875 80.4773 328.875 81.2347 328.896 81.832C328.939 82.5147 329.035 83.0267 329.184 83.368C329.355 83.688 329.686 83.848 330.176 83.848C330.56 83.848 330.816 83.7627 330.944 83.592C331.094 83.4213 331.232 83.1867 331.36 82.888C331.446 82.696 331.563 82.5467 331.712 82.44C331.862 82.312 332.054 82.248 332.288 82.248H338.528C338.763 82.248 338.966 82.3333 339.136 82.504C339.328 82.6747 339.414 82.8773 339.392 83.112C339.371 83.3893 339.254 83.784 339.04 84.296C338.848 84.7867 338.528 85.32 338.08 85.896C337.654 86.472 337.078 87.0267 336.352 87.56C335.627 88.072 334.742 88.4987 333.696 88.84C332.651 89.16 331.424 89.32 330.016 89.32ZM345.827 89C345.592 89 345.389 88.9147 345.219 88.744C345.048 88.5733 344.963 88.3707 344.963 88.136V77.96H340.707C340.472 77.96 340.269 77.8747 340.099 77.704C339.928 77.5333 339.843 77.3307 339.843 77.096V73.224C339.843 72.9893 339.928 72.7867 340.099 72.616C340.269 72.4453 340.472 72.36 340.707 72.36H356.547C356.781 72.36 356.984 72.4453 357.155 72.616C357.325 72.7867 357.411 72.9893 357.411 73.224V77.096C357.411 77.3307 357.325 77.5333 357.155 77.704C356.984 77.8747 356.781 77.96 356.547 77.96H352.291V88.136C352.291 88.3707 352.205 88.5733 352.035 88.744C351.864 88.9147 351.661 89 351.427 89H345.827ZM359.558 89C359.323 89 359.12 88.9147 358.95 88.744C358.779 88.5733 358.694 88.3707 358.694 88.136V73.224C358.694 72.9893 358.779 72.7867 358.95 72.616C359.12 72.4453 359.323 72.36 359.558 72.36H365.318C365.552 72.36 365.755 72.4453 365.926 72.616C366.096 72.7867 366.182 72.9893 366.182 73.224V77.192H368.742C370.875 77.192 372.603 77.7147 373.926 78.76C375.248 79.8053 375.91 81.256 375.91 83.112C375.91 84.968 375.248 86.4187 373.926 87.464C372.603 88.488 370.875 89 368.742 89H359.558ZM366.022 84.232H368.102C368.528 84.232 368.848 84.136 369.062 83.944C369.275 83.752 369.382 83.4747 369.382 83.112C369.382 82.7493 369.275 82.472 369.062 82.28C368.848 82.0667 368.528 81.96 368.102 81.96H366.022V84.232ZM391.652 89.32C389.689 89.32 388.036 89.0533 386.692 88.52C385.348 87.9867 384.313 87.1867 383.588 86.12C382.884 85.0533 382.479 83.7413 382.372 82.184C382.351 81.6933 382.34 81.192 382.34 80.68C382.34 80.1467 382.351 79.6453 382.372 79.176C382.479 77.5973 382.916 76.2853 383.684 75.24C384.452 74.1733 385.508 73.3733 386.852 72.84C388.196 72.3067 389.796 72.04 391.652 72.04C393.508 72.04 395.108 72.3067 396.452 72.84C397.796 73.3733 398.852 74.1733 399.62 75.24C400.388 76.2853 400.825 77.5973 400.932 79.176C400.975 79.6453 400.996 80.1467 400.996 80.68C400.996 81.192 400.975 81.6933 400.932 82.184C400.825 83.7413 400.409 85.0533 399.684 86.12C398.98 87.1867 397.956 87.9867 396.612 88.52C395.268 89.0533 393.615 89.32 391.652 89.32ZM391.652 84.2C392.271 84.2 392.655 84.0293 392.804 83.688C392.953 83.3253 393.049 82.7707 393.092 82.024C393.113 81.704 393.124 81.256 393.124 80.68C393.124 80.104 393.113 79.656 393.092 79.336C393.049 78.632 392.953 78.0987 392.804 77.736C392.655 77.352 392.271 77.16 391.652 77.16C391.055 77.16 390.671 77.352 390.5 77.736C390.351 78.0987 390.255 78.632 390.212 79.336C390.191 79.656 390.18 80.104 390.18 80.68C390.18 81.256 390.191 81.704 390.212 82.024C390.255 82.7707 390.351 83.3253 390.5 83.688C390.671 84.0293 391.055 84.2 391.652 84.2ZM407.735 89C407.501 89 407.298 88.9147 407.127 88.744C406.957 88.5733 406.871 88.3707 406.871 88.136V77.96H402.615C402.381 77.96 402.178 77.8747 402.007 77.704C401.837 77.5333 401.751 77.3307 401.751 77.096V73.224C401.751 72.9893 401.837 72.7867 402.007 72.616C402.178 72.4453 402.381 72.36 402.615 72.36H418.455C418.69 72.36 418.893 72.4453 419.063 72.616C419.234 72.7867 419.319 72.9893 419.319 73.224V77.096C419.319 77.3307 419.234 77.5333 419.063 77.704C418.893 77.8747 418.69 77.96 418.455 77.96H414.199V88.136C414.199 88.3707 414.114 88.5733 413.943 88.744C413.773 88.9147 413.57 89 413.335 89H407.735ZM429.083 89.32C427.461 89.32 425.989 89.0427 424.667 88.488C423.344 87.912 422.277 87.08 421.467 85.992C420.656 84.904 420.208 83.5707 420.123 81.992C420.101 81.6507 420.091 81.224 420.091 80.712C420.091 80.2 420.101 79.7627 420.123 79.4C420.208 77.8213 420.645 76.488 421.435 75.4C422.245 74.2907 423.312 73.4587 424.635 72.904C425.979 72.328 427.461 72.04 429.083 72.04C430.768 72.04 432.197 72.2853 433.371 72.776C434.565 73.2453 435.525 73.832 436.251 74.536C436.997 75.2187 437.541 75.9013 437.883 76.584C438.245 77.2667 438.437 77.8213 438.459 78.248C438.48 78.4827 438.395 78.6853 438.203 78.856C438.032 79.0267 437.829 79.112 437.595 79.112H431.355C431.12 79.112 430.928 79.0587 430.779 78.952C430.651 78.824 430.533 78.664 430.427 78.472C430.277 78.1733 430.117 77.9387 429.947 77.768C429.797 77.5973 429.563 77.512 429.243 77.512C428.752 77.512 428.421 77.6933 428.251 78.056C428.08 78.4187 427.984 78.92 427.963 79.56C427.941 80.4773 427.941 81.2347 427.963 81.832C428.005 82.5147 428.101 83.0267 428.251 83.368C428.421 83.688 428.752 83.848 429.243 83.848C429.627 83.848 429.883 83.7627 430.011 83.592C430.16 83.4213 430.299 83.1867 430.427 82.888C430.512 82.696 430.629 82.5467 430.779 82.44C430.928 82.312 431.12 82.248 431.355 82.248H437.595C437.829 82.248 438.032 82.3333 438.203 82.504C438.395 82.6747 438.48 82.8773 438.459 83.112C438.437 83.3893 438.32 83.784 438.107 84.296C437.915 84.7867 437.595 85.32 437.147 85.896C436.72 86.472 436.144 87.0267 435.419 87.56C434.693 88.072 433.808 88.4987 432.763 88.84C431.717 89.16 430.491 89.32 429.083 89.32ZM440.733 95.08C440.498 95.08 440.295 94.9947 440.125 94.824C439.954 94.6533 439.869 94.4507 439.869 94.216V73.224C439.869 72.9893 439.954 72.7867 440.125 72.616C440.295 72.4453 440.498 72.36 440.733 72.36H446.173C446.407 72.36 446.61 72.4453 446.781 72.616C446.951 72.7867 447.037 72.9893 447.037 73.224V74.184C447.527 73.5653 448.157 73.0533 448.925 72.648C449.714 72.2427 450.663 72.04 451.773 72.04C452.711 72.04 453.575 72.1787 454.365 72.456C455.154 72.712 455.847 73.1387 456.445 73.736C457.063 74.312 457.554 75.0693 457.917 76.008C458.279 76.9467 458.493 78.088 458.557 79.432C458.578 79.9013 458.589 80.3173 458.589 80.68C458.589 81.0427 458.578 81.4693 458.557 81.96C458.514 83.2187 458.311 84.3173 457.949 85.256C457.586 86.1733 457.095 86.9307 456.477 87.528C455.879 88.1253 455.175 88.5733 454.365 88.872C453.575 89.1707 452.711 89.32 451.773 89.32C450.877 89.32 450.066 89.1707 449.341 88.872C448.615 88.5733 448.007 88.0827 447.517 87.4V94.216C447.517 94.4507 447.431 94.6533 447.261 94.824C447.09 94.9947 446.887 95.08 446.653 95.08H440.733ZM449.117 83.592C449.522 83.592 449.831 83.5173 450.045 83.368C450.258 83.2187 450.407 83.0053 450.493 82.728C450.599 82.4507 450.674 82.12 450.717 81.736C450.781 81.032 450.781 80.328 450.717 79.624C450.674 79.24 450.599 78.9093 450.493 78.632C450.407 78.3547 450.258 78.1413 450.045 77.992C449.831 77.8427 449.522 77.768 449.117 77.768C448.733 77.768 448.423 77.8427 448.189 77.992C447.954 78.1413 447.783 78.3547 447.677 78.632C447.591 78.9093 447.538 79.24 447.517 79.624C447.495 80.0933 447.485 80.488 447.485 80.808C447.485 81.1067 447.495 81.5013 447.517 81.992C447.538 82.3333 447.602 82.6213 447.709 82.856C447.837 83.0907 448.007 83.272 448.221 83.4C448.455 83.528 448.754 83.592 449.117 83.592ZM469.217 89.32C467.254 89.32 465.601 89.0533 464.257 88.52C462.913 87.9867 461.878 87.1867 461.153 86.12C460.449 85.0533 460.044 83.7413 459.937 82.184C459.916 81.6933 459.905 81.192 459.905 80.68C459.905 80.1467 459.916 79.6453 459.937 79.176C460.044 77.5973 460.481 76.2853 461.249 75.24C462.017 74.1733 463.073 73.3733 464.417 72.84C465.761 72.3067 467.361 72.04 469.217 72.04C471.073 72.04 472.673 72.3067 474.017 72.84C475.361 73.3733 476.417 74.1733 477.185 75.24C477.953 76.2853 478.39 77.5973 478.497 79.176C478.54 79.6453 478.561 80.1467 478.561 80.68C478.561 81.192 478.54 81.6933 478.497 82.184C478.39 83.7413 477.974 85.0533 477.249 86.12C476.545 87.1867 475.521 87.9867 474.177 88.52C472.833 89.0533 471.18 89.32 469.217 89.32ZM469.217 84.2C469.836 84.2 470.22 84.0293 470.369 83.688C470.518 83.3253 470.614 82.7707 470.657 82.024C470.678 81.704 470.689 81.256 470.689 80.68C470.689 80.104 470.678 79.656 470.657 79.336C470.614 78.632 470.518 78.0987 470.369 77.736C470.22 77.352 469.836 77.16 469.217 77.16C468.62 77.16 468.236 77.352 468.065 77.736C467.916 78.0987 467.82 78.632 467.777 79.336C467.756 79.656 467.745 80.104 467.745 80.68C467.745 81.256 467.756 81.704 467.777 82.024C467.82 82.7707 467.916 83.3253 468.065 83.688C468.236 84.0293 468.62 84.2 469.217 84.2ZM490.932 89C490.698 89 490.495 88.9147 490.324 88.744C490.154 88.5733 490.068 88.3707 490.068 88.136V84.264C489.642 84.5413 489.087 84.7653 488.404 84.936C487.743 85.0853 486.996 85.16 486.164 85.16C484.052 85.16 482.431 84.5733 481.3 83.4C480.191 82.2053 479.636 80.296 479.636 77.672V73.224C479.636 72.9893 479.722 72.7867 479.892 72.616C480.063 72.4453 480.266 72.36 480.5 72.36H486.452C486.687 72.36 486.89 72.4453 487.06 72.616C487.231 72.7867 487.316 72.9893 487.316 73.224V77.352C487.316 77.928 487.412 78.312 487.604 78.504C487.796 78.696 488.17 78.792 488.724 78.792C489.087 78.792 489.396 78.7067 489.652 78.536C489.93 78.3653 490.068 78.152 490.068 77.896V73.224C490.068 72.9893 490.154 72.7867 490.324 72.616C490.495 72.4453 490.698 72.36 490.932 72.36H497.172C497.407 72.36 497.61 72.4453 497.78 72.616C497.951 72.7867 498.036 72.9893 498.036 73.224V88.136C498.036 88.3707 497.951 88.5733 497.78 88.744C497.61 88.9147 497.407 89 497.172 89H490.932ZM509.119 89.32C506.325 89.32 504.095 88.6373 502.431 87.272C500.789 85.8853 499.967 83.6987 499.967 80.712C499.967 80.6693 499.967 80.6267 499.967 80.584C499.967 80.5413 499.967 80.5093 499.967 80.488C500.01 78.6533 500.405 77.1067 501.151 75.848C501.919 74.5893 502.975 73.64 504.319 73C505.685 72.36 507.274 72.04 509.087 72.04C511.178 72.04 512.895 72.4453 514.239 73.256C515.583 74.0453 516.575 75.1013 517.215 76.424C517.877 77.7253 518.207 79.1653 518.207 80.744V81.704C518.207 81.9387 518.122 82.1413 517.951 82.312C517.781 82.4827 517.578 82.568 517.343 82.568H507.807C507.807 82.5893 507.807 82.6107 507.807 82.632C507.807 82.6533 507.807 82.6853 507.807 82.728C507.807 83.1547 507.839 83.5173 507.903 83.816C507.989 84.0933 508.127 84.3067 508.319 84.456C508.511 84.6053 508.757 84.68 509.055 84.68C509.183 84.68 509.29 84.6587 509.375 84.616C509.482 84.5733 509.578 84.5093 509.663 84.424C509.77 84.3173 509.877 84.2107 509.983 84.104C510.175 83.912 510.335 83.7947 510.463 83.752C510.591 83.688 510.783 83.656 511.039 83.656H517.087C517.301 83.656 517.471 83.72 517.599 83.848C517.749 83.976 517.813 84.1467 517.791 84.36C517.77 84.7653 517.578 85.256 517.215 85.832C516.874 86.3867 516.351 86.9307 515.647 87.464C514.943 87.9973 514.047 88.4453 512.959 88.808C511.871 89.1493 510.591 89.32 509.119 89.32ZM507.807 78.568H510.367V78.536C510.367 78.0667 510.314 77.6827 510.207 77.384C510.122 77.0853 509.983 76.872 509.791 76.744C509.599 76.5947 509.365 76.52 509.087 76.52C508.81 76.52 508.575 76.5947 508.383 76.744C508.191 76.872 508.042 77.0853 507.935 77.384C507.85 77.6827 507.807 78.0667 507.807 78.536V78.568ZM520.673 89C520.438 89 520.235 88.9147 520.065 88.744C519.894 88.5733 519.809 88.3707 519.809 88.136V73.224C519.809 72.9893 519.894 72.7867 520.065 72.616C520.235 72.4453 520.438 72.36 520.673 72.36H526.401C526.635 72.36 526.838 72.4453 527.009 72.616C527.179 72.7867 527.265 72.9893 527.265 73.224V77.8H530.465V73.224C530.465 72.9893 530.55 72.7867 530.721 72.616C530.891 72.4453 531.094 72.36 531.329 72.36H537.057C537.291 72.36 537.494 72.4453 537.665 72.616C537.835 72.7867 537.921 72.9893 537.921 73.224V88.136C537.921 88.3707 537.835 88.5733 537.665 88.744C537.494 88.9147 537.291 89 537.057 89H531.329C531.094 89 530.891 88.9147 530.721 88.744C530.55 88.5733 530.465 88.3707 530.465 88.136V83.4H527.265V88.136C527.265 88.3707 527.179 88.5733 527.009 88.744C526.838 88.9147 526.635 89 526.401 89H520.673ZM541.252 89C541.017 89 540.814 88.9147 540.644 88.744C540.473 88.5733 540.388 88.3707 540.388 88.136V73.224C540.388 72.9893 540.473 72.7867 540.644 72.616C540.814 72.4453 541.017 72.36 541.252 72.36H546.98C547.214 72.36 547.417 72.4453 547.588 72.616C547.758 72.7867 547.844 72.9893 547.844 73.224V77.8H551.044V73.224C551.044 72.9893 551.129 72.7867 551.3 72.616C551.47 72.4453 551.673 72.36 551.908 72.36H557.636C557.87 72.36 558.073 72.4453 558.244 72.616C558.414 72.7867 558.5 72.9893 558.5 73.224V88.136C558.5 88.3707 558.414 88.5733 558.244 88.744C558.073 88.9147 557.87 89 557.636 89H551.908C551.673 89 551.47 88.9147 551.3 88.744C551.129 88.5733 551.044 88.3707 551.044 88.136V83.4H547.844V88.136C547.844 88.3707 547.758 88.5733 547.588 88.744C547.417 88.9147 547.214 89 546.98 89H541.252ZM569.798 89.32C567.836 89.32 566.182 89.0533 564.838 88.52C563.494 87.9867 562.46 87.1867 561.734 86.12C561.03 85.0533 560.625 83.7413 560.518 82.184C560.497 81.6933 560.486 81.192 560.486 80.68C560.486 80.1467 560.497 79.6453 560.518 79.176C560.625 77.5973 561.062 76.2853 561.83 75.24C562.598 74.1733 563.654 73.3733 564.998 72.84C566.342 72.3067 567.942 72.04 569.798 72.04C571.654 72.04 573.254 72.3067 574.598 72.84C575.942 73.3733 576.998 74.1733 577.766 75.24C578.534 76.2853 578.972 77.5973 579.078 79.176C579.121 79.6453 579.142 80.1467 579.142 80.68C579.142 81.192 579.121 81.6933 579.078 82.184C578.972 83.7413 578.556 85.0533 577.83 86.12C577.126 87.1867 576.102 87.9867 574.758 88.52C573.414 89.0533 571.761 89.32 569.798 89.32ZM569.798 84.2C570.417 84.2 570.801 84.0293 570.95 83.688C571.1 83.3253 571.196 82.7707 571.238 82.024C571.26 81.704 571.27 81.256 571.27 80.68C571.27 80.104 571.26 79.656 571.238 79.336C571.196 78.632 571.1 78.0987 570.95 77.736C570.801 77.352 570.417 77.16 569.798 77.16C569.201 77.16 568.817 77.352 568.646 77.736C568.497 78.0987 568.401 78.632 568.358 79.336C568.337 79.656 568.326 80.104 568.326 80.68C568.326 81.256 568.337 81.704 568.358 82.024C568.401 82.7707 568.497 83.3253 568.646 83.688C568.817 84.0293 569.201 84.2 569.798 84.2ZM581.722 89C581.487 89 581.284 88.9147 581.114 88.744C580.943 88.5733 580.858 88.3707 580.858 88.136V73.224C580.858 72.9893 580.943 72.7867 581.114 72.616C581.284 72.4453 581.487 72.36 581.722 72.36H587.45C587.684 72.36 587.887 72.4453 588.058 72.616C588.228 72.7867 588.314 72.9893 588.314 73.224V83.304L586.362 82.728L592.762 72.904C592.868 72.7333 592.996 72.6053 593.146 72.52C593.316 72.4133 593.498 72.36 593.69 72.36H598.778C599.012 72.36 599.215 72.4453 599.386 72.616C599.556 72.7867 599.642 72.9893 599.642 73.224V88.136C599.642 88.3707 599.556 88.5733 599.386 88.744C599.215 88.9147 599.012 89 598.778 89H593.05C592.815 89 592.612 88.9147 592.442 88.744C592.271 88.5733 592.186 88.3707 592.186 88.136V78.056L594.138 78.632L587.738 88.456C587.631 88.6267 587.492 88.7653 587.322 88.872C587.172 88.9573 587.002 89 586.81 89H581.722ZM590.682 70.248C589.252 70.248 588.068 70.024 587.13 69.576C586.212 69.128 585.519 68.52 585.05 67.752C584.602 66.984 584.378 66.1093 584.378 65.128C584.378 64.9573 584.42 64.8187 584.506 64.712C584.612 64.584 584.772 64.52 584.986 64.52H588.794C588.986 64.52 589.135 64.584 589.242 64.712C589.348 64.8187 589.402 64.9573 589.402 65.128C589.402 65.5333 589.487 65.8747 589.658 66.152C589.828 66.4293 590.17 66.568 590.682 66.568C591.194 66.568 591.535 66.4293 591.706 66.152C591.876 65.8747 591.962 65.5333 591.962 65.128C591.962 64.9573 592.015 64.8187 592.122 64.712C592.228 64.584 592.378 64.52 592.57 64.52H596.378C596.57 64.52 596.719 64.584 596.826 64.712C596.932 64.8187 596.986 64.9573 596.986 65.128C596.986 66.1093 596.751 66.984 596.282 67.752C595.834 68.52 595.14 69.128 594.202 69.576C593.284 70.024 592.111 70.248 590.682 70.248ZM615.566 89.32C613.603 89.32 611.95 89.0533 610.606 88.52C609.262 87.9867 608.227 87.1867 607.502 86.12C606.798 85.0533 606.392 83.7413 606.286 82.184C606.264 81.6933 606.254 81.192 606.254 80.68C606.254 80.1467 606.264 79.6453 606.286 79.176C606.392 77.5973 606.83 76.2853 607.598 75.24C608.366 74.1733 609.422 73.3733 610.766 72.84C612.11 72.3067 613.71 72.04 615.566 72.04C617.422 72.04 619.022 72.3067 620.366 72.84C621.71 73.3733 622.766 74.1733 623.534 75.24C624.302 76.2853 624.739 77.5973 624.846 79.176C624.888 79.6453 624.91 80.1467 624.91 80.68C624.91 81.192 624.888 81.6933 624.846 82.184C624.739 83.7413 624.323 85.0533 623.598 86.12C622.894 87.1867 621.87 87.9867 620.526 88.52C619.182 89.0533 617.528 89.32 615.566 89.32ZM615.566 84.2C616.184 84.2 616.568 84.0293 616.718 83.688C616.867 83.3253 616.963 82.7707 617.006 82.024C617.027 81.704 617.038 81.256 617.038 80.68C617.038 80.104 617.027 79.656 617.006 79.336C616.963 78.632 616.867 78.0987 616.718 77.736C616.568 77.352 616.184 77.16 615.566 77.16C614.968 77.16 614.584 77.352 614.414 77.736C614.264 78.0987 614.168 78.632 614.126 79.336C614.104 79.656 614.094 80.104 614.094 80.68C614.094 81.256 614.104 81.704 614.126 82.024C614.168 82.7707 614.264 83.3253 614.414 83.688C614.584 84.0293 614.968 84.2 615.566 84.2ZM627.489 89C627.254 89 627.052 88.9147 626.881 88.744C626.71 88.5733 626.625 88.3707 626.625 88.136V73.224C626.625 72.9893 626.71 72.7867 626.881 72.616C627.052 72.4453 627.254 72.36 627.489 72.36H643.873C644.108 72.36 644.31 72.4453 644.481 72.616C644.652 72.7867 644.737 72.9893 644.737 73.224V88.136C644.737 88.3707 644.652 88.5733 644.481 88.744C644.31 88.9147 644.108 89 643.873 89H638.145C637.91 89 637.708 88.9147 637.537 88.744C637.366 88.5733 637.281 88.3707 637.281 88.136V77.96H634.081V88.136C634.081 88.3707 633.996 88.5733 633.825 88.744C633.654 88.9147 633.452 89 633.217 89H627.489ZM647.428 89C647.193 89 646.99 88.9147 646.82 88.744C646.649 88.5733 646.564 88.3707 646.564 88.136V83.944C646.564 83.4747 646.852 83.1867 647.428 83.08C648.004 82.9733 648.398 82.7067 648.612 82.28C648.825 81.8533 648.942 81.288 648.964 80.584C649.006 79.8587 649.028 79.0267 649.028 78.088V73.224C649.028 72.9893 649.113 72.7867 649.284 72.616C649.454 72.4453 649.657 72.36 649.892 72.36H664.484C664.718 72.36 664.921 72.4453 665.092 72.616C665.262 72.7867 665.348 72.9893 665.348 73.224V88.136C665.348 88.3707 665.262 88.5733 665.092 88.744C664.921 88.9147 664.718 89 664.484 89H658.756C658.521 89 658.318 88.9147 658.148 88.744C657.977 88.5733 657.892 88.3707 657.892 88.136V77.96H656.068V78.888C656.068 80.8933 655.961 82.5573 655.748 83.88C655.534 85.2027 655.118 86.2373 654.5 86.984C653.902 87.7093 653.028 88.232 651.876 88.552C650.745 88.8507 649.262 89 647.428 89ZM673.126 89.32C671.91 89.32 670.832 89.096 669.894 88.648C668.955 88.2 668.219 87.592 667.686 86.824C667.174 86.056 666.918 85.192 666.918 84.232C666.918 82.6747 667.547 81.4587 668.806 80.584C670.086 79.688 671.792 79.0587 673.926 78.696L677.318 78.152V78.12C677.318 77.5653 677.264 77.16 677.158 76.904C677.072 76.648 676.806 76.52 676.358 76.52C676.059 76.52 675.814 76.584 675.622 76.712C675.451 76.8187 675.259 76.9787 675.046 77.192C674.811 77.4267 674.512 77.544 674.15 77.544H668.71C668.496 77.544 668.315 77.48 668.166 77.352C668.038 77.224 667.984 77.0533 668.006 76.84C668.027 76.4347 668.198 75.9653 668.518 75.432C668.838 74.8773 669.328 74.344 669.99 73.832C670.672 73.32 671.536 72.8933 672.582 72.552C673.648 72.2107 674.928 72.04 676.422 72.04C677.872 72.04 679.131 72.2 680.198 72.52C681.286 72.8187 682.182 73.2667 682.886 73.864C683.59 74.44 684.112 75.1653 684.454 76.04C684.816 76.8933 684.998 77.864 684.998 78.952V88.136C684.998 88.3707 684.912 88.5733 684.742 88.744C684.571 88.9147 684.368 89 684.134 89H678.534C678.299 89 678.096 88.9147 677.926 88.744C677.755 88.5733 677.67 88.3707 677.67 88.136V87.24C677.371 87.6667 676.987 88.04 676.518 88.36C676.07 88.6587 675.558 88.8933 674.982 89.064C674.406 89.2347 673.787 89.32 673.126 89.32ZM675.334 84.584C675.76 84.584 676.123 84.4987 676.422 84.328C676.742 84.1573 676.987 83.8907 677.158 83.528C677.328 83.144 677.414 82.6747 677.414 82.12V82.088L675.526 82.504C674.971 82.632 674.598 82.8027 674.406 83.016C674.214 83.2293 674.118 83.4533 674.118 83.688C674.118 83.8373 674.16 83.9867 674.246 84.136C674.352 84.264 674.491 84.3707 674.662 84.456C674.854 84.5413 675.078 84.584 675.334 84.584ZM692.104 89C691.869 89 691.667 88.9147 691.496 88.744C691.325 88.5733 691.24 88.3707 691.24 88.136V77.96H686.984C686.749 77.96 686.547 77.8747 686.376 77.704C686.205 77.5333 686.12 77.3307 686.12 77.096V73.224C686.12 72.9893 686.205 72.7867 686.376 72.616C686.547 72.4453 686.749 72.36 686.984 72.36H702.824C703.059 72.36 703.261 72.4453 703.432 72.616C703.603 72.7867 703.688 72.9893 703.688 73.224V77.096C703.688 77.3307 703.603 77.5333 703.432 77.704C703.261 77.8747 703.059 77.96 702.824 77.96H698.568V88.136C698.568 88.3707 698.483 88.5733 698.312 88.744C698.141 88.9147 697.939 89 697.704 89H692.104ZM705.835 89C705.601 89 705.398 88.9147 705.227 88.744C705.057 88.5733 704.971 88.3707 704.971 88.136V73.224C704.971 72.9893 705.057 72.7867 705.227 72.616C705.398 72.4453 705.601 72.36 705.835 72.36H711.595C711.83 72.36 712.033 72.4453 712.203 72.616C712.374 72.7867 712.459 72.9893 712.459 73.224V77.192H715.019C717.153 77.192 718.881 77.7147 720.203 78.76C721.526 79.8053 722.187 81.256 722.187 83.112C722.187 84.968 721.526 86.4187 720.203 87.464C718.881 88.488 717.153 89 715.019 89H705.835ZM712.299 84.232H714.379C714.806 84.232 715.126 84.136 715.339 83.944C715.553 83.752 715.659 83.4747 715.659 83.112C715.659 82.7493 715.553 82.472 715.339 82.28C715.126 82.0667 714.806 81.96 714.379 81.96H712.299V84.232ZM724.747 89C724.513 89 724.31 88.9147 724.139 88.744C723.969 88.5733 723.883 88.3707 723.883 88.136V73.224C723.883 72.9893 723.969 72.7867 724.139 72.616C724.31 72.4453 724.513 72.36 724.747 72.36H730.475C730.71 72.36 730.913 72.4453 731.083 72.616C731.254 72.7867 731.339 72.9893 731.339 73.224V88.136C731.339 88.3707 731.254 88.5733 731.083 88.744C730.913 88.9147 730.71 89 730.475 89H724.747Z" fill="white"/>
</svg>
