<svg width="680" height="106" viewBox="0 0 680 106" fill="none" xmlns="http://www.w3.org/2000/svg">
<path d="M85.9276 60.5961L30.7386 62.5254C13.9387 63.1127 0 49.6528 0 32.8426V31.4108C0 14.1165 14.1158 0.147798 31.409 0.328865L381.097 3.99023C390.935 4.09325 396.44 15.3772 390.466 23.1948C384.457 31.0582 390.064 42.4 399.961 42.4H648.31C665.812 42.4 680 56.5881 680 74.0899C680 91.6775 665.678 105.901 648.091 105.779L100.63 101.989C89.6704 101.913 84.9208 88.0818 93.5215 81.289C102.314 74.3443 97.1254 60.2046 85.9276 60.5961Z" fill="#040F16"/>
<path d="M13.8734 39.4744C13.6387 39.4747 13.4359 39.3896 13.2651 39.2192C13.0942 39.0487 13.0087 38.8461 13.0084 38.6115L12.9853 17.9395C12.985 17.7048 13.0701 17.502 13.2406 17.3312C13.4111 17.1603 13.6137 17.0747 13.8483 17.0745L30.4243 17.055C30.659 17.0547 30.8617 17.1398 31.0326 17.3103C31.2035 17.4808 31.289 17.6833 31.2893 17.918L31.2947 22.75C31.2949 22.9847 31.2098 23.1874 31.0394 23.3583C30.8689 23.5292 30.6663 23.6147 30.4316 23.615L20.9917 23.6261L20.9934 25.1621L23.8734 25.1587C26.668 25.1554 28.8874 25.7822 30.5315 27.0389C32.1969 28.2743 33.0308 30.0013 33.0333 32.22C33.0345 33.3506 32.8223 34.3642 32.3967 35.2607C31.9923 36.1572 31.3959 36.9152 30.6072 37.5348C29.8399 38.1544 28.8911 38.6355 27.7608 38.9782C26.6305 39.2995 25.34 39.461 23.8894 39.4627L13.8734 39.4744ZM21.0032 33.9621L23.2432 33.9595C23.5845 33.9591 23.8618 33.8734 24.0749 33.7025C24.2881 33.5316 24.4478 33.318 24.5542 33.0619C24.6606 32.7845 24.7136 32.5071 24.7133 32.2297C24.7128 31.8031 24.5737 31.4086 24.296 31.0462C24.0395 30.6839 23.6873 30.5029 23.2393 30.5035L20.9993 30.5061L21.0032 33.9621ZM42.3817 39.761C40.419 39.7633 38.7654 39.4986 37.4208 38.9668C36.0762 38.4351 35.0407 37.6363 34.3141 36.5705C33.6089 35.5046 33.2021 34.1931 33.0937 32.6359C33.0719 32.1453 33.0606 31.6439 33.0601 31.1319C33.0595 30.5986 33.0696 30.0973 33.0904 29.6279C33.1953 28.0491 33.6311 26.7366 34.398 25.6904C35.1648 24.6228 36.2199 23.8216 37.5633 23.2867C38.9067 22.7518 40.5064 22.4832 42.3624 22.481C44.2184 22.4789 45.8187 22.7436 47.1633 23.2754C48.5079 23.8072 49.5648 24.6059 50.334 25.6717C51.1031 26.7161 51.5419 28.0276 51.6504 29.6061C51.6935 30.0754 51.7154 30.5767 51.716 31.1101C51.7166 31.6221 51.6958 32.1234 51.6537 32.6141C51.5488 34.1716 51.1343 35.4841 50.4101 36.5516C49.7073 37.6191 48.6842 38.4203 47.3408 38.9552C45.9974 39.4901 44.3444 39.7587 42.3817 39.761ZM42.376 34.641C42.9946 34.6403 43.3785 34.4692 43.5274 34.1277C43.6763 33.7648 43.7717 33.2101 43.8135 32.4633C43.8345 32.1433 43.8447 31.6953 43.844 31.1193C43.8434 30.5433 43.8322 30.0953 43.8105 29.7753C43.7671 29.0714 43.6705 28.5382 43.5208 28.1757C43.371 27.7919 42.9868 27.6003 42.3681 27.601C41.7708 27.6017 41.387 27.7942 41.2168 28.1784C41.0678 28.5412 40.9724 29.0747 40.9305 29.7787C40.9096 30.0987 40.8994 30.5468 40.9 31.1228C40.9007 31.6988 40.9119 32.1467 40.9336 32.4667C40.9771 33.2133 41.0737 33.7679 41.2234 34.1304C41.3945 34.4715 41.7787 34.6417 42.376 34.641ZM53.6646 39.4278C53.4299 39.4281 53.2272 39.343 53.0563 39.1725C52.8855 39.002 52.7999 38.7995 52.7996 38.5648L52.7949 34.3728C52.7944 33.9035 53.0821 33.6151 53.658 33.5078C54.2339 33.4005 54.6282 33.1333 54.8411 32.7064C55.0539 32.2795 55.1706 31.714 55.1912 31.01C55.233 30.2846 55.2534 29.4526 55.2524 28.5139L55.2469 23.6499C55.2467 23.4153 55.3318 23.2125 55.5023 23.0416C55.6727 22.8708 55.8753 22.7852 56.11 22.7849L70.702 22.7678C70.9366 22.7675 71.1394 22.8526 71.3103 23.0231C71.4811 23.1936 71.5667 23.3961 71.5669 23.6308L71.5836 38.5428C71.5839 38.7775 71.4988 38.9802 71.3283 39.1511C71.1578 39.322 70.9552 39.4075 70.7206 39.4078L64.9926 39.4145C64.7579 39.4148 64.5552 39.3297 64.3843 39.1592C64.2134 38.9888 64.1279 38.7862 64.1276 38.5515L64.1162 28.3755L62.2922 28.3777L62.2933 29.3057C62.2955 31.311 62.1907 32.9751 61.9789 34.298C61.767 35.621 61.3522 36.6561 60.7343 37.4035C60.1378 38.1295 59.2637 38.6532 58.1121 38.9746C56.9818 39.2746 55.4993 39.4256 53.6646 39.4278ZM82.6589 39.7138C79.8643 39.7171 77.6342 39.037 75.9686 37.6736C74.3244 36.2889 73.5007 34.1032 73.4973 31.1165C73.4973 31.0739 73.4972 31.0312 73.4972 30.9885C73.4971 30.9459 73.4971 30.9139 73.4971 30.8925C73.5377 29.0578 73.9306 27.5107 74.6759 26.2512C75.4425 24.9916 76.4974 24.041 77.8407 23.3994C79.2053 22.7578 80.7943 22.436 82.6076 22.4339C84.6983 22.4314 86.4161 22.8347 87.761 23.6438C89.1058 24.4316 90.099 25.4864 90.7405 26.8083C91.4033 28.1089 91.7356 29.5485 91.7373 31.1272L91.7384 32.0872C91.7387 32.3218 91.6536 32.5246 91.4831 32.6955C91.3126 32.8663 91.11 32.9519 90.8754 32.9522L81.3394 32.9633C81.3394 32.9847 81.3394 33.006 81.3395 33.0273C81.3395 33.0487 81.3395 33.0807 81.3396 33.1233C81.34 33.55 81.3724 33.9126 81.4368 34.2112C81.5224 34.4885 81.6613 34.7016 81.8535 34.8507C82.0457 34.9999 82.2911 35.0742 82.5897 35.0739C82.7177 35.0737 82.8244 35.0523 82.9097 35.0095C83.0163 34.9667 83.1122 34.9026 83.1975 34.8172C83.304 34.7104 83.4106 34.6036 83.5171 34.4968C83.7089 34.3046 83.8688 34.187 83.9967 34.1442C84.1246 34.0801 84.3166 34.0479 84.5726 34.0476L90.6206 34.0405C90.8339 34.0402 91.0047 34.104 91.1328 34.2319C91.2823 34.3597 91.3465 34.5303 91.3254 34.7436C91.3045 35.149 91.113 35.6399 90.751 36.2163C90.4103 36.7714 89.8883 37.316 89.1849 37.8502C88.4814 38.3843 87.5859 38.8334 86.4984 39.1973C85.4107 39.5399 84.1309 39.7121 82.6589 39.7138ZM81.3349 28.9633L83.8949 28.9603L83.8949 28.9283C83.8943 28.459 83.8406 28.0751 83.7336 27.7765C83.6479 27.478 83.509 27.2648 83.3169 27.137C83.1247 26.9879 82.8899 26.9135 82.6126 26.9138C82.3353 26.9142 82.1007 26.9891 81.9089 27.1387C81.717 27.2669 81.5679 27.4804 81.4616 27.7792C81.3766 28.078 81.3343 28.462 81.3349 28.9313L81.3349 28.9633ZM101.956 39.6912C99.1618 39.6945 96.9317 39.0144 95.2661 37.651C93.6219 36.2663 92.7981 34.0806 92.7948 31.0939C92.7947 31.0512 92.7947 31.0086 92.7947 30.9659C92.7946 30.9232 92.7946 30.8912 92.7945 30.8699C92.8352 29.0352 93.2281 27.4881 93.9734 26.2285C94.7399 24.969 95.7949 24.0184 97.1382 23.3768C98.5028 22.7352 100.092 22.4134 101.905 22.4112C103.996 22.4088 105.714 22.8121 107.058 23.6212C108.403 24.4089 109.397 25.4638 110.038 26.7857C110.701 28.0863 111.033 29.5259 111.035 31.1045L111.036 32.0645C111.036 32.2992 110.951 32.502 110.781 32.6728C110.61 32.8437 110.408 32.9293 110.173 32.9295L100.637 32.9407C100.637 32.9621 100.637 32.9834 100.637 33.0047C100.637 33.0261 100.637 33.0581 100.637 33.1007C100.638 33.5274 100.67 33.89 100.734 34.1886C100.82 34.4658 100.959 34.679 101.151 34.8281C101.343 34.9772 101.589 35.0516 101.887 35.0513C102.015 35.0511 102.122 35.0296 102.207 34.9869C102.314 34.9441 102.41 34.88 102.495 34.7945C102.601 34.6878 102.708 34.581 102.815 34.4742C103.006 34.2819 103.166 34.1644 103.294 34.1216C103.422 34.0575 103.614 34.0252 103.87 34.0249L109.918 34.0178C110.131 34.0176 110.302 34.0814 110.43 34.2092C110.58 34.3371 110.644 34.5077 110.623 34.721C110.602 35.1264 110.411 35.6173 110.049 36.1937C109.708 36.7488 109.186 37.2934 108.482 37.8275C107.779 38.3617 106.883 38.8107 105.796 39.1747C104.708 39.5173 103.428 39.6895 101.956 39.6912ZM100.632 28.9407L103.192 28.9377L103.192 28.9057C103.192 28.4364 103.138 28.0525 103.031 27.7539C102.945 27.4553 102.806 27.2422 102.614 27.1144C102.422 26.9653 102.187 26.8909 101.91 26.8912C101.633 26.8916 101.398 26.9665 101.206 27.1161C101.014 27.2443 100.865 27.4578 100.759 27.7566C100.674 28.0553 100.632 28.4394 100.632 28.9087L100.632 28.9407ZM128.631 39.3399C128.396 39.3402 128.194 39.2551 128.023 39.0846C127.852 38.9142 127.766 38.7116 127.766 38.4769L127.763 35.7569L118.195 35.7681C117.96 35.7684 117.758 35.6833 117.587 35.5129C117.416 35.3424 117.33 35.1398 117.33 34.9052L117.325 30.3292C117.325 30.0518 117.367 29.8384 117.452 29.689C117.537 29.5396 117.612 29.4222 117.676 29.3367L126.719 17.4861C127.017 17.1231 127.411 16.9413 127.902 16.9407L134.558 16.9329C134.793 16.9327 134.995 17.0178 135.166 17.1882C135.337 17.3587 135.423 17.5613 135.423 17.7959L135.436 29.2519L138.22 29.2487C138.497 29.2483 138.711 29.3334 138.86 29.5039C139.031 29.6744 139.116 29.8769 139.117 30.1116L139.122 34.8796C139.122 35.1143 139.037 35.317 138.867 35.4879C138.696 35.6588 138.494 35.7443 138.259 35.7446L135.443 35.7479L135.446 38.4679C135.446 38.7026 135.361 38.9054 135.191 39.0762C135.02 39.2471 134.818 39.3327 134.583 39.3329L128.631 39.3399ZM124.62 29.6166L127.98 29.6127L127.975 25.0047L124.62 29.6166ZM150.851 39.6339C149.251 39.6357 147.842 39.4347 146.626 39.0308C145.409 38.6056 144.385 38.0308 143.552 37.3064C142.719 36.5607 142.068 35.6975 141.597 34.7167C141.148 33.7146 140.88 32.6269 140.793 31.4536C140.75 30.8777 140.717 30.1737 140.695 29.3418C140.694 28.5098 140.693 27.6778 140.692 26.8458C140.713 25.9924 140.744 25.267 140.786 24.6696C140.87 23.4962 141.146 22.4186 141.614 21.4367C142.104 20.4548 142.775 19.6113 143.627 18.9063C144.48 18.18 145.503 17.6134 146.698 17.2067C147.913 16.8 149.289 16.5957 150.825 16.5939C152.361 16.5921 153.726 16.7931 154.922 17.1971C156.138 17.601 157.173 18.1651 158.027 18.8894C158.882 19.5924 159.544 20.4343 160.014 21.4151C160.506 22.3959 160.795 23.4729 160.882 24.6461C160.925 25.2434 160.947 25.9687 160.948 26.822C160.971 27.654 160.972 28.486 160.951 29.318C160.952 30.15 160.931 30.854 160.889 31.4301C160.805 32.6035 160.529 33.6918 160.061 34.6951C159.614 35.6769 158.975 36.5417 158.144 37.2893C157.313 38.0156 156.289 38.5928 155.074 39.0209C153.858 39.4277 152.451 39.632 150.851 39.6339ZM150.844 33.3619C151.462 33.3611 151.899 33.1686 152.155 32.7843C152.411 32.3787 152.549 31.8772 152.569 31.2798C152.611 30.6611 152.632 29.9678 152.631 29.1998C152.651 28.4317 152.651 27.6637 152.628 26.8958C152.628 26.1064 152.605 25.4238 152.562 24.8478C152.54 24.2932 152.401 23.8134 152.144 23.4083C151.909 23.0033 151.472 22.7905 150.832 22.7699C150.192 22.792 149.755 23.0058 149.52 23.4114C149.286 23.817 149.148 24.2972 149.106 24.8519C149.085 25.4279 149.065 26.1106 149.044 26.9C149.045 27.668 149.046 28.436 149.047 29.204C149.069 29.9719 149.091 30.6652 149.113 31.2839C149.157 31.8812 149.307 32.3823 149.563 32.7874C149.819 33.1711 150.246 33.3626 150.844 33.3619ZM173.179 39.6077C171.579 39.6096 170.171 39.4085 168.955 39.0046C167.738 38.5794 166.714 38.0046 165.881 37.2802C165.048 36.5345 164.396 35.6713 163.926 34.6905C163.477 33.6884 163.209 32.6007 163.122 31.4275C163.079 30.8515 163.046 30.1476 163.024 29.3156C163.023 28.4836 163.022 27.6516 163.021 26.8196C163.041 25.9662 163.073 25.2409 163.115 24.6435C163.199 23.47 163.475 22.3924 163.943 21.4105C164.433 20.4286 165.104 19.5851 165.956 18.8801C166.809 18.1538 167.832 17.5873 169.026 17.1805C170.242 16.7738 171.618 16.5695 173.154 16.5677C174.69 16.5659 176.055 16.767 177.25 17.1709C178.467 17.5748 179.502 18.1389 180.356 18.8633C181.21 19.5663 181.873 20.4081 182.343 21.3889C182.835 22.3697 183.124 23.4467 183.211 24.6199C183.254 25.2172 183.276 25.9425 183.277 26.7958C183.299 27.6278 183.3 28.4598 183.28 29.2918C183.281 30.1238 183.26 30.8279 183.218 31.4039C183.134 32.5773 182.858 33.6657 182.39 34.6689C181.943 35.6507 181.304 36.5155 180.473 37.2631C179.642 37.9894 178.618 38.5666 177.403 38.9947C176.187 39.4015 174.779 39.6058 173.179 39.6077ZM173.172 33.3357C173.791 33.335 174.228 33.1424 174.484 32.7581C174.739 32.3525 174.877 31.851 174.898 31.2537C174.94 30.6349 174.961 29.9416 174.96 29.1736C174.98 28.4056 174.979 27.6376 174.957 26.8696C174.956 26.0803 174.934 25.3976 174.891 24.8217C174.869 24.267 174.73 23.7872 174.473 23.3822C174.238 22.9771 173.801 22.7643 173.161 22.7437C172.521 22.7658 172.083 22.9796 171.849 23.3852C171.615 23.7908 171.477 24.271 171.435 24.8257C171.414 25.4017 171.394 26.0844 171.373 26.8738C171.374 27.6418 171.375 28.4098 171.376 29.1778C171.398 29.9458 171.42 30.6391 171.442 31.2577C171.485 31.855 171.635 32.3562 171.892 32.7612C172.148 33.1449 172.575 33.3364 173.172 33.3357ZM195.508 39.5815C193.908 39.5834 192.5 39.3824 191.283 38.9785C190.067 38.5532 189.042 37.9784 188.209 37.2541C187.377 36.5084 186.725 35.6451 186.255 34.6643C185.805 33.6622 185.538 32.5745 185.451 31.4013C185.408 30.8253 185.375 30.1214 185.353 29.2894C185.352 28.4574 185.351 27.6254 185.35 26.7934C185.37 25.94 185.401 25.2147 185.443 24.6173C185.527 23.4439 185.804 22.3662 186.272 21.3843C186.761 20.4024 187.432 19.559 188.285 18.854C189.137 18.1276 190.161 17.5611 191.355 17.1544C192.571 16.7476 193.946 16.5433 195.482 16.5415C197.018 16.5397 198.384 16.7408 199.579 17.1447C200.795 17.5486 201.831 18.1127 202.685 18.8371C203.539 19.5401 204.201 20.382 204.672 21.3627C205.163 22.3435 205.453 23.4205 205.539 24.5937C205.583 25.191 205.605 25.9163 205.606 26.7697C205.628 27.6016 205.629 28.4336 205.609 29.2657C205.61 30.0977 205.589 30.8017 205.547 31.3777C205.463 32.5512 205.187 33.6395 204.719 34.6427C204.272 35.6246 203.633 36.4893 202.801 37.237C201.97 37.9633 200.947 38.5405 199.731 38.9686C198.516 39.3753 197.108 39.5796 195.508 39.5815ZM195.501 33.3095C196.12 33.3088 196.557 33.1163 196.812 32.732C197.068 32.3263 197.206 31.8248 197.227 31.2275C197.269 30.6088 197.289 29.9154 197.288 29.1474C197.309 28.3794 197.308 27.6114 197.286 26.8434C197.285 26.0541 197.263 25.3714 197.22 24.7955C197.198 24.2408 197.058 23.761 196.802 23.356C196.567 22.9509 196.129 22.7381 195.489 22.7175C194.849 22.7396 194.412 22.9534 194.178 23.3591C193.944 23.7647 193.806 24.2448 193.764 24.7995C193.743 25.3756 193.722 26.0583 193.702 26.8476C193.703 27.6156 193.704 28.3836 193.704 29.1516C193.727 29.9196 193.749 30.6129 193.771 31.2315C193.814 31.8288 193.964 32.33 194.22 32.735C194.477 33.1187 194.904 33.3102 195.501 33.3095ZM213.982 39.2398C213.747 39.2401 213.545 39.155 213.374 38.9846C213.203 38.8141 213.117 38.6115 213.117 38.3769L213.1 23.4649C213.1 23.2302 213.185 23.0274 213.356 22.8566C213.526 22.6857 213.729 22.6001 213.963 22.5999L219.563 22.5933C219.798 22.593 220.001 22.6781 220.172 22.8486C220.343 23.019 220.428 23.2216 220.428 23.4563L220.433 28.0323L221.137 28.0314L223.884 23.1322C223.927 23.0468 224.022 22.9401 224.172 22.8119C224.321 22.6624 224.534 22.5875 224.811 22.5871L230.955 22.5799C231.169 22.5797 231.35 22.6541 231.5 22.8033C231.649 22.9525 231.724 23.1337 231.724 23.347C231.724 23.4324 231.703 23.5284 231.661 23.6351C231.639 23.7205 231.607 23.7845 231.565 23.8272L227.508 30.712L232.381 38.0343C232.466 38.1622 232.509 38.3008 232.509 38.4501C232.509 38.6635 232.435 38.8449 232.286 38.9944C232.137 39.1439 231.955 39.2188 231.742 39.219L225.022 39.2269C224.766 39.2272 224.563 39.1741 224.414 39.0676C224.264 38.9611 224.136 38.8333 224.029 38.6841L220.984 33.6316L220.44 33.6323L220.445 38.3683C220.445 38.6029 220.36 38.8057 220.19 38.9766C220.019 39.1474 219.817 39.233 219.582 39.2333L213.982 39.2398ZM234.014 39.2164C233.78 39.2166 233.577 39.1315 233.406 38.9611C233.235 38.7906 233.15 38.588 233.15 38.3534L233.145 34.1614C233.144 33.692 233.432 33.4037 234.008 33.2964C234.584 33.189 234.978 32.9219 235.191 32.495C235.404 32.0681 235.521 31.5026 235.541 30.7986C235.583 30.0732 235.603 29.2412 235.602 28.3025L235.597 23.4385C235.597 23.2038 235.682 23.0011 235.852 22.8302C236.023 22.6593 236.225 22.5738 236.46 22.5735L251.052 22.5564C251.287 22.5561 251.489 22.6412 251.66 22.8117C251.831 22.9821 251.917 23.1847 251.917 23.4194L251.933 38.3314C251.934 38.566 251.849 38.7688 251.678 38.9397C251.508 39.1105 251.305 39.1961 251.07 39.1964L245.342 39.2031C245.108 39.2034 244.905 39.1183 244.734 38.9478C244.563 38.7773 244.478 38.5748 244.477 38.3401L244.466 28.1641L242.642 28.1662L242.643 29.0942C242.645 31.0996 242.541 32.7637 242.329 34.0866C242.117 35.4095 241.702 36.4447 241.084 37.1921C240.488 37.9181 239.614 38.4418 238.462 38.7631C237.332 39.0631 235.849 39.2142 234.014 39.2164ZM255.264 39.1914C255.03 39.1917 254.827 39.1066 254.656 38.9362C254.485 38.7657 254.4 38.5631 254.399 38.3285L254.383 23.4165C254.383 23.1818 254.468 22.979 254.638 22.8082C254.809 22.6373 255.011 22.5517 255.246 22.5515L260.974 22.5447C261.208 22.5445 261.411 22.6296 261.582 22.8C261.753 22.9705 261.839 23.1731 261.839 23.4077L261.85 33.4877L259.897 32.914L266.286 23.0825C266.393 22.9117 266.521 22.7836 266.67 22.6981C266.841 22.5912 267.022 22.5377 267.214 22.5374L272.302 22.5315C272.536 22.5312 272.739 22.6163 272.91 22.7867C273.081 22.9572 273.167 23.1598 273.167 23.3944L273.183 38.3064C273.184 38.5411 273.099 38.7439 272.928 38.9147C272.758 39.0856 272.555 39.1712 272.32 39.1715L266.592 39.1782C266.358 39.1784 266.155 39.0933 265.984 38.9229C265.813 38.7524 265.728 38.5498 265.727 38.3152L265.716 28.2352L267.669 28.8089L261.28 38.6404C261.173 38.8112 261.035 38.95 260.864 39.0569C260.715 39.1424 260.544 39.1853 260.352 39.1855L255.264 39.1914ZM283.588 39.4782C280.793 39.4815 278.563 38.8015 276.897 37.4381C275.253 36.0533 274.429 33.8676 274.426 30.881C274.426 30.8383 274.426 30.7956 274.426 30.753C274.426 30.7103 274.426 30.6783 274.426 30.657C274.466 28.8223 274.859 27.2751 275.604 26.0156C276.371 24.756 277.426 23.8055 278.769 23.1639C280.134 22.5223 281.723 22.2004 283.536 22.1983C285.627 22.1958 287.345 22.5992 288.69 23.4083C290.034 24.196 291.028 25.2508 291.669 26.5728C292.332 27.8733 292.664 29.3129 292.666 30.8916L292.667 31.8516C292.667 32.0863 292.582 32.289 292.412 32.4599C292.241 32.6308 292.039 32.7163 291.804 32.7166L282.268 32.7278C282.268 32.7491 282.268 32.7705 282.268 32.7918C282.268 32.8131 282.268 32.8451 282.268 32.8878C282.269 33.3145 282.301 33.6771 282.365 33.9757C282.451 34.2529 282.59 34.4661 282.782 34.6152C282.974 34.7643 283.22 34.8387 283.518 34.8383C283.646 34.8382 283.753 34.8167 283.838 34.7739C283.945 34.7312 284.041 34.667 284.126 34.5816C284.233 34.4748 284.339 34.368 284.446 34.2612C284.637 34.069 284.797 33.9515 284.925 33.9087C285.053 33.8445 285.245 33.8123 285.501 33.812L291.549 33.8049C291.763 33.8047 291.933 33.8685 292.061 33.9963C292.211 34.1241 292.275 34.2947 292.254 34.5081C292.233 34.9134 292.042 35.4043 291.68 35.9808C291.339 36.5358 290.817 37.0804 290.113 37.6146C289.41 38.1488 288.515 38.5978 287.427 38.9617C286.339 39.3044 285.06 39.4765 283.588 39.4782ZM282.264 28.7278L284.824 28.7248L284.823 28.6928C284.823 28.2235 284.769 27.8395 284.662 27.541C284.577 27.2424 284.438 27.0292 284.245 26.9015C284.053 26.7524 283.819 26.678 283.541 26.6783C283.264 26.6786 283.029 26.7536 282.837 26.9031C282.646 27.0313 282.497 27.2448 282.39 27.5436C282.305 27.8424 282.263 28.2265 282.263 28.6958L282.264 28.7278ZM295.141 39.1447C294.906 39.145 294.703 39.0599 294.532 38.8894C294.362 38.7189 294.276 38.5164 294.276 38.2817L294.259 23.3697C294.259 23.1351 294.344 22.9323 294.514 22.7614C294.685 22.5906 294.887 22.505 295.122 22.5047L300.85 22.498C301.085 22.4977 301.287 22.5828 301.458 22.7533C301.629 22.9237 301.715 23.1263 301.715 23.361L301.72 27.937L304.92 27.9332L304.915 23.3572C304.915 23.1226 305 22.9198 305.17 22.7489C305.341 22.5781 305.543 22.4925 305.778 22.4922L311.506 22.4855C311.741 22.4852 311.943 22.5703 312.114 22.7408C312.285 22.9113 312.371 23.1138 312.371 23.3485L312.388 38.2605C312.388 38.4951 312.303 38.6979 312.132 38.8688C311.962 39.0396 311.759 39.1252 311.525 39.1255L305.797 39.1322C305.562 39.1325 305.359 39.0474 305.188 38.8769C305.018 38.7065 304.932 38.5039 304.932 38.2692L304.926 33.5332L301.726 33.537L301.732 38.273C301.732 38.5076 301.647 38.7104 301.476 38.8813C301.306 39.0521 301.103 39.1377 300.869 39.138L295.141 39.1447ZM319.879 39.1157C319.645 39.116 319.442 39.0309 319.271 38.8604C319.1 38.6899 319.015 38.4874 319.014 38.2527L319.003 28.0767L314.747 28.0817C314.512 28.082 314.31 27.9969 314.139 27.8264C313.968 27.656 313.882 27.4534 313.882 27.2187L313.878 23.3467C313.878 23.1121 313.963 22.9093 314.133 22.7384C314.304 22.5676 314.506 22.482 314.741 22.4817L330.581 22.4631C330.815 22.4629 331.018 22.548 331.189 22.7184C331.36 22.8889 331.445 23.0915 331.446 23.3261L331.45 27.1981C331.45 27.4328 331.365 27.6356 331.195 27.8064C331.024 27.9773 330.822 28.0629 330.587 28.0631L326.331 28.0681L326.342 38.2441C326.343 38.4788 326.258 38.6816 326.087 38.8524C325.917 39.0233 325.714 39.1089 325.479 39.1091L319.879 39.1157ZM341.579 39.4103C339.616 39.4126 337.963 39.1478 336.618 38.6161C335.274 38.0843 334.238 37.2855 333.511 36.2197C332.806 35.1539 332.399 33.8423 332.291 32.2851C332.269 31.7945 332.258 31.2932 332.257 30.7812C332.257 30.2478 332.267 29.7465 332.288 29.2771C332.393 27.6984 332.828 26.3858 333.595 25.3396C334.362 24.272 335.417 23.4708 336.761 22.9359C338.104 22.401 339.704 22.1324 341.56 22.1303C343.416 22.1281 345.016 22.3929 346.361 22.9246C347.705 23.4564 348.762 24.2552 349.531 25.3209C350.3 26.3654 350.739 27.6768 350.848 29.2554C350.891 29.7247 350.913 30.226 350.913 30.7593C350.914 31.2713 350.893 31.7727 350.851 32.2634C350.746 33.8208 350.332 35.1333 349.607 36.2008C348.905 37.2683 347.881 38.0695 346.538 38.6044C345.195 39.1394 343.542 39.408 341.579 39.4103ZM341.573 34.2903C342.192 34.2895 342.576 34.1184 342.725 33.7769C342.874 33.4141 342.969 32.8593 343.011 32.1126C343.032 31.7925 343.042 31.3445 343.041 30.7685C343.041 30.1925 343.03 29.7446 343.008 29.4246C342.964 28.7206 342.868 28.1874 342.718 27.8249C342.568 27.4411 342.184 27.2495 341.565 27.2503C340.968 27.251 340.584 27.4434 340.414 27.8276C340.265 28.1905 340.17 28.7239 340.128 29.428C340.107 29.748 340.097 30.196 340.097 30.772C340.098 31.348 340.109 31.796 340.131 32.116C340.174 32.8626 340.271 33.4171 340.421 33.7796C340.592 34.1207 340.976 34.291 341.573 34.2903ZM353.502 39.0763C353.267 39.0766 353.064 38.9915 352.894 38.821C352.723 38.6505 352.637 38.448 352.637 38.2133L352.62 23.3013C352.62 23.0666 352.705 22.8639 352.876 22.693C353.046 22.5221 353.249 22.4366 353.483 22.4363L361.707 22.4266C364.694 22.4231 366.828 22.8686 368.109 23.7631C369.411 24.6576 370.063 25.8729 370.065 27.4089C370.066 28.0915 369.928 28.689 369.651 29.2013C369.374 29.7137 369.023 30.1514 368.596 30.5146C369.215 30.8765 369.717 31.3346 370.102 31.8888C370.508 32.4217 370.711 33.1148 370.712 33.9681C370.714 35.5041 370.065 36.7422 368.764 37.6824C367.485 38.6012 365.353 39.0624 362.366 39.0659L353.502 39.0763ZM359.801 34.6849L362.041 34.6823C362.404 34.6818 362.681 34.6282 362.873 34.5213C363.086 34.4144 363.192 34.2009 363.192 33.8809C363.192 33.5609 363.085 33.3477 362.871 33.2413C362.679 33.1135 362.402 33.0498 362.039 33.0503L359.799 33.0529L359.801 34.6849ZM359.794 28.4449L362.034 28.4423C362.418 28.4418 362.706 28.3881 362.898 28.2813C363.09 28.1744 363.185 27.9609 363.185 27.6409C363.185 27.3209 363.078 27.1077 362.864 27.0013C362.672 26.8735 362.395 26.8098 362.032 26.8103L359.792 26.8129L359.794 28.4449Z" fill="white"/>
<path d="M109.718 94.08C109.484 94.08 109.281 93.9947 109.11 93.824C108.94 93.6533 108.854 93.4507 108.854 93.216V72.224C108.854 71.9893 108.94 71.7867 109.11 71.616C109.281 71.4453 109.484 71.36 109.718 71.36H115.158C115.393 71.36 115.596 71.4453 115.766 71.616C115.937 71.7867 116.022 71.9893 116.022 72.224V73.184C116.513 72.5653 117.142 72.0533 117.91 71.648C118.7 71.2427 119.649 71.04 120.758 71.04C121.697 71.04 122.561 71.1787 123.35 71.456C124.14 71.712 124.833 72.1387 125.43 72.736C126.049 73.312 126.54 74.0693 126.902 75.008C127.265 75.9467 127.478 77.088 127.542 78.432C127.564 78.9013 127.574 79.3173 127.574 79.68C127.574 80.0427 127.564 80.4693 127.542 80.96C127.5 82.2187 127.297 83.3173 126.934 84.256C126.572 85.1733 126.081 85.9307 125.462 86.528C124.865 87.1253 124.161 87.5733 123.35 87.872C122.561 88.1707 121.697 88.32 120.758 88.32C119.862 88.32 119.052 88.1707 118.326 87.872C117.601 87.5733 116.993 87.0827 116.502 86.4V93.216C116.502 93.4507 116.417 93.6533 116.246 93.824C116.076 93.9947 115.873 94.08 115.638 94.08H109.718ZM118.102 82.592C118.508 82.592 118.817 82.5173 119.03 82.368C119.244 82.2187 119.393 82.0053 119.478 81.728C119.585 81.4507 119.66 81.12 119.702 80.736C119.766 80.032 119.766 79.328 119.702 78.624C119.66 78.24 119.585 77.9093 119.478 77.632C119.393 77.3547 119.244 77.1413 119.03 76.992C118.817 76.8427 118.508 76.768 118.102 76.768C117.718 76.768 117.409 76.8427 117.174 76.992C116.94 77.1413 116.769 77.3547 116.662 77.632C116.577 77.9093 116.524 78.24 116.502 78.624C116.481 79.0933 116.47 79.488 116.47 79.808C116.47 80.1067 116.481 80.5013 116.502 80.992C116.524 81.3333 116.588 81.6213 116.694 81.856C116.822 82.0907 116.993 82.272 117.206 82.4C117.441 82.528 117.74 82.592 118.102 82.592ZM137.979 88.32C135.184 88.32 132.955 87.6373 131.291 86.272C129.648 84.8853 128.827 82.6987 128.827 79.712C128.827 79.6693 128.827 79.6267 128.827 79.584C128.827 79.5413 128.827 79.5093 128.827 79.488C128.869 77.6533 129.264 76.1067 130.011 74.848C130.779 73.5893 131.835 72.64 133.179 72C134.544 71.36 136.133 71.04 137.947 71.04C140.037 71.04 141.755 71.4453 143.099 72.256C144.443 73.0453 145.435 74.1013 146.075 75.424C146.736 76.7253 147.067 78.1653 147.067 79.744V80.704C147.067 80.9387 146.981 81.1413 146.811 81.312C146.64 81.4827 146.437 81.568 146.203 81.568H136.667C136.667 81.5893 136.667 81.6107 136.667 81.632C136.667 81.6533 136.667 81.6853 136.667 81.728C136.667 82.1547 136.699 82.5173 136.763 82.816C136.848 83.0933 136.987 83.3067 137.179 83.456C137.371 83.6053 137.616 83.68 137.915 83.68C138.043 83.68 138.149 83.6587 138.235 83.616C138.341 83.5733 138.437 83.5093 138.523 83.424C138.629 83.3173 138.736 83.2107 138.843 83.104C139.035 82.912 139.195 82.7947 139.323 82.752C139.451 82.688 139.643 82.656 139.899 82.656H145.947C146.16 82.656 146.331 82.72 146.459 82.848C146.608 82.976 146.672 83.1467 146.651 83.36C146.629 83.7653 146.437 84.256 146.075 84.832C145.733 85.3867 145.211 85.9307 144.507 86.464C143.803 86.9973 142.907 87.4453 141.819 87.808C140.731 88.1493 139.451 88.32 137.979 88.32ZM136.667 77.568H139.227V77.536C139.227 77.0667 139.173 76.6827 139.067 76.384C138.981 76.0853 138.843 75.872 138.651 75.744C138.459 75.5947 138.224 75.52 137.947 75.52C137.669 75.52 137.435 75.5947 137.243 75.744C137.051 75.872 136.901 76.0853 136.795 76.384C136.709 76.6827 136.667 77.0667 136.667 77.536V77.568ZM149.532 88C149.298 88 149.095 87.9147 148.924 87.744C148.754 87.5733 148.668 87.3707 148.668 87.136V72.224C148.668 71.9893 148.754 71.7867 148.924 71.616C149.095 71.4453 149.298 71.36 149.532 71.36H154.94C155.175 71.36 155.378 71.4453 155.548 71.616C155.719 71.7867 155.804 71.9893 155.804 72.224V82.4H157.66V72.224C157.66 71.9893 157.746 71.7867 157.916 71.616C158.087 71.4453 158.29 71.36 158.524 71.36H163.452C163.687 71.36 163.89 71.4453 164.06 71.616C164.231 71.7867 164.316 71.9893 164.316 72.224V82.4H166.172V72.224C166.172 71.9893 166.258 71.7867 166.428 71.616C166.599 71.4453 166.802 71.36 167.036 71.36H172.444C172.679 71.36 172.882 71.4453 173.052 71.616C173.223 71.7867 173.308 71.9893 173.308 72.224V87.136C173.308 87.3707 173.223 87.5733 173.052 87.744C172.882 87.9147 172.679 88 172.444 88H149.532ZM176.642 88C176.408 88 176.205 87.9147 176.034 87.744C175.864 87.5733 175.778 87.3707 175.778 87.136V72.224C175.778 71.9893 175.864 71.7867 176.034 71.616C176.205 71.4453 176.408 71.36 176.642 71.36H182.37C182.605 71.36 182.808 71.4453 182.978 71.616C183.149 71.7867 183.234 71.9893 183.234 72.224V82.304L181.282 81.728L187.682 71.904C187.789 71.7333 187.917 71.6053 188.066 71.52C188.237 71.4133 188.418 71.36 188.61 71.36H193.698C193.933 71.36 194.136 71.4453 194.306 71.616C194.477 71.7867 194.562 71.9893 194.562 72.224V87.136C194.562 87.3707 194.477 87.5733 194.306 87.744C194.136 87.9147 193.933 88 193.698 88H187.97C187.736 88 187.533 87.9147 187.362 87.744C187.192 87.5733 187.106 87.3707 187.106 87.136V77.056L189.058 77.632L182.658 87.456C182.552 87.6267 182.413 87.7653 182.242 87.872C182.093 87.9573 181.922 88 181.73 88H176.642ZM196.581 88C196.346 88 196.144 87.9147 195.973 87.744C195.802 87.5733 195.717 87.3707 195.717 87.136V82.944C195.717 82.4747 196.005 82.1867 196.581 82.08C197.157 81.9733 197.552 81.7067 197.765 81.28C197.978 80.8533 198.096 80.288 198.117 79.584C198.16 78.8587 198.181 78.0267 198.181 77.088V72.224C198.181 71.9893 198.266 71.7867 198.437 71.616C198.608 71.4453 198.81 71.36 199.045 71.36H213.637C213.872 71.36 214.074 71.4453 214.245 71.616C214.416 71.7867 214.501 71.9893 214.501 72.224V87.136C214.501 87.3707 214.416 87.5733 214.245 87.744C214.074 87.9147 213.872 88 213.637 88H207.909C207.674 88 207.472 87.9147 207.301 87.744C207.13 87.5733 207.045 87.3707 207.045 87.136V76.96H205.221V77.888C205.221 79.8933 205.114 81.5573 204.901 82.88C204.688 84.2027 204.272 85.2373 203.653 85.984C203.056 86.7093 202.181 87.232 201.029 87.552C199.898 87.8507 198.416 88 196.581 88ZM217.831 88C217.596 88 217.394 87.9147 217.223 87.744C217.052 87.5733 216.967 87.3707 216.967 87.136V72.224C216.967 71.9893 217.052 71.7867 217.223 71.616C217.394 71.4453 217.596 71.36 217.831 71.36H223.559C223.794 71.36 223.996 71.4453 224.167 71.616C224.338 71.7867 224.423 71.9893 224.423 72.224V82.304L222.471 81.728L228.871 71.904C228.978 71.7333 229.106 71.6053 229.255 71.52C229.426 71.4133 229.607 71.36 229.799 71.36H234.887C235.122 71.36 235.324 71.4453 235.495 71.616C235.666 71.7867 235.751 71.9893 235.751 72.224V87.136C235.751 87.3707 235.666 87.5733 235.495 87.744C235.324 87.9147 235.122 88 234.887 88H229.159C228.924 88 228.722 87.9147 228.551 87.744C228.38 87.5733 228.295 87.3707 228.295 87.136V77.056L230.247 77.632L223.847 87.456C223.74 87.6267 223.602 87.7653 223.431 87.872C223.282 87.9573 223.111 88 222.919 88H217.831ZM251.323 88.32C249.702 88.32 248.23 88.0427 246.907 87.488C245.585 86.912 244.518 86.08 243.707 84.992C242.897 83.904 242.449 82.5707 242.363 80.992C242.342 80.6507 242.331 80.224 242.331 79.712C242.331 79.2 242.342 78.7627 242.363 78.4C242.449 76.8213 242.886 75.488 243.675 74.4C244.486 73.2907 245.553 72.4587 246.875 71.904C248.219 71.328 249.702 71.04 251.323 71.04C253.009 71.04 254.438 71.2853 255.611 71.776C256.806 72.2453 257.766 72.832 258.491 73.536C259.238 74.2187 259.782 74.9013 260.123 75.584C260.486 76.2667 260.678 76.8213 260.699 77.248C260.721 77.4827 260.635 77.6853 260.443 77.856C260.273 78.0267 260.07 78.112 259.835 78.112H253.595C253.361 78.112 253.169 78.0587 253.019 77.952C252.891 77.824 252.774 77.664 252.667 77.472C252.518 77.1733 252.358 76.9387 252.187 76.768C252.038 76.5973 251.803 76.512 251.483 76.512C250.993 76.512 250.662 76.6933 250.491 77.056C250.321 77.4187 250.225 77.92 250.203 78.56C250.182 79.4773 250.182 80.2347 250.203 80.832C250.246 81.5147 250.342 82.0267 250.491 82.368C250.662 82.688 250.993 82.848 251.483 82.848C251.867 82.848 252.123 82.7627 252.251 82.592C252.401 82.4213 252.539 82.1867 252.667 81.888C252.753 81.696 252.87 81.5467 253.019 81.44C253.169 81.312 253.361 81.248 253.595 81.248H259.835C260.07 81.248 260.273 81.3333 260.443 81.504C260.635 81.6747 260.721 81.8773 260.699 82.112C260.678 82.3893 260.561 82.784 260.347 83.296C260.155 83.7867 259.835 84.32 259.387 84.896C258.961 85.472 258.385 86.0267 257.659 86.56C256.934 87.072 256.049 87.4987 255.003 87.84C253.958 88.16 252.731 88.32 251.323 88.32ZM262.973 88C262.739 88 262.536 87.9147 262.365 87.744C262.195 87.5733 262.109 87.3707 262.109 87.136V72.224C262.109 71.9893 262.195 71.7867 262.365 71.616C262.536 71.4453 262.739 71.36 262.973 71.36H271.197C274.184 71.36 276.317 71.808 277.597 72.704C278.899 73.6 279.549 74.816 279.549 76.352C279.549 77.0347 279.411 77.632 279.133 78.144C278.856 78.656 278.504 79.0933 278.077 79.456C278.696 79.8187 279.197 80.2773 279.581 80.832C279.987 81.3653 280.189 82.0587 280.189 82.912C280.189 84.448 279.539 85.6853 278.237 86.624C276.957 87.5413 274.824 88 271.837 88H262.973ZM269.277 83.616H271.517C271.88 83.616 272.157 83.5627 272.349 83.456C272.563 83.3493 272.669 83.136 272.669 82.816C272.669 82.496 272.563 82.2827 272.349 82.176C272.157 82.048 271.88 81.984 271.517 81.984H269.277V83.616ZM269.277 77.376H271.517C271.901 77.376 272.189 77.3227 272.381 77.216C272.573 77.1093 272.669 76.896 272.669 76.576C272.669 76.256 272.563 76.0427 272.349 75.936C272.157 75.808 271.88 75.744 271.517 75.744H269.277V77.376ZM290.895 88.32C288.933 88.32 287.279 88.0533 285.935 87.52C284.591 86.9867 283.557 86.1867 282.831 85.12C282.127 84.0533 281.722 82.7413 281.615 81.184C281.594 80.6933 281.583 80.192 281.583 79.68C281.583 79.1467 281.594 78.6453 281.615 78.176C281.722 76.5973 282.159 75.2853 282.927 74.24C283.695 73.1733 284.751 72.3733 286.095 71.84C287.439 71.3067 289.039 71.04 290.895 71.04C292.751 71.04 294.351 71.3067 295.695 71.84C297.039 72.3733 298.095 73.1733 298.863 74.24C299.631 75.2853 300.069 76.5973 300.175 78.176C300.218 78.6453 300.239 79.1467 300.239 79.68C300.239 80.192 300.218 80.6933 300.175 81.184C300.069 82.7413 299.653 84.0533 298.927 85.12C298.223 86.1867 297.199 86.9867 295.855 87.52C294.511 88.0533 292.858 88.32 290.895 88.32ZM290.895 83.2C291.514 83.2 291.898 83.0293 292.047 82.688C292.197 82.3253 292.293 81.7707 292.335 81.024C292.357 80.704 292.367 80.256 292.367 79.68C292.367 79.104 292.357 78.656 292.335 78.336C292.293 77.632 292.197 77.0987 292.047 76.736C291.898 76.352 291.514 76.16 290.895 76.16C290.298 76.16 289.914 76.352 289.743 76.736C289.594 77.0987 289.498 77.632 289.455 78.336C289.434 78.656 289.423 79.104 289.423 79.68C289.423 80.256 289.434 80.704 289.455 81.024C289.498 81.7707 289.594 82.3253 289.743 82.688C289.914 83.0293 290.298 83.2 290.895 83.2ZM302.818 88C302.584 88 302.381 87.9147 302.21 87.744C302.04 87.5733 301.954 87.3707 301.954 87.136V72.224C301.954 71.9893 302.04 71.7867 302.21 71.616C302.381 71.4453 302.584 71.36 302.818 71.36H308.546C308.781 71.36 308.984 71.4453 309.154 71.616C309.325 71.7867 309.41 71.9893 309.41 72.224V82.304L307.458 81.728L313.858 71.904C313.965 71.7333 314.093 71.6053 314.242 71.52C314.413 71.4133 314.594 71.36 314.786 71.36H319.874C320.109 71.36 320.312 71.4453 320.482 71.616C320.653 71.7867 320.738 71.9893 320.738 72.224V87.136C320.738 87.3707 320.653 87.5733 320.482 87.744C320.312 87.9147 320.109 88 319.874 88H314.146C313.912 88 313.709 87.9147 313.538 87.744C313.368 87.5733 313.282 87.3707 313.282 87.136V77.056L315.234 77.632L308.834 87.456C308.728 87.6267 308.589 87.7653 308.418 87.872C308.269 87.9573 308.098 88 307.906 88H302.818ZM328.055 91.52C327.82 91.52 327.617 91.4347 327.447 91.264C327.276 91.0933 327.191 90.8907 327.191 90.656V83.264C327.191 83.0293 327.276 82.8267 327.447 82.656C327.617 82.4853 327.82 82.4 328.055 82.4H328.503C329.015 82.4 329.377 82.1653 329.591 81.696C329.825 81.2053 329.964 80.5653 330.007 79.776C330.071 78.9653 330.103 78.0693 330.103 77.088V72.224C330.103 71.9893 330.188 71.7867 330.359 71.616C330.529 71.4453 330.732 71.36 330.967 71.36H345.559C345.793 71.36 345.996 71.4453 346.167 71.616C346.337 71.7867 346.423 71.9893 346.423 72.224V82.4H347.671C347.905 82.4 348.108 82.4853 348.279 82.656C348.449 82.8267 348.535 83.0293 348.535 83.264V90.656C348.535 90.8907 348.449 91.0933 348.279 91.264C348.108 91.4347 347.905 91.52 347.671 91.52H341.943C341.708 91.52 341.505 91.4347 341.335 91.264C341.164 91.0933 341.079 90.8907 341.079 90.656V88H334.647V90.656C334.647 90.8907 334.561 91.0933 334.391 91.264C334.22 91.4347 334.017 91.52 333.783 91.52H328.055ZM336.567 82.4H338.967V76.96H337.143V77.888C337.143 78.8907 337.089 79.776 336.983 80.544C336.897 81.2907 336.759 81.9093 336.567 82.4ZM358.554 88.32C356.591 88.32 354.938 88.0533 353.594 87.52C352.25 86.9867 351.215 86.1867 350.49 85.12C349.786 84.0533 349.381 82.7413 349.274 81.184C349.253 80.6933 349.242 80.192 349.242 79.68C349.242 79.1467 349.253 78.6453 349.274 78.176C349.381 76.5973 349.818 75.2853 350.586 74.24C351.354 73.1733 352.41 72.3733 353.754 71.84C355.098 71.3067 356.698 71.04 358.554 71.04C360.41 71.04 362.01 71.3067 363.354 71.84C364.698 72.3733 365.754 73.1733 366.522 74.24C367.29 75.2853 367.727 76.5973 367.834 78.176C367.877 78.6453 367.898 79.1467 367.898 79.68C367.898 80.192 367.877 80.6933 367.834 81.184C367.727 82.7413 367.311 84.0533 366.586 85.12C365.882 86.1867 364.858 86.9867 363.514 87.52C362.17 88.0533 360.517 88.32 358.554 88.32ZM358.554 83.2C359.173 83.2 359.557 83.0293 359.706 82.688C359.855 82.3253 359.951 81.7707 359.994 81.024C360.015 80.704 360.026 80.256 360.026 79.68C360.026 79.104 360.015 78.656 359.994 78.336C359.951 77.632 359.855 77.0987 359.706 76.736C359.557 76.352 359.173 76.16 358.554 76.16C357.957 76.16 357.573 76.352 357.402 76.736C357.253 77.0987 357.157 77.632 357.114 78.336C357.093 78.656 357.082 79.104 357.082 79.68C357.082 80.256 357.093 80.704 357.114 81.024C357.157 81.7707 357.253 82.3253 357.402 82.688C357.573 83.0293 357.957 83.2 358.554 83.2ZM369.837 88C369.603 88 369.4 87.9147 369.229 87.744C369.059 87.5733 368.973 87.3707 368.973 87.136V82.944C368.973 82.4747 369.261 82.1867 369.837 82.08C370.413 81.9733 370.808 81.7067 371.021 81.28C371.235 80.8533 371.352 80.288 371.373 79.584C371.416 78.8587 371.437 78.0267 371.437 77.088V72.224C371.437 71.9893 371.523 71.7867 371.693 71.616C371.864 71.4453 372.067 71.36 372.301 71.36H386.893C387.128 71.36 387.331 71.4453 387.501 71.616C387.672 71.7867 387.757 71.9893 387.757 72.224V87.136C387.757 87.3707 387.672 87.5733 387.501 87.744C387.331 87.9147 387.128 88 386.893 88H381.165C380.931 88 380.728 87.9147 380.557 87.744C380.387 87.5733 380.301 87.3707 380.301 87.136V76.96H378.477V77.888C378.477 79.8933 378.371 81.5573 378.157 82.88C377.944 84.2027 377.528 85.2373 376.909 85.984C376.312 86.7093 375.437 87.232 374.285 87.552C373.155 87.8507 371.672 88 369.837 88ZM391.087 88C390.853 88 390.65 87.9147 390.479 87.744C390.309 87.5733 390.223 87.3707 390.223 87.136V72.224C390.223 71.9893 390.309 71.7867 390.479 71.616C390.65 71.4453 390.853 71.36 391.087 71.36H402.767C403.002 71.36 403.205 71.4453 403.375 71.616C403.546 71.7867 403.631 71.9893 403.631 72.224V76.096C403.631 76.3307 403.546 76.5333 403.375 76.704C403.205 76.8747 403.002 76.96 402.767 76.96H397.679V87.136C397.679 87.3707 397.594 87.5733 397.423 87.744C397.253 87.9147 397.05 88 396.815 88H391.087ZM413.915 88.32C411.953 88.32 410.299 88.0533 408.955 87.52C407.611 86.9867 406.577 86.1867 405.851 85.12C405.147 84.0533 404.742 82.7413 404.635 81.184C404.614 80.6933 404.603 80.192 404.603 79.68C404.603 79.1467 404.614 78.6453 404.635 78.176C404.742 76.5973 405.179 75.2853 405.947 74.24C406.715 73.1733 407.771 72.3733 409.115 71.84C410.459 71.3067 412.059 71.04 413.915 71.04C415.771 71.04 417.371 71.3067 418.715 71.84C420.059 72.3733 421.115 73.1733 421.883 74.24C422.651 75.2853 423.089 76.5973 423.195 78.176C423.238 78.6453 423.259 79.1467 423.259 79.68C423.259 80.192 423.238 80.6933 423.195 81.184C423.089 82.7413 422.673 84.0533 421.947 85.12C421.243 86.1867 420.219 86.9867 418.875 87.52C417.531 88.0533 415.878 88.32 413.915 88.32ZM413.915 83.2C414.534 83.2 414.918 83.0293 415.067 82.688C415.217 82.3253 415.313 81.7707 415.355 81.024C415.377 80.704 415.387 80.256 415.387 79.68C415.387 79.104 415.377 78.656 415.355 78.336C415.313 77.632 415.217 77.0987 415.067 76.736C414.918 76.352 414.534 76.16 413.915 76.16C413.318 76.16 412.934 76.352 412.763 76.736C412.614 77.0987 412.518 77.632 412.475 78.336C412.454 78.656 412.443 79.104 412.443 79.68C412.443 80.256 412.454 80.704 412.475 81.024C412.518 81.7707 412.614 82.3253 412.763 82.688C412.934 83.0293 413.318 83.2 413.915 83.2ZM425.838 88C425.604 88 425.401 87.9147 425.23 87.744C425.06 87.5733 424.974 87.3707 424.974 87.136V72.224C424.974 71.9893 425.06 71.7867 425.23 71.616C425.401 71.4453 425.604 71.36 425.838 71.36H434.062C437.049 71.36 439.182 71.808 440.462 72.704C441.764 73.6 442.414 74.816 442.414 76.352C442.414 77.0347 442.276 77.632 441.998 78.144C441.721 78.656 441.369 79.0933 440.942 79.456C441.561 79.8187 442.062 80.2773 442.446 80.832C442.852 81.3653 443.054 82.0587 443.054 82.912C443.054 84.448 442.404 85.6853 441.102 86.624C439.822 87.5413 437.689 88 434.702 88H425.838ZM432.142 83.616H434.382C434.745 83.616 435.022 83.5627 435.214 83.456C435.428 83.3493 435.534 83.136 435.534 82.816C435.534 82.496 435.428 82.2827 435.214 82.176C435.022 82.048 434.745 81.984 434.382 81.984H432.142V83.616ZM432.142 77.376H434.382C434.766 77.376 435.054 77.3227 435.246 77.216C435.438 77.1093 435.534 76.896 435.534 76.576C435.534 76.256 435.428 76.0427 435.214 75.936C435.022 75.808 434.745 75.744 434.382 75.744H432.142V77.376ZM445.792 88C445.558 88 445.355 87.9147 445.184 87.744C445.014 87.5733 444.928 87.3707 444.928 87.136V72.224C444.928 71.9893 445.014 71.7867 445.184 71.616C445.355 71.4453 445.558 71.36 445.792 71.36H451.552C451.787 71.36 451.99 71.4453 452.16 71.616C452.331 71.7867 452.416 71.9893 452.416 72.224V76.192H454.976C457.11 76.192 458.838 76.7147 460.16 77.76C461.483 78.8053 462.144 80.256 462.144 82.112C462.144 83.968 461.483 85.4187 460.16 86.464C458.838 87.488 457.11 88 454.976 88H445.792ZM452.256 83.232H454.336C454.763 83.232 455.083 83.136 455.296 82.944C455.51 82.752 455.616 82.4747 455.616 82.112C455.616 81.7493 455.51 81.472 455.296 81.28C455.083 81.0667 454.763 80.96 454.336 80.96H452.256V83.232ZM464.704 88C464.47 88 464.267 87.9147 464.096 87.744C463.926 87.5733 463.84 87.3707 463.84 87.136V72.224C463.84 71.9893 463.926 71.7867 464.096 71.616C464.267 71.4453 464.47 71.36 464.704 71.36H470.432C470.667 71.36 470.87 71.4453 471.04 71.616C471.211 71.7867 471.296 71.9893 471.296 72.224V87.136C471.296 87.3707 471.211 87.5733 471.04 87.744C470.87 87.9147 470.667 88 470.432 88H464.704ZM482.365 88.32C479.57 88.32 477.341 87.6373 475.677 86.272C474.034 84.8853 473.213 82.6987 473.213 79.712C473.213 79.6693 473.213 79.6267 473.213 79.584C473.213 79.5413 473.213 79.5093 473.213 79.488C473.256 77.6533 473.65 76.1067 474.397 74.848C475.165 73.5893 476.221 72.64 477.565 72C478.93 71.36 480.52 71.04 482.333 71.04C484.424 71.04 486.141 71.4453 487.485 72.256C488.829 73.0453 489.821 74.1013 490.461 75.424C491.122 76.7253 491.453 78.1653 491.453 79.744V80.704C491.453 80.9387 491.368 81.1413 491.197 81.312C491.026 81.4827 490.824 81.568 490.589 81.568H481.053C481.053 81.5893 481.053 81.6107 481.053 81.632C481.053 81.6533 481.053 81.6853 481.053 81.728C481.053 82.1547 481.085 82.5173 481.149 82.816C481.234 83.0933 481.373 83.3067 481.565 83.456C481.757 83.6053 482.002 83.68 482.301 83.68C482.429 83.68 482.536 83.6587 482.621 83.616C482.728 83.5733 482.824 83.5093 482.909 83.424C483.016 83.3173 483.122 83.2107 483.229 83.104C483.421 82.912 483.581 82.7947 483.709 82.752C483.837 82.688 484.029 82.656 484.285 82.656H490.333C490.546 82.656 490.717 82.72 490.845 82.848C490.994 82.976 491.058 83.1467 491.037 83.36C491.016 83.7653 490.824 84.256 490.461 84.832C490.12 85.3867 489.597 85.9307 488.893 86.464C488.189 86.9973 487.293 87.4453 486.205 87.808C485.117 88.1493 483.837 88.32 482.365 88.32ZM481.053 77.568H483.613V77.536C483.613 77.0667 483.56 76.6827 483.453 76.384C483.368 76.0853 483.229 75.872 483.037 75.744C482.845 75.5947 482.61 75.52 482.333 75.52C482.056 75.52 481.821 75.5947 481.629 75.744C481.437 75.872 481.288 76.0853 481.181 76.384C481.096 76.6827 481.053 77.0667 481.053 77.536V77.568ZM499.216 88C498.981 88 498.779 87.9147 498.608 87.744C498.437 87.5733 498.352 87.3707 498.352 87.136V72.224C498.352 71.9893 498.437 71.7867 498.608 71.616C498.779 71.4453 498.981 71.36 499.216 71.36H515.6C515.835 71.36 516.037 71.4453 516.208 71.616C516.379 71.7867 516.464 71.9893 516.464 72.224V87.136C516.464 87.3707 516.379 87.5733 516.208 87.744C516.037 87.9147 515.835 88 515.6 88H509.872C509.637 88 509.435 87.9147 509.264 87.744C509.093 87.5733 509.008 87.3707 509.008 87.136V76.96H505.808V87.136C505.808 87.3707 505.723 87.5733 505.552 87.744C505.381 87.9147 505.179 88 504.944 88H499.216ZM519.795 94.08C519.56 94.08 519.357 93.9947 519.187 93.824C519.016 93.6533 518.931 93.4507 518.931 93.216V72.224C518.931 71.9893 519.016 71.7867 519.187 71.616C519.357 71.4453 519.56 71.36 519.795 71.36H525.235C525.469 71.36 525.672 71.4453 525.843 71.616C526.013 71.7867 526.099 71.9893 526.099 72.224V73.184C526.589 72.5653 527.219 72.0533 527.987 71.648C528.776 71.2427 529.725 71.04 530.835 71.04C531.773 71.04 532.637 71.1787 533.427 71.456C534.216 71.712 534.909 72.1387 535.507 72.736C536.125 73.312 536.616 74.0693 536.979 75.008C537.341 75.9467 537.555 77.088 537.619 78.432C537.64 78.9013 537.651 79.3173 537.651 79.68C537.651 80.0427 537.64 80.4693 537.619 80.96C537.576 82.2187 537.373 83.3173 537.011 84.256C536.648 85.1733 536.157 85.9307 535.539 86.528C534.941 87.1253 534.237 87.5733 533.427 87.872C532.637 88.1707 531.773 88.32 530.835 88.32C529.939 88.32 529.128 88.1707 528.403 87.872C527.677 87.5733 527.069 87.0827 526.579 86.4V93.216C526.579 93.4507 526.493 93.6533 526.323 93.824C526.152 93.9947 525.949 94.08 525.715 94.08H519.795ZM528.179 82.592C528.584 82.592 528.893 82.5173 529.107 82.368C529.32 82.2187 529.469 82.0053 529.555 81.728C529.661 81.4507 529.736 81.12 529.779 80.736C529.843 80.032 529.843 79.328 529.779 78.624C529.736 78.24 529.661 77.9093 529.555 77.632C529.469 77.3547 529.32 77.1413 529.107 76.992C528.893 76.8427 528.584 76.768 528.179 76.768C527.795 76.768 527.485 76.8427 527.251 76.992C527.016 77.1413 526.845 77.3547 526.739 77.632C526.653 77.9093 526.6 78.24 526.579 78.624C526.557 79.0933 526.547 79.488 526.547 79.808C526.547 80.1067 526.557 80.5013 526.579 80.992C526.6 81.3333 526.664 81.6213 526.771 81.856C526.899 82.0907 527.069 82.272 527.283 82.4C527.517 82.528 527.816 82.592 528.179 82.592ZM548.279 88.32C546.316 88.32 544.663 88.0533 543.319 87.52C541.975 86.9867 540.94 86.1867 540.215 85.12C539.511 84.0533 539.106 82.7413 538.999 81.184C538.978 80.6933 538.967 80.192 538.967 79.68C538.967 79.1467 538.978 78.6453 538.999 78.176C539.106 76.5973 539.543 75.2853 540.311 74.24C541.079 73.1733 542.135 72.3733 543.479 71.84C544.823 71.3067 546.423 71.04 548.279 71.04C550.135 71.04 551.735 71.3067 553.079 71.84C554.423 72.3733 555.479 73.1733 556.247 74.24C557.015 75.2853 557.452 76.5973 557.559 78.176C557.602 78.6453 557.623 79.1467 557.623 79.68C557.623 80.192 557.602 80.6933 557.559 81.184C557.452 82.7413 557.036 84.0533 556.311 85.12C555.607 86.1867 554.583 86.9867 553.239 87.52C551.895 88.0533 550.242 88.32 548.279 88.32ZM548.279 83.2C548.898 83.2 549.282 83.0293 549.431 82.688C549.58 82.3253 549.676 81.7707 549.719 81.024C549.74 80.704 549.751 80.256 549.751 79.68C549.751 79.104 549.74 78.656 549.719 78.336C549.676 77.632 549.58 77.0987 549.431 76.736C549.282 76.352 548.898 76.16 548.279 76.16C547.682 76.16 547.298 76.352 547.127 76.736C546.978 77.0987 546.882 77.632 546.839 78.336C546.818 78.656 546.807 79.104 546.807 79.68C546.807 80.256 546.818 80.704 546.839 81.024C546.882 81.7707 546.978 82.3253 547.127 82.688C547.298 83.0293 547.682 83.2 548.279 83.2ZM568.17 88.32C566.016 88.32 564.277 88.0213 562.954 87.424C561.632 86.8053 560.65 85.8133 560.01 84.448C559.392 83.0613 559.018 81.216 558.89 78.912C558.869 78.2933 558.858 77.6427 558.858 76.96C558.858 76.256 558.869 75.6053 558.89 75.008C558.976 73.344 559.2 71.9253 559.562 70.752C559.925 69.5787 560.458 68.5867 561.162 67.776C561.888 66.944 562.816 66.24 563.946 65.664C565.098 65.088 566.485 64.5867 568.106 64.16C569.749 63.712 571.669 63.264 573.866 62.816C574.101 62.7733 574.325 62.816 574.538 62.944C574.752 63.072 574.869 63.2747 574.89 63.552L575.69 67.872C575.733 68.1493 575.69 68.384 575.562 68.576C575.434 68.768 575.253 68.8853 575.018 68.928C573.333 69.184 571.936 69.4293 570.826 69.664C569.738 69.8987 568.864 70.176 568.202 70.496C567.541 70.7947 567.05 71.1893 566.73 71.68C566.432 72.1493 566.229 72.7467 566.122 73.472C566.037 74.1973 565.994 75.104 565.994 76.192L565.13 74.752C565.365 74.432 565.706 74.1333 566.154 73.856C566.602 73.5787 567.114 73.3547 567.69 73.184C568.288 73.0133 568.917 72.928 569.578 72.928C571.242 72.928 572.64 73.1733 573.77 73.664C574.901 74.1333 575.765 74.8373 576.362 75.776C576.981 76.7147 577.344 77.888 577.45 79.296C577.514 80.1707 577.514 81.056 577.45 81.952C577.344 83.3387 576.928 84.512 576.202 85.472C575.498 86.4107 574.474 87.1253 573.13 87.616C571.786 88.0853 570.133 88.32 568.17 88.32ZM568.17 83.776C568.789 83.776 569.173 83.616 569.322 83.296C569.493 82.976 569.589 82.4853 569.61 81.824C569.632 81.5253 569.642 81.12 569.642 80.608C569.642 80.096 569.632 79.7013 569.61 79.424C569.589 78.8053 569.504 78.336 569.354 78.016C569.205 77.6747 568.853 77.504 568.298 77.504C567.637 77.504 567.221 77.6747 567.05 78.016C566.88 78.336 566.773 78.8053 566.73 79.424C566.709 79.7013 566.698 80.096 566.698 80.608C566.698 81.12 566.709 81.5253 566.73 81.824C566.773 82.4853 566.869 82.976 567.018 83.296C567.189 83.616 567.573 83.776 568.17 83.776ZM579.453 88C579.219 88 579.016 87.9147 578.845 87.744C578.675 87.5733 578.589 87.3707 578.589 87.136V82.944C578.589 82.4747 578.877 82.1867 579.453 82.08C580.029 81.9733 580.424 81.7067 580.637 81.28C580.851 80.8533 580.968 80.288 580.989 79.584C581.032 78.8587 581.053 78.0267 581.053 77.088V72.224C581.053 71.9893 581.139 71.7867 581.309 71.616C581.48 71.4453 581.683 71.36 581.917 71.36H596.509C596.744 71.36 596.947 71.4453 597.117 71.616C597.288 71.7867 597.373 71.9893 597.373 72.224V87.136C597.373 87.3707 597.288 87.5733 597.117 87.744C596.947 87.9147 596.744 88 596.509 88H590.781C590.547 88 590.344 87.9147 590.173 87.744C590.003 87.5733 589.917 87.3707 589.917 87.136V76.96H588.093V77.888C588.093 79.8933 587.987 81.5573 587.773 82.88C587.56 84.2027 587.144 85.2373 586.525 85.984C585.928 86.7093 585.053 87.232 583.901 87.552C582.771 87.8507 581.288 88 579.453 88ZM608.447 88.32C605.653 88.32 603.423 87.6373 601.759 86.272C600.117 84.8853 599.295 82.6987 599.295 79.712C599.295 79.6693 599.295 79.6267 599.295 79.584C599.295 79.5413 599.295 79.5093 599.295 79.488C599.338 77.6533 599.733 76.1067 600.479 74.848C601.247 73.5893 602.303 72.64 603.647 72C605.013 71.36 606.602 71.04 608.415 71.04C610.506 71.04 612.223 71.4453 613.567 72.256C614.911 73.0453 615.903 74.1013 616.543 75.424C617.205 76.7253 617.535 78.1653 617.535 79.744V80.704C617.535 80.9387 617.45 81.1413 617.279 81.312C617.109 81.4827 616.906 81.568 616.671 81.568H607.135C607.135 81.5893 607.135 81.6107 607.135 81.632C607.135 81.6533 607.135 81.6853 607.135 81.728C607.135 82.1547 607.167 82.5173 607.231 82.816C607.317 83.0933 607.455 83.3067 607.647 83.456C607.839 83.6053 608.085 83.68 608.383 83.68C608.511 83.68 608.618 83.6587 608.703 83.616C608.81 83.5733 608.906 83.5093 608.991 83.424C609.098 83.3173 609.205 83.2107 609.311 83.104C609.503 82.912 609.663 82.7947 609.791 82.752C609.919 82.688 610.111 82.656 610.367 82.656H616.415C616.629 82.656 616.799 82.72 616.927 82.848C617.077 82.976 617.141 83.1467 617.119 83.36C617.098 83.7653 616.906 84.256 616.543 84.832C616.202 85.3867 615.679 85.9307 614.975 86.464C614.271 86.9973 613.375 87.4453 612.287 87.808C611.199 88.1493 609.919 88.32 608.447 88.32ZM607.135 77.568H609.695V77.536C609.695 77.0667 609.642 76.6827 609.535 76.384C609.45 76.0853 609.311 75.872 609.119 75.744C608.927 75.5947 608.693 75.52 608.415 75.52C608.138 75.52 607.903 75.5947 607.711 75.744C607.519 75.872 607.37 76.0853 607.263 76.384C607.178 76.6827 607.135 77.0667 607.135 77.536V77.568ZM619.777 88C619.606 88 619.457 87.936 619.329 87.808C619.201 87.68 619.137 87.5307 619.137 87.36V72C619.137 71.8293 619.201 71.68 619.329 71.552C619.457 71.424 619.606 71.36 619.777 71.36H625.249C625.676 71.36 626.017 71.5733 626.273 72L629.729 77.696L633.185 72C633.441 71.5733 633.782 71.36 634.209 71.36H639.681C639.873 71.36 640.033 71.424 640.161 71.552C640.289 71.68 640.353 71.8293 640.353 72V87.36C640.353 87.5307 640.289 87.68 640.161 87.808C640.033 87.936 639.873 88 639.681 88H633.665C633.473 88 633.313 87.936 633.185 87.808C633.078 87.68 633.025 87.5307 633.025 87.36V78.912L634.945 79.456L631.425 85.056C631.318 85.248 631.201 85.3973 631.073 85.504C630.945 85.6107 630.774 85.664 630.561 85.664H628.897C628.726 85.664 628.566 85.6213 628.417 85.536C628.268 85.4293 628.129 85.2693 628.001 85.056L624.545 79.424L626.433 78.912V87.36C626.433 87.5307 626.369 87.68 626.241 87.808C626.113 87.936 625.964 88 625.793 88H619.777ZM643.673 88C643.439 88 643.236 87.9147 643.065 87.744C642.895 87.5733 642.809 87.3707 642.809 87.136V72.224C642.809 71.9893 642.895 71.7867 643.065 71.616C643.236 71.4453 643.439 71.36 643.673 71.36H649.433C649.668 71.36 649.871 71.4453 650.041 71.616C650.212 71.7867 650.297 71.9893 650.297 72.224V76.192H652.857C654.991 76.192 656.719 76.7147 658.041 77.76C659.364 78.8053 660.025 80.256 660.025 82.112C660.025 83.968 659.364 85.4187 658.041 86.464C656.719 87.488 654.991 88 652.857 88H643.673ZM650.137 83.232H652.217C652.644 83.232 652.964 83.136 653.177 82.944C653.391 82.752 653.497 82.4747 653.497 82.112C653.497 81.7493 653.391 81.472 653.177 81.28C652.964 81.0667 652.644 80.96 652.217 80.96H650.137V83.232ZM662.585 88C662.351 88 662.148 87.9147 661.977 87.744C661.807 87.5733 661.721 87.3707 661.721 87.136V72.224C661.721 71.9893 661.807 71.7867 661.977 71.616C662.148 71.4453 662.351 71.36 662.585 71.36H668.313C668.548 71.36 668.751 71.4453 668.921 71.616C669.092 71.7867 669.177 71.9893 669.177 72.224V87.136C669.177 87.3707 669.092 87.5733 668.921 87.744C668.751 87.9147 668.548 88 668.313 88H662.585Z" fill="white"/>
</svg>
