<svg width="645" height="106" viewBox="0 0 645 106" fill="none" xmlns="http://www.w3.org/2000/svg">
<path d="M80.7726 60.6231L30.0738 62.4916C13.6468 63.097 0 49.944 0 33.5057V31.3897C0 14.11 14.1091 0.155744 31.3877 0.346475L360.704 3.98165C370.527 4.09008 376.137 15.2368 370.372 23.1905C364.57 31.1936 370.288 42.4 380.173 42.4H613.316C630.815 42.4 645 56.5854 645 74.0839C645 91.6729 630.673 105.895 613.085 105.767L96.0898 101.993C85.1883 101.914 80.3115 88.2803 88.6893 81.3044C97.2656 74.1633 91.9251 60.2121 80.7726 60.6231Z" fill="#040F16"/>
<path d="M15.8117 39.4714C15.577 39.4717 15.3743 39.3866 15.2034 39.2161C15.0326 39.0457 14.947 38.8431 14.9467 38.6085L14.9244 17.9365C14.9242 17.7018 15.0093 17.499 15.1798 17.3282C15.3502 17.1573 15.5528 17.0717 15.7875 17.0714L32.3635 17.0513C32.5981 17.051 32.8009 17.1361 32.9717 17.3066C33.1426 17.477 33.2281 17.6796 33.2284 17.9143L33.2336 22.7462C33.2339 22.9809 33.1488 23.1837 32.9783 23.3546C32.8078 23.5254 32.6052 23.611 32.3706 23.6113L22.9306 23.6228L22.9322 25.1588L25.8122 25.1553C28.6069 25.1519 30.8262 25.7785 32.4703 27.0352C34.1356 28.2705 34.9695 29.9975 34.9719 32.2161C34.9731 33.3468 34.7608 34.3604 34.3351 35.2569C33.9308 36.1534 33.3343 36.9115 32.5456 37.5311C31.7783 38.1507 30.8294 38.6318 29.6992 38.9746C28.5688 39.2959 27.2783 39.4575 25.8277 39.4592L15.8117 39.4714ZM22.9417 33.9587L25.1817 33.956C25.5231 33.9556 25.8003 33.8699 26.0135 33.699C26.2266 33.5281 26.3864 33.3146 26.4928 33.0584C26.5991 32.781 26.6522 32.5036 26.6519 32.2262C26.6514 31.7996 26.5123 31.4051 26.2346 31.0427C25.9782 30.6804 25.626 30.4995 25.178 30.5L22.938 30.5028L22.9417 33.9587ZM44.32 39.7568C42.3573 39.7592 40.7037 39.4945 39.3591 38.9628C38.0146 38.4311 36.979 37.6324 36.2526 36.5666C35.5474 35.5008 35.1407 34.1893 35.0323 32.6321C35.0104 32.1414 34.9992 31.6401 34.9987 31.1281C34.9981 30.5948 35.0082 30.0934 35.0291 29.6241C35.134 28.0453 35.5699 26.7327 36.3368 25.6865C37.1036 24.6189 38.1588 23.8176 39.5022 23.2826C40.8456 22.7477 42.4453 22.4791 44.3013 22.4768C46.1573 22.4746 47.7576 22.7393 49.1022 23.271C50.4468 23.8027 51.5036 24.6014 52.2728 25.6671C53.0419 26.7115 53.4807 28.023 53.589 29.6015C53.6322 30.0708 53.6541 30.5721 53.6547 31.1055C53.6552 31.6175 53.6344 32.1188 53.5923 32.6095C53.4873 34.167 53.0727 35.4795 52.3485 36.5471C51.6457 37.6146 50.6226 38.4158 49.2791 38.9508C47.9357 39.4857 46.2827 39.7544 44.32 39.7568ZM44.3145 34.6368C44.9331 34.6361 45.317 34.4649 45.4659 34.1234C45.6149 33.7606 45.7103 33.2058 45.7521 32.4591C45.7731 32.139 45.7833 31.691 45.7827 31.115C45.782 30.539 45.7709 30.091 45.7492 29.7711C45.7058 29.0671 45.6092 28.5339 45.4595 28.1714C45.3097 27.7876 44.9255 27.5961 44.3069 27.5968C43.7095 27.5975 43.3257 27.79 43.1555 28.1742C43.0066 28.5371 42.9111 29.0705 42.8692 29.7746C42.8482 30.0946 42.8381 30.5426 42.8387 31.1186C42.8393 31.6946 42.8504 32.1426 42.8721 32.4626C42.9156 33.2092 43.0122 33.7637 43.1619 34.1262C43.333 34.4673 43.7171 34.6375 44.3145 34.6368ZM55.6029 39.4231C55.3682 39.4234 55.1655 39.3383 54.9946 39.1678C54.8238 38.9974 54.7382 38.7948 54.738 38.5602L54.7334 34.3682C54.7329 33.8988 55.0206 33.6105 55.5965 33.5031C56.1724 33.3957 56.5668 33.1286 56.7796 32.7017C56.9925 32.2748 57.1092 31.7093 57.1298 31.0052C57.1717 30.2799 57.1921 29.4478 57.1911 28.5092L57.1859 23.6452C57.1856 23.4105 57.2707 23.2077 57.4412 23.0369C57.6117 22.866 57.8143 22.7804 58.0489 22.7801L72.6409 22.7624C72.8756 22.7621 73.0783 22.8472 73.2492 23.0177C73.42 23.1881 73.5056 23.3907 73.5058 23.6254L73.522 38.5374C73.5222 38.772 73.4371 38.9748 73.2666 39.1457C73.0961 39.3165 72.8936 39.4021 72.6589 39.4024L66.9309 39.4094C66.6962 39.4096 66.4935 39.3246 66.3226 39.1541C66.1518 38.9836 66.0662 38.7811 66.066 38.5464L66.055 28.3704L64.231 28.3726L64.232 29.3006C64.2341 31.306 64.1293 32.9701 63.9174 34.293C63.7055 35.6159 63.2906 36.6511 62.6727 37.3985C62.0762 38.1246 61.2021 38.6483 60.0504 38.9697C58.9201 39.2697 57.4376 39.4209 55.6029 39.4231ZM84.5972 39.7079C81.8026 39.7113 79.5725 39.0313 77.907 37.668C76.2629 36.2834 75.4392 34.0977 75.4359 31.111C75.4359 31.0684 75.4358 31.0257 75.4358 30.983C75.4358 30.9404 75.4357 30.9084 75.4357 30.887C75.4764 29.0523 75.8694 27.5052 76.6147 26.2456C77.3813 24.986 78.4363 24.0354 79.7796 23.3938C81.1442 22.7521 82.7332 22.4302 84.5466 22.428C86.6372 22.4254 88.355 22.8287 89.6999 23.6377C91.0447 24.4254 92.0379 25.4802 92.6793 26.8021C93.342 28.1026 93.6743 29.5422 93.676 31.1209L93.677 32.0809C93.6772 32.3156 93.5921 32.5183 93.4217 32.6892C93.2512 32.8601 93.0486 32.9457 92.8139 32.9459L83.2779 32.9575C83.278 32.9788 83.278 33.0002 83.278 33.0215C83.278 33.0428 83.2781 33.0748 83.2781 33.1175C83.2786 33.5442 83.311 33.9068 83.3753 34.2054C83.4609 34.4826 83.5998 34.6958 83.792 34.8449C83.9841 34.994 84.2295 35.0684 84.5282 35.068C84.6562 35.0678 84.7629 35.0464 84.8481 35.0036C84.9548 34.9608 85.0507 34.8967 85.1359 34.8113C85.2425 34.7045 85.349 34.5977 85.4556 34.4909C85.6474 34.2986 85.8073 34.1811 85.9352 34.1383C86.0631 34.0741 86.2551 34.0419 86.5111 34.0416L92.5591 34.0342C92.7724 34.034 92.9432 34.0978 93.0713 34.2256C93.2208 34.3534 93.285 34.524 93.2639 34.7374C93.243 35.1428 93.0515 35.6337 92.6895 36.2101C92.3487 36.7652 91.8266 37.3098 91.1232 37.844C90.4198 38.3782 89.5243 38.8273 88.4367 39.1913C87.349 39.5339 86.0692 39.7061 84.5972 39.7079ZM83.2736 28.9575L85.8336 28.9544L85.8336 28.9224C85.8331 28.4531 85.7793 28.0691 85.6723 27.7706C85.5867 27.472 85.4478 27.2589 85.2556 27.1311C85.0635 26.982 84.8287 26.9076 84.5514 26.908C84.2741 26.9083 84.0395 26.9833 83.8476 27.1328C83.6558 27.2611 83.5067 27.4746 83.4003 27.7734C83.3153 28.0721 83.2731 28.4562 83.2736 28.9255L83.2736 28.9575ZM103.895 39.6845C101.1 39.6879 98.87 39.0079 97.2045 37.6446C95.5603 36.2599 94.7366 34.0743 94.7334 31.0876C94.7334 31.0449 94.7333 31.0023 94.7333 30.9596C94.7332 30.9169 94.7332 30.8849 94.7332 30.8636C94.7739 29.0289 95.1669 27.4817 95.9122 26.2222C96.6788 24.9626 97.7338 24.012 99.0771 23.3703C100.442 22.7287 102.031 22.4067 103.844 22.4045C105.935 22.402 107.652 22.8053 108.997 23.6143C110.342 24.402 111.335 25.4568 111.977 26.7787C112.64 28.0792 112.972 29.5188 112.973 31.0975L112.974 32.0575C112.975 32.2921 112.89 32.4949 112.719 32.6658C112.549 32.8367 112.346 32.9222 112.111 32.9225L102.575 32.9341C102.575 32.9554 102.575 32.9768 102.575 32.9981C102.576 33.0194 102.576 33.0514 102.576 33.0941C102.576 33.5208 102.608 33.8834 102.673 34.182C102.758 34.4592 102.897 34.6724 103.089 34.8215C103.282 34.9706 103.527 35.0449 103.826 35.0446C103.954 35.0444 104.06 35.023 104.146 34.9802C104.252 34.9374 104.348 34.8733 104.433 34.7878C104.54 34.681 104.647 34.5742 104.753 34.4674C104.945 34.2752 105.105 34.1577 105.233 34.1149C105.361 34.0507 105.553 34.0185 105.809 34.0182L111.857 34.0108C112.07 34.0106 112.241 34.0744 112.369 34.2022C112.518 34.33 112.582 34.5006 112.561 34.714C112.54 35.1193 112.349 35.6102 111.987 36.1867C111.646 36.7418 111.124 37.2864 110.421 37.8206C109.717 38.3548 108.822 38.8038 107.734 39.1678C106.647 39.5105 105.367 39.6827 103.895 39.6845ZM102.571 28.9341L105.131 28.931L105.131 28.899C105.131 28.4297 105.077 28.0457 104.97 27.7472C104.884 27.4486 104.745 27.2355 104.553 27.1077C104.361 26.9586 104.126 26.8842 103.849 26.8845C103.572 26.8849 103.337 26.9598 103.145 27.1094C102.953 27.2376 102.804 27.4511 102.698 27.7499C102.613 28.0487 102.571 28.4328 102.571 28.9021L102.571 28.9341ZM127.337 39.336C127.103 39.3363 126.9 39.2512 126.729 39.0808C126.558 38.9103 126.473 38.7078 126.472 38.4731L126.458 25.5451L122.877 28.3014C122.664 28.451 122.451 28.5046 122.238 28.4622C122.024 28.3985 121.832 28.26 121.661 28.0469L118.841 24.4023C118.734 24.1891 118.702 23.9652 118.744 23.7305C118.787 23.4744 118.915 23.2823 119.128 23.154L126.833 17.1606C126.94 17.0752 127.047 17.0217 127.153 17.0002C127.26 16.9575 127.388 16.936 127.537 16.9358L133.585 16.9284C133.82 16.9282 134.023 17.0132 134.193 17.1837C134.364 17.3542 134.45 17.5567 134.45 17.7914L134.472 38.4634C134.473 38.698 134.388 38.9008 134.217 39.0717C134.047 39.2426 133.844 39.3281 133.609 39.3284L127.337 39.336ZM147.07 39.6321C145.47 39.634 144.062 39.4331 142.846 39.0292C141.629 38.604 140.604 38.0293 139.772 37.3049C138.939 36.5593 138.287 35.6961 137.817 34.7153C137.368 33.7132 137.1 32.6255 137.013 31.4523C136.97 30.8763 136.937 30.1724 136.915 29.3404C136.914 28.5084 136.913 27.6764 136.912 26.8444C136.933 25.9911 136.964 25.2657 137.006 24.6683C137.09 23.4949 137.366 22.4172 137.835 21.4353C138.324 20.4534 138.995 19.6099 139.848 18.9048C140.7 18.1785 141.724 17.6119 142.918 17.2051C144.134 16.7983 145.509 16.594 147.045 16.5921C148.581 16.5902 149.947 16.7912 151.142 17.1951C152.358 17.599 153.394 18.1631 154.248 18.8874C155.102 19.5903 155.764 20.4322 156.235 21.413C156.726 22.3937 157.015 23.4707 157.102 24.6439C157.145 25.2412 157.167 25.9665 157.168 26.8198C157.191 27.6518 157.191 28.4838 157.171 29.3158C157.172 30.1478 157.151 30.8518 157.109 31.4279C157.025 32.6013 156.749 33.6897 156.281 34.6929C155.834 35.6748 155.195 36.5396 154.364 37.2872C153.532 38.0136 152.509 38.5908 151.294 39.019C150.078 39.4258 148.67 39.6301 147.07 39.6321ZM147.063 33.3601C147.682 33.3593 148.119 33.1668 148.375 32.7825C148.63 32.3769 148.768 31.8754 148.789 31.278C148.831 30.6593 148.852 29.9659 148.851 29.1979C148.871 28.4299 148.871 27.6619 148.848 26.8939C148.848 26.1046 148.825 25.4219 148.782 24.846C148.76 24.2914 148.621 23.8115 148.365 23.4065C148.13 23.0015 147.692 22.7887 147.052 22.7681C146.412 22.7902 145.975 23.0041 145.741 23.4097C145.506 23.8153 145.368 24.2955 145.326 24.8502C145.305 25.4262 145.285 26.1089 145.264 26.8983C145.265 27.6663 145.266 28.4343 145.267 29.2023C145.289 29.9702 145.311 30.6636 145.333 31.2822C145.376 31.8795 145.526 32.3806 145.783 32.7856C146.039 33.1693 146.466 33.3608 147.063 33.3601ZM180.36 39.2717C180.125 39.272 179.923 39.1869 179.752 39.0164C179.581 38.846 179.495 38.6434 179.495 38.4087L179.479 23.9127L175.255 23.9179L175.257 24.9099C175.259 27.4912 175.144 29.6993 174.912 31.5343C174.7 33.3479 174.254 34.8311 173.573 35.9839C172.912 37.1154 171.911 37.9486 170.567 38.4836C169.245 39.0185 167.475 39.2873 165.256 39.29C165.021 39.2903 164.808 39.2052 164.616 39.0348C164.445 38.8643 164.359 38.6618 164.359 38.4271L164.354 33.3711C164.353 32.9018 164.641 32.6134 165.217 32.5061C165.771 32.3987 166.198 32.0782 166.496 31.5445C166.815 31.0108 167.049 30.3385 167.198 29.5277C167.367 28.7168 167.473 27.8206 167.515 26.8393C167.556 25.8579 167.577 24.8765 167.575 23.8952L167.569 17.7512C167.569 17.5165 167.654 17.3138 167.824 17.1429C167.995 16.972 168.197 16.8864 168.432 16.8861L186.608 16.8641C186.843 16.8638 187.045 16.9489 187.216 17.1193C187.387 17.2898 187.473 17.4924 187.473 17.727L187.495 38.399C187.495 38.6337 187.41 38.8365 187.24 39.0073C187.069 39.1782 186.867 39.2638 186.632 39.2641L180.36 39.2717ZM198.68 39.5694C195.885 39.5728 193.655 38.8929 191.989 37.5296C190.345 36.1449 189.522 33.9592 189.518 30.9726C189.518 30.9299 189.518 30.8872 189.518 30.8446C189.518 30.8019 189.518 30.7699 189.518 30.7486C189.559 28.9138 189.952 27.3667 190.697 26.1071C191.464 24.8475 192.519 23.8969 193.862 23.2553C195.227 22.6136 196.816 22.2917 198.629 22.2895C200.72 22.287 202.437 22.6902 203.782 23.4992C205.127 24.2869 206.12 25.3417 206.762 26.6636C207.424 27.9642 207.757 29.4038 207.758 30.9824L207.759 31.9424C207.76 32.1771 207.675 32.3799 207.504 32.5507C207.334 32.7216 207.131 32.8072 206.896 32.8075L197.36 32.819C197.36 32.8404 197.36 32.8617 197.36 32.883C197.36 32.9044 197.36 32.9364 197.361 32.979C197.361 33.4057 197.393 33.7683 197.458 34.0669C197.543 34.3442 197.682 34.5573 197.874 34.7064C198.067 34.8555 198.312 34.9299 198.611 34.9295C198.739 34.9294 198.845 34.9079 198.931 34.8651C199.037 34.8223 199.133 34.7582 199.218 34.6728C199.325 34.566 199.431 34.4592 199.538 34.3524C199.73 34.1602 199.89 34.0426 200.018 33.9998C200.146 33.9357 200.338 33.9034 200.594 33.9031L206.642 33.8958C206.855 33.8955 207.026 33.9593 207.154 34.0872C207.303 34.215 207.367 34.3856 207.346 34.5989C207.325 35.0043 207.134 35.4952 206.772 36.0716C206.431 36.6267 205.909 37.1713 205.206 37.7055C204.502 38.2397 203.607 38.6888 202.519 39.0528C201.431 39.3954 200.152 39.5677 198.68 39.5694ZM197.356 28.819L199.916 28.8159L199.916 28.7839C199.915 28.3146 199.862 27.9307 199.755 27.6321C199.669 27.3336 199.53 27.1204 199.338 26.9926C199.146 26.8435 198.911 26.7692 198.634 26.7695C198.356 26.7698 198.122 26.8448 197.93 26.9943C197.738 27.1226 197.589 27.3361 197.483 27.6349C197.398 27.9337 197.355 28.3177 197.356 28.787L197.356 28.819ZM214.393 39.2304C214.158 39.2307 213.955 39.1456 213.785 38.9751C213.614 38.8047 213.528 38.6021 213.528 38.3674L213.517 28.1914L209.261 28.1966C209.026 28.1969 208.823 28.1118 208.653 27.9413C208.482 27.7709 208.396 27.5683 208.396 27.3336L208.392 23.4616C208.392 23.227 208.477 23.0242 208.647 22.8533C208.818 22.6825 209.02 22.5969 209.255 22.5966L225.095 22.5774C225.329 22.5771 225.532 22.6622 225.703 22.8326C225.874 23.0031 225.959 23.2057 225.96 23.4403L225.964 27.3123C225.964 27.547 225.879 27.7498 225.709 27.9206C225.538 28.0915 225.336 28.1771 225.101 28.1774L220.845 28.1825L220.856 38.3585C220.856 38.5932 220.771 38.796 220.601 38.9668C220.43 39.1377 220.227 39.2233 219.993 39.2236L214.393 39.2304ZM233.428 45.2873C233.193 45.2876 232.991 45.2025 232.82 45.032C232.649 44.8616 232.563 44.659 232.563 44.4243L232.54 23.4323C232.54 23.1977 232.625 22.9949 232.796 22.824C232.966 22.6532 233.169 22.5676 233.404 22.5673L238.844 22.5607C239.078 22.5604 239.281 22.6455 239.452 22.8159C239.623 22.9864 239.708 23.189 239.708 23.4236L239.71 24.3836C240.2 23.7644 240.828 23.2516 241.596 22.8453C242.385 22.4391 243.334 22.2352 244.443 22.2339C245.382 22.2327 246.246 22.3704 247.036 22.6467C247.825 22.9018 248.519 23.3276 249.117 23.9242C249.736 24.4995 250.228 25.2562 250.591 26.1944C250.955 27.1327 251.17 28.2737 251.235 29.6176C251.257 30.087 251.268 30.5029 251.269 30.8656C251.269 31.2283 251.259 31.655 251.238 32.1456C251.197 33.4044 250.995 34.5033 250.633 35.4424C250.272 36.3602 249.782 37.1181 249.164 37.7162C248.567 38.3142 247.864 38.7631 247.053 39.0627C246.264 39.3624 245.401 39.5127 244.462 39.5139C243.566 39.515 242.755 39.3666 242.029 39.0688C241.304 38.771 240.695 38.2811 240.204 37.599L240.211 44.415C240.211 44.6497 240.126 44.8525 239.956 45.0234C239.785 45.1942 239.583 45.2798 239.348 45.2801L233.428 45.2873ZM241.8 33.7891C242.205 33.7886 242.514 33.7136 242.727 33.564C242.941 33.4144 243.09 33.2009 243.175 32.9234C243.281 32.646 243.355 32.3152 243.398 31.9312C243.461 31.2271 243.46 30.5231 243.395 29.8192C243.352 29.4352 243.277 29.1046 243.17 28.8274C243.085 28.5502 242.935 28.3371 242.722 28.188C242.508 28.0389 242.199 27.9646 241.793 27.9651C241.409 27.9656 241.1 28.0406 240.866 28.1902C240.631 28.3399 240.461 28.5534 240.354 28.8309C240.269 29.1083 240.216 29.439 240.195 29.823C240.175 30.2924 240.164 30.6871 240.165 31.0071C240.165 31.3058 240.176 31.7004 240.198 32.191C240.22 32.5324 240.284 32.8203 240.391 33.0548C240.519 33.2893 240.69 33.4705 240.903 33.5982C241.138 33.7259 241.437 33.7895 241.8 33.7891ZM258.386 39.497C257.17 39.4985 256.093 39.2758 255.153 38.8289C254.214 38.382 253.478 37.7749 252.943 37.0076C252.431 36.2402 252.174 35.3765 252.173 34.4165C252.171 32.8592 252.799 31.6424 254.057 30.7662C255.336 29.8687 257.042 29.2373 259.175 28.872L262.566 28.3239L262.566 28.2919C262.565 27.7372 262.512 27.332 262.405 27.0761C262.319 26.8202 262.052 26.6925 261.604 26.6931C261.306 26.6934 261.06 26.7577 260.868 26.886C260.698 26.9928 260.506 27.1531 260.293 27.3667C260.059 27.6016 259.76 27.7193 259.397 27.7197L253.957 27.7263C253.744 27.7266 253.563 27.6628 253.413 27.535C253.285 27.4072 253.232 27.2366 253.253 27.0232C253.274 26.6178 253.444 26.1483 253.763 25.6146C254.082 25.0595 254.573 24.5256 255.233 24.0128C255.915 23.5 256.779 23.0722 257.824 22.7296C258.89 22.387 260.17 22.2148 261.663 22.213C263.114 22.2112 264.373 22.3697 265.44 22.6884C266.528 22.9857 267.425 23.4327 268.129 24.0291C268.834 24.6043 269.357 25.329 269.7 26.2032C270.063 27.0561 270.246 28.0266 270.247 29.1146L270.257 38.2986C270.257 38.5332 270.172 38.736 270.001 38.9069C269.831 39.0778 269.628 39.1633 269.394 39.1636L263.794 39.1704C263.559 39.1707 263.356 39.0856 263.185 38.9152C263.015 38.7447 262.929 38.5421 262.929 38.3075L262.928 37.4115C262.63 37.8385 262.246 38.2123 261.777 38.5329C261.329 38.8321 260.818 39.0674 260.242 39.2387C259.666 39.4101 259.047 39.4962 258.386 39.497ZM260.589 34.7583C261.016 34.7578 261.378 34.672 261.677 34.501C261.997 34.3299 262.242 34.063 262.412 33.7001C262.582 33.3159 262.667 32.8464 262.666 32.2918L262.666 32.2598L260.779 32.6781C260.224 32.8067 259.851 32.9779 259.659 33.1914C259.468 33.405 259.372 33.6291 259.372 33.8638C259.372 34.0131 259.415 34.1624 259.5 34.3116C259.607 34.4395 259.746 34.546 259.917 34.6311C260.109 34.7162 260.333 34.7586 260.589 34.7583ZM281.172 39.4693C279.018 39.4719 277.279 39.1754 275.955 38.5797C274.632 37.9626 273.65 36.9718 273.008 35.6072C272.388 34.2213 272.013 32.3764 271.882 30.0726C271.86 29.4539 271.849 28.8033 271.848 28.1206C271.847 27.4166 271.857 26.766 271.878 26.1686C271.961 24.5045 272.184 23.0856 272.545 21.9118C272.907 20.738 273.439 19.7454 274.142 18.9338C274.867 18.101 275.794 17.3958 276.924 16.8185C278.075 16.2411 279.461 15.738 281.082 15.3094C282.724 14.8594 284.644 14.4091 286.841 13.9584C287.075 13.9155 287.299 13.9579 287.513 14.0856C287.726 14.2133 287.844 14.4159 287.866 14.6932L288.67 19.0122C288.713 19.2895 288.671 19.5242 288.543 19.7164C288.415 19.9085 288.234 20.0261 287.999 20.069C286.314 20.3271 284.917 20.5741 283.808 20.8101C282.72 21.0461 281.846 21.3245 281.185 21.6453C280.524 21.9448 280.034 22.34 279.714 22.8311C279.416 23.3008 279.214 23.8984 279.108 24.6238C279.024 25.3493 278.982 26.256 278.983 27.344L278.118 25.905C278.352 25.5847 278.693 25.2857 279.141 25.0078C279.588 24.7299 280.1 24.5053 280.676 24.3339C281.273 24.1625 281.902 24.0764 282.564 24.0756C284.228 24.0736 285.625 24.3172 286.756 24.8065C287.888 25.2745 288.752 25.9774 289.351 26.9154C289.97 27.8533 290.334 29.0262 290.443 30.4341C290.508 31.3087 290.508 32.194 290.445 33.0901C290.34 34.4769 289.926 35.6507 289.201 36.6116C288.498 37.5511 287.475 38.267 286.132 38.7593C284.788 39.2303 283.135 39.4669 281.172 39.4693ZM281.167 34.9253C281.786 34.9246 282.17 34.7641 282.319 34.4439C282.489 34.1237 282.585 33.6329 282.605 32.9716C282.626 32.6729 282.637 32.2675 282.636 31.7555C282.635 31.2435 282.624 30.8489 282.603 30.5716C282.581 29.9529 282.495 29.4837 282.345 29.1639C282.195 28.8227 281.843 28.6525 281.289 28.6532C280.627 28.654 280.211 28.8251 280.041 29.1667C279.871 29.4869 279.765 29.9564 279.723 30.5751C279.702 30.8524 279.691 31.2471 279.692 31.7591C279.693 32.2711 279.704 32.6764 279.725 32.9751C279.769 33.6364 279.865 34.1269 280.015 34.4467C280.186 34.7665 280.57 34.926 281.167 34.9253ZM301.064 39.4452C299.101 39.4476 297.447 39.1829 296.103 38.6512C294.758 38.1195 293.723 37.3208 292.996 36.255C292.291 35.1892 291.884 33.8776 291.776 32.3204C291.754 31.8298 291.743 31.3285 291.742 30.8165C291.742 30.2832 291.752 29.7818 291.773 29.3124C291.878 27.7337 292.314 26.4211 293.08 25.3749C293.847 24.3073 294.902 23.506 296.246 22.971C297.589 22.436 299.189 22.1674 301.045 22.1652C302.901 22.1629 304.501 22.4277 305.846 22.9594C307.19 23.4911 308.247 24.2898 309.016 25.3555C309.785 26.3999 310.224 27.7114 310.333 29.2899C310.376 29.7592 310.398 30.2605 310.398 30.7938C310.399 31.3058 310.378 31.8072 310.336 32.2979C310.231 33.8554 309.816 35.1679 309.092 36.2354C308.389 37.303 307.366 38.1042 306.023 38.6392C304.679 39.1741 303.026 39.4428 301.064 39.4452ZM301.058 34.3252C301.677 34.3244 302.061 34.1533 302.209 33.8118C302.358 33.4489 302.454 32.8942 302.496 32.1474C302.517 31.8274 302.527 31.3794 302.526 30.8034C302.526 30.2274 302.514 29.7794 302.493 29.4594C302.449 28.7555 302.353 28.2223 302.203 27.8598C302.053 27.476 301.669 27.2844 301.05 27.2852C300.453 27.2859 300.069 27.4784 299.899 27.8626C299.75 28.2254 299.655 28.7589 299.613 29.4629C299.592 29.783 299.582 30.231 299.582 30.807C299.583 31.383 299.594 31.831 299.616 32.1509C299.659 32.8975 299.756 33.4521 299.905 33.8146C300.077 34.1557 300.461 34.3259 301.058 34.3252ZM317.146 39.1057C316.912 39.1059 316.709 39.0209 316.538 38.8504C316.367 38.6799 316.282 38.4774 316.282 38.2427L316.271 28.0667L312.015 28.0719C311.78 28.0722 311.577 27.9871 311.406 27.8166C311.235 27.6462 311.15 27.4436 311.15 27.2089L311.145 23.3369C311.145 23.1023 311.23 22.8995 311.401 22.7286C311.571 22.5577 311.774 22.4722 312.008 22.4719L327.848 22.4527C328.083 22.4524 328.286 22.5375 328.457 22.7079C328.628 22.8784 328.713 23.0809 328.713 23.3156L328.718 27.1876C328.718 27.4223 328.633 27.625 328.462 27.7959C328.292 27.9668 328.089 28.0524 327.855 28.0527L323.599 28.0578L323.61 38.2338C323.61 38.4685 323.525 38.6712 323.354 38.8421C323.184 39.013 322.981 39.0986 322.746 39.0989L317.146 39.1057ZM330.878 39.089C330.643 39.0893 330.44 39.0042 330.269 38.8337C330.099 38.6633 330.013 38.4607 330.013 38.226L329.997 23.314C329.996 23.0794 330.082 22.8766 330.252 22.7057C330.422 22.5349 330.625 22.4493 330.86 22.449L336.62 22.442C336.854 22.4417 337.057 22.5268 337.228 22.6973C337.399 22.8677 337.484 23.0703 337.485 23.305L337.489 27.273L340.049 27.2698C342.182 27.2673 343.911 27.7878 345.235 28.8316C346.558 29.8753 347.221 31.3251 347.223 33.1811C347.225 35.0371 346.566 36.4886 345.244 37.5356C343.922 38.5612 342.195 39.0753 340.062 39.0778L330.878 39.089ZM337.337 34.3131L339.417 34.3106C339.843 34.3101 340.163 34.2137 340.376 34.0215C340.589 33.8292 340.696 33.5517 340.695 33.1891C340.695 32.8264 340.588 32.5492 340.374 32.3575C340.161 32.1444 339.841 32.0381 339.414 32.0386L337.334 32.0411L337.337 34.3131ZM349.79 39.066C349.555 39.0663 349.352 38.9812 349.181 38.8108C349.011 38.6403 348.925 38.4378 348.925 38.2031L348.909 23.2911C348.908 23.0564 348.994 22.8537 349.164 22.6828C349.334 22.5119 349.537 22.4263 349.772 22.426L355.5 22.4191C355.734 22.4188 355.937 22.5039 356.108 22.6744C356.279 22.8448 356.364 23.0474 356.365 23.282L356.381 38.194C356.381 38.4287 356.296 38.6315 356.125 38.8023C355.955 38.9732 355.752 39.0588 355.518 39.0591L349.79 39.066Z" fill="white"/>
<path d="M157.29 88C157.056 88 156.853 87.9147 156.682 87.744C156.512 87.5733 156.426 87.3707 156.426 87.136V72.224C156.426 71.9893 156.512 71.7867 156.682 71.616C156.853 71.4453 157.056 71.36 157.29 71.36H165.514C168.501 71.36 170.634 71.808 171.914 72.704C173.216 73.6 173.866 74.816 173.866 76.352C173.866 77.0347 173.728 77.632 173.45 78.144C173.173 78.656 172.821 79.0933 172.394 79.456C173.013 79.8187 173.514 80.2773 173.898 80.832C174.304 81.3653 174.506 82.0587 174.506 82.912C174.506 84.448 173.856 85.6853 172.554 86.624C171.274 87.5413 169.141 88 166.154 88H157.29ZM163.594 83.616H165.834C166.197 83.616 166.474 83.5627 166.666 83.456C166.88 83.3493 166.986 83.136 166.986 82.816C166.986 82.496 166.88 82.2827 166.666 82.176C166.474 82.048 166.197 81.984 165.834 81.984H163.594V83.616ZM163.594 77.376H165.834C166.218 77.376 166.506 77.3227 166.698 77.216C166.89 77.1093 166.986 76.896 166.986 76.576C166.986 76.256 166.88 76.0427 166.666 75.936C166.474 75.808 166.197 75.744 165.834 75.744H163.594V77.376ZM190.157 88.32C188.536 88.32 187.064 88.0427 185.741 87.488C184.419 86.912 183.352 86.08 182.541 84.992C181.731 83.904 181.283 82.5707 181.197 80.992C181.176 80.6507 181.165 80.224 181.165 79.712C181.165 79.2 181.176 78.7627 181.197 78.4C181.283 76.8213 181.72 75.488 182.509 74.4C183.32 73.2907 184.387 72.4587 185.709 71.904C187.053 71.328 188.536 71.04 190.157 71.04C191.843 71.04 193.272 71.2853 194.445 71.776C195.64 72.2453 196.6 72.832 197.325 73.536C198.072 74.2187 198.616 74.9013 198.957 75.584C199.32 76.2667 199.512 76.8213 199.533 77.248C199.555 77.4827 199.469 77.6853 199.277 77.856C199.107 78.0267 198.904 78.112 198.669 78.112H192.429C192.195 78.112 192.003 78.0587 191.853 77.952C191.725 77.824 191.608 77.664 191.501 77.472C191.352 77.1733 191.192 76.9387 191.021 76.768C190.872 76.5973 190.637 76.512 190.317 76.512C189.827 76.512 189.496 76.6933 189.325 77.056C189.155 77.4187 189.059 77.92 189.037 78.56C189.016 79.4773 189.016 80.2347 189.037 80.832C189.08 81.5147 189.176 82.0267 189.325 82.368C189.496 82.688 189.827 82.848 190.317 82.848C190.701 82.848 190.957 82.7627 191.085 82.592C191.235 82.4213 191.373 82.1867 191.501 81.888C191.587 81.696 191.704 81.5467 191.853 81.44C192.003 81.312 192.195 81.248 192.429 81.248H198.669C198.904 81.248 199.107 81.3333 199.277 81.504C199.469 81.6747 199.555 81.8773 199.533 82.112C199.512 82.3893 199.395 82.784 199.181 83.296C198.989 83.7867 198.669 84.32 198.221 84.896C197.795 85.472 197.219 86.0267 196.493 86.56C195.768 87.072 194.883 87.4987 193.837 87.84C192.792 88.16 191.565 88.32 190.157 88.32ZM210.768 94.08C210.533 94.08 210.33 93.9947 210.16 93.824C209.989 93.6533 209.904 93.4507 209.904 93.216V88C207.92 88 206.245 87.744 204.88 87.232C203.514 86.72 202.469 85.9627 201.744 84.96C201.018 83.936 200.602 82.6773 200.496 81.184C200.432 80.1813 200.432 79.1787 200.496 78.176C200.602 76.6827 201.04 75.4347 201.808 74.432C202.597 73.408 203.674 72.64 205.04 72.128C206.426 71.616 208.048 71.36 209.904 71.36V66.144C209.904 65.9093 209.989 65.7067 210.16 65.536C210.33 65.3653 210.533 65.28 210.768 65.28H216.496C216.73 65.28 216.933 65.3653 217.104 65.536C217.274 65.7067 217.36 65.9093 217.36 66.144V71.36C219.237 71.36 220.858 71.616 222.224 72.128C223.589 72.64 224.656 73.408 225.424 74.432C226.213 75.4347 226.661 76.6827 226.768 78.176C226.832 79.1787 226.832 80.1813 226.768 81.184C226.661 82.6773 226.245 83.936 225.52 84.96C224.794 85.9627 223.749 86.72 222.384 87.232C221.04 87.744 219.365 88 217.36 88V93.216C217.36 93.4507 217.274 93.6533 217.104 93.824C216.933 93.9947 216.73 94.08 216.496 94.08H210.768ZM209.968 82.88V76.48C209.178 76.48 208.645 76.6507 208.368 76.992C208.09 77.3333 207.93 77.888 207.888 78.656C207.866 78.9333 207.856 79.2853 207.856 79.712C207.856 80.1387 207.866 80.4693 207.888 80.704C207.973 81.5573 208.154 82.1333 208.432 82.432C208.709 82.7307 209.221 82.88 209.968 82.88ZM217.296 82.88C218.106 82.88 218.64 82.72 218.896 82.4C219.152 82.08 219.312 81.5147 219.376 80.704C219.397 80.4693 219.408 80.1387 219.408 79.712C219.408 79.2853 219.397 78.9333 219.376 78.656C219.354 77.8453 219.184 77.28 218.864 76.96C218.565 76.64 218.042 76.48 217.296 76.48V82.88ZM237.162 88.32C234.367 88.32 232.138 87.6373 230.474 86.272C228.831 84.8853 228.01 82.6987 228.01 79.712C228.01 79.6693 228.01 79.6267 228.01 79.584C228.01 79.5413 228.01 79.5093 228.01 79.488C228.052 77.6533 228.447 76.1067 229.194 74.848C229.962 73.5893 231.018 72.64 232.362 72C233.727 71.36 235.316 71.04 237.13 71.04C239.22 71.04 240.938 71.4453 242.282 72.256C243.626 73.0453 244.618 74.1013 245.258 75.424C245.919 76.7253 246.25 78.1653 246.25 79.744V80.704C246.25 80.9387 246.164 81.1413 245.994 81.312C245.823 81.4827 245.62 81.568 245.386 81.568H235.85C235.85 81.5893 235.85 81.6107 235.85 81.632C235.85 81.6533 235.85 81.6853 235.85 81.728C235.85 82.1547 235.882 82.5173 235.946 82.816C236.031 83.0933 236.17 83.3067 236.362 83.456C236.554 83.6053 236.799 83.68 237.098 83.68C237.226 83.68 237.332 83.6587 237.418 83.616C237.524 83.5733 237.62 83.5093 237.706 83.424C237.812 83.3173 237.919 83.2107 238.026 83.104C238.218 82.912 238.378 82.7947 238.506 82.752C238.634 82.688 238.826 82.656 239.082 82.656H245.13C245.343 82.656 245.514 82.72 245.642 82.848C245.791 82.976 245.855 83.1467 245.834 83.36C245.812 83.7653 245.62 84.256 245.258 84.832C244.916 85.3867 244.394 85.9307 243.69 86.464C242.986 86.9973 242.09 87.4453 241.002 87.808C239.914 88.1493 238.634 88.32 237.162 88.32ZM235.85 77.568H238.41V77.536C238.41 77.0667 238.356 76.6827 238.25 76.384C238.164 76.0853 238.026 75.872 237.834 75.744C237.642 75.5947 237.407 75.52 237.13 75.52C236.852 75.52 236.618 75.5947 236.426 75.744C236.234 75.872 236.084 76.0853 235.978 76.384C235.892 76.6827 235.85 77.0667 235.85 77.536V77.568ZM248.715 94.08C248.481 94.08 248.278 93.9947 248.107 93.824C247.937 93.6533 247.851 93.4507 247.851 93.216V72.224C247.851 71.9893 247.937 71.7867 248.107 71.616C248.278 71.4453 248.481 71.36 248.715 71.36H254.155C254.39 71.36 254.593 71.4453 254.763 71.616C254.934 71.7867 255.019 71.9893 255.019 72.224V73.184C255.51 72.5653 256.139 72.0533 256.907 71.648C257.697 71.2427 258.646 71.04 259.755 71.04C260.694 71.04 261.558 71.1787 262.347 71.456C263.137 71.712 263.83 72.1387 264.427 72.736C265.046 73.312 265.537 74.0693 265.899 75.008C266.262 75.9467 266.475 77.088 266.539 78.432C266.561 78.9013 266.571 79.3173 266.571 79.68C266.571 80.0427 266.561 80.4693 266.539 80.96C266.497 82.2187 266.294 83.3173 265.931 84.256C265.569 85.1733 265.078 85.9307 264.459 86.528C263.862 87.1253 263.158 87.5733 262.347 87.872C261.558 88.1707 260.694 88.32 259.755 88.32C258.859 88.32 258.049 88.1707 257.323 87.872C256.598 87.5733 255.99 87.0827 255.499 86.4V93.216C255.499 93.4507 255.414 93.6533 255.243 93.824C255.073 93.9947 254.87 94.08 254.635 94.08H248.715ZM257.099 82.592C257.505 82.592 257.814 82.5173 258.027 82.368C258.241 82.2187 258.39 82.0053 258.475 81.728C258.582 81.4507 258.657 81.12 258.699 80.736C258.763 80.032 258.763 79.328 258.699 78.624C258.657 78.24 258.582 77.9093 258.475 77.632C258.39 77.3547 258.241 77.1413 258.027 76.992C257.814 76.8427 257.505 76.768 257.099 76.768C256.715 76.768 256.406 76.8427 256.171 76.992C255.937 77.1413 255.766 77.3547 255.659 77.632C255.574 77.9093 255.521 78.24 255.499 78.624C255.478 79.0933 255.467 79.488 255.467 79.808C255.467 80.1067 255.478 80.5013 255.499 80.992C255.521 81.3333 255.585 81.6213 255.691 81.856C255.819 82.0907 255.99 82.272 256.203 82.4C256.438 82.528 256.737 82.592 257.099 82.592ZM276.975 88.32C274.181 88.32 271.951 87.6373 270.287 86.272C268.645 84.8853 267.823 82.6987 267.823 79.712C267.823 79.6693 267.823 79.6267 267.823 79.584C267.823 79.5413 267.823 79.5093 267.823 79.488C267.866 77.6533 268.261 76.1067 269.007 74.848C269.775 73.5893 270.831 72.64 272.175 72C273.541 71.36 275.13 71.04 276.943 71.04C279.034 71.04 280.751 71.4453 282.095 72.256C283.439 73.0453 284.431 74.1013 285.071 75.424C285.733 76.7253 286.063 78.1653 286.063 79.744V80.704C286.063 80.9387 285.978 81.1413 285.807 81.312C285.637 81.4827 285.434 81.568 285.199 81.568H275.663C275.663 81.5893 275.663 81.6107 275.663 81.632C275.663 81.6533 275.663 81.6853 275.663 81.728C275.663 82.1547 275.695 82.5173 275.759 82.816C275.845 83.0933 275.983 83.3067 276.175 83.456C276.367 83.6053 276.613 83.68 276.911 83.68C277.039 83.68 277.146 83.6587 277.231 83.616C277.338 83.5733 277.434 83.5093 277.519 83.424C277.626 83.3173 277.733 83.2107 277.839 83.104C278.031 82.912 278.191 82.7947 278.319 82.752C278.447 82.688 278.639 82.656 278.895 82.656H284.943C285.157 82.656 285.327 82.72 285.455 82.848C285.605 82.976 285.669 83.1467 285.647 83.36C285.626 83.7653 285.434 84.256 285.071 84.832C284.73 85.3867 284.207 85.9307 283.503 86.464C282.799 86.9973 281.903 87.4453 280.815 87.808C279.727 88.1493 278.447 88.32 276.975 88.32ZM275.663 77.568H278.223V77.536C278.223 77.0667 278.17 76.6827 278.063 76.384C277.978 76.0853 277.839 75.872 277.647 75.744C277.455 75.5947 277.221 75.52 276.943 75.52C276.666 75.52 276.431 75.5947 276.239 75.744C276.047 75.872 275.898 76.0853 275.791 76.384C275.706 76.6827 275.663 77.0667 275.663 77.536V77.568ZM301.442 88.32C299.821 88.32 298.349 88.0427 297.026 87.488C295.704 86.912 294.637 86.08 293.826 84.992C293.016 83.904 292.568 82.5707 292.482 80.992C292.461 80.6507 292.45 80.224 292.45 79.712C292.45 79.2 292.461 78.7627 292.482 78.4C292.568 76.8213 293.005 75.488 293.794 74.4C294.605 73.2907 295.672 72.4587 296.994 71.904C298.338 71.328 299.821 71.04 301.442 71.04C303.128 71.04 304.557 71.2853 305.73 71.776C306.925 72.2453 307.885 72.832 308.61 73.536C309.357 74.2187 309.901 74.9013 310.242 75.584C310.605 76.2667 310.797 76.8213 310.818 77.248C310.84 77.4827 310.754 77.6853 310.562 77.856C310.392 78.0267 310.189 78.112 309.954 78.112H303.714C303.48 78.112 303.288 78.0587 303.138 77.952C303.01 77.824 302.893 77.664 302.786 77.472C302.637 77.1733 302.477 76.9387 302.306 76.768C302.157 76.5973 301.922 76.512 301.602 76.512C301.112 76.512 300.781 76.6933 300.61 77.056C300.44 77.4187 300.344 77.92 300.322 78.56C300.301 79.4773 300.301 80.2347 300.322 80.832C300.365 81.5147 300.461 82.0267 300.61 82.368C300.781 82.688 301.112 82.848 301.602 82.848C301.986 82.848 302.242 82.7627 302.37 82.592C302.52 82.4213 302.658 82.1867 302.786 81.888C302.872 81.696 302.989 81.5467 303.138 81.44C303.288 81.312 303.48 81.248 303.714 81.248H309.954C310.189 81.248 310.392 81.3333 310.562 81.504C310.754 81.6747 310.84 81.8773 310.818 82.112C310.797 82.3893 310.68 82.784 310.466 83.296C310.274 83.7867 309.954 84.32 309.506 84.896C309.08 85.472 308.504 86.0267 307.778 86.56C307.053 87.072 306.168 87.4987 305.122 87.84C304.077 88.16 302.85 88.32 301.442 88.32ZM313.093 88C312.858 88 312.655 87.9147 312.485 87.744C312.314 87.5733 312.229 87.3707 312.229 87.136V72.224C312.229 71.9893 312.314 71.7867 312.485 71.616C312.655 71.4453 312.858 71.36 313.093 71.36H329.477C329.711 71.36 329.914 71.4453 330.085 71.616C330.255 71.7867 330.341 71.9893 330.341 72.224V87.136C330.341 87.3707 330.255 87.5733 330.085 87.744C329.914 87.9147 329.711 88 329.477 88H323.749C323.514 88 323.311 87.9147 323.141 87.744C322.97 87.5733 322.885 87.3707 322.885 87.136V76.96H319.685V87.136C319.685 87.3707 319.599 87.5733 319.429 87.744C319.258 87.9147 319.055 88 318.821 88H313.093ZM333.671 88C333.437 88 333.234 87.9147 333.063 87.744C332.893 87.5733 332.807 87.3707 332.807 87.136V72.224C332.807 71.9893 332.893 71.7867 333.063 71.616C333.234 71.4453 333.437 71.36 333.671 71.36H339.399C339.634 71.36 339.837 71.4453 340.007 71.616C340.178 71.7867 340.263 71.9893 340.263 72.224V82.304L338.311 81.728L344.711 71.904C344.818 71.7333 344.946 71.6053 345.095 71.52C345.266 71.4133 345.447 71.36 345.639 71.36H350.727C350.962 71.36 351.165 71.4453 351.335 71.616C351.506 71.7867 351.591 71.9893 351.591 72.224V87.136C351.591 87.3707 351.506 87.5733 351.335 87.744C351.165 87.9147 350.962 88 350.727 88H344.999C344.765 88 344.562 87.9147 344.391 87.744C344.221 87.5733 344.135 87.3707 344.135 87.136V77.056L346.087 77.632L339.687 87.456C339.581 87.6267 339.442 87.7653 339.271 87.872C339.122 87.9573 338.951 88 338.759 88H333.671ZM361.866 88.32C360.245 88.32 358.773 88.0427 357.45 87.488C356.128 86.912 355.061 86.08 354.25 84.992C353.44 83.904 352.992 82.5707 352.906 80.992C352.885 80.6507 352.874 80.224 352.874 79.712C352.874 79.2 352.885 78.7627 352.906 78.4C352.992 76.8213 353.429 75.488 354.218 74.4C355.029 73.2907 356.096 72.4587 357.418 71.904C358.762 71.328 360.245 71.04 361.866 71.04C363.552 71.04 364.981 71.2853 366.154 71.776C367.349 72.2453 368.309 72.832 369.034 73.536C369.781 74.2187 370.325 74.9013 370.666 75.584C371.029 76.2667 371.221 76.8213 371.242 77.248C371.264 77.4827 371.178 77.6853 370.986 77.856C370.816 78.0267 370.613 78.112 370.378 78.112H364.138C363.904 78.112 363.712 78.0587 363.562 77.952C363.434 77.824 363.317 77.664 363.21 77.472C363.061 77.1733 362.901 76.9387 362.73 76.768C362.581 76.5973 362.346 76.512 362.026 76.512C361.536 76.512 361.205 76.6933 361.034 77.056C360.864 77.4187 360.768 77.92 360.746 78.56C360.725 79.4773 360.725 80.2347 360.746 80.832C360.789 81.5147 360.885 82.0267 361.034 82.368C361.205 82.688 361.536 82.848 362.026 82.848C362.41 82.848 362.666 82.7627 362.794 82.592C362.944 82.4213 363.082 82.1867 363.21 81.888C363.296 81.696 363.413 81.5467 363.562 81.44C363.712 81.312 363.904 81.248 364.138 81.248H370.378C370.613 81.248 370.816 81.3333 370.986 81.504C371.178 81.6747 371.264 81.8773 371.242 82.112C371.221 82.3893 371.104 82.784 370.89 83.296C370.698 83.7867 370.378 84.32 369.93 84.896C369.504 85.472 368.928 86.0267 368.202 86.56C367.477 87.072 366.592 87.4987 365.546 87.84C364.501 88.16 363.274 88.32 361.866 88.32ZM377.964 88.32C376.748 88.32 375.671 88.096 374.732 87.648C373.794 87.2 373.058 86.592 372.524 85.824C372.012 85.056 371.756 84.192 371.756 83.232C371.756 81.6747 372.386 80.4587 373.644 79.584C374.924 78.688 376.631 78.0587 378.764 77.696L382.156 77.152V77.12C382.156 76.5653 382.103 76.16 381.996 75.904C381.911 75.648 381.644 75.52 381.196 75.52C380.898 75.52 380.652 75.584 380.46 75.712C380.29 75.8187 380.098 75.9787 379.884 76.192C379.65 76.4267 379.351 76.544 378.988 76.544H373.548C373.335 76.544 373.154 76.48 373.004 76.352C372.876 76.224 372.823 76.0533 372.844 75.84C372.866 75.4347 373.036 74.9653 373.356 74.432C373.676 73.8773 374.167 73.344 374.828 72.832C375.511 72.32 376.375 71.8933 377.42 71.552C378.487 71.2107 379.767 71.04 381.26 71.04C382.711 71.04 383.97 71.2 385.036 71.52C386.124 71.8187 387.02 72.2667 387.724 72.864C388.428 73.44 388.951 74.1653 389.292 75.04C389.655 75.8933 389.836 76.864 389.836 77.952V87.136C389.836 87.3707 389.751 87.5733 389.58 87.744C389.41 87.9147 389.207 88 388.972 88H383.372C383.138 88 382.935 87.9147 382.764 87.744C382.594 87.5733 382.508 87.3707 382.508 87.136V86.24C382.21 86.6667 381.826 87.04 381.356 87.36C380.908 87.6587 380.396 87.8933 379.82 88.064C379.244 88.2347 378.626 88.32 377.964 88.32ZM380.172 83.584C380.599 83.584 380.962 83.4987 381.26 83.328C381.58 83.1573 381.826 82.8907 381.996 82.528C382.167 82.144 382.252 81.6747 382.252 81.12V81.088L380.364 81.504C379.81 81.632 379.436 81.8027 379.244 82.016C379.052 82.2293 378.956 82.4533 378.956 82.688C378.956 82.8373 378.999 82.9867 379.084 83.136C379.191 83.264 379.33 83.3707 379.5 83.456C379.692 83.5413 379.916 83.584 380.172 83.584ZM392.783 88C392.548 88 392.345 87.9147 392.175 87.744C392.004 87.5733 391.919 87.3707 391.919 87.136V72.224C391.919 71.9893 392.004 71.7867 392.175 71.616C392.345 71.4453 392.548 71.36 392.783 71.36H398.511C398.745 71.36 398.948 71.4453 399.119 71.616C399.289 71.7867 399.375 71.9893 399.375 72.224V76.8H402.575V72.224C402.575 71.9893 402.66 71.7867 402.831 71.616C403.001 71.4453 403.204 71.36 403.439 71.36H409.167C409.401 71.36 409.604 71.4453 409.775 71.616C409.945 71.7867 410.031 71.9893 410.031 72.224V87.136C410.031 87.3707 409.945 87.5733 409.775 87.744C409.604 87.9147 409.401 88 409.167 88H403.439C403.204 88 403.001 87.9147 402.831 87.744C402.66 87.5733 402.575 87.3707 402.575 87.136V82.4H399.375V87.136C399.375 87.3707 399.289 87.5733 399.119 87.744C398.948 87.9147 398.745 88 398.511 88H392.783ZM413.361 88C413.127 88 412.924 87.9147 412.753 87.744C412.583 87.5733 412.497 87.3707 412.497 87.136V72.224C412.497 71.9893 412.583 71.7867 412.753 71.616C412.924 71.4453 413.127 71.36 413.361 71.36H419.089C419.324 71.36 419.527 71.4453 419.697 71.616C419.868 71.7867 419.953 71.9893 419.953 72.224V82.304L418.001 81.728L424.401 71.904C424.508 71.7333 424.636 71.6053 424.785 71.52C424.956 71.4133 425.137 71.36 425.329 71.36H430.417C430.652 71.36 430.855 71.4453 431.025 71.616C431.196 71.7867 431.281 71.9893 431.281 72.224V87.136C431.281 87.3707 431.196 87.5733 431.025 87.744C430.855 87.9147 430.652 88 430.417 88H424.689C424.455 88 424.252 87.9147 424.081 87.744C423.911 87.5733 423.825 87.3707 423.825 87.136V77.056L425.777 77.632L419.377 87.456C419.271 87.6267 419.132 87.7653 418.961 87.872C418.812 87.9573 418.641 88 418.449 88H413.361ZM444.148 88C443.914 88 443.711 87.9147 443.54 87.744C443.37 87.5733 443.284 87.3707 443.284 87.136V83.168H441.46V83.008C438.964 83.008 437.023 82.5173 435.636 81.536C434.25 80.5333 433.556 79.104 433.556 77.248C433.556 75.392 434.218 73.952 435.54 72.928C436.863 71.8827 438.591 71.36 440.724 71.36H450.068C450.303 71.36 450.506 71.4453 450.676 71.616C450.847 71.7867 450.932 71.9893 450.932 72.224V87.136C450.932 87.3707 450.847 87.5733 450.676 87.744C450.506 87.9147 450.303 88 450.068 88H444.148ZM433.62 88C433.407 88 433.236 87.936 433.108 87.808C432.98 87.68 432.916 87.5307 432.916 87.36C432.916 87.3173 432.927 87.264 432.948 87.2C432.97 87.136 432.991 87.072 433.012 87.008L436.116 81.408L442.164 82.688L440.084 87.52C440.02 87.6693 439.924 87.7867 439.796 87.872C439.69 87.9573 439.551 88 439.38 88H433.62ZM441.364 78.4H443.444V76.128H441.364C440.938 76.128 440.618 76.224 440.404 76.416C440.191 76.608 440.084 76.8853 440.084 77.248C440.084 77.6107 440.191 77.8987 440.404 78.112C440.618 78.304 440.938 78.4 441.364 78.4ZM458.926 91.52C458.692 91.52 458.489 91.4347 458.318 91.264C458.148 91.0933 458.062 90.8907 458.062 90.656V83.264C458.062 83.0293 458.148 82.8267 458.318 82.656C458.489 82.4853 458.692 82.4 458.926 82.4H459.374C459.886 82.4 460.249 82.1653 460.462 81.696C460.697 81.2053 460.836 80.5653 460.878 79.776C460.942 78.9653 460.974 78.0693 460.974 77.088V72.224C460.974 71.9893 461.06 71.7867 461.23 71.616C461.401 71.4453 461.604 71.36 461.838 71.36H476.43C476.665 71.36 476.868 71.4453 477.038 71.616C477.209 71.7867 477.294 71.9893 477.294 72.224V82.4H478.542C478.777 82.4 478.98 82.4853 479.15 82.656C479.321 82.8267 479.406 83.0293 479.406 83.264V90.656C479.406 90.8907 479.321 91.0933 479.15 91.264C478.98 91.4347 478.777 91.52 478.542 91.52H472.814C472.58 91.52 472.377 91.4347 472.206 91.264C472.036 91.0933 471.95 90.8907 471.95 90.656V88H465.518V90.656C465.518 90.8907 465.433 91.0933 465.262 91.264C465.092 91.4347 464.889 91.52 464.654 91.52H458.926ZM467.438 82.4H469.838V76.96H468.014V77.888C468.014 78.8907 467.961 79.776 467.854 80.544C467.769 81.2907 467.63 81.9093 467.438 82.4ZM489.426 88.32C487.463 88.32 485.81 88.0533 484.466 87.52C483.122 86.9867 482.087 86.1867 481.362 85.12C480.658 84.0533 480.252 82.7413 480.146 81.184C480.124 80.6933 480.114 80.192 480.114 79.68C480.114 79.1467 480.124 78.6453 480.146 78.176C480.252 76.5973 480.69 75.2853 481.458 74.24C482.226 73.1733 483.282 72.3733 484.626 71.84C485.97 71.3067 487.57 71.04 489.426 71.04C491.282 71.04 492.882 71.3067 494.226 71.84C495.57 72.3733 496.626 73.1733 497.394 74.24C498.162 75.2853 498.599 76.5973 498.706 78.176C498.748 78.6453 498.77 79.1467 498.77 79.68C498.77 80.192 498.748 80.6933 498.706 81.184C498.599 82.7413 498.183 84.0533 497.458 85.12C496.754 86.1867 495.73 86.9867 494.386 87.52C493.042 88.0533 491.388 88.32 489.426 88.32ZM489.426 83.2C490.044 83.2 490.428 83.0293 490.578 82.688C490.727 82.3253 490.823 81.7707 490.866 81.024C490.887 80.704 490.898 80.256 490.898 79.68C490.898 79.104 490.887 78.656 490.866 78.336C490.823 77.632 490.727 77.0987 490.578 76.736C490.428 76.352 490.044 76.16 489.426 76.16C488.828 76.16 488.444 76.352 488.274 76.736C488.124 77.0987 488.028 77.632 487.986 78.336C487.964 78.656 487.954 79.104 487.954 79.68C487.954 80.256 487.964 80.704 487.986 81.024C488.028 81.7707 488.124 82.3253 488.274 82.688C488.444 83.0293 488.828 83.2 489.426 83.2ZM500.709 88C500.474 88 500.272 87.9147 500.101 87.744C499.93 87.5733 499.845 87.3707 499.845 87.136V82.944C499.845 82.4747 500.133 82.1867 500.709 82.08C501.285 81.9733 501.68 81.7067 501.893 81.28C502.106 80.8533 502.224 80.288 502.245 79.584C502.288 78.8587 502.309 78.0267 502.309 77.088V72.224C502.309 71.9893 502.394 71.7867 502.565 71.616C502.736 71.4453 502.938 71.36 503.173 71.36H517.765C518 71.36 518.202 71.4453 518.373 71.616C518.544 71.7867 518.629 71.9893 518.629 72.224V87.136C518.629 87.3707 518.544 87.5733 518.373 87.744C518.202 87.9147 518 88 517.765 88H512.037C511.802 88 511.6 87.9147 511.429 87.744C511.258 87.5733 511.173 87.3707 511.173 87.136V76.96H509.349V77.888C509.349 79.8933 509.242 81.5573 509.029 82.88C508.816 84.2027 508.4 85.2373 507.781 85.984C507.184 86.7093 506.309 87.232 505.157 87.552C504.026 87.8507 502.544 88 500.709 88ZM521.959 88C521.724 88 521.522 87.9147 521.351 87.744C521.18 87.5733 521.095 87.3707 521.095 87.136V72.224C521.095 71.9893 521.18 71.7867 521.351 71.616C521.522 71.4453 521.724 71.36 521.959 71.36H533.639C533.874 71.36 534.076 71.4453 534.247 71.616C534.418 71.7867 534.503 71.9893 534.503 72.224V76.096C534.503 76.3307 534.418 76.5333 534.247 76.704C534.076 76.8747 533.874 76.96 533.639 76.96H528.551V87.136C528.551 87.3707 528.466 87.5733 528.295 87.744C528.124 87.9147 527.922 88 527.687 88H521.959ZM544.787 88.32C542.824 88.32 541.171 88.0533 539.827 87.52C538.483 86.9867 537.448 86.1867 536.723 85.12C536.019 84.0533 535.614 82.7413 535.507 81.184C535.486 80.6933 535.475 80.192 535.475 79.68C535.475 79.1467 535.486 78.6453 535.507 78.176C535.614 76.5973 536.051 75.2853 536.819 74.24C537.587 73.1733 538.643 72.3733 539.987 71.84C541.331 71.3067 542.931 71.04 544.787 71.04C546.643 71.04 548.243 71.3067 549.587 71.84C550.931 72.3733 551.987 73.1733 552.755 74.24C553.523 75.2853 553.96 76.5973 554.067 78.176C554.11 78.6453 554.131 79.1467 554.131 79.68C554.131 80.192 554.11 80.6933 554.067 81.184C553.96 82.7413 553.544 84.0533 552.819 85.12C552.115 86.1867 551.091 86.9867 549.747 87.52C548.403 88.0533 546.75 88.32 544.787 88.32ZM544.787 83.2C545.406 83.2 545.79 83.0293 545.939 82.688C546.088 82.3253 546.184 81.7707 546.227 81.024C546.248 80.704 546.259 80.256 546.259 79.68C546.259 79.104 546.248 78.656 546.227 78.336C546.184 77.632 546.088 77.0987 545.939 76.736C545.79 76.352 545.406 76.16 544.787 76.16C544.19 76.16 543.806 76.352 543.635 76.736C543.486 77.0987 543.39 77.632 543.347 78.336C543.326 78.656 543.315 79.104 543.315 79.68C543.315 80.256 543.326 80.704 543.347 81.024C543.39 81.7707 543.486 82.3253 543.635 82.688C543.806 83.0293 544.19 83.2 544.787 83.2ZM556.71 88C556.476 88 556.273 87.9147 556.102 87.744C555.932 87.5733 555.846 87.3707 555.846 87.136V72.224C555.846 71.9893 555.932 71.7867 556.102 71.616C556.273 71.4453 556.476 71.36 556.71 71.36H564.934C567.921 71.36 570.054 71.808 571.334 72.704C572.636 73.6 573.286 74.816 573.286 76.352C573.286 77.0347 573.148 77.632 572.87 78.144C572.593 78.656 572.241 79.0933 571.814 79.456C572.433 79.8187 572.934 80.2773 573.318 80.832C573.724 81.3653 573.926 82.0587 573.926 82.912C573.926 84.448 573.276 85.6853 571.974 86.624C570.694 87.5413 568.561 88 565.574 88H556.71ZM563.014 83.616H565.254C565.617 83.616 565.894 83.5627 566.086 83.456C566.3 83.3493 566.406 83.136 566.406 82.816C566.406 82.496 566.3 82.2827 566.086 82.176C565.894 82.048 565.617 81.984 565.254 81.984H563.014V83.616ZM563.014 77.376H565.254C565.638 77.376 565.926 77.3227 566.118 77.216C566.31 77.1093 566.406 76.896 566.406 76.576C566.406 76.256 566.3 76.0427 566.086 75.936C565.894 75.808 565.617 75.744 565.254 75.744H563.014V77.376Z" fill="white"/>
</svg>
