<svg width="760" height="119" viewBox="0 0 760 119" fill="none" xmlns="http://www.w3.org/2000/svg">
<path d="M95.9668 68.0301L33.123 70.2369C15.0208 70.8725 0 56.37 0 38.2566V32.3383C0 14.5336 14.5329 0.152845 32.3366 0.340089L425.857 4.47881C436.9 4.59496 443.091 17.2496 436.404 26.039C429.677 34.8803 435.982 47.6 447.092 47.6H728C745.673 47.6 760 61.9269 760 79.6V86.7767C760 104.537 745.537 118.899 727.777 118.776L112.53 114.497C100.232 114.412 94.8877 98.9031 104.522 91.2598C114.373 83.4448 108.533 67.5889 95.9668 68.0301Z" fill="#040F16"/>
<path d="M46.9447 40.7007C44.8967 40.7027 43.083 40.4058 41.5035 39.81C39.924 39.2142 38.6641 38.2768 37.7237 36.9977C36.8047 35.7186 36.3011 34.0657 36.2131 32.0392C36.1906 31.1645 36.1786 30.2259 36.1773 29.2232C36.1759 28.2205 36.1853 27.2605 36.2054 26.3432C36.2881 24.3591 36.7979 22.7266 37.7348 21.4457C38.6931 20.1647 39.9612 19.2142 41.539 18.594C43.1382 17.9737 44.9298 17.6626 46.9138 17.6607C48.2791 17.6594 49.5913 17.8181 50.8504 18.1369C52.1308 18.4343 53.2835 18.9131 54.3083 19.5735C55.3332 20.2338 56.145 21.0864 56.7438 22.1311C57.3638 23.1545 57.6855 24.3915 57.7088 25.8422C57.709 26.0342 57.6346 26.2049 57.4855 26.3544C57.3576 26.4825 57.1977 26.5467 57.0057 26.5469L50.4777 26.5532C50.1364 26.5536 49.8803 26.4898 49.7095 26.362C49.5599 26.2128 49.4209 25.9676 49.2925 25.6264C49.0569 24.9439 48.7363 24.4856 48.3306 24.2513C47.925 24.0171 47.4448 23.9002 46.8901 23.9007C46.1862 23.9014 45.6211 24.094 45.1949 24.4784C44.7901 24.8414 44.567 25.5137 44.5256 26.495C44.464 28.2444 44.4664 30.0364 44.5329 31.871C44.5768 32.8523 44.8018 33.5348 45.2076 33.9184C45.6348 34.2806 46.2003 34.4614 46.9043 34.4607C47.459 34.4602 47.9388 34.3317 48.3438 34.0753C48.7701 33.8189 49.0895 33.3706 49.302 32.7304C49.4082 32.3676 49.5465 32.1221 49.717 31.994C49.8875 31.8658 50.1434 31.8016 50.4848 31.8012L57.0128 31.7948C57.2048 31.7947 57.3649 31.8692 57.4931 32.0184C57.6426 32.1462 57.7174 32.3062 57.7177 32.4982C57.6983 33.9488 57.38 35.1972 56.7627 36.2431C56.1668 37.2677 55.3572 38.1111 54.3341 38.7735C53.311 39.4358 52.1597 39.9276 50.8801 40.2488C49.6218 40.5487 48.31 40.6994 46.9447 40.7007ZM60.173 40.3678C59.9384 40.368 59.7356 40.2829 59.5647 40.1124C59.3938 39.9419 59.3082 39.7393 59.3079 39.5046L59.2878 24.5926C59.2875 24.358 59.3726 24.1552 59.543 23.9844C59.7135 23.8135 59.916 23.728 60.1507 23.7278L76.5347 23.7118C76.7693 23.7116 76.9721 23.7967 77.143 23.9672C77.3139 24.1377 77.3995 24.3403 77.3998 24.5749L77.4199 39.4869C77.4202 39.7216 77.3351 39.9243 77.1647 40.0952C76.9942 40.266 76.7917 40.3515 76.557 40.3518L70.829 40.3574C70.5944 40.3576 70.3916 40.2725 70.2207 40.102C70.0498 39.9315 69.9642 39.7289 69.9639 39.4942L69.9502 29.3182L66.7502 29.3213L66.7639 39.4973C66.7642 39.732 66.6791 39.9347 66.5087 40.1056C66.3382 40.2764 66.1357 40.3619 65.901 40.3622L60.173 40.3678ZM88.7202 40.6599C86.7575 40.6618 85.1038 40.3968 83.7591 39.8647C82.4144 39.3327 81.3787 38.5337 80.6519 37.4678C79.9465 36.4018 79.5394 35.0902 79.4306 33.533C79.4086 33.0423 79.3973 32.541 79.3966 32.029C79.3959 31.4957 79.4059 30.9943 79.4266 30.525C79.5311 28.9462 79.9667 27.6338 80.7333 26.5877C81.4999 25.5203 82.5548 24.7192 83.8981 24.1846C85.2413 23.6499 86.841 23.3817 88.697 23.3799C90.553 23.3781 92.1533 23.6432 93.4981 24.1752C94.8428 24.7072 95.8998 25.5062 96.6693 26.5721C97.4387 27.6167 97.8778 28.9283 97.9866 30.5068C98.0299 30.9761 98.0519 31.4774 98.0526 32.0108C98.0533 32.5228 98.0326 33.0241 97.9906 33.5148C97.886 35.0723 97.4718 36.3847 96.7479 37.4521C96.0453 38.5194 95.0224 39.3204 93.6791 39.855C92.3358 40.3897 90.6829 40.658 88.7202 40.6599ZM88.7133 35.5399C89.332 35.5393 89.7158 35.3683 89.8646 35.0268C90.0135 34.664 90.1087 34.1092 90.1504 33.3625C90.1713 33.0425 90.1814 32.5945 90.1806 32.0185C90.1798 31.4425 90.1685 30.9945 90.1468 30.6745C90.1032 29.9705 90.0065 29.4373 89.8566 29.0748C89.7068 28.6909 89.3225 28.4993 88.7039 28.4999C88.1065 28.5005 87.7228 28.6929 87.5526 29.077C87.4038 29.4398 87.3085 29.9733 87.2668 30.6773C87.2459 30.9973 87.2358 31.4453 87.2366 32.0213C87.2374 32.5973 87.2486 33.0453 87.2704 33.3653C87.3141 34.1119 87.4108 34.6665 87.5606 35.029C87.7318 35.3702 88.116 35.5405 88.7133 35.5399ZM108.259 40.6408C106.638 40.6424 105.166 40.3665 103.842 39.8131C102.519 39.2384 101.451 38.4075 100.639 37.3203C99.8268 36.233 99.377 34.9001 99.2896 33.3216C99.2678 32.9803 99.2566 32.5536 99.2559 32.0416C99.2552 31.5296 99.2653 31.0923 99.2861 30.7296C99.3693 29.1508 99.8049 27.8171 100.593 26.7283C101.402 25.6182 102.467 24.7851 103.789 24.2292C105.133 23.6519 106.615 23.3624 108.236 23.3608C109.922 23.3592 111.351 23.6031 112.525 24.0926C113.721 24.5608 114.681 25.1465 115.408 25.8498C116.155 26.5318 116.7 27.2139 117.042 27.8962C117.406 28.5785 117.599 29.133 117.621 29.5597C117.642 29.7943 117.557 29.9971 117.365 30.1679C117.195 30.3387 116.992 30.4243 116.758 30.4245L110.518 30.4306C110.283 30.4308 110.091 30.3777 109.942 30.2712C109.813 30.1433 109.696 29.9834 109.589 29.7915C109.439 29.493 109.279 29.2585 109.108 29.088C108.958 28.9175 108.724 28.8324 108.404 28.8327C107.913 28.8331 107.582 29.0148 107.412 29.3776C107.242 29.7405 107.147 30.2419 107.126 30.8819C107.106 31.7993 107.107 32.5566 107.129 33.1539C107.173 33.8365 107.27 34.3484 107.419 34.6896C107.591 35.0095 107.921 35.1691 108.412 35.1687C108.796 35.1683 109.052 35.0827 109.18 34.9119C109.329 34.7411 109.467 34.5063 109.595 34.2075C109.68 34.0154 109.797 33.866 109.946 33.7592C110.095 33.631 110.287 33.5668 110.522 33.5666L116.762 33.5605C116.997 33.5603 117.199 33.6454 117.37 33.8159C117.563 33.9864 117.648 34.189 117.627 34.4237C117.606 34.701 117.489 35.0958 117.277 35.608C117.085 36.0989 116.766 36.6325 116.319 37.2089C115.893 37.7854 115.318 38.3406 114.593 38.8746C113.868 39.3873 112.984 39.8149 111.939 40.1572C110.894 40.4782 109.667 40.6394 108.259 40.6408ZM127.878 40.6217C125.915 40.6236 124.261 40.3585 122.917 39.8265C121.572 39.2945 120.536 38.4955 119.809 37.4295C119.104 36.3636 118.697 35.052 118.588 33.4947C118.566 33.0041 118.555 32.5028 118.554 31.9908C118.553 31.4574 118.563 30.9561 118.584 30.4867C118.689 28.908 119.124 27.5955 119.891 26.5494C120.657 25.482 121.712 24.681 123.056 24.1464C124.399 23.6117 125.998 23.3435 127.854 23.3417C129.71 23.3399 131.311 23.605 132.656 24.137C134 24.669 135.057 25.468 135.827 26.5339C136.596 27.5785 137.035 28.89 137.144 30.4686C137.187 30.9379 137.209 31.4392 137.21 31.9725C137.211 32.4845 137.19 32.9859 137.148 33.4766C137.044 35.034 136.629 36.3464 135.905 37.4138C135.203 38.4812 134.18 39.2822 132.837 39.8168C131.493 40.3515 129.84 40.6197 127.878 40.6217ZM127.871 35.5017C128.489 35.5011 128.873 35.33 129.022 34.9885C129.171 34.6257 129.266 34.071 129.308 33.3243C129.329 33.0042 129.339 32.5562 129.338 31.9802C129.337 31.4042 129.326 30.9562 129.304 30.6363C129.261 29.9323 129.164 29.3991 129.014 29.0365C128.864 28.6527 128.48 28.4611 127.861 28.4617C127.264 28.4623 126.88 28.6546 126.71 29.0388C126.561 29.4016 126.466 29.935 126.424 30.6391C126.403 30.9591 126.393 31.4071 126.394 31.9831C126.395 32.5591 126.406 33.0071 126.428 33.3271C126.472 34.0737 126.568 34.6283 126.718 34.9908C126.889 35.332 127.273 35.5022 127.871 35.5017ZM147.769 40.6022C145.614 40.6043 143.875 40.3074 142.552 39.7113C141.228 39.094 140.246 38.1029 139.604 36.7382C138.983 35.3521 138.607 33.5072 138.476 31.2033C138.454 30.5847 138.443 29.934 138.442 29.2513C138.441 28.5473 138.451 27.8967 138.471 27.2993C138.554 25.6352 138.776 24.2163 139.137 23.0427C139.498 21.869 140.03 20.8764 140.733 20.0651C141.458 19.2324 142.385 18.5275 143.514 17.9504C144.666 17.3733 146.052 16.8706 147.672 16.4423C149.315 15.9927 151.234 15.5428 153.431 15.0927C153.665 15.0498 153.889 15.0922 154.103 15.22C154.316 15.3478 154.434 15.5504 154.456 15.8277L155.261 20.1469C155.304 20.4242 155.262 20.6589 155.134 20.851C155.007 21.0432 154.825 21.1607 154.591 21.2036C152.906 21.4612 151.509 21.7079 150.4 21.9437C149.312 22.1794 148.438 22.4576 147.777 22.7782C147.116 23.0775 146.626 23.4727 146.307 23.9637C146.009 24.4333 145.807 25.0308 145.701 25.7562C145.617 26.4817 145.575 27.3884 145.577 28.4764L144.711 27.0372C144.945 26.717 145.286 26.418 145.733 26.1402C146.181 25.8624 146.693 25.6379 147.269 25.4667C147.866 25.2955 148.495 25.2095 149.156 25.2089C150.82 25.2072 152.218 25.4512 153.349 25.9408C154.481 26.409 155.345 27.1122 155.944 28.0502C156.564 28.9883 156.928 30.1613 157.037 31.5692C157.102 32.4438 157.103 33.3291 157.04 34.2252C156.936 35.6119 156.521 36.7857 155.797 37.7464C155.094 38.6857 154.071 39.4014 152.728 39.8934C151.385 40.364 149.732 40.6003 147.769 40.6022ZM147.763 36.0582C148.381 36.0576 148.765 35.8973 148.914 35.5771C149.084 35.2569 149.18 34.7662 149.2 34.1048C149.221 33.8061 149.231 33.4008 149.231 32.8888C149.23 32.3768 149.219 31.9821 149.197 31.7048C149.175 31.0862 149.089 30.6169 148.939 30.2971C148.789 29.9559 148.437 29.7856 147.882 29.7861C147.221 29.7868 146.805 29.9578 146.635 30.2993C146.465 30.6195 146.359 31.0889 146.317 31.7076C146.296 31.985 146.286 32.3797 146.287 32.8917C146.287 33.4037 146.298 33.809 146.32 34.1076C146.364 34.7689 146.46 35.2595 146.61 35.5794C146.781 35.8992 147.165 36.0588 147.763 36.0582ZM159.692 40.2706C159.457 40.2708 159.254 40.1857 159.083 40.0152C158.912 39.8447 158.827 39.6421 158.827 39.4074L158.807 24.4954C158.806 24.2608 158.891 24.058 159.062 23.8872C159.232 23.7164 159.435 23.6308 159.669 23.6306L165.397 23.625C165.632 23.6248 165.835 23.7099 166.006 23.8804C166.177 24.0509 166.262 24.2535 166.263 24.4882L166.269 29.0642L169.469 29.061L169.463 24.485C169.462 24.2504 169.547 24.0476 169.718 23.8768C169.888 23.706 170.091 23.6204 170.325 23.6202L176.053 23.6146C176.288 23.6144 176.491 23.6995 176.662 23.87C176.833 24.0405 176.918 24.2431 176.919 24.4778L176.939 39.3898C176.939 39.6244 176.854 39.8272 176.683 39.998C176.513 40.1688 176.31 40.2544 176.076 40.2546L170.348 40.2602C170.113 40.2604 169.91 40.1753 169.739 40.0048C169.568 39.8343 169.483 39.6317 169.483 39.397L169.476 34.661L166.276 34.6642L166.283 39.4002C166.283 39.6348 166.198 39.8376 166.027 40.0084C165.857 40.1792 165.654 40.2648 165.42 40.265L159.692 40.2706ZM188.239 40.5627C186.276 40.5646 184.623 40.2996 183.278 39.7676C181.933 39.2355 180.897 38.4366 180.171 37.3706C179.465 36.3046 179.058 34.993 178.949 33.4358C178.927 32.9451 178.916 32.4438 178.915 31.9318C178.915 31.3985 178.925 30.8971 178.945 30.4278C179.05 28.849 179.485 27.5366 180.252 26.4905C181.019 25.4231 182.073 24.6221 183.417 24.0874C184.76 23.5528 186.36 23.2845 188.216 23.2827C190.072 23.2809 191.672 23.546 193.017 24.078C194.361 24.6101 195.419 25.409 196.188 26.4749C196.957 27.5195 197.396 28.8311 197.505 30.4097C197.549 30.879 197.571 31.3803 197.571 31.9136C197.572 32.4256 197.551 32.927 197.509 33.4177C197.405 34.9751 196.99 36.2875 196.267 37.3549C195.564 38.4222 194.541 39.2232 193.198 39.7579C191.855 40.2925 190.202 40.5608 188.239 40.5627ZM188.232 35.4427C188.851 35.4421 189.234 35.2711 189.383 34.9296C189.532 34.5668 189.627 34.012 189.669 33.2653C189.69 32.9453 189.7 32.4973 189.699 31.9213C189.699 31.3453 189.687 30.8973 189.665 30.5773C189.622 29.8734 189.525 29.3401 189.375 28.9776C189.225 28.5937 188.841 28.4021 188.223 28.4027C187.625 28.4033 187.241 28.5957 187.071 28.9799C186.922 29.3427 186.827 29.8761 186.785 30.5801C186.765 30.9002 186.755 31.3482 186.755 31.9242C186.756 32.5002 186.767 32.9482 186.789 33.2681C186.833 34.0148 186.93 34.5693 187.079 34.9318C187.25 35.273 187.635 35.4433 188.232 35.4427ZM207.778 40.5436C206.157 40.5452 204.684 40.2693 203.361 39.716C202.038 39.1412 200.97 38.3103 200.158 37.2231C199.346 36.1359 198.896 34.803 198.808 33.2244C198.787 32.8831 198.775 32.4564 198.775 31.9444C198.774 31.4324 198.784 30.9951 198.805 30.6324C198.888 29.0536 199.324 27.7199 200.111 26.6311C200.921 25.521 201.986 24.688 203.308 24.132C204.651 23.5547 206.134 23.2652 207.755 23.2637C209.44 23.262 210.87 23.5059 212.044 23.9955C213.239 24.4636 214.2 25.0494 214.926 25.7527C215.674 26.4346 216.219 27.1167 216.561 27.7991C216.925 28.4814 217.117 29.0358 217.139 29.4625C217.161 29.6971 217.076 29.8999 216.884 30.0707C216.714 30.2416 216.511 30.3271 216.276 30.3273L210.036 30.3334C209.802 30.3337 209.61 30.2805 209.46 30.174C209.332 30.0461 209.214 29.8862 209.108 29.6943C208.958 29.3958 208.798 29.1613 208.627 28.9908C208.477 28.8203 208.242 28.7352 207.922 28.7355C207.432 28.736 207.101 28.9176 206.931 29.2805C206.761 29.6433 206.666 30.1447 206.645 30.7847C206.625 31.7021 206.626 32.4594 206.648 33.0567C206.692 33.7394 206.788 34.2513 206.938 34.5925C207.109 34.9123 207.44 35.072 207.931 35.0715C208.315 35.0711 208.571 34.9855 208.698 34.8147C208.848 34.6439 208.986 34.4091 209.113 34.1103C209.199 33.9182 209.316 33.7688 209.465 33.662C209.614 33.5338 209.806 33.4697 210.041 33.4694L216.281 33.4633C216.515 33.4631 216.718 33.5482 216.889 33.7187C217.081 33.8892 217.167 34.0918 217.146 34.3265C217.125 34.6038 217.008 34.9986 216.795 35.5108C216.604 36.0017 216.285 36.5353 215.838 37.1118C215.412 37.6882 214.836 38.2434 214.112 38.7775C213.387 39.2902 212.502 39.7177 211.457 40.06C210.413 40.3811 209.186 40.5423 207.778 40.5436ZM223.588 40.2082C223.353 40.2084 223.151 40.1233 222.98 39.9528C222.809 39.7823 222.723 39.5797 222.723 39.345L222.709 29.1691L218.453 29.1732C218.218 29.1734 218.016 29.0883 217.845 28.9178C217.674 28.7473 217.588 28.5447 217.588 28.3101L217.583 24.4381C217.582 24.2034 217.668 24.0006 217.838 23.8298C218.008 23.659 218.211 23.5734 218.446 23.5732L234.286 23.5577C234.52 23.5575 234.723 23.6427 234.894 23.8132C235.065 23.9837 235.15 24.1862 235.151 24.4209L235.156 28.2929C235.156 28.5276 235.071 28.7303 234.901 28.9011C234.73 29.072 234.528 29.1575 234.293 29.1577L230.037 29.1619L230.051 39.3379C230.051 39.5726 229.966 39.7753 229.796 39.9461C229.625 40.117 229.423 40.2025 229.188 40.2027L223.588 40.2082ZM237.319 40.1948C237.085 40.195 236.882 40.1099 236.711 39.9394C236.54 39.7689 236.454 39.5663 236.454 39.3316L236.434 24.4196C236.434 24.185 236.519 23.9822 236.689 23.8114C236.86 23.6406 237.062 23.555 237.297 23.5548L243.057 23.5492C243.292 23.549 243.494 23.6341 243.665 23.8046C243.836 23.9751 243.922 24.1777 243.922 24.4123L243.927 28.3803L246.487 28.3778C248.621 28.3758 250.349 28.8967 251.673 29.9408C252.998 30.9848 253.661 32.4348 253.663 34.2908C253.666 36.1468 253.006 37.5981 251.685 38.6448C250.364 39.6701 248.637 40.1837 246.503 40.1858L237.319 40.1948ZM243.777 35.4205L245.857 35.4185C246.283 35.418 246.603 35.3217 246.816 35.1295C247.029 34.9373 247.136 34.6599 247.135 34.2972C247.135 33.9345 247.028 33.6573 246.814 33.4655C246.601 33.2524 246.28 33.146 245.854 33.1465L243.774 33.1485L243.777 35.4205ZM261.445 40.1712C261.211 40.1715 261.008 40.0863 260.837 39.9158C260.666 39.7453 260.581 39.5427 260.58 39.3081L260.56 24.3961C260.56 24.1614 260.645 23.9587 260.815 23.7878C260.986 23.617 261.188 23.5315 261.423 23.5312L269.647 23.5232C272.634 23.5203 274.768 23.9662 276.049 24.861C277.351 25.7557 278.004 26.9711 278.006 28.5071C278.007 29.1897 277.869 29.7872 277.592 30.2995C277.316 30.8117 276.964 31.2494 276.538 31.6125C277.157 31.9746 277.659 32.4327 278.044 32.987C278.45 33.52 278.653 34.2131 278.655 35.0664C278.657 36.6024 278.008 37.8404 276.708 38.7803C275.429 39.6989 273.296 40.1597 270.309 40.1626L261.445 40.1712ZM267.744 35.7811L269.984 35.7789C270.346 35.7785 270.623 35.7249 270.815 35.6181C271.029 35.5112 271.135 35.2978 271.134 34.9778C271.134 34.6578 271.027 34.4445 270.814 34.3381C270.621 34.2103 270.344 34.1465 269.981 34.1469L267.741 34.1491L267.744 35.7811ZM267.735 29.5411L269.975 29.5389C270.359 29.5385 270.647 29.4849 270.839 29.3781C271.031 29.2712 271.127 29.0578 271.126 28.7378C271.126 28.4178 271.019 28.2045 270.805 28.0981C270.613 27.9703 270.336 27.9065 269.973 27.9069L267.733 27.9091L267.735 29.5411ZM289.016 40.4643C287.394 40.4659 285.922 40.19 284.598 39.6366C283.275 39.0619 282.207 38.231 281.395 37.1438C280.583 36.0565 280.133 34.7237 280.046 33.1451C280.024 32.8038 280.013 32.3771 280.012 31.8651C280.011 31.3531 280.021 30.9158 280.042 30.5531C280.125 28.9743 280.561 27.6406 281.349 26.5518C282.158 25.4417 283.224 24.6086 284.546 24.0527C285.889 23.4754 287.371 23.1859 288.992 23.1843C290.678 23.1827 292.107 23.4266 293.281 23.9161C294.477 24.3843 295.437 24.97 296.164 25.6733C296.911 26.3553 297.456 27.0374 297.798 27.7197C298.162 28.402 298.355 28.9565 298.377 29.3832C298.398 29.6178 298.313 29.8206 298.122 29.9914C297.951 30.1623 297.749 30.2478 297.514 30.248L291.274 30.2541C291.039 30.2543 290.847 30.2012 290.698 30.0947C290.569 29.9668 290.452 29.8069 290.345 29.615C290.195 29.3165 290.035 29.082 289.864 28.9115C289.715 28.741 289.48 28.6559 289.16 28.6562C288.669 28.6566 288.339 28.8383 288.168 29.2011C287.998 29.564 287.903 30.0654 287.882 30.7054C287.862 31.6228 287.863 32.3801 287.886 32.9774C287.929 33.66 288.026 34.1719 288.176 34.5131C288.347 34.833 288.678 34.9926 289.168 34.9922C289.552 34.9918 289.808 34.9062 289.936 34.7354C290.085 34.5646 290.223 34.3298 290.351 34.031C290.436 33.8389 290.553 33.6895 290.702 33.5827C290.852 33.4545 291.043 33.3903 291.278 33.3901L297.518 33.384C297.753 33.3838 297.956 33.4689 298.126 33.6394C298.319 33.8099 298.404 34.0125 298.383 34.2472C298.362 34.5245 298.245 34.9193 298.033 35.4315C297.841 35.9224 297.522 36.456 297.075 37.0324C296.649 37.6089 296.074 38.1641 295.349 38.6981C294.625 39.2108 293.74 39.6384 292.695 39.9807C291.65 40.3017 290.424 40.4629 289.016 40.4643ZM308.41 40.4454C305.615 40.4481 303.385 39.7676 301.719 38.4039C300.075 37.0188 299.25 34.833 299.246 31.8463C299.246 31.8037 299.246 31.761 299.246 31.7183C299.246 31.6757 299.246 31.6437 299.246 31.6223C299.286 29.7876 299.679 28.2406 300.424 26.9812C301.19 25.7218 302.245 24.7714 303.588 24.1301C304.952 23.4887 306.541 23.1672 308.355 23.1654C310.445 23.1634 312.163 23.567 313.508 24.3764C314.853 25.1644 315.847 26.2194 316.489 27.5415C317.152 28.8422 317.484 30.2818 317.486 31.8605L317.488 32.8205C317.488 33.0552 317.403 33.2579 317.232 33.4288C317.062 33.5996 316.859 33.6851 316.625 33.6854L307.089 33.6947C307.089 33.716 307.089 33.7373 307.089 33.7587C307.089 33.78 307.089 33.812 307.089 33.8547C307.09 34.2813 307.122 34.644 307.186 34.9426C307.272 35.2198 307.411 35.433 307.603 35.5822C307.796 35.7313 308.041 35.8057 308.34 35.8054C308.468 35.8053 308.574 35.7839 308.66 35.7411C308.766 35.6984 308.862 35.6343 308.947 35.5488C309.054 35.4421 309.16 35.3353 309.267 35.2285C309.459 35.0363 309.618 34.9189 309.746 34.8761C309.874 34.8119 310.066 34.7798 310.322 34.7795L316.37 34.7736C316.584 34.7734 316.754 34.8372 316.882 34.9651C317.032 35.093 317.096 35.2636 317.075 35.4769C317.054 35.8823 316.863 36.3731 316.501 36.9495C316.161 37.5045 315.639 38.049 314.935 38.583C314.232 39.117 313.337 39.5659 312.249 39.9296C311.162 40.272 309.882 40.4439 308.41 40.4454ZM307.083 29.6947L309.643 29.6922L309.643 29.6602C309.643 29.1908 309.589 28.8069 309.482 28.5083C309.396 28.2097 309.257 27.9965 309.065 27.8687C308.873 27.7196 308.638 27.6451 308.361 27.6454C308.083 27.6457 307.849 27.7206 307.657 27.8701C307.465 27.9983 307.316 28.2118 307.21 28.5105C307.125 28.8093 307.083 29.1933 307.083 29.6627L307.083 29.6947ZM319.963 40.1141C319.728 40.1143 319.525 40.0292 319.355 39.8587C319.184 39.6882 319.098 39.4856 319.098 39.2509L319.078 24.339C319.077 24.1043 319.162 23.9015 319.333 23.7307C319.503 23.5599 319.706 23.4743 319.941 23.4741L331.621 23.4627C331.855 23.4625 332.058 23.5476 332.229 23.7181C332.4 23.8886 332.485 24.0912 332.486 24.3259L332.491 28.1979C332.491 28.4325 332.406 28.6353 332.236 28.8061C332.065 28.9769 331.863 29.0625 331.628 29.0627L326.54 29.0677L326.554 39.2437C326.554 39.4783 326.469 39.6811 326.299 39.8519C326.128 40.0227 325.926 40.1083 325.691 40.1085L319.963 40.1141ZM334.188 43.6202C333.953 43.6204 333.75 43.5353 333.579 43.3648C333.408 43.1943 333.323 42.9917 333.322 42.7571L333.313 35.3651C333.312 35.1304 333.397 34.9276 333.568 34.7568C333.738 34.586 333.941 34.5004 334.175 34.5002L334.623 34.4998C335.135 34.4993 335.498 34.2643 335.71 33.7947C335.944 33.3038 336.082 32.6637 336.124 31.8743C336.187 31.0636 336.218 30.1676 336.216 29.1862L336.21 24.3222C336.209 24.0876 336.294 23.8848 336.465 23.714C336.635 23.5431 336.838 23.4576 337.073 23.4574L351.665 23.4431C351.899 23.4429 352.102 23.528 352.273 23.6985C352.444 23.869 352.529 24.0716 352.53 24.3063L352.543 34.4823L353.791 34.4811C354.026 34.4808 354.229 34.566 354.4 34.7365C354.571 34.907 354.656 35.1095 354.657 35.3442L354.666 42.7362C354.667 42.9709 354.582 43.1736 354.411 43.3445C354.241 43.5153 354.038 43.6008 353.804 43.6011L348.076 43.6066C347.841 43.6069 347.638 43.5217 347.467 43.3512C347.296 43.1807 347.211 42.9782 347.21 42.7435L347.207 40.0875L340.775 40.0938L340.778 42.7498C340.779 42.9844 340.694 43.1872 340.523 43.358C340.353 43.5289 340.15 43.6144 339.916 43.6146L334.188 43.6202ZM342.687 34.4919L345.087 34.4896L345.08 29.0496L343.256 29.0513L343.257 29.9793C343.259 30.982 343.207 31.8674 343.101 32.6355C343.017 33.3822 342.879 34.001 342.687 34.4919ZM361.163 40.3939C359.947 40.3951 358.869 40.1721 357.93 39.725C356.99 39.2779 356.254 38.6707 355.719 37.9032C355.206 37.1357 354.949 36.2719 354.948 35.3119C354.946 33.7546 355.573 32.538 356.831 31.6621C358.11 30.7648 359.815 30.1338 361.948 29.7691L365.34 29.2218L365.34 29.1898C365.339 28.6351 365.285 28.2298 365.178 27.9739C365.092 27.718 364.825 27.5903 364.377 27.5907C364.079 27.591 363.833 27.6553 363.642 27.7834C363.471 27.8903 363.279 28.0505 363.066 28.264C362.832 28.4989 362.533 28.6165 362.171 28.6169L356.731 28.6222C356.517 28.6224 356.336 28.5586 356.186 28.4307C356.058 28.3028 356.005 28.1322 356.026 27.9189C356.047 27.5135 356.217 27.044 356.536 26.5104C356.855 25.9554 357.345 25.4216 358.006 24.9089C358.688 24.3963 359.551 23.9688 360.596 23.6264C361.662 23.284 362.942 23.1121 364.435 23.1107C365.886 23.1092 367.145 23.268 368.212 23.587C369.3 23.8846 370.197 24.3317 370.902 24.9283C371.607 25.5037 372.13 26.2285 372.473 27.1028C372.837 27.9558 373.019 28.9263 373.021 30.0143L373.033 39.1983C373.033 39.4329 372.948 39.6357 372.778 39.8065C372.607 39.9774 372.405 40.0629 372.17 40.0631L366.57 40.0686C366.335 40.0688 366.133 39.9837 365.962 39.8132C365.791 39.6427 365.705 39.4401 365.705 39.2054L365.704 38.3094C365.406 38.7364 365.022 39.1101 364.553 39.4306C364.106 39.7297 363.594 39.9648 363.018 40.1361C362.442 40.3073 361.824 40.3932 361.163 40.3939ZM363.364 35.6557C363.791 35.6553 364.153 35.5696 364.452 35.3987C364.772 35.2277 365.017 34.9608 365.187 34.5979C365.357 34.2138 365.442 33.7444 365.441 33.1897L365.441 33.1577L363.553 33.5755C362.999 33.7041 362.626 33.8751 362.434 34.0886C362.242 34.3021 362.147 34.5262 362.147 34.7609C362.147 34.9102 362.19 35.0595 362.276 35.2088C362.382 35.3367 362.521 35.4432 362.692 35.5284C362.884 35.6135 363.108 35.656 363.364 35.6557Z" fill="white"/>
<path d="M152.05 89.32C149.895 89.32 148.156 89.0213 146.834 88.424C145.511 87.8053 144.53 86.8133 143.89 85.448C143.271 84.0613 142.898 82.216 142.77 79.912C142.748 79.2933 142.738 78.6427 142.738 77.96C142.738 77.256 142.748 76.6053 142.77 76.008C142.855 74.344 143.079 72.9253 143.442 71.752C143.804 70.5787 144.338 69.5867 145.042 68.776C145.767 67.944 146.695 67.24 147.826 66.664C148.978 66.088 150.364 65.5867 151.986 65.16C153.628 64.712 155.548 64.264 157.746 63.816C157.98 63.7733 158.204 63.816 158.418 63.944C158.631 64.072 158.748 64.2747 158.77 64.552L159.57 68.872C159.612 69.1493 159.57 69.384 159.442 69.576C159.314 69.768 159.132 69.8853 158.898 69.928C157.212 70.184 155.815 70.4293 154.706 70.664C153.618 70.8987 152.743 71.176 152.082 71.496C151.42 71.7947 150.93 72.1893 150.61 72.68C150.311 73.1493 150.108 73.7467 150.002 74.472C149.916 75.1973 149.874 76.104 149.874 77.192L149.01 75.752C149.244 75.432 149.586 75.1333 150.034 74.856C150.482 74.5787 150.994 74.3547 151.57 74.184C152.167 74.0133 152.796 73.928 153.458 73.928C155.122 73.928 156.519 74.1733 157.65 74.664C158.78 75.1333 159.644 75.8373 160.242 76.776C160.86 77.7147 161.223 78.888 161.33 80.296C161.394 81.1707 161.394 82.056 161.33 82.952C161.223 84.3387 160.807 85.512 160.082 86.472C159.378 87.4107 158.354 88.1253 157.01 88.616C155.666 89.0853 154.012 89.32 152.05 89.32ZM152.05 84.776C152.668 84.776 153.052 84.616 153.202 84.296C153.372 83.976 153.468 83.4853 153.49 82.824C153.511 82.5253 153.522 82.12 153.522 81.608C153.522 81.096 153.511 80.7013 153.49 80.424C153.468 79.8053 153.383 79.336 153.234 79.016C153.084 78.6747 152.732 78.504 152.178 78.504C151.516 78.504 151.1 78.6747 150.93 79.016C150.759 79.336 150.652 79.8053 150.61 80.424C150.588 80.7013 150.578 81.096 150.578 81.608C150.578 82.12 150.588 82.5253 150.61 82.824C150.652 83.4853 150.748 83.976 150.898 84.296C151.068 84.616 151.452 84.776 152.05 84.776ZM163.973 89C163.738 89 163.535 88.9147 163.365 88.744C163.194 88.5733 163.109 88.3707 163.109 88.136V73.224C163.109 72.9893 163.194 72.7867 163.365 72.616C163.535 72.4453 163.738 72.36 163.973 72.36H169.733C169.967 72.36 170.17 72.4453 170.341 72.616C170.511 72.7867 170.597 72.9893 170.597 73.224V77.192H173.157C175.29 77.192 177.018 77.7147 178.341 78.76C179.663 79.8053 180.325 81.256 180.325 83.112C180.325 84.968 179.663 86.4187 178.341 87.464C177.018 88.488 175.29 89 173.157 89H163.973ZM170.437 84.232H172.517C172.943 84.232 173.263 84.136 173.477 83.944C173.69 83.752 173.797 83.4747 173.797 83.112C173.797 82.7493 173.69 82.472 173.477 82.28C173.263 82.0667 172.943 81.96 172.517 81.96H170.437V84.232ZM182.885 89C182.65 89 182.447 88.9147 182.277 88.744C182.106 88.5733 182.021 88.3707 182.021 88.136V73.224C182.021 72.9893 182.106 72.7867 182.277 72.616C182.447 72.4453 182.65 72.36 182.885 72.36H188.613C188.847 72.36 189.05 72.4453 189.221 72.616C189.391 72.7867 189.477 72.9893 189.477 73.224V88.136C189.477 88.3707 189.391 88.5733 189.221 88.744C189.05 88.9147 188.847 89 188.613 89H182.885ZM196.962 89C196.727 89 196.524 88.9147 196.354 88.744C196.183 88.5733 196.098 88.3707 196.098 88.136V77.96H191.842C191.607 77.96 191.404 77.8747 191.234 77.704C191.063 77.5333 190.978 77.3307 190.978 77.096V73.224C190.978 72.9893 191.063 72.7867 191.234 72.616C191.404 72.4453 191.607 72.36 191.842 72.36H207.682C207.916 72.36 208.119 72.4453 208.29 72.616C208.46 72.7867 208.546 72.9893 208.546 73.224V77.096C208.546 77.3307 208.46 77.5333 208.29 77.704C208.119 77.8747 207.916 77.96 207.682 77.96H203.426V88.136C203.426 88.3707 203.34 88.5733 203.17 88.744C202.999 88.9147 202.796 89 202.562 89H196.962ZM210.693 89C210.458 89 210.255 88.9147 210.085 88.744C209.914 88.5733 209.829 88.3707 209.829 88.136V73.224C209.829 72.9893 209.914 72.7867 210.085 72.616C210.255 72.4453 210.458 72.36 210.693 72.36H216.453C216.687 72.36 216.89 72.4453 217.061 72.616C217.231 72.7867 217.317 72.9893 217.317 73.224V77.192H219.877C222.01 77.192 223.738 77.7147 225.061 78.76C226.383 79.8053 227.045 81.256 227.045 83.112C227.045 84.968 226.383 86.4187 225.061 87.464C223.738 88.488 222.01 89 219.877 89H210.693ZM217.157 84.232H219.237C219.663 84.232 219.983 84.136 220.197 83.944C220.41 83.752 220.517 83.4747 220.517 83.112C220.517 82.7493 220.41 82.472 220.197 82.28C219.983 82.0667 219.663 81.96 219.237 81.96H217.157V84.232ZM234.819 89C234.584 89 234.382 88.9147 234.211 88.744C234.04 88.5733 233.955 88.3707 233.955 88.136V73.224C233.955 72.9893 234.04 72.7867 234.211 72.616C234.382 72.4453 234.584 72.36 234.819 72.36H240.547C240.782 72.36 240.984 72.4453 241.155 72.616C241.326 72.7867 241.411 72.9893 241.411 73.224V77.8H244.611V73.224C244.611 72.9893 244.696 72.7867 244.867 72.616C245.038 72.4453 245.24 72.36 245.475 72.36H251.203C251.438 72.36 251.64 72.4453 251.811 72.616C251.982 72.7867 252.067 72.9893 252.067 73.224V88.136C252.067 88.3707 251.982 88.5733 251.811 88.744C251.64 88.9147 251.438 89 251.203 89H245.475C245.24 89 245.038 88.9147 244.867 88.744C244.696 88.5733 244.611 88.3707 244.611 88.136V83.4H241.411V88.136C241.411 88.3707 241.326 88.5733 241.155 88.744C240.984 88.9147 240.782 89 240.547 89H234.819ZM259.846 89.32C258.63 89.32 257.552 89.096 256.614 88.648C255.675 88.2 254.939 87.592 254.406 86.824C253.894 86.056 253.638 85.192 253.638 84.232C253.638 82.6747 254.267 81.4587 255.526 80.584C256.806 79.688 258.512 79.0587 260.646 78.696L264.038 78.152V78.12C264.038 77.5653 263.984 77.16 263.878 76.904C263.792 76.648 263.526 76.52 263.078 76.52C262.779 76.52 262.534 76.584 262.342 76.712C262.171 76.8187 261.979 76.9787 261.766 77.192C261.531 77.4267 261.232 77.544 260.87 77.544H255.43C255.216 77.544 255.035 77.48 254.886 77.352C254.758 77.224 254.704 77.0533 254.726 76.84C254.747 76.4347 254.918 75.9653 255.238 75.432C255.558 74.8773 256.048 74.344 256.71 73.832C257.392 73.32 258.256 72.8933 259.302 72.552C260.368 72.2107 261.648 72.04 263.142 72.04C264.592 72.04 265.851 72.2 266.918 72.52C268.006 72.8187 268.902 73.2667 269.606 73.864C270.31 74.44 270.832 75.1653 271.174 76.04C271.536 76.8933 271.718 77.864 271.718 78.952V88.136C271.718 88.3707 271.632 88.5733 271.462 88.744C271.291 88.9147 271.088 89 270.854 89H265.254C265.019 89 264.816 88.9147 264.646 88.744C264.475 88.5733 264.39 88.3707 264.39 88.136V87.24C264.091 87.6667 263.707 88.04 263.238 88.36C262.79 88.6587 262.278 88.8933 261.702 89.064C261.126 89.2347 260.507 89.32 259.846 89.32ZM262.054 84.584C262.48 84.584 262.843 84.4987 263.142 84.328C263.462 84.1573 263.707 83.8907 263.878 83.528C264.048 83.144 264.134 82.6747 264.134 82.12V82.088L262.246 82.504C261.691 82.632 261.318 82.8027 261.126 83.016C260.934 83.2293 260.838 83.4533 260.838 83.688C260.838 83.8373 260.88 83.9867 260.966 84.136C261.072 84.264 261.211 84.3707 261.382 84.456C261.574 84.5413 261.798 84.584 262.054 84.584ZM287.578 89.32C285.956 89.32 284.484 89.0427 283.162 88.488C281.839 87.912 280.772 87.08 279.962 85.992C279.151 84.904 278.703 83.5707 278.618 81.992C278.596 81.6507 278.586 81.224 278.586 80.712C278.586 80.2 278.596 79.7627 278.618 79.4C278.703 77.8213 279.14 76.488 279.93 75.4C280.74 74.2907 281.807 73.4587 283.13 72.904C284.474 72.328 285.956 72.04 287.578 72.04C289.263 72.04 290.692 72.2853 291.866 72.776C293.06 73.2453 294.02 73.832 294.746 74.536C295.492 75.2187 296.036 75.9013 296.378 76.584C296.74 77.2667 296.932 77.8213 296.954 78.248C296.975 78.4827 296.89 78.6853 296.698 78.856C296.527 79.0267 296.324 79.112 296.09 79.112H289.85C289.615 79.112 289.423 79.0587 289.274 78.952C289.146 78.824 289.028 78.664 288.922 78.472C288.772 78.1733 288.612 77.9387 288.442 77.768C288.292 77.5973 288.058 77.512 287.738 77.512C287.247 77.512 286.916 77.6933 286.746 78.056C286.575 78.4187 286.479 78.92 286.458 79.56C286.436 80.4773 286.436 81.2347 286.458 81.832C286.5 82.5147 286.596 83.0267 286.746 83.368C286.916 83.688 287.247 83.848 287.738 83.848C288.122 83.848 288.378 83.7627 288.506 83.592C288.655 83.4213 288.794 83.1867 288.922 82.888C289.007 82.696 289.124 82.5467 289.274 82.44C289.423 82.312 289.615 82.248 289.85 82.248H296.09C296.324 82.248 296.527 82.3333 296.698 82.504C296.89 82.6747 296.975 82.8773 296.954 83.112C296.932 83.3893 296.815 83.784 296.602 84.296C296.41 84.7867 296.09 85.32 295.642 85.896C295.215 86.472 294.639 87.0267 293.914 87.56C293.188 88.072 292.303 88.4987 291.258 88.84C290.212 89.16 288.986 89.32 287.578 89.32ZM299.228 89C298.993 89 298.79 88.9147 298.62 88.744C298.449 88.5733 298.364 88.3707 298.364 88.136V73.224C298.364 72.9893 298.449 72.7867 298.62 72.616C298.79 72.4453 298.993 72.36 299.228 72.36H307.452C310.438 72.36 312.572 72.808 313.852 73.704C315.153 74.6 315.804 75.816 315.804 77.352C315.804 78.0347 315.665 78.632 315.388 79.144C315.11 79.656 314.758 80.0933 314.332 80.456C314.95 80.8187 315.452 81.2773 315.836 81.832C316.241 82.3653 316.444 83.0587 316.444 83.912C316.444 85.448 315.793 86.6853 314.492 87.624C313.212 88.5413 311.078 89 308.092 89H299.228ZM305.532 84.616H307.772C308.134 84.616 308.412 84.5627 308.604 84.456C308.817 84.3493 308.924 84.136 308.924 83.816C308.924 83.496 308.817 83.2827 308.604 83.176C308.412 83.048 308.134 82.984 307.772 82.984H305.532V84.616ZM305.532 78.376H307.772C308.156 78.376 308.444 78.3227 308.636 78.216C308.828 78.1093 308.924 77.896 308.924 77.576C308.924 77.256 308.817 77.0427 308.604 76.936C308.412 76.808 308.134 76.744 307.772 76.744H305.532V78.376ZM329.39 89C329.155 89 328.952 88.9147 328.782 88.744C328.611 88.5733 328.526 88.3707 328.526 88.136V84.168H326.702V84.008C324.206 84.008 322.264 83.5173 320.878 82.536C319.491 81.5333 318.798 80.104 318.798 78.248C318.798 76.392 319.459 74.952 320.782 73.928C322.104 72.8827 323.832 72.36 325.966 72.36H335.31C335.544 72.36 335.747 72.4453 335.918 72.616C336.088 72.7867 336.174 72.9893 336.174 73.224V88.136C336.174 88.3707 336.088 88.5733 335.918 88.744C335.747 88.9147 335.544 89 335.31 89H329.39ZM318.862 89C318.648 89 318.478 88.936 318.35 88.808C318.222 88.68 318.158 88.5307 318.158 88.36C318.158 88.3173 318.168 88.264 318.19 88.2C318.211 88.136 318.232 88.072 318.254 88.008L321.358 82.408L327.406 83.688L325.326 88.52C325.262 88.6693 325.166 88.7867 325.038 88.872C324.931 88.9573 324.792 89 324.622 89H318.862ZM326.606 79.4H328.686V77.128H326.606C326.179 77.128 325.859 77.224 325.646 77.416C325.432 77.608 325.326 77.8853 325.326 78.248C325.326 78.6107 325.432 78.8987 325.646 79.112C325.859 79.304 326.179 79.4 326.606 79.4ZM346.646 89.32C344.982 89.32 343.606 89.1493 342.518 88.808C341.452 88.4667 340.609 88.0293 339.99 87.496C339.393 86.9627 338.956 86.408 338.678 85.832C338.422 85.2347 338.252 84.7013 338.166 84.232C338.124 84.0827 338.166 83.9547 338.294 83.848C338.422 83.7413 338.55 83.688 338.678 83.688H344.278C344.556 83.688 344.748 83.7307 344.854 83.816C344.961 83.9013 345.068 83.9867 345.174 84.072C345.302 84.1573 345.462 84.2427 345.654 84.328C345.846 84.4133 346.156 84.456 346.582 84.456C346.902 84.456 347.158 84.424 347.35 84.36C347.542 84.2747 347.67 84.168 347.734 84.04C347.82 83.8907 347.862 83.72 347.862 83.528C347.862 83.2933 347.777 83.1013 347.606 82.952C347.457 82.7813 347.105 82.696 346.55 82.696H344.726C344.534 82.696 344.374 82.6213 344.246 82.472C344.118 82.3227 344.054 82.1627 344.054 81.992V79.336C344.054 79.1653 344.118 79.0053 344.246 78.856C344.374 78.7067 344.534 78.632 344.726 78.632H346.55C347.041 78.632 347.361 78.5573 347.51 78.408C347.66 78.2587 347.734 78.056 347.734 77.8C347.734 77.6293 347.692 77.48 347.606 77.352C347.521 77.224 347.393 77.128 347.222 77.064C347.073 77 346.86 76.968 346.582 76.968C346.177 76.968 345.868 77 345.654 77.064C345.462 77.128 345.281 77.2347 345.11 77.384C345.004 77.4693 344.897 77.5547 344.79 77.64C344.684 77.7253 344.492 77.768 344.214 77.768H338.806C338.657 77.768 338.529 77.7147 338.422 77.608C338.316 77.5013 338.273 77.3733 338.294 77.224C338.38 76.7547 338.561 76.2213 338.838 75.624C339.116 75.0267 339.553 74.4613 340.15 73.928C340.769 73.3733 341.601 72.9253 342.646 72.584C343.692 72.2213 345.025 72.04 346.646 72.04C348.652 72.04 350.252 72.2427 351.446 72.648C352.662 73.032 353.537 73.5867 354.07 74.312C354.604 75.016 354.87 75.8587 354.87 76.84C354.87 77.48 354.71 78.12 354.39 78.76C354.07 79.4 353.516 79.9013 352.726 80.264C353.708 80.6053 354.369 81.1707 354.71 81.96C355.073 82.728 355.254 83.4853 355.254 84.232C355.254 85.192 354.924 86.056 354.262 86.824C353.601 87.592 352.63 88.2 351.35 88.648C350.07 89.096 348.502 89.32 346.646 89.32ZM357.995 89C357.761 89 357.558 88.9147 357.387 88.744C357.217 88.5733 357.131 88.3707 357.131 88.136V73.224C357.131 72.9893 357.217 72.7867 357.387 72.616C357.558 72.4453 357.761 72.36 357.995 72.36H363.723C363.958 72.36 364.161 72.4453 364.331 72.616C364.502 72.7867 364.587 72.9893 364.587 73.224V83.304L362.635 82.728L369.035 72.904C369.142 72.7333 369.27 72.6053 369.419 72.52C369.59 72.4133 369.771 72.36 369.963 72.36H375.051C375.286 72.36 375.489 72.4453 375.659 72.616C375.83 72.7867 375.915 72.9893 375.915 73.224V88.136C375.915 88.3707 375.83 88.5733 375.659 88.744C375.489 88.9147 375.286 89 375.051 89H369.323C369.089 89 368.886 88.9147 368.715 88.744C368.545 88.5733 368.459 88.3707 368.459 88.136V78.056L370.411 78.632L364.011 88.456C363.905 88.6267 363.766 88.7653 363.595 88.872C363.446 88.9573 363.275 89 363.083 89H357.995ZM391.488 89.32C389.866 89.32 388.394 89.0427 387.072 88.488C385.749 87.912 384.682 87.08 383.872 85.992C383.061 84.904 382.613 83.5707 382.528 81.992C382.506 81.6507 382.496 81.224 382.496 80.712C382.496 80.2 382.506 79.7627 382.528 79.4C382.613 77.8213 383.05 76.488 383.84 75.4C384.65 74.2907 385.717 73.4587 387.04 72.904C388.384 72.328 389.866 72.04 391.488 72.04C393.173 72.04 394.602 72.2853 395.776 72.776C396.97 73.2453 397.93 73.832 398.656 74.536C399.402 75.2187 399.946 75.9013 400.288 76.584C400.65 77.2667 400.842 77.8213 400.864 78.248C400.885 78.4827 400.8 78.6853 400.608 78.856C400.437 79.0267 400.234 79.112 400 79.112H393.76C393.525 79.112 393.333 79.0587 393.184 78.952C393.056 78.824 392.938 78.664 392.832 78.472C392.682 78.1733 392.522 77.9387 392.352 77.768C392.202 77.5973 391.968 77.512 391.648 77.512C391.157 77.512 390.826 77.6933 390.656 78.056C390.485 78.4187 390.389 78.92 390.368 79.56C390.346 80.4773 390.346 81.2347 390.368 81.832C390.41 82.5147 390.506 83.0267 390.656 83.368C390.826 83.688 391.157 83.848 391.648 83.848C392.032 83.848 392.288 83.7627 392.416 83.592C392.565 83.4213 392.704 83.1867 392.832 82.888C392.917 82.696 393.034 82.5467 393.184 82.44C393.333 82.312 393.525 82.248 393.76 82.248H400C400.234 82.248 400.437 82.3333 400.608 82.504C400.8 82.6747 400.885 82.8773 400.864 83.112C400.842 83.3893 400.725 83.784 400.512 84.296C400.32 84.7867 400 85.32 399.552 85.896C399.125 86.472 398.549 87.0267 397.824 87.56C397.098 88.072 396.213 88.4987 395.168 88.84C394.122 89.16 392.896 89.32 391.488 89.32ZM408.435 89C408.201 89 407.998 88.9147 407.827 88.744C407.657 88.5733 407.571 88.3707 407.571 88.136V73.224C407.571 72.9893 407.657 72.7867 407.827 72.616C407.998 72.4453 408.201 72.36 408.435 72.36H414.163C414.398 72.36 414.601 72.4453 414.771 72.616C414.942 72.7867 415.027 72.9893 415.027 73.224V77.8H418.227V73.224C418.227 72.9893 418.313 72.7867 418.483 72.616C418.654 72.4453 418.857 72.36 419.091 72.36H424.819C425.054 72.36 425.257 72.4453 425.427 72.616C425.598 72.7867 425.683 72.9893 425.683 73.224V88.136C425.683 88.3707 425.598 88.5733 425.427 88.744C425.257 88.9147 425.054 89 424.819 89H419.091C418.857 89 418.654 88.9147 418.483 88.744C418.313 88.5733 418.227 88.3707 418.227 88.136V83.4H415.027V88.136C415.027 88.3707 414.942 88.5733 414.771 88.744C414.601 88.9147 414.398 89 414.163 89H408.435ZM433.462 89.32C432.246 89.32 431.169 89.096 430.23 88.648C429.291 88.2 428.555 87.592 428.022 86.824C427.51 86.056 427.254 85.192 427.254 84.232C427.254 82.6747 427.883 81.4587 429.142 80.584C430.422 79.688 432.129 79.0587 434.262 78.696L437.654 78.152V78.12C437.654 77.5653 437.601 77.16 437.494 76.904C437.409 76.648 437.142 76.52 436.694 76.52C436.395 76.52 436.15 76.584 435.958 76.712C435.787 76.8187 435.595 76.9787 435.382 77.192C435.147 77.4267 434.849 77.544 434.486 77.544H429.046C428.833 77.544 428.651 77.48 428.502 77.352C428.374 77.224 428.321 77.0533 428.342 76.84C428.363 76.4347 428.534 75.9653 428.854 75.432C429.174 74.8773 429.665 74.344 430.326 73.832C431.009 73.32 431.873 72.8933 432.918 72.552C433.985 72.2107 435.265 72.04 436.758 72.04C438.209 72.04 439.467 72.2 440.534 72.52C441.622 72.8187 442.518 73.2667 443.222 73.864C443.926 74.44 444.449 75.1653 444.79 76.04C445.153 76.8933 445.334 77.864 445.334 78.952V88.136C445.334 88.3707 445.249 88.5733 445.078 88.744C444.907 88.9147 444.705 89 444.47 89H438.87C438.635 89 438.433 88.9147 438.262 88.744C438.091 88.5733 438.006 88.3707 438.006 88.136V87.24C437.707 87.6667 437.323 88.04 436.854 88.36C436.406 88.6587 435.894 88.8933 435.318 89.064C434.742 89.2347 434.123 89.32 433.462 89.32ZM435.67 84.584C436.097 84.584 436.459 84.4987 436.758 84.328C437.078 84.1573 437.323 83.8907 437.494 83.528C437.665 83.144 437.75 82.6747 437.75 82.12V82.088L435.862 82.504C435.307 82.632 434.934 82.8027 434.742 83.016C434.55 83.2293 434.454 83.4533 434.454 83.688C434.454 83.8373 434.497 83.9867 434.582 84.136C434.689 84.264 434.827 84.3707 434.998 84.456C435.19 84.5413 435.414 84.584 435.67 84.584ZM448.28 89C448.046 89 447.843 88.9147 447.672 88.744C447.502 88.5733 447.416 88.3707 447.416 88.136V73.224C447.416 72.9893 447.502 72.7867 447.672 72.616C447.843 72.4453 448.046 72.36 448.28 72.36H453.688C453.923 72.36 454.126 72.4453 454.296 72.616C454.467 72.7867 454.552 72.9893 454.552 73.224V83.4H456.408V73.224C456.408 72.9893 456.494 72.7867 456.664 72.616C456.835 72.4453 457.038 72.36 457.272 72.36H462.2C462.435 72.36 462.638 72.4453 462.808 72.616C462.979 72.7867 463.064 72.9893 463.064 73.224V83.4H464.92V73.224C464.92 72.9893 465.006 72.7867 465.176 72.616C465.347 72.4453 465.55 72.36 465.784 72.36H471.192C471.427 72.36 471.63 72.4453 471.8 72.616C471.971 72.7867 472.056 72.9893 472.056 73.224V88.136C472.056 88.3707 471.971 88.5733 471.8 88.744C471.63 88.9147 471.427 89 471.192 89H448.28ZM475.39 89C475.156 89 474.953 88.9147 474.782 88.744C474.612 88.5733 474.526 88.3707 474.526 88.136V73.224C474.526 72.9893 474.612 72.7867 474.782 72.616C474.953 72.4453 475.156 72.36 475.39 72.36H481.118C481.353 72.36 481.556 72.4453 481.726 72.616C481.897 72.7867 481.982 72.9893 481.982 73.224V83.304L480.03 82.728L486.43 72.904C486.537 72.7333 486.665 72.6053 486.814 72.52C486.985 72.4133 487.166 72.36 487.358 72.36H492.446C492.681 72.36 492.884 72.4453 493.054 72.616C493.225 72.7867 493.31 72.9893 493.31 73.224V88.136C493.31 88.3707 493.225 88.5733 493.054 88.744C492.884 88.9147 492.681 89 492.446 89H486.718C486.484 89 486.281 88.9147 486.11 88.744C485.94 88.5733 485.854 88.3707 485.854 88.136V78.056L487.806 78.632L481.406 88.456C481.3 88.6267 481.161 88.7653 480.99 88.872C480.841 88.9573 480.67 89 480.478 89H475.39ZM495.745 89C495.574 89 495.425 88.936 495.297 88.808C495.169 88.68 495.105 88.5307 495.105 88.36V73C495.105 72.8293 495.169 72.68 495.297 72.552C495.425 72.424 495.574 72.36 495.745 72.36H501.217C501.644 72.36 501.985 72.5733 502.241 73L505.697 78.696L509.153 73C509.409 72.5733 509.75 72.36 510.177 72.36H515.649C515.841 72.36 516.001 72.424 516.129 72.552C516.257 72.68 516.321 72.8293 516.321 73V88.36C516.321 88.5307 516.257 88.68 516.129 88.808C516.001 88.936 515.841 89 515.649 89H509.633C509.441 89 509.281 88.936 509.153 88.808C509.046 88.68 508.993 88.5307 508.993 88.36V79.912L510.913 80.456L507.393 86.056C507.286 86.248 507.169 86.3973 507.041 86.504C506.913 86.6107 506.742 86.664 506.529 86.664H504.865C504.694 86.664 504.534 86.6213 504.385 86.536C504.236 86.4293 504.097 86.2693 503.969 86.056L500.513 80.424L502.401 79.912V88.36C502.401 88.5307 502.337 88.68 502.209 88.808C502.081 88.936 501.932 89 501.761 89H495.745ZM519.642 89C519.407 89 519.204 88.9147 519.034 88.744C518.863 88.5733 518.778 88.3707 518.778 88.136V73.224C518.778 72.9893 518.863 72.7867 519.034 72.616C519.204 72.4453 519.407 72.36 519.642 72.36H525.37C525.604 72.36 525.807 72.4453 525.978 72.616C526.148 72.7867 526.234 72.9893 526.234 73.224V83.304L524.282 82.728L530.682 72.904C530.788 72.7333 530.916 72.6053 531.066 72.52C531.236 72.4133 531.418 72.36 531.61 72.36H536.698C536.932 72.36 537.135 72.4453 537.306 72.616C537.476 72.7867 537.562 72.9893 537.562 73.224V88.136C537.562 88.3707 537.476 88.5733 537.306 88.744C537.135 88.9147 536.932 89 536.698 89H530.97C530.735 89 530.532 88.9147 530.362 88.744C530.191 88.5733 530.106 88.3707 530.106 88.136V78.056L532.058 78.632L525.658 88.456C525.551 88.6267 525.412 88.7653 525.242 88.872C525.092 88.9573 524.922 89 524.73 89H519.642ZM545.518 89C545.283 89 545.08 88.9147 544.91 88.744C544.739 88.5733 544.654 88.3707 544.654 88.136V73.224C544.654 72.9893 544.739 72.7867 544.91 72.616C545.08 72.4453 545.283 72.36 545.518 72.36H551.118C551.352 72.36 551.555 72.4453 551.726 72.616C551.896 72.7867 551.982 72.9893 551.982 73.224V77.8H552.686L555.438 72.904C555.48 72.8187 555.576 72.712 555.726 72.584C555.875 72.4347 556.088 72.36 556.366 72.36H562.51C562.723 72.36 562.904 72.4347 563.054 72.584C563.203 72.7333 563.278 72.9147 563.278 73.128C563.278 73.2133 563.256 73.3093 563.214 73.416C563.192 73.5013 563.16 73.5653 563.118 73.608L559.054 80.488L563.918 87.816C564.003 87.944 564.046 88.0827 564.046 88.232C564.046 88.4453 563.971 88.6267 563.822 88.776C563.672 88.9253 563.491 89 563.278 89H556.558C556.302 89 556.099 88.9467 555.95 88.84C555.8 88.7333 555.672 88.6053 555.566 88.456L552.526 83.4H551.982V88.136C551.982 88.3707 551.896 88.5733 551.726 88.744C551.555 88.9147 551.352 89 551.118 89H545.518ZM565.55 89C565.316 89 565.113 88.9147 564.942 88.744C564.772 88.5733 564.686 88.3707 564.686 88.136V83.944C564.686 83.4747 564.974 83.1867 565.55 83.08C566.126 82.9733 566.521 82.7067 566.734 82.28C566.948 81.8533 567.065 81.288 567.086 80.584C567.129 79.8587 567.15 79.0267 567.15 78.088V73.224C567.15 72.9893 567.236 72.7867 567.406 72.616C567.577 72.4453 567.78 72.36 568.014 72.36H582.606C582.841 72.36 583.044 72.4453 583.214 72.616C583.385 72.7867 583.47 72.9893 583.47 73.224V88.136C583.47 88.3707 583.385 88.5733 583.214 88.744C583.044 88.9147 582.841 89 582.606 89H576.878C576.644 89 576.441 88.9147 576.27 88.744C576.1 88.5733 576.014 88.3707 576.014 88.136V77.96H574.19V78.888C574.19 80.8933 574.084 82.5573 573.87 83.88C573.657 85.2027 573.241 86.2373 572.622 86.984C572.025 87.7093 571.15 88.232 569.998 88.552C568.868 88.8507 567.385 89 565.55 89ZM586.8 89C586.566 89 586.363 88.9147 586.192 88.744C586.022 88.5733 585.936 88.3707 585.936 88.136V73.224C585.936 72.9893 586.022 72.7867 586.192 72.616C586.363 72.4453 586.566 72.36 586.8 72.36H592.528C592.763 72.36 592.966 72.4453 593.136 72.616C593.307 72.7867 593.392 72.9893 593.392 73.224V83.304L591.44 82.728L597.84 72.904C597.947 72.7333 598.075 72.6053 598.224 72.52C598.395 72.4133 598.576 72.36 598.768 72.36H603.856C604.091 72.36 604.294 72.4453 604.464 72.616C604.635 72.7867 604.72 72.9893 604.72 73.224V88.136C604.72 88.3707 604.635 88.5733 604.464 88.744C604.294 88.9147 604.091 89 603.856 89H598.128C597.894 89 597.691 88.9147 597.52 88.744C597.35 88.5733 597.264 88.3707 597.264 88.136V78.056L599.216 78.632L592.816 88.456C592.71 88.6267 592.571 88.7653 592.4 88.872C592.251 88.9573 592.08 89 591.888 89H586.8ZM615.123 89.32C612.328 89.32 610.099 88.6373 608.435 87.272C606.792 85.8853 605.971 83.6987 605.971 80.712C605.971 80.6693 605.971 80.6267 605.971 80.584C605.971 80.5413 605.971 80.5093 605.971 80.488C606.014 78.6533 606.408 77.1067 607.155 75.848C607.923 74.5893 608.979 73.64 610.323 73C611.688 72.36 613.278 72.04 615.091 72.04C617.182 72.04 618.899 72.4453 620.243 73.256C621.587 74.0453 622.579 75.1013 623.219 76.424C623.88 77.7253 624.211 79.1653 624.211 80.744V81.704C624.211 81.9387 624.126 82.1413 623.955 82.312C623.784 82.4827 623.582 82.568 623.347 82.568H613.811C613.811 82.5893 613.811 82.6107 613.811 82.632C613.811 82.6533 613.811 82.6853 613.811 82.728C613.811 83.1547 613.843 83.5173 613.907 83.816C613.992 84.0933 614.131 84.3067 614.323 84.456C614.515 84.6053 614.76 84.68 615.059 84.68C615.187 84.68 615.294 84.6587 615.379 84.616C615.486 84.5733 615.582 84.5093 615.667 84.424C615.774 84.3173 615.88 84.2107 615.987 84.104C616.179 83.912 616.339 83.7947 616.467 83.752C616.595 83.688 616.787 83.656 617.043 83.656H623.091C623.304 83.656 623.475 83.72 623.603 83.848C623.752 83.976 623.816 84.1467 623.795 84.36C623.774 84.7653 623.582 85.256 623.219 85.832C622.878 86.3867 622.355 86.9307 621.651 87.464C620.947 87.9973 620.051 88.4453 618.963 88.808C617.875 89.1493 616.595 89.32 615.123 89.32ZM613.811 78.568H616.371V78.536C616.371 78.0667 616.318 77.6827 616.211 77.384C616.126 77.0853 615.987 76.872 615.795 76.744C615.603 76.5947 615.368 76.52 615.091 76.52C614.814 76.52 614.579 76.5947 614.387 76.744C614.195 76.872 614.046 77.0853 613.939 77.384C613.854 77.6827 613.811 78.0667 613.811 78.536V78.568ZM626.677 89C626.442 89 626.239 88.9147 626.069 88.744C625.898 88.5733 625.813 88.3707 625.813 88.136V73.224C625.813 72.9893 625.898 72.7867 626.069 72.616C626.239 72.4453 626.442 72.36 626.677 72.36H632.405C632.639 72.36 632.842 72.4453 633.013 72.616C633.183 72.7867 633.269 72.9893 633.269 73.224V77.8H636.469V73.224C636.469 72.9893 636.554 72.7867 636.725 72.616C636.895 72.4453 637.098 72.36 637.333 72.36H643.061C643.295 72.36 643.498 72.4453 643.669 72.616C643.839 72.7867 643.925 72.9893 643.925 73.224V88.136C643.925 88.3707 643.839 88.5733 643.669 88.744C643.498 88.9147 643.295 89 643.061 89H637.333C637.098 89 636.895 88.9147 636.725 88.744C636.554 88.5733 636.469 88.3707 636.469 88.136V83.4H633.269V88.136C633.269 88.3707 633.183 88.5733 633.013 88.744C632.842 88.9147 632.639 89 632.405 89H626.677ZM651.415 89C651.181 89 650.978 88.9147 650.807 88.744C650.637 88.5733 650.551 88.3707 650.551 88.136V77.96H646.295C646.061 77.96 645.858 77.8747 645.687 77.704C645.517 77.5333 645.431 77.3307 645.431 77.096V73.224C645.431 72.9893 645.517 72.7867 645.687 72.616C645.858 72.4453 646.061 72.36 646.295 72.36H662.135C662.37 72.36 662.573 72.4453 662.743 72.616C662.914 72.7867 662.999 72.9893 662.999 73.224V77.096C662.999 77.3307 662.914 77.5333 662.743 77.704C662.573 77.8747 662.37 77.96 662.135 77.96H657.879V88.136C657.879 88.3707 657.794 88.5733 657.623 88.744C657.453 88.9147 657.25 89 657.015 89H651.415ZM669.595 89.32C668.379 89.32 667.301 89.096 666.363 88.648C665.424 88.2 664.688 87.592 664.155 86.824C663.643 86.056 663.387 85.192 663.387 84.232C663.387 82.6747 664.016 81.4587 665.275 80.584C666.555 79.688 668.261 79.0587 670.395 78.696L673.787 78.152V78.12C673.787 77.5653 673.733 77.16 673.627 76.904C673.541 76.648 673.275 76.52 672.827 76.52C672.528 76.52 672.283 76.584 672.091 76.712C671.92 76.8187 671.728 76.9787 671.515 77.192C671.28 77.4267 670.981 77.544 670.619 77.544H665.179C664.965 77.544 664.784 77.48 664.635 77.352C664.507 77.224 664.453 77.0533 664.475 76.84C664.496 76.4347 664.667 75.9653 664.987 75.432C665.307 74.8773 665.797 74.344 666.459 73.832C667.141 73.32 668.005 72.8933 669.051 72.552C670.117 72.2107 671.397 72.04 672.891 72.04C674.341 72.04 675.6 72.2 676.667 72.52C677.755 72.8187 678.651 73.2667 679.355 73.864C680.059 74.44 680.581 75.1653 680.923 76.04C681.285 76.8933 681.467 77.864 681.467 78.952V88.136C681.467 88.3707 681.381 88.5733 681.211 88.744C681.04 88.9147 680.837 89 680.603 89H675.003C674.768 89 674.565 88.9147 674.395 88.744C674.224 88.5733 674.139 88.3707 674.139 88.136V87.24C673.84 87.6667 673.456 88.04 672.987 88.36C672.539 88.6587 672.027 88.8933 671.451 89.064C670.875 89.2347 670.256 89.32 669.595 89.32ZM671.803 84.584C672.229 84.584 672.592 84.4987 672.891 84.328C673.211 84.1573 673.456 83.8907 673.627 83.528C673.797 83.144 673.883 82.6747 673.883 82.12V82.088L671.995 82.504C671.44 82.632 671.067 82.8027 670.875 83.016C670.683 83.2293 670.587 83.4533 670.587 83.688C670.587 83.8373 670.629 83.9867 670.715 84.136C670.821 84.264 670.96 84.3707 671.131 84.456C671.323 84.5413 671.547 84.584 671.803 84.584ZM684.189 89C684.018 89 683.869 88.936 683.741 88.808C683.613 88.68 683.549 88.5307 683.549 88.36V73C683.549 72.8293 683.613 72.68 683.741 72.552C683.869 72.424 684.018 72.36 684.189 72.36H689.661C690.087 72.36 690.429 72.5733 690.685 73L694.141 78.696L697.597 73C697.853 72.5733 698.194 72.36 698.621 72.36H704.093C704.285 72.36 704.445 72.424 704.573 72.552C704.701 72.68 704.765 72.8293 704.765 73V88.36C704.765 88.5307 704.701 88.68 704.573 88.808C704.445 88.936 704.285 89 704.093 89H698.077C697.885 89 697.725 88.936 697.597 88.808C697.49 88.68 697.437 88.5307 697.437 88.36V79.912L699.357 80.456L695.837 86.056C695.73 86.248 695.613 86.3973 695.485 86.504C695.357 86.6107 695.186 86.664 694.973 86.664H693.309C693.138 86.664 692.978 86.6213 692.829 86.536C692.679 86.4293 692.541 86.2693 692.413 86.056L688.957 80.424L690.845 79.912V88.36C690.845 88.5307 690.781 88.68 690.653 88.808C690.525 88.936 690.375 89 690.205 89H684.189ZM708.085 89C707.851 89 707.648 88.9147 707.477 88.744C707.307 88.5733 707.221 88.3707 707.221 88.136V73.224C707.221 72.9893 707.307 72.7867 707.477 72.616C707.648 72.4453 707.851 72.36 708.085 72.36H713.813C714.048 72.36 714.251 72.4453 714.421 72.616C714.592 72.7867 714.677 72.9893 714.677 73.224V83.304L712.725 82.728L719.125 72.904C719.232 72.7333 719.36 72.6053 719.509 72.52C719.68 72.4133 719.861 72.36 720.053 72.36H725.141C725.376 72.36 725.579 72.4453 725.749 72.616C725.92 72.7867 726.005 72.9893 726.005 73.224V88.136C726.005 88.3707 725.92 88.5733 725.749 88.744C725.579 88.9147 725.376 89 725.141 89H719.413C719.179 89 718.976 88.9147 718.805 88.744C718.635 88.5733 718.549 88.3707 718.549 88.136V78.056L720.501 78.632L714.101 88.456C713.995 88.6267 713.856 88.7653 713.685 88.872C713.536 88.9573 713.365 89 713.173 89H708.085Z" fill="white"/>
</svg>
