<svg width="656" height="106" viewBox="0 0 656 106" fill="none" xmlns="http://www.w3.org/2000/svg">
<path d="M82.3955 60.6142L30.2882 62.5024C13.7409 63.1021 0 49.85 0 33.2919V31.3965C0 14.1121 14.1113 0.153156 31.3947 0.340741L367.115 3.98447C376.942 4.09113 382.519 15.2812 376.687 23.1919C370.819 31.1509 376.502 42.4 386.39 42.4H624.314C641.814 42.4 656 56.5863 656 74.0859C656 91.6744 641.675 105.897 624.087 105.771L97.5145 101.992C86.5948 101.913 81.7586 88.2169 90.2081 81.2993C98.854 74.2209 93.5621 60.2095 82.3955 60.6142Z" fill="#040F16"/>
<path d="M16.0368 39.4715C15.8022 39.4717 15.5994 39.3866 15.4286 39.2162C15.2577 39.0457 15.1722 38.8432 15.1719 38.6085L15.1492 17.9365C15.1489 17.7018 15.234 17.4991 15.4045 17.3282C15.575 17.1573 15.7776 17.0718 16.0122 17.0715L32.5882 17.0517C32.8229 17.0514 33.0256 17.1365 33.1965 17.307C33.3674 17.4774 33.4529 17.68 33.4532 17.9147L33.4585 22.7467C33.4587 22.9813 33.3736 23.1841 33.2031 23.355C33.0327 23.5258 32.8301 23.6114 32.5954 23.6117L23.1554 23.623L23.1571 25.159L26.0371 25.1555C28.8318 25.1522 31.0511 25.7789 32.6952 27.0356C34.3605 28.2709 35.1944 29.9979 35.1969 32.2166C35.1981 33.3473 34.9859 34.3608 34.5602 35.2574C34.1559 36.1538 33.5594 36.9119 32.7707 37.5315C32.0034 38.1511 31.0546 38.6322 29.9243 38.9749C28.794 39.2962 27.5035 39.4578 26.0528 39.4595L16.0368 39.4715ZM23.1668 33.9589L25.4068 33.9563C25.7481 33.9559 26.0254 33.8702 26.2385 33.6993C26.4517 33.5284 26.6114 33.3148 26.7178 33.0587C26.8242 32.7812 26.8772 32.5039 26.8769 32.2265C26.8764 31.7999 26.7373 31.4054 26.4596 31.043C26.2032 30.6807 25.851 30.4997 25.403 30.5003L23.163 30.5029L23.1668 33.9589ZM44.5452 39.7574C42.5825 39.7598 40.9289 39.4951 39.5843 38.9634C38.2397 38.4316 37.2042 37.6329 36.4777 36.5671C35.7725 35.5012 35.3657 34.1897 35.2573 32.6325C35.2355 32.1419 35.2242 31.6406 35.2237 31.1286C35.2231 30.5952 35.2332 30.0939 35.254 29.6245C35.359 28.0457 35.7949 26.7332 36.5617 25.687C37.3285 24.6194 38.3837 23.8181 39.7271 23.2832C41.0705 22.7482 42.6702 22.4797 44.5262 22.4774C46.3822 22.4752 47.9825 22.74 49.3271 23.2717C50.6716 23.8034 51.7285 24.6022 52.4977 25.6679C53.2668 26.7124 53.7056 28.0238 53.814 29.6024C53.8572 30.0717 53.8791 30.573 53.8797 31.1063C53.8802 31.6183 53.8595 32.1196 53.8173 32.6104C53.7124 34.1678 53.2978 35.4803 52.5737 36.5479C51.8708 37.6154 50.8477 38.4166 49.5043 38.9515C48.1609 39.4865 46.5078 39.7551 44.5452 39.7574ZM44.5395 34.6374C45.1582 34.6367 45.542 34.4656 45.691 34.1241C45.8399 33.7612 45.9353 33.2064 45.9772 32.4597C45.9981 32.1397 46.0083 31.6917 46.0077 31.1157C46.007 30.5397 45.9959 30.0917 45.9742 29.7717C45.9308 29.0678 45.8342 28.5346 45.6844 28.1721C45.5347 27.7882 45.1505 27.5967 44.5318 27.5974C43.9345 27.5982 43.5507 27.7906 43.3804 28.1748C43.2315 28.5377 43.1361 29.0711 43.0942 29.7752C43.0732 30.0952 43.063 30.5432 43.0637 31.1192C43.0643 31.6952 43.0755 32.1432 43.0972 32.4632C43.1406 33.2098 43.2373 33.7643 43.387 34.1268C43.558 34.4679 43.9422 34.6382 44.5395 34.6374ZM55.8281 39.424C55.5934 39.4243 55.3906 39.3392 55.2198 39.1687C55.0489 38.9982 54.9634 38.7957 54.9631 38.561L54.9585 34.369C54.958 33.8997 55.2457 33.6113 55.8216 33.504C56.3974 33.3966 56.7918 33.1295 57.0047 32.7026C57.2175 32.2756 57.3343 31.7102 57.3548 31.0061C57.3967 30.2808 57.4171 29.4487 57.4161 28.5101L57.4107 23.6461C57.4105 23.4114 57.4956 23.2086 57.6661 23.0378C57.8365 22.8669 58.0391 22.7813 58.2738 22.781L72.8658 22.7636C73.1004 22.7633 73.3032 22.8484 73.4741 23.0189C73.6449 23.1894 73.7305 23.3919 73.7307 23.6266L73.7471 38.5386C73.7474 38.7733 73.6623 38.976 73.4918 39.1469C73.3213 39.3178 73.1187 39.4033 72.8841 39.4036L67.1561 39.4105C66.9214 39.4107 66.7186 39.3256 66.5478 39.1552C66.3769 38.9847 66.2914 38.7822 66.2911 38.5475L66.2799 28.3715L64.4559 28.3737L64.4569 29.3017C64.4592 31.307 64.3543 32.9711 64.1424 34.294C63.9306 35.617 63.5157 36.6521 62.8978 37.3995C62.3013 38.1256 61.4272 38.6493 60.2756 38.9707C59.1452 39.2707 57.6627 39.4218 55.8281 39.424ZM84.8224 39.7094C82.0277 39.7127 79.7976 39.0327 78.1322 37.6694C76.488 36.2846 75.6642 34.099 75.6609 31.1123C75.6609 31.0696 75.6609 31.027 75.6608 30.9843C75.6608 30.9416 75.6607 30.9096 75.6607 30.8883C75.7013 29.0536 76.0943 27.5064 76.8396 26.2469C77.6062 24.9873 78.6612 24.0367 80.0045 23.3951C81.3691 22.7535 82.9581 22.4316 84.7714 22.4294C86.8621 22.4269 88.5799 22.8302 89.9247 23.6393C91.2696 24.427 92.2628 25.4818 92.9042 26.8037C93.567 28.1043 93.8992 29.5439 93.901 31.1225L93.902 32.0825C93.9023 32.3172 93.8172 32.52 93.6467 32.6908C93.4762 32.8617 93.2736 32.9473 93.039 32.9476L83.503 32.9589C83.503 32.9803 83.503 33.0016 83.503 33.0229C83.5031 33.0443 83.5031 33.0763 83.5032 33.1189C83.5036 33.5456 83.536 33.9082 83.6003 34.2068C83.686 34.4841 83.8249 34.6972 84.0171 34.8463C84.2092 34.9954 84.4546 35.0698 84.7533 35.0694C84.8813 35.0693 84.9879 35.0478 85.0732 35.0051C85.1798 34.9623 85.2758 34.8982 85.361 34.8127C85.4676 34.7059 85.5741 34.5991 85.6807 34.4923C85.8725 34.3001 86.0323 34.1826 86.1603 34.1398C86.2882 34.0756 86.4802 34.0434 86.7362 34.0431L92.7842 34.0359C92.9975 34.0356 93.1682 34.0994 93.2964 34.2273C93.4459 34.3551 93.51 34.5257 93.4889 34.739C93.4681 35.1444 93.2766 35.6353 92.9146 36.2117C92.5738 36.7668 92.0518 37.3114 91.3484 37.8456C90.6449 38.3798 89.7494 38.8288 88.6618 39.1928C87.5742 39.5354 86.2944 39.7076 84.8224 39.7094ZM83.4986 28.9589L86.0586 28.9559L86.0585 28.9239C86.058 28.4546 86.0043 28.0706 85.8973 27.7721C85.8116 27.4735 85.6727 27.2603 85.4806 27.1326C85.2884 26.9835 85.0537 26.9091 84.7763 26.9094C84.499 26.9097 84.2644 26.9847 84.0726 27.1343C83.8807 27.2625 83.7316 27.476 83.6253 27.7748C83.5403 28.0736 83.498 28.4576 83.4985 28.9269L83.4986 28.9589ZM104.12 39.6863C101.325 39.6897 99.0951 39.0097 97.4296 37.6463C95.7854 36.2616 94.9617 34.0759 94.9584 31.0893C94.9584 31.0466 94.9583 31.0039 94.9583 30.9613C94.9582 30.9186 94.9582 30.8866 94.9582 30.8653C94.9988 29.0306 95.3918 27.4834 96.1371 26.2239C96.9037 24.9643 97.9587 24.0137 99.302 23.3721C100.667 22.7304 102.256 22.4086 104.069 22.4064C106.16 22.4039 107.877 22.8072 109.222 23.6162C110.567 24.404 111.56 25.4588 112.202 26.7807C112.864 28.0812 113.197 29.5208 113.198 31.0995L113.2 32.0595C113.2 32.2942 113.115 32.4969 112.944 32.6678C112.774 32.8387 112.571 32.9242 112.336 32.9245L102.8 32.9359C102.8 32.9572 102.801 32.9786 102.801 32.9999C102.801 33.0212 102.801 33.0532 102.801 33.0959C102.801 33.5226 102.834 33.8852 102.898 34.1838C102.983 34.461 103.122 34.6742 103.315 34.8233C103.507 34.9724 103.752 35.0468 104.051 35.0464C104.179 35.0463 104.285 35.0248 104.371 34.982C104.477 34.9392 104.573 34.8751 104.659 34.7897C104.765 34.6829 104.872 34.5761 104.978 34.4693C105.17 34.2771 105.33 34.1596 105.458 34.1167C105.586 34.0526 105.778 34.0204 106.034 34.0201L112.082 34.0128C112.295 34.0126 112.466 34.0764 112.594 34.2042C112.743 34.332 112.808 34.5026 112.786 34.716C112.766 35.1214 112.574 35.6122 112.212 36.1887C111.871 36.7438 111.349 37.2884 110.646 37.8226C109.942 38.3567 109.047 38.8058 107.959 39.1698C106.872 39.5124 105.592 39.6846 104.12 39.6863ZM102.796 28.9359L105.356 28.9329L105.356 28.9009C105.356 28.4315 105.302 28.0476 105.195 27.749C105.109 27.4505 104.97 27.2373 104.778 27.1095C104.586 26.9604 104.351 26.8861 104.074 26.8864C103.796 26.8867 103.562 26.9617 103.37 27.1112C103.178 27.2395 103.029 27.453 102.923 27.7518C102.838 28.0505 102.796 28.4346 102.796 28.9039L102.796 28.9359ZM130.795 39.3345C130.56 39.3348 130.357 39.2497 130.186 39.0792C130.015 38.9088 129.93 38.7062 129.93 38.4715L129.927 35.7515L120.359 35.763C120.124 35.7632 119.921 35.6781 119.75 35.5077C119.579 35.3372 119.494 35.1347 119.494 34.9L119.489 30.324C119.488 30.0467 119.531 29.8333 119.616 29.6838C119.701 29.5344 119.776 29.417 119.84 29.3316L128.883 17.4808C129.181 17.1177 129.575 16.9359 130.066 16.9354L136.722 16.9274C136.957 16.9271 137.159 17.0122 137.33 17.1827C137.501 17.3532 137.587 17.5557 137.587 17.7904L137.599 29.2464L140.383 29.2431C140.661 29.2427 140.874 29.3278 141.024 29.4983C141.195 29.6688 141.28 29.8713 141.28 30.106L141.286 34.874C141.286 35.1086 141.201 35.3114 141.03 35.4823C140.86 35.6532 140.657 35.7387 140.423 35.739L137.607 35.7424L137.61 38.4624C137.61 38.697 137.525 38.8998 137.354 39.0707C137.184 39.2415 136.981 39.3271 136.747 39.3274L130.795 39.3345ZM126.784 29.6113L130.144 29.6073L130.139 24.9993L126.784 29.6113ZM143.766 39.319C143.531 39.3193 143.328 39.2342 143.157 39.0638C142.987 38.8933 142.901 38.6907 142.901 38.4561L142.895 32.8881C142.894 32.6534 142.98 32.4506 143.15 32.2798C143.32 32.1089 143.523 32.0233 143.758 32.023L149.326 32.0164C149.56 32.0161 149.763 32.1012 149.934 32.2717C150.105 32.4421 150.19 32.6447 150.191 32.8794L150.197 38.4474C150.197 38.682 150.112 38.8848 149.941 39.0557C149.771 39.2265 149.568 39.3121 149.334 39.3124L143.766 39.319ZM152.87 39.3082C152.636 39.3084 152.433 39.2233 152.262 39.0529C152.091 38.8824 152.006 38.6799 152.006 38.4452L152.002 35.1172C152.002 34.9892 152.033 34.7438 152.097 34.3811C152.161 33.997 152.395 33.6661 152.8 33.3882L153.152 33.1318C155.39 31.5078 157.255 30.1403 158.747 29.0291C160.261 27.918 161.39 26.9673 162.136 26.1771C162.903 25.3655 163.286 24.6504 163.286 24.0317C163.285 23.7331 163.232 23.4451 163.125 23.1679C163.018 22.8907 162.687 22.7524 162.132 22.7531C161.706 22.7536 161.375 22.8607 161.141 23.0743C160.906 23.2666 160.736 23.4908 160.629 23.7469C160.523 24.003 160.438 24.2165 160.374 24.3872C160.268 24.686 160.097 24.8889 159.863 24.9958C159.65 25.0814 159.394 25.1244 159.095 25.1247L153.079 25.1319C152.887 25.1321 152.716 25.0683 152.567 24.9405C152.439 24.7913 152.374 24.6207 152.374 24.4287C152.394 23.2127 152.649 22.1244 153.139 21.1638C153.649 20.1819 154.342 19.3384 155.216 18.6333C156.09 17.9283 157.113 17.3937 158.286 17.0297C159.459 16.6443 160.728 16.4508 162.093 16.4491C164.035 16.4468 165.72 16.7328 167.15 17.3071C168.58 17.8601 169.691 18.6694 170.481 19.7351C171.272 20.8009 171.668 22.091 171.669 23.6057C171.671 24.779 171.384 25.8674 170.809 26.8707C170.234 27.8741 169.424 28.8351 168.38 29.7536C167.357 30.6509 166.153 31.5803 164.767 32.542L164.543 32.7022L171.295 32.6942C171.53 32.6939 171.733 32.779 171.904 32.9494C172.074 33.1199 172.16 33.3225 172.16 33.5571L172.166 38.4211C172.166 38.6558 172.081 38.8586 171.91 39.0294C171.74 39.2003 171.537 39.2859 171.302 39.2862L152.87 39.3082ZM180.155 39.2756C179.985 39.2758 179.835 39.212 179.707 39.0841C179.579 38.9563 179.515 38.807 179.515 38.6364L179.498 23.2764C179.497 23.1057 179.561 22.9563 179.689 22.8281C179.817 22.7 179.966 22.6358 180.137 22.6356L185.609 22.6291C186.036 22.6286 186.377 22.8415 186.634 23.2679L190.096 28.9597L193.546 23.2596C193.801 22.8326 194.142 22.6189 194.569 22.6184L200.041 22.6119C200.233 22.6116 200.393 22.6754 200.521 22.8033C200.649 22.9311 200.713 23.0804 200.714 23.2511L200.731 38.611C200.731 38.7817 200.667 38.9311 200.539 39.0593C200.411 39.1874 200.251 39.2516 200.059 39.2518L194.043 39.259C193.851 39.2593 193.691 39.1954 193.563 39.0676C193.456 38.9397 193.403 38.7905 193.403 38.6198L193.393 30.1718L195.314 30.7135L191.8 36.3177C191.694 36.5098 191.576 36.6593 191.448 36.7661C191.321 36.8729 191.15 36.9265 190.937 36.9267L189.273 36.9287C189.102 36.9289 188.942 36.8864 188.793 36.8013C188.643 36.6948 188.504 36.535 188.376 36.3218L184.914 30.6939L186.801 30.1797L186.811 38.6277C186.811 38.7983 186.747 38.9477 186.619 39.0759C186.491 39.204 186.342 39.2682 186.171 39.2684L180.155 39.2756ZM203.412 39.2478C203.177 39.2481 202.974 39.163 202.803 38.9926C202.633 38.8221 202.547 38.6195 202.547 38.3849L202.542 34.1929C202.542 33.7235 202.829 33.4352 203.405 33.3278C203.981 33.2205 204.375 32.9534 204.588 32.5264C204.801 32.0995 204.918 31.534 204.938 30.83C204.98 30.1046 205.001 29.2726 205 28.3339L204.994 23.4699C204.994 23.2353 205.079 23.0325 205.25 22.8616C205.42 22.6908 205.623 22.6052 205.857 22.6049L220.449 22.5875C220.684 22.5872 220.887 22.6723 221.058 22.8428C221.229 23.0132 221.314 23.2158 221.314 23.4505L221.331 38.3625C221.331 38.5971 221.246 38.7999 221.075 38.9708C220.905 39.1416 220.702 39.2272 220.468 39.2275L214.74 39.2343C214.505 39.2346 214.302 39.1495 214.131 38.9791C213.961 38.8086 213.875 38.606 213.875 38.3714L213.864 28.1954L212.04 28.1975L212.041 29.1255C212.043 31.1309 211.938 32.795 211.726 34.1179C211.514 35.4408 211.099 36.476 210.481 37.2234C209.885 37.9495 209.011 38.4732 207.859 38.7945C206.729 39.0946 205.246 39.2457 203.412 39.2478ZM224.668 45.3025C224.434 45.3028 224.231 45.2177 224.06 45.0472C223.889 44.8767 223.804 44.6742 223.803 44.4395L223.78 23.4475C223.78 23.2129 223.865 23.0101 224.036 22.8392C224.206 22.6683 224.409 22.5828 224.643 22.5825L230.083 22.576C230.318 22.5757 230.521 22.6608 230.692 22.8313C230.863 23.0017 230.948 23.2043 230.948 23.439L230.949 24.399C231.439 23.7797 232.068 23.267 232.836 22.8607C233.625 22.4544 234.574 22.2506 235.683 22.2493C236.622 22.2482 237.486 22.3858 238.276 22.6622C239.065 22.9173 239.759 23.3431 240.357 23.9397C240.976 24.515 241.468 25.2718 241.831 26.21C242.195 27.1482 242.41 28.2893 242.475 29.6332C242.497 30.1025 242.508 30.5185 242.509 30.8812C242.509 31.2438 242.499 31.6705 242.478 32.1612C242.437 33.4199 242.235 34.5188 241.874 35.4579C241.512 36.3757 241.022 37.1336 240.404 37.7317C239.807 38.3297 239.104 38.7786 238.294 39.0782C237.505 39.3778 236.641 39.5282 235.702 39.5293C234.806 39.5304 233.995 39.382 233.27 39.0842C232.544 38.7864 231.935 38.2965 231.444 37.6144L231.451 44.4304C231.452 44.6651 231.367 44.8678 231.196 45.0387C231.026 45.2096 230.823 45.2951 230.588 45.2954L224.668 45.3025ZM233.04 33.8045C233.445 33.804 233.754 33.729 233.968 33.5794C234.181 33.4298 234.33 33.2163 234.415 32.9388C234.521 32.6614 234.595 32.3306 234.638 31.9466C234.701 31.2425 234.7 30.5385 234.635 29.8346C234.592 29.4506 234.517 29.12 234.41 28.8428C234.325 28.5656 234.175 28.3525 233.962 28.2034C233.748 28.0543 233.439 27.98 233.033 27.9805C232.649 27.9809 232.34 28.056 232.106 28.2056C231.871 28.3552 231.701 28.5687 231.594 28.8462C231.509 29.1236 231.456 29.4544 231.435 29.8384C231.415 30.3078 231.404 30.7024 231.405 31.0224C231.405 31.3211 231.416 31.7158 231.438 32.2064C231.46 32.5477 231.524 32.8356 231.631 33.0702C231.759 33.3047 231.93 33.4858 232.144 33.6136C232.378 33.7413 232.677 33.8049 233.04 33.8045ZM244.542 42.7188C244.307 42.719 244.104 42.634 243.934 42.4635C243.763 42.293 243.677 42.0905 243.677 41.8558L243.669 34.4638C243.668 34.2291 243.754 34.0264 243.924 33.8555C244.095 33.6846 244.297 33.599 244.532 33.5988L244.98 33.5982C245.492 33.5976 245.854 33.3625 246.067 32.8929C246.301 32.402 246.439 31.7618 246.481 30.9724C246.544 30.1617 246.575 29.2657 246.574 28.2843L246.569 23.4203C246.568 23.1857 246.653 22.9829 246.824 22.812C246.994 22.6412 247.197 22.5556 247.432 22.5553L262.024 22.5379C262.258 22.5376 262.461 22.6227 262.632 22.7932C262.803 22.9636 262.888 23.1662 262.889 23.4009L262.9 33.5768L264.148 33.5754C264.382 33.5751 264.585 33.6602 264.756 33.8306C264.927 34.0011 265.012 34.2037 265.013 34.4383L265.021 41.8303C265.021 42.065 264.936 42.2678 264.765 42.4386C264.595 42.6095 264.392 42.6951 264.158 42.6954L258.43 42.7022C258.195 42.7025 257.992 42.6174 257.821 42.4469C257.651 42.2765 257.565 42.0739 257.565 41.8392L257.562 39.1832L251.13 39.1909L251.133 41.8469C251.133 42.0816 251.048 42.2843 250.878 42.4552C250.707 42.6261 250.504 42.7116 250.27 42.7119L244.542 42.7188ZM253.044 33.5886L255.444 33.5857L255.438 28.1457L253.614 28.1479L253.615 29.0759C253.616 30.0786 253.564 30.964 253.458 31.7321C253.373 32.4789 253.235 33.0977 253.044 33.5886ZM266.973 39.172C266.738 39.1723 266.536 39.0872 266.365 38.9167C266.194 38.7463 266.108 38.5437 266.108 38.309L266.102 32.741C266.102 32.5064 266.187 32.3036 266.357 32.1327C266.528 31.9618 266.73 31.8763 266.965 31.876L272.533 31.8693C272.768 31.8691 272.971 31.9542 273.141 32.1246C273.312 32.2951 273.398 32.4976 273.398 32.7323L273.404 38.3003C273.404 38.535 273.319 38.7377 273.149 38.9086C272.978 39.0795 272.776 39.1651 272.541 39.1653L266.973 39.172ZM281.702 45.2344C281.467 45.2347 281.265 45.1496 281.094 44.9791C280.923 44.8087 280.837 44.6061 280.837 44.3714L280.814 23.3795C280.814 23.1448 280.899 22.942 281.069 22.7712C281.24 22.6003 281.442 22.5147 281.677 22.5144L287.117 22.5079C287.352 22.5077 287.555 22.5927 287.725 22.7632C287.896 22.9337 287.982 23.1362 287.982 23.3709L287.983 24.3309C288.473 23.7117 289.102 23.1989 289.869 22.7927C290.658 22.3864 291.607 22.1826 292.717 22.1813C293.655 22.1801 294.52 22.3178 295.309 22.5942C296.099 22.8492 296.793 23.2751 297.391 23.8717C298.01 24.4469 298.501 25.2037 298.865 26.1419C299.229 27.0802 299.443 28.2212 299.509 29.5652C299.531 30.0345 299.542 30.4504 299.542 30.8131C299.543 31.1758 299.532 31.6025 299.512 32.0932C299.47 33.3519 299.269 34.4508 298.907 35.3899C298.546 36.3076 298.056 37.0656 297.438 37.6636C296.841 38.2617 296.138 38.7105 295.327 39.0102C294.538 39.3098 293.674 39.4601 292.736 39.4612C291.84 39.4623 291.029 39.3139 290.303 39.0161C289.578 38.7183 288.969 38.2284 288.478 37.5463L288.485 44.3623C288.485 44.597 288.4 44.7998 288.23 44.9706C288.059 45.1415 287.857 45.2271 287.622 45.2274L281.702 45.2344ZM290.073 33.7364C290.479 33.7359 290.788 33.6609 291.001 33.5113C291.214 33.3617 291.363 33.1482 291.449 32.8708C291.555 32.5933 291.629 32.2626 291.671 31.8785C291.735 31.1744 291.734 30.4704 291.669 29.7665C291.626 29.3826 291.551 29.052 291.444 28.7748C291.358 28.4975 291.209 28.2844 290.995 28.1353C290.782 27.9862 290.472 27.9119 290.067 27.9124C289.683 27.9129 289.374 27.9879 289.139 28.1375C288.905 28.2871 288.734 28.5007 288.628 28.7781C288.543 29.0556 288.49 29.3863 288.469 29.7703C288.448 30.2397 288.438 30.6344 288.438 30.9544C288.439 31.253 288.45 31.6477 288.472 32.1383C288.493 32.4796 288.558 32.7676 288.665 33.0021C288.793 33.2366 288.964 33.4177 289.177 33.5455C289.412 33.6732 289.711 33.7368 290.073 33.7364ZM303.69 45.2402C303.456 45.2405 303.253 45.1554 303.082 44.9849C302.911 44.8144 302.826 44.6119 302.825 44.3772L302.821 40.5052C302.821 40.2705 302.906 40.0678 303.076 39.8969C303.247 39.726 303.45 39.6405 303.684 39.6402L305.028 39.6386C305.348 39.6382 305.615 39.5845 305.828 39.4776C306.041 39.392 306.233 39.2318 306.403 38.9969C306.574 38.7621 306.734 38.4525 306.882 38.0684L312.786 23.2453C312.871 23.0532 312.988 22.8824 313.138 22.7329C313.308 22.562 313.553 22.4764 313.873 22.476L319.025 22.4699C319.217 22.4696 319.388 22.5441 319.538 22.6932C319.687 22.8211 319.762 22.9703 319.762 23.141C319.762 23.1836 319.762 23.237 319.762 23.301C319.784 23.3436 319.773 23.397 319.73 23.461L313.667 38.3483C313.156 39.6289 312.635 40.7068 312.102 41.5821C311.591 42.4574 311.027 43.1621 310.409 43.6962C309.812 44.2515 309.119 44.647 308.33 44.8826C307.541 45.1182 306.624 45.2367 305.578 45.2379L303.69 45.2402ZM306.883 38.9004L300.242 23.4843C300.221 23.4203 300.21 23.3456 300.21 23.2603C300.253 23.0469 300.338 22.8655 300.466 22.716C300.615 22.5665 300.796 22.4916 301.009 22.4914L306.417 22.4849C306.737 22.4845 306.972 22.5696 307.122 22.7401C307.271 22.9106 307.378 23.0811 307.442 23.2517L311.422 34.1269L306.883 38.9004ZM329.727 39.4171C327.573 39.4197 325.834 39.1231 324.51 38.5273C323.187 37.9102 322.205 36.9194 321.563 35.5548C320.943 34.1689 320.568 32.324 320.437 30.0202C320.415 29.4015 320.404 28.7509 320.403 28.0682C320.402 27.3642 320.412 26.7135 320.433 26.1162C320.516 24.4521 320.739 23.0331 321.1 21.8594C321.462 20.6856 321.994 19.693 322.697 18.8815C323.421 18.0486 324.349 17.3435 325.479 16.7662C326.63 16.1888 328.016 15.6858 329.637 15.2572C331.279 14.8072 333.199 14.3569 335.395 13.9063C335.63 13.8634 335.854 13.9058 336.068 14.0335C336.281 14.1613 336.399 14.3638 336.42 14.6411L337.225 18.9601C337.268 19.2374 337.226 19.4721 337.098 19.6643C336.97 19.8564 336.789 19.974 336.554 20.0169C334.869 20.2749 333.472 20.5219 332.363 20.7579C331.275 20.9939 330.401 21.2723 329.74 21.5931C329.079 21.8925 328.589 22.2878 328.269 22.7788C327.971 23.2485 327.769 23.8461 327.663 24.5715C327.579 25.297 327.537 26.2037 327.538 27.2917L326.673 25.8527C326.907 25.5325 327.248 25.2334 327.696 24.9555C328.143 24.6776 328.655 24.453 329.231 24.2817C329.828 24.1103 330.457 24.0242 331.119 24.0234C332.783 24.0214 334.18 24.2651 335.311 24.7544C336.443 25.2224 337.307 25.9254 337.906 26.8633C338.525 27.8013 338.889 28.9742 338.998 30.382C339.063 31.2566 339.063 32.1419 339 33.038C338.895 34.4248 338.481 35.5986 337.756 36.5595C337.053 37.499 336.03 38.2149 334.687 38.7072C333.343 39.1781 331.69 39.4148 329.727 39.4171ZM329.722 34.8731C330.341 34.8724 330.725 34.7119 330.874 34.3917C331.044 34.0715 331.14 33.5807 331.16 32.9194C331.181 32.6207 331.192 32.2153 331.191 31.7033C331.19 31.1913 331.179 30.7967 331.158 30.5194C331.136 29.9007 331.05 29.4315 330.9 29.1117C330.75 28.7705 330.398 28.6003 329.844 28.601C329.182 28.6017 328.766 28.7729 328.596 29.1144C328.426 29.4346 328.32 29.9041 328.278 30.5228C328.257 30.8002 328.246 31.1949 328.247 31.7069C328.248 32.2189 328.259 32.6242 328.28 32.9228C328.324 33.5841 328.42 34.0747 328.57 34.3945C328.741 34.7143 329.125 34.8738 329.722 34.8731ZM341.554 39.083C341.32 39.0833 341.117 38.9982 340.946 38.8277C340.775 38.6572 340.69 38.4547 340.689 38.22L340.683 32.652C340.683 32.4174 340.768 32.2146 340.939 32.0437C341.109 31.8728 341.312 31.7873 341.546 31.787L347.114 31.7803C347.349 31.7801 347.552 31.8652 347.723 32.0356C347.893 32.2061 347.979 32.4086 347.979 32.6433L347.985 38.2113C347.986 38.446 347.901 38.6487 347.73 38.8196C347.56 38.9905 347.357 39.0761 347.122 39.0763L341.554 39.083Z" fill="white"/>
<path d="M104.745 88.32C103.124 88.32 101.652 88.0427 100.329 87.488C99.0063 86.912 97.9397 86.08 97.129 84.992C96.3183 83.904 95.8703 82.5707 95.785 80.992C95.7637 80.6507 95.753 80.224 95.753 79.712C95.753 79.2 95.7637 78.7627 95.785 78.4C95.8703 76.8213 96.3077 75.488 97.097 74.4C97.9077 73.2907 98.9743 72.4587 100.297 71.904C101.641 71.328 103.124 71.04 104.745 71.04C106.43 71.04 107.86 71.2853 109.033 71.776C110.228 72.2453 111.188 72.832 111.913 73.536C112.66 74.2187 113.204 74.9013 113.545 75.584C113.908 76.2667 114.1 76.8213 114.121 77.248C114.142 77.4827 114.057 77.6853 113.865 77.856C113.694 78.0267 113.492 78.112 113.257 78.112H107.017C106.782 78.112 106.59 78.0587 106.441 77.952C106.313 77.824 106.196 77.664 106.089 77.472C105.94 77.1733 105.78 76.9387 105.609 76.768C105.46 76.5973 105.225 76.512 104.905 76.512C104.414 76.512 104.084 76.6933 103.913 77.056C103.742 77.4187 103.646 77.92 103.625 78.56C103.604 79.4773 103.604 80.2347 103.625 80.832C103.668 81.5147 103.764 82.0267 103.913 82.368C104.084 82.688 104.414 82.848 104.905 82.848C105.289 82.848 105.545 82.7627 105.673 82.592C105.822 82.4213 105.961 82.1867 106.089 81.888C106.174 81.696 106.292 81.5467 106.441 81.44C106.59 81.312 106.782 81.248 107.017 81.248H113.257C113.492 81.248 113.694 81.3333 113.865 81.504C114.057 81.6747 114.142 81.8773 114.121 82.112C114.1 82.3893 113.982 82.784 113.769 83.296C113.577 83.7867 113.257 84.32 112.809 84.896C112.382 85.472 111.806 86.0267 111.081 86.56C110.356 87.072 109.47 87.4987 108.425 87.84C107.38 88.16 106.153 88.32 104.745 88.32ZM116.395 88C116.161 88 115.958 87.9147 115.787 87.744C115.617 87.5733 115.531 87.3707 115.531 87.136V72.224C115.531 71.9893 115.617 71.7867 115.787 71.616C115.958 71.4453 116.161 71.36 116.395 71.36H132.779C133.014 71.36 133.217 71.4453 133.387 71.616C133.558 71.7867 133.643 71.9893 133.643 72.224V87.136C133.643 87.3707 133.558 87.5733 133.387 87.744C133.217 87.9147 133.014 88 132.779 88H127.051C126.817 88 126.614 87.9147 126.443 87.744C126.273 87.5733 126.187 87.3707 126.187 87.136V76.96H122.987V87.136C122.987 87.3707 122.902 87.5733 122.731 87.744C122.561 87.9147 122.358 88 122.123 88H116.395ZM136.974 88C136.739 88 136.537 87.9147 136.366 87.744C136.195 87.5733 136.11 87.3707 136.11 87.136V72.224C136.11 71.9893 136.195 71.7867 136.366 71.616C136.537 71.4453 136.739 71.36 136.974 71.36H142.702C142.937 71.36 143.139 71.4453 143.31 71.616C143.481 71.7867 143.566 71.9893 143.566 72.224V82.304L141.614 81.728L148.014 71.904C148.121 71.7333 148.249 71.6053 148.398 71.52C148.569 71.4133 148.75 71.36 148.942 71.36H154.03C154.265 71.36 154.467 71.4453 154.638 71.616C154.809 71.7867 154.894 71.9893 154.894 72.224V87.136C154.894 87.3707 154.809 87.5733 154.638 87.744C154.467 87.9147 154.265 88 154.03 88H148.302C148.067 88 147.865 87.9147 147.694 87.744C147.523 87.5733 147.438 87.3707 147.438 87.136V77.056L149.39 77.632L142.99 87.456C142.883 87.6267 142.745 87.7653 142.574 87.872C142.425 87.9573 142.254 88 142.062 88H136.974ZM165.169 88.32C163.547 88.32 162.075 88.0427 160.753 87.488C159.43 86.912 158.363 86.08 157.553 84.992C156.742 83.904 156.294 82.5707 156.209 80.992C156.187 80.6507 156.177 80.224 156.177 79.712C156.177 79.2 156.187 78.7627 156.209 78.4C156.294 76.8213 156.731 75.488 157.521 74.4C158.331 73.2907 159.398 72.4587 160.721 71.904C162.065 71.328 163.547 71.04 165.169 71.04C166.854 71.04 168.283 71.2853 169.457 71.776C170.651 72.2453 171.611 72.832 172.337 73.536C173.083 74.2187 173.627 74.9013 173.969 75.584C174.331 76.2667 174.523 76.8213 174.545 77.248C174.566 77.4827 174.481 77.6853 174.289 77.856C174.118 78.0267 173.915 78.112 173.681 78.112H167.441C167.206 78.112 167.014 78.0587 166.865 77.952C166.737 77.824 166.619 77.664 166.513 77.472C166.363 77.1733 166.203 76.9387 166.033 76.768C165.883 76.5973 165.649 76.512 165.329 76.512C164.838 76.512 164.507 76.6933 164.337 77.056C164.166 77.4187 164.07 77.92 164.049 78.56C164.027 79.4773 164.027 80.2347 164.049 80.832C164.091 81.5147 164.187 82.0267 164.337 82.368C164.507 82.688 164.838 82.848 165.329 82.848C165.713 82.848 165.969 82.7627 166.097 82.592C166.246 82.4213 166.385 82.1867 166.513 81.888C166.598 81.696 166.715 81.5467 166.865 81.44C167.014 81.312 167.206 81.248 167.441 81.248H173.681C173.915 81.248 174.118 81.3333 174.289 81.504C174.481 81.6747 174.566 81.8773 174.545 82.112C174.523 82.3893 174.406 82.784 174.193 83.296C174.001 83.7867 173.681 84.32 173.233 84.896C172.806 85.472 172.23 86.0267 171.505 86.56C170.779 87.072 169.894 87.4987 168.849 87.84C167.803 88.16 166.577 88.32 165.169 88.32ZM181.267 88.32C180.051 88.32 178.974 88.096 178.035 87.648C177.096 87.2 176.36 86.592 175.827 85.824C175.315 85.056 175.059 84.192 175.059 83.232C175.059 81.6747 175.688 80.4587 176.947 79.584C178.227 78.688 179.934 78.0587 182.067 77.696L185.459 77.152V77.12C185.459 76.5653 185.406 76.16 185.299 75.904C185.214 75.648 184.947 75.52 184.499 75.52C184.2 75.52 183.955 75.584 183.763 75.712C183.592 75.8187 183.4 75.9787 183.187 76.192C182.952 76.4267 182.654 76.544 182.291 76.544H176.851C176.638 76.544 176.456 76.48 176.307 76.352C176.179 76.224 176.126 76.0533 176.147 75.84C176.168 75.4347 176.339 74.9653 176.659 74.432C176.979 73.8773 177.47 73.344 178.131 72.832C178.814 72.32 179.678 71.8933 180.723 71.552C181.79 71.2107 183.07 71.04 184.563 71.04C186.014 71.04 187.272 71.2 188.339 71.52C189.427 71.8187 190.323 72.2667 191.027 72.864C191.731 73.44 192.254 74.1653 192.595 75.04C192.958 75.8933 193.139 76.864 193.139 77.952V87.136C193.139 87.3707 193.054 87.5733 192.883 87.744C192.712 87.9147 192.51 88 192.275 88H186.675C186.44 88 186.238 87.9147 186.067 87.744C185.896 87.5733 185.811 87.3707 185.811 87.136V86.24C185.512 86.6667 185.128 87.04 184.659 87.36C184.211 87.6587 183.699 87.8933 183.123 88.064C182.547 88.2347 181.928 88.32 181.267 88.32ZM183.475 83.584C183.902 83.584 184.264 83.4987 184.563 83.328C184.883 83.1573 185.128 82.8907 185.299 82.528C185.47 82.144 185.555 81.6747 185.555 81.12V81.088L183.667 81.504C183.112 81.632 182.739 81.8027 182.547 82.016C182.355 82.2293 182.259 82.4533 182.259 82.688C182.259 82.8373 182.302 82.9867 182.387 83.136C182.494 83.264 182.632 83.3707 182.803 83.456C182.995 83.5413 183.219 83.584 183.475 83.584ZM196.085 88C195.851 88 195.648 87.9147 195.477 87.744C195.307 87.5733 195.221 87.3707 195.221 87.136V72.224C195.221 71.9893 195.307 71.7867 195.477 71.616C195.648 71.4453 195.851 71.36 196.085 71.36H201.813C202.048 71.36 202.251 71.4453 202.421 71.616C202.592 71.7867 202.677 71.9893 202.677 72.224V76.8H205.877V72.224C205.877 71.9893 205.963 71.7867 206.133 71.616C206.304 71.4453 206.507 71.36 206.741 71.36H212.469C212.704 71.36 212.907 71.4453 213.077 71.616C213.248 71.7867 213.333 71.9893 213.333 72.224V87.136C213.333 87.3707 213.248 87.5733 213.077 87.744C212.907 87.9147 212.704 88 212.469 88H206.741C206.507 88 206.304 87.9147 206.133 87.744C205.963 87.5733 205.877 87.3707 205.877 87.136V82.4H202.677V87.136C202.677 87.3707 202.592 87.5733 202.421 87.744C202.251 87.9147 202.048 88 201.813 88H196.085ZM224.632 88.32C222.669 88.32 221.016 88.0533 219.672 87.52C218.328 86.9867 217.293 86.1867 216.568 85.12C215.864 84.0533 215.459 82.7413 215.352 81.184C215.331 80.6933 215.32 80.192 215.32 79.68C215.32 79.1467 215.331 78.6453 215.352 78.176C215.459 76.5973 215.896 75.2853 216.664 74.24C217.432 73.1733 218.488 72.3733 219.832 71.84C221.176 71.3067 222.776 71.04 224.632 71.04C226.488 71.04 228.088 71.3067 229.432 71.84C230.776 72.3733 231.832 73.1733 232.6 74.24C233.368 75.2853 233.805 76.5973 233.912 78.176C233.955 78.6453 233.976 79.1467 233.976 79.68C233.976 80.192 233.955 80.6933 233.912 81.184C233.805 82.7413 233.389 84.0533 232.664 85.12C231.96 86.1867 230.936 86.9867 229.592 87.52C228.248 88.0533 226.595 88.32 224.632 88.32ZM224.632 83.2C225.251 83.2 225.635 83.0293 225.784 82.688C225.933 82.3253 226.029 81.7707 226.072 81.024C226.093 80.704 226.104 80.256 226.104 79.68C226.104 79.104 226.093 78.656 226.072 78.336C226.029 77.632 225.933 77.0987 225.784 76.736C225.635 76.352 225.251 76.16 224.632 76.16C224.035 76.16 223.651 76.352 223.48 76.736C223.331 77.0987 223.235 77.632 223.192 78.336C223.171 78.656 223.16 79.104 223.16 79.68C223.16 80.256 223.171 80.704 223.192 81.024C223.235 81.7707 223.331 82.3253 223.48 82.688C223.651 83.0293 224.035 83.2 224.632 83.2ZM241.213 91.52C240.978 91.52 240.775 91.4347 240.605 91.264C240.434 91.0933 240.349 90.8907 240.349 90.656V83.264C240.349 83.0293 240.434 82.8267 240.605 82.656C240.775 82.4853 240.978 82.4 241.213 82.4H241.661C242.173 82.4 242.535 82.1653 242.749 81.696C242.983 81.2053 243.122 80.5653 243.165 79.776C243.229 78.9653 243.261 78.0693 243.261 77.088V72.224C243.261 71.9893 243.346 71.7867 243.517 71.616C243.687 71.4453 243.89 71.36 244.125 71.36H258.717C258.951 71.36 259.154 71.4453 259.325 71.616C259.495 71.7867 259.581 71.9893 259.581 72.224V82.4H260.829C261.063 82.4 261.266 82.4853 261.437 82.656C261.607 82.8267 261.693 83.0293 261.693 83.264V90.656C261.693 90.8907 261.607 91.0933 261.437 91.264C261.266 91.4347 261.063 91.52 260.829 91.52H255.101C254.866 91.52 254.663 91.4347 254.493 91.264C254.322 91.0933 254.237 90.8907 254.237 90.656V88H247.805V90.656C247.805 90.8907 247.719 91.0933 247.549 91.264C247.378 91.4347 247.175 91.52 246.941 91.52H241.213ZM249.725 82.4H252.125V76.96H250.301V77.888C250.301 78.8907 250.247 79.776 250.141 80.544C250.055 81.2907 249.917 81.9093 249.725 82.4ZM271.712 88.32C269.749 88.32 268.096 88.0533 266.752 87.52C265.408 86.9867 264.373 86.1867 263.648 85.12C262.944 84.0533 262.539 82.7413 262.432 81.184C262.411 80.6933 262.4 80.192 262.4 79.68C262.4 79.1467 262.411 78.6453 262.432 78.176C262.539 76.5973 262.976 75.2853 263.744 74.24C264.512 73.1733 265.568 72.3733 266.912 71.84C268.256 71.3067 269.856 71.04 271.712 71.04C273.568 71.04 275.168 71.3067 276.512 71.84C277.856 72.3733 278.912 73.1733 279.68 74.24C280.448 75.2853 280.885 76.5973 280.992 78.176C281.035 78.6453 281.056 79.1467 281.056 79.68C281.056 80.192 281.035 80.6933 280.992 81.184C280.885 82.7413 280.469 84.0533 279.744 85.12C279.04 86.1867 278.016 86.9867 276.672 87.52C275.328 88.0533 273.675 88.32 271.712 88.32ZM271.712 83.2C272.331 83.2 272.715 83.0293 272.864 82.688C273.013 82.3253 273.109 81.7707 273.152 81.024C273.173 80.704 273.184 80.256 273.184 79.68C273.184 79.104 273.173 78.656 273.152 78.336C273.109 77.632 273.013 77.0987 272.864 76.736C272.715 76.352 272.331 76.16 271.712 76.16C271.115 76.16 270.731 76.352 270.56 76.736C270.411 77.0987 270.315 77.632 270.272 78.336C270.251 78.656 270.24 79.104 270.24 79.68C270.24 80.256 270.251 80.704 270.272 81.024C270.315 81.7707 270.411 82.3253 270.56 82.688C270.731 83.0293 271.115 83.2 271.712 83.2ZM282.995 88C282.761 88 282.558 87.9147 282.387 87.744C282.217 87.5733 282.131 87.3707 282.131 87.136V82.944C282.131 82.4747 282.419 82.1867 282.995 82.08C283.571 81.9733 283.966 81.7067 284.179 81.28C284.393 80.8533 284.51 80.288 284.531 79.584C284.574 78.8587 284.595 78.0267 284.595 77.088V72.224C284.595 71.9893 284.681 71.7867 284.851 71.616C285.022 71.4453 285.225 71.36 285.459 71.36H300.051C300.286 71.36 300.489 71.4453 300.659 71.616C300.83 71.7867 300.915 71.9893 300.915 72.224V87.136C300.915 87.3707 300.83 87.5733 300.659 87.744C300.489 87.9147 300.286 88 300.051 88H294.323C294.089 88 293.886 87.9147 293.715 87.744C293.545 87.5733 293.459 87.3707 293.459 87.136V76.96H291.635V77.888C291.635 79.8933 291.529 81.5573 291.315 82.88C291.102 84.2027 290.686 85.2373 290.067 85.984C289.47 86.7093 288.595 87.232 287.443 87.552C286.313 87.8507 284.83 88 282.995 88ZM304.245 88C304.011 88 303.808 87.9147 303.637 87.744C303.467 87.5733 303.381 87.3707 303.381 87.136V72.224C303.381 71.9893 303.467 71.7867 303.637 71.616C303.808 71.4453 304.011 71.36 304.245 71.36H315.925C316.16 71.36 316.363 71.4453 316.533 71.616C316.704 71.7867 316.789 71.9893 316.789 72.224V76.096C316.789 76.3307 316.704 76.5333 316.533 76.704C316.363 76.8747 316.16 76.96 315.925 76.96H310.837V87.136C310.837 87.3707 310.752 87.5733 310.581 87.744C310.411 87.9147 310.208 88 309.973 88H304.245ZM327.073 88.32C325.111 88.32 323.457 88.0533 322.113 87.52C320.769 86.9867 319.735 86.1867 319.009 85.12C318.305 84.0533 317.9 82.7413 317.793 81.184C317.772 80.6933 317.761 80.192 317.761 79.68C317.761 79.1467 317.772 78.6453 317.793 78.176C317.9 76.5973 318.337 75.2853 319.105 74.24C319.873 73.1733 320.929 72.3733 322.273 71.84C323.617 71.3067 325.217 71.04 327.073 71.04C328.929 71.04 330.529 71.3067 331.873 71.84C333.217 72.3733 334.273 73.1733 335.041 74.24C335.809 75.2853 336.247 76.5973 336.353 78.176C336.396 78.6453 336.417 79.1467 336.417 79.68C336.417 80.192 336.396 80.6933 336.353 81.184C336.247 82.7413 335.831 84.0533 335.105 85.12C334.401 86.1867 333.377 86.9867 332.033 87.52C330.689 88.0533 329.036 88.32 327.073 88.32ZM327.073 83.2C327.692 83.2 328.076 83.0293 328.225 82.688C328.375 82.3253 328.471 81.7707 328.513 81.024C328.535 80.704 328.545 80.256 328.545 79.68C328.545 79.104 328.535 78.656 328.513 78.336C328.471 77.632 328.375 77.0987 328.225 76.736C328.076 76.352 327.692 76.16 327.073 76.16C326.476 76.16 326.092 76.352 325.921 76.736C325.772 77.0987 325.676 77.632 325.633 78.336C325.612 78.656 325.601 79.104 325.601 79.68C325.601 80.256 325.612 80.704 325.633 81.024C325.676 81.7707 325.772 82.3253 325.921 82.688C326.092 83.0293 326.476 83.2 327.073 83.2ZM338.997 88C338.762 88 338.559 87.9147 338.389 87.744C338.218 87.5733 338.133 87.3707 338.133 87.136V72.224C338.133 71.9893 338.218 71.7867 338.389 71.616C338.559 71.4453 338.762 71.36 338.997 71.36H347.221C350.207 71.36 352.341 71.808 353.621 72.704C354.922 73.6 355.573 74.816 355.573 76.352C355.573 77.0347 355.434 77.632 355.157 78.144C354.879 78.656 354.527 79.0933 354.101 79.456C354.719 79.8187 355.221 80.2773 355.605 80.832C356.01 81.3653 356.213 82.0587 356.213 82.912C356.213 84.448 355.562 85.6853 354.261 86.624C352.981 87.5413 350.847 88 347.861 88H338.997ZM345.301 83.616H347.541C347.903 83.616 348.181 83.5627 348.373 83.456C348.586 83.3493 348.693 83.136 348.693 82.816C348.693 82.496 348.586 82.2827 348.373 82.176C348.181 82.048 347.903 81.984 347.541 81.984H345.301V83.616ZM345.301 77.376H347.541C347.925 77.376 348.213 77.3227 348.405 77.216C348.597 77.1093 348.693 76.896 348.693 76.576C348.693 76.256 348.586 76.0427 348.373 75.936C348.181 75.808 347.903 75.744 347.541 75.744H345.301V77.376ZM374.843 88C374.608 88 374.405 87.9147 374.235 87.744C374.064 87.5733 373.979 87.3707 373.979 87.136V72.224C373.979 71.9893 374.064 71.7867 374.235 71.616C374.405 71.4453 374.608 71.36 374.843 71.36H380.571C380.805 71.36 381.008 71.4453 381.179 71.616C381.349 71.7867 381.435 71.9893 381.435 72.224V76.8H384.635V72.224C384.635 71.9893 384.72 71.7867 384.891 71.616C385.061 71.4453 385.264 71.36 385.499 71.36H391.227C391.461 71.36 391.664 71.4453 391.835 71.616C392.005 71.7867 392.091 71.9893 392.091 72.224V87.136C392.091 87.3707 392.005 87.5733 391.835 87.744C391.664 87.9147 391.461 88 391.227 88H385.499C385.264 88 385.061 87.9147 384.891 87.744C384.72 87.5733 384.635 87.3707 384.635 87.136V82.4H381.435V87.136C381.435 87.3707 381.349 87.5733 381.179 87.744C381.008 87.9147 380.805 88 380.571 88H374.843ZM399.87 88.32C398.654 88.32 397.576 88.096 396.638 87.648C395.699 87.2 394.963 86.592 394.43 85.824C393.918 85.056 393.662 84.192 393.662 83.232C393.662 81.6747 394.291 80.4587 395.55 79.584C396.83 78.688 398.536 78.0587 400.67 77.696L404.062 77.152V77.12C404.062 76.5653 404.008 76.16 403.902 75.904C403.816 75.648 403.55 75.52 403.102 75.52C402.803 75.52 402.558 75.584 402.366 75.712C402.195 75.8187 402.003 75.9787 401.79 76.192C401.555 76.4267 401.256 76.544 400.894 76.544H395.454C395.24 76.544 395.059 76.48 394.91 76.352C394.782 76.224 394.728 76.0533 394.75 75.84C394.771 75.4347 394.942 74.9653 395.262 74.432C395.582 73.8773 396.072 73.344 396.734 72.832C397.416 72.32 398.28 71.8933 399.326 71.552C400.392 71.2107 401.672 71.04 403.166 71.04C404.616 71.04 405.875 71.2 406.942 71.52C408.03 71.8187 408.926 72.2667 409.63 72.864C410.334 73.44 410.856 74.1653 411.198 75.04C411.56 75.8933 411.742 76.864 411.742 77.952V87.136C411.742 87.3707 411.656 87.5733 411.486 87.744C411.315 87.9147 411.112 88 410.878 88H405.278C405.043 88 404.84 87.9147 404.67 87.744C404.499 87.5733 404.414 87.3707 404.414 87.136V86.24C404.115 86.6667 403.731 87.04 403.262 87.36C402.814 87.6587 402.302 87.8933 401.726 88.064C401.15 88.2347 400.531 88.32 399.87 88.32ZM402.078 83.584C402.504 83.584 402.867 83.4987 403.166 83.328C403.486 83.1573 403.731 82.8907 403.902 82.528C404.072 82.144 404.158 81.6747 404.158 81.12V81.088L402.27 81.504C401.715 81.632 401.342 81.8027 401.15 82.016C400.958 82.2293 400.862 82.4533 400.862 82.688C400.862 82.8373 400.904 82.9867 400.99 83.136C401.096 83.264 401.235 83.3707 401.406 83.456C401.598 83.5413 401.822 83.584 402.078 83.584ZM414.688 88C414.453 88 414.25 87.9147 414.08 87.744C413.909 87.5733 413.824 87.3707 413.824 87.136V72.224C413.824 71.9893 413.909 71.7867 414.08 71.616C414.25 71.4453 414.453 71.36 414.688 71.36H420.096C420.33 71.36 420.533 71.4453 420.704 71.616C420.874 71.7867 420.96 71.9893 420.96 72.224V82.4H422.816V72.224C422.816 71.9893 422.901 71.7867 423.072 71.616C423.242 71.4453 423.445 71.36 423.68 71.36H428.608C428.842 71.36 429.045 71.4453 429.216 71.616C429.386 71.7867 429.472 71.9893 429.472 72.224V82.4H431.328V72.224C431.328 71.9893 431.413 71.7867 431.584 71.616C431.754 71.4453 431.957 71.36 432.192 71.36H437.6C437.834 71.36 438.037 71.4453 438.208 71.616C438.378 71.7867 438.464 71.9893 438.464 72.224V87.136C438.464 87.3707 438.378 87.5733 438.208 87.744C438.037 87.9147 437.834 88 437.6 88H414.688ZM441.798 88C441.563 88 441.36 87.9147 441.19 87.744C441.019 87.5733 440.934 87.3707 440.934 87.136V72.224C440.934 71.9893 441.019 71.7867 441.19 71.616C441.36 71.4453 441.563 71.36 441.798 71.36H447.526C447.76 71.36 447.963 71.4453 448.134 71.616C448.304 71.7867 448.39 71.9893 448.39 72.224V82.304L446.438 81.728L452.838 71.904C452.944 71.7333 453.072 71.6053 453.222 71.52C453.392 71.4133 453.574 71.36 453.766 71.36H458.854C459.088 71.36 459.291 71.4453 459.462 71.616C459.632 71.7867 459.718 71.9893 459.718 72.224V87.136C459.718 87.3707 459.632 87.5733 459.462 87.744C459.291 87.9147 459.088 88 458.854 88H453.126C452.891 88 452.688 87.9147 452.518 87.744C452.347 87.5733 452.262 87.3707 452.262 87.136V77.056L454.214 77.632L447.814 87.456C447.707 87.6267 447.568 87.7653 447.398 87.872C447.248 87.9573 447.078 88 446.886 88H441.798ZM460.969 88C460.755 88 460.574 87.9253 460.425 87.776C460.275 87.6267 460.201 87.4453 460.201 87.232C460.201 87.1893 460.211 87.1253 460.233 87.04C460.254 86.9547 460.286 86.88 460.329 86.816L465.513 79.424L460.905 72.544C460.883 72.5013 460.851 72.448 460.809 72.384C460.787 72.2987 460.777 72.2133 460.777 72.128C460.777 71.9147 460.851 71.7333 461.001 71.584C461.15 71.4347 461.331 71.36 461.545 71.36H467.401C467.721 71.36 467.955 71.4347 468.105 71.584C468.254 71.7333 468.361 71.8613 468.425 71.968L470.281 74.816L472.137 71.968C472.201 71.8613 472.307 71.7333 472.457 71.584C472.606 71.4347 472.841 71.36 473.161 71.36H478.761C478.974 71.36 479.155 71.4347 479.305 71.584C479.454 71.7333 479.529 71.904 479.529 72.096C479.529 72.2027 479.518 72.2987 479.497 72.384C479.475 72.448 479.443 72.5013 479.401 72.544L474.697 79.392L479.977 86.816C480.019 86.88 480.051 86.9547 480.073 87.04C480.094 87.104 480.105 87.168 480.105 87.232C480.105 87.4453 480.03 87.6267 479.881 87.776C479.731 87.9253 479.55 88 479.337 88H473.193C472.915 88 472.702 87.936 472.553 87.808C472.425 87.68 472.318 87.5627 472.233 87.456L470.121 84.352L467.913 87.456C467.849 87.5413 467.742 87.6587 467.593 87.808C467.465 87.936 467.251 88 466.953 88H460.969ZM487.19 88C486.956 88 486.753 87.9147 486.582 87.744C486.412 87.5733 486.326 87.3707 486.326 87.136V72.224C486.326 71.9893 486.412 71.7867 486.582 71.616C486.753 71.4453 486.956 71.36 487.19 71.36H492.79C493.025 71.36 493.228 71.4453 493.398 71.616C493.569 71.7867 493.654 71.9893 493.654 72.224V76.8H494.358L497.11 71.904C497.153 71.8187 497.249 71.712 497.398 71.584C497.548 71.4347 497.761 71.36 498.038 71.36H504.182C504.396 71.36 504.577 71.4347 504.726 71.584C504.876 71.7333 504.95 71.9147 504.95 72.128C504.95 72.2133 504.929 72.3093 504.886 72.416C504.865 72.5013 504.833 72.5653 504.79 72.608L500.726 79.488L505.59 86.816C505.676 86.944 505.718 87.0827 505.718 87.232C505.718 87.4453 505.644 87.6267 505.494 87.776C505.345 87.9253 505.164 88 504.95 88H498.23C497.974 88 497.772 87.9467 497.622 87.84C497.473 87.7333 497.345 87.6053 497.238 87.456L494.198 82.4H493.654V87.136C493.654 87.3707 493.569 87.5733 493.398 87.744C493.228 87.9147 493.025 88 492.79 88H487.19ZM507.223 88C506.988 88 506.785 87.9147 506.615 87.744C506.444 87.5733 506.359 87.3707 506.359 87.136V82.944C506.359 82.4747 506.647 82.1867 507.223 82.08C507.799 81.9733 508.193 81.7067 508.407 81.28C508.62 80.8533 508.737 80.288 508.759 79.584C508.801 78.8587 508.823 78.0267 508.823 77.088V72.224C508.823 71.9893 508.908 71.7867 509.079 71.616C509.249 71.4453 509.452 71.36 509.687 71.36H524.279C524.513 71.36 524.716 71.4453 524.887 71.616C525.057 71.7867 525.143 71.9893 525.143 72.224V87.136C525.143 87.3707 525.057 87.5733 524.887 87.744C524.716 87.9147 524.513 88 524.279 88H518.551C518.316 88 518.113 87.9147 517.943 87.744C517.772 87.5733 517.687 87.3707 517.687 87.136V76.96H515.863V77.888C515.863 79.8933 515.756 81.5573 515.543 82.88C515.329 84.2027 514.913 85.2373 514.295 85.984C513.697 86.7093 512.823 87.232 511.671 87.552C510.54 87.8507 509.057 88 507.223 88ZM528.473 88C528.238 88 528.035 87.9147 527.865 87.744C527.694 87.5733 527.609 87.3707 527.609 87.136V72.224C527.609 71.9893 527.694 71.7867 527.865 71.616C528.035 71.4453 528.238 71.36 528.473 71.36H534.201C534.435 71.36 534.638 71.4453 534.809 71.616C534.979 71.7867 535.065 71.9893 535.065 72.224V82.304L533.113 81.728L539.513 71.904C539.619 71.7333 539.747 71.6053 539.897 71.52C540.067 71.4133 540.249 71.36 540.441 71.36H545.529C545.763 71.36 545.966 71.4453 546.137 71.616C546.307 71.7867 546.393 71.9893 546.393 72.224V87.136C546.393 87.3707 546.307 87.5733 546.137 87.744C545.966 87.9147 545.763 88 545.529 88H539.801C539.566 88 539.363 87.9147 539.193 87.744C539.022 87.5733 538.937 87.3707 538.937 87.136V77.056L540.889 77.632L534.489 87.456C534.382 87.6267 534.243 87.7653 534.073 87.872C533.923 87.9573 533.753 88 533.561 88H528.473ZM556.795 88.32C554.001 88.32 551.771 87.6373 550.107 86.272C548.465 84.8853 547.643 82.6987 547.643 79.712C547.643 79.6693 547.643 79.6267 547.643 79.584C547.643 79.5413 547.643 79.5093 547.643 79.488C547.686 77.6533 548.081 76.1067 548.827 74.848C549.595 73.5893 550.651 72.64 551.995 72C553.361 71.36 554.95 71.04 556.763 71.04C558.854 71.04 560.571 71.4453 561.915 72.256C563.259 73.0453 564.251 74.1013 564.891 75.424C565.553 76.7253 565.883 78.1653 565.883 79.744V80.704C565.883 80.9387 565.798 81.1413 565.627 81.312C565.457 81.4827 565.254 81.568 565.019 81.568H555.483C555.483 81.5893 555.483 81.6107 555.483 81.632C555.483 81.6533 555.483 81.6853 555.483 81.728C555.483 82.1547 555.515 82.5173 555.579 82.816C555.665 83.0933 555.803 83.3067 555.995 83.456C556.187 83.6053 556.433 83.68 556.731 83.68C556.859 83.68 556.966 83.6587 557.051 83.616C557.158 83.5733 557.254 83.5093 557.339 83.424C557.446 83.3173 557.553 83.2107 557.659 83.104C557.851 82.912 558.011 82.7947 558.139 82.752C558.267 82.688 558.459 82.656 558.715 82.656H564.763C564.977 82.656 565.147 82.72 565.275 82.848C565.425 82.976 565.489 83.1467 565.467 83.36C565.446 83.7653 565.254 84.256 564.891 84.832C564.55 85.3867 564.027 85.9307 563.323 86.464C562.619 86.9973 561.723 87.4453 560.635 87.808C559.547 88.1493 558.267 88.32 556.795 88.32ZM555.483 77.568H558.043V77.536C558.043 77.0667 557.99 76.6827 557.883 76.384C557.798 76.0853 557.659 75.872 557.467 75.744C557.275 75.5947 557.041 75.52 556.763 75.52C556.486 75.52 556.251 75.5947 556.059 75.744C555.867 75.872 555.718 76.0853 555.611 76.384C555.526 76.6827 555.483 77.0667 555.483 77.536V77.568ZM568.349 88C568.114 88 567.912 87.9147 567.741 87.744C567.57 87.5733 567.485 87.3707 567.485 87.136V72.224C567.485 71.9893 567.57 71.7867 567.741 71.616C567.912 71.4453 568.114 71.36 568.349 71.36H574.077C574.312 71.36 574.514 71.4453 574.685 71.616C574.856 71.7867 574.941 71.9893 574.941 72.224V76.8H578.141V72.224C578.141 71.9893 578.226 71.7867 578.397 71.616C578.568 71.4453 578.77 71.36 579.005 71.36H584.733C584.968 71.36 585.17 71.4453 585.341 71.616C585.512 71.7867 585.597 71.9893 585.597 72.224V87.136C585.597 87.3707 585.512 87.5733 585.341 87.744C585.17 87.9147 584.968 88 584.733 88H579.005C578.77 88 578.568 87.9147 578.397 87.744C578.226 87.5733 578.141 87.3707 578.141 87.136V82.4H574.941V87.136C574.941 87.3707 574.856 87.5733 574.685 87.744C574.514 87.9147 574.312 88 574.077 88H568.349ZM593.088 88C592.853 88 592.65 87.9147 592.48 87.744C592.309 87.5733 592.224 87.3707 592.224 87.136V76.96H587.968C587.733 76.96 587.53 76.8747 587.36 76.704C587.189 76.5333 587.104 76.3307 587.104 76.096V72.224C587.104 71.9893 587.189 71.7867 587.36 71.616C587.53 71.4453 587.733 71.36 587.968 71.36H603.808C604.042 71.36 604.245 71.4453 604.416 71.616C604.586 71.7867 604.672 71.9893 604.672 72.224V76.096C604.672 76.3307 604.586 76.5333 604.416 76.704C604.245 76.8747 604.042 76.96 603.808 76.96H599.552V87.136C599.552 87.3707 599.466 87.5733 599.296 87.744C599.125 87.9147 598.922 88 598.688 88H593.088ZM614.787 88.32C612.824 88.32 611.171 88.0533 609.827 87.52C608.483 86.9867 607.448 86.1867 606.723 85.12C606.019 84.0533 605.614 82.7413 605.507 81.184C605.486 80.6933 605.475 80.192 605.475 79.68C605.475 79.1467 605.486 78.6453 605.507 78.176C605.614 76.5973 606.051 75.2853 606.819 74.24C607.587 73.1733 608.643 72.3733 609.987 71.84C611.331 71.3067 612.931 71.04 614.787 71.04C616.643 71.04 618.243 71.3067 619.587 71.84C620.931 72.3733 621.987 73.1733 622.755 74.24C623.523 75.2853 623.96 76.5973 624.067 78.176C624.11 78.6453 624.131 79.1467 624.131 79.68C624.131 80.192 624.11 80.6933 624.067 81.184C623.96 82.7413 623.544 84.0533 622.819 85.12C622.115 86.1867 621.091 86.9867 619.747 87.52C618.403 88.0533 616.75 88.32 614.787 88.32ZM614.787 83.2C615.406 83.2 615.79 83.0293 615.939 82.688C616.088 82.3253 616.184 81.7707 616.227 81.024C616.248 80.704 616.259 80.256 616.259 79.68C616.259 79.104 616.248 78.656 616.227 78.336C616.184 77.632 616.088 77.0987 615.939 76.736C615.79 76.352 615.406 76.16 614.787 76.16C614.19 76.16 613.806 76.352 613.635 76.736C613.486 77.0987 613.39 77.632 613.347 78.336C613.326 78.656 613.315 79.104 613.315 79.68C613.315 80.256 613.326 80.704 613.347 81.024C613.39 81.7707 613.486 82.3253 613.635 82.688C613.806 83.0293 614.19 83.2 614.787 83.2ZM626.71 88C626.476 88 626.273 87.9147 626.102 87.744C625.932 87.5733 625.846 87.3707 625.846 87.136V72.224C625.846 71.9893 625.932 71.7867 626.102 71.616C626.273 71.4453 626.476 71.36 626.71 71.36H634.934C637.921 71.36 640.054 71.808 641.334 72.704C642.636 73.6 643.286 74.816 643.286 76.352C643.286 77.0347 643.148 77.632 642.87 78.144C642.593 78.656 642.241 79.0933 641.814 79.456C642.433 79.8187 642.934 80.2773 643.318 80.832C643.724 81.3653 643.926 82.0587 643.926 82.912C643.926 84.448 643.276 85.6853 641.974 86.624C640.694 87.5413 638.561 88 635.574 88H626.71ZM633.014 83.616H635.254C635.617 83.616 635.894 83.5627 636.086 83.456C636.3 83.3493 636.406 83.136 636.406 82.816C636.406 82.496 636.3 82.2827 636.086 82.176C635.894 82.048 635.617 81.984 635.254 81.984H633.014V83.616ZM633.014 77.376H635.254C635.638 77.376 635.926 77.3227 636.118 77.216C636.31 77.1093 636.406 76.896 636.406 76.576C636.406 76.256 636.3 76.0427 636.086 75.936C635.894 75.808 635.617 75.744 635.254 75.744H633.014V77.376Z" fill="white"/>
</svg>
