<?xml version="1.0" standalone="no"?>
<!DOCTYPE svg PUBLIC "-//W3C//DTD SVG 20010904//EN"
 "http://www.w3.org/TR/2001/REC-SVG-20010904/DTD/svg10.dtd">
<svg version="1.0" xmlns="http://www.w3.org/2000/svg"
 width="512.000000pt" height="512.000000pt" viewBox="0 0 512.000000 512.000000"
 preserveAspectRatio="xMidYMid meet">

<g transform="translate(0.000000,512.000000) scale(0.100000,-0.100000)"
fill="#FFFFFF" stroke="none">
<path d="M1295 4726 c-144 -36 -262 -145 -305 -282 -19 -63 -20 -92 -20 -680
l0 -614 -262 0 c-145 -1 -293 -5 -330 -9 -129 -17 -251 -95 -315 -202 -64
-107 -63 -90 -63 -979 0 -650 3 -815 14 -856 44 -167 180 -290 351 -319 l70
-11 3 -89 c2 -49 -2 -111 -8 -138 -14 -67 11 -126 65 -151 49 -23 92 -16 162
26 113 69 213 179 277 306 l26 52 818 0 c892 0 883 0 982 57 69 41 134 112
171 189 l34 69 5 185 5 185 317 3 317 2 20 26 c36 46 22 93 -33 114 -17 6
-144 10 -326 10 l-299 0 -3 603 -3 602 -32 68 c-65 138 -187 228 -335 247 -40
5 -124 10 -185 10 l-113 0 1 158 c0 93 5 170 12 189 22 60 72 117 128 148 l54
30 1140 0 1140 0 40 -22 c23 -12 59 -41 82 -65 77 -84 74 -43 71 -959 l-3
-814 -30 -54 c-50 -90 -106 -124 -248 -150 -70 -12 -111 -40 -137 -91 -17 -32
-20 -59 -20 -155 0 -78 -4 -115 -11 -115 -27 0 -156 148 -199 230 -29 54 -57
92 -78 106 -40 27 -126 38 -258 32 -86 -4 -99 -7 -115 -27 -23 -28 -24 -69 -3
-99 14 -21 22 -22 147 -22 73 0 137 -4 143 -8 6 -4 28 -41 50 -82 77 -148 254
-299 359 -308 44 -4 55 0 83 23 38 32 53 80 41 132 -5 21 -9 82 -9 135 0 110
-8 100 91 113 104 13 227 98 286 196 64 107 63 90 63 979 0 865 1 851 -52 955
-51 100 -167 188 -279 214 -26 6 -212 11 -446 11 l-402 0 -3 293 -3 292 -36
75 c-61 125 -168 211 -297 239 -37 8 -315 11 -916 11 -858 0 -863 0 -890 -21
-34 -27 -36 -79 -4 -109 22 -20 30 -20 888 -20 971 0 930 3 1014 -71 89 -79
91 -84 94 -406 l3 -283 -640 0 c-599 0 -643 -1 -700 -19 -121 -38 -205 -111
-264 -231 -32 -64 -32 -65 -35 -247 l-4 -183 -514 0 -515 0 3 623 c3 616 3
622 25 662 33 62 103 121 164 139 29 9 88 16 131 16 70 0 82 3 103 25 14 13
25 36 25 50 0 14 -11 37 -25 50 -22 23 -31 25 -112 24 -48 0 -110 -6 -138 -13z
m1355 -1752 c62 -29 105 -67 138 -123 l27 -46 3 -831 2 -831 -32 -63 c-36 -69
-98 -121 -166 -140 -24 -6 -328 -10 -852 -10 -502 0 -828 -4 -849 -10 -50 -14
-87 -54 -134 -144 -40 -78 -127 -180 -174 -205 l-23 -12 0 115 c0 121 -8 156
-43 195 -29 31 -94 61 -134 61 -62 0 -139 38 -187 91 -80 89 -76 42 -76 938 0
511 4 809 10 833 27 96 120 181 216 198 27 4 539 7 1139 6 1083 -1 1090 -1
1135 -22z"/>
<path d="M1058 2662 c-26 -2 -44 -11 -58 -29 -26 -33 -25 -56 3 -88 19 -23 33
-28 87 -31 131 -9 218 -58 290 -164 45 -67 64 -80 112 -80 42 1 55 12 102 82
68 103 169 159 286 160 250 0 398 -249 325 -547 -31 -125 -156 -288 -300 -390
-70 -50 -415 -246 -424 -241 -3 2 -80 45 -171 96 -220 123 -297 178 -385 272
-119 128 -175 261 -175 414 0 92 19 164 63 245 28 51 30 58 18 87 -8 19 -24
35 -43 41 -47 17 -79 -7 -121 -87 -53 -100 -70 -184 -65 -317 8 -193 75 -340
225 -496 102 -105 170 -153 418 -294 255 -146 230 -145 460 -15 98 56 209 121
245 144 271 176 423 422 423 686 0 169 -53 310 -153 410 -188 188 -486 190
-676 4 l-56 -54 -60 55 c-107 99 -241 149 -370 137z"/>
<path d="M1524 4196 c-48 -21 -60 -80 -24 -116 20 -20 33 -20 955 -20 922 0
935 0 955 20 38 38 22 100 -31 119 -51 18 -1814 15 -1855 -3z"/>
<path d="M1506 3859 c-34 -27 -36 -77 -3 -107 23 -21 30 -22 271 -22 l247 0
26 26 c20 20 24 31 19 57 -12 65 -21 67 -291 67 -230 0 -244 -1 -269 -21z"/>
<path d="M1500 3560 c-22 -22 -26 -60 -10 -90 17 -32 67 -40 240 -40 173 0
223 8 240 40 16 30 12 68 -10 90 -19 19 -33 20 -230 20 -197 0 -211 -1 -230
-20z"/>
<path d="M2676 3338 c-9 -12 -16 -34 -16 -48 0 -14 7 -36 16 -48 l15 -22 940
0 c926 0 939 0 959 20 11 11 20 33 20 50 0 17 -9 39 -20 50 -20 20 -33 20
-959 20 l-940 0 -15 -22z"/>
<path d="M3176 3019 c-34 -27 -36 -77 -3 -107 l23 -22 683 0 682 0 24 25 c14
13 25 36 25 50 0 14 -11 37 -25 50 l-24 25 -679 0 c-672 0 -680 0 -706 -21z"/>
<path d="M3193 2710 c-44 -18 -57 -86 -23 -120 20 -20 33 -20 708 -20 l689 0
21 23 c39 41 25 97 -29 116 -39 13 -1332 14 -1366 1z"/>
<path d="M3170 2370 c-25 -25 -26 -71 -1 -101 l19 -24 692 0 692 0 19 24 c26
32 24 73 -4 99 l-23 22 -687 0 c-674 0 -687 0 -707 -20z"/>
<path d="M3203 2093 c-50 -10 -70 -86 -33 -123 19 -19 33 -20 455 -20 422 0
436 1 455 20 38 38 22 100 -31 119 -31 11 -793 14 -846 4z"/>
</g>
</svg>
