<?xml version="1.0" standalone="no"?>
<!DOCTYPE svg PUBLIC "-//W3C//DTD SVG 20010904//EN"
 "http://www.w3.org/TR/2001/REC-SVG-20010904/DTD/svg10.dtd">
<svg version="1.0" xmlns="http://www.w3.org/2000/svg"
 width="512.000000pt" height="512.000000pt" viewBox="0 0 512.000000 512.000000"
 preserveAspectRatio="xMidYMid meet">

<g transform="translate(0.000000,512.000000) scale(0.100000,-0.100000)"
fill="#FFFFFF" stroke="none">
<path d="M2422 5107 c-88 -32 -141 -111 -142 -209 l0 -56 -307 -4 c-343 -4
-350 -5 -416 -73 -62 -63 -62 -67 -62 -520 0 -401 0 -411 22 -450 11 -22 32
-50 45 -62 36 -34 109 -63 161 -63 l47 0 0 -115 c0 -101 2 -117 20 -135 25
-25 63 -35 87 -22 10 6 92 69 182 141 l163 131 222 0 222 0 55 28 c78 39 111
91 118 184 9 110 16 108 226 -61 187 -151 208 -161 256 -122 22 18 24 28 29
138 l5 118 60 5 c33 3 74 13 91 23 45 24 102 94 111 136 5 20 8 216 8 436 0
394 0 401 -22 442 -27 51 -82 96 -132 112 -55 16 -1003 14 -1049 -2z m1024
-168 c18 -20 19 -43 22 -393 1 -286 -1 -377 -11 -396 -12 -24 -18 -25 -114
-30 -131 -6 -146 -18 -153 -120 l-5 -70 -100 81 c-112 91 -147 109 -205 109
l-40 0 0 275 c0 310 -2 320 -76 384 -52 46 -75 53 -206 59 l-118 5 0 40 c0 81
-28 77 510 77 472 0 477 0 496 -21z m-783 -278 c15 -12 17 -53 17 -407 l0
-393 -22 -15 c-19 -13 -60 -16 -251 -16 -153 0 -236 -4 -250 -12 -12 -6 -68
-49 -124 -95 l-103 -83 0 60 c0 64 -18 113 -45 124 -9 3 -56 6 -104 6 -135 0
-125 -31 -129 409 -2 233 1 378 8 395 5 14 20 31 32 36 13 5 220 8 489 7 378
-2 469 -5 482 -16z"/>
<path d="M1823 4445 c-26 -18 -38 -67 -23 -94 28 -53 88 -63 130 -21 64 64
-33 167 -107 115z"/>
<path d="M2022 4437 c-32 -34 -30 -89 4 -116 25 -20 39 -21 246 -21 l220 0 29
29 c16 16 29 37 29 46 0 24 -27 72 -45 79 -9 3 -117 6 -239 6 -220 0 -223 0
-244 -23z"/>
<path d="M1815 4175 c-32 -31 -32 -66 -1 -102 l24 -28 331 0 c328 0 331 0 353
22 31 31 30 89 -1 114 -22 18 -46 19 -353 19 l-329 0 -24 -25z"/>
<path d="M820 4189 c-122 -18 -254 -89 -330 -177 -151 -177 -173 -436 -54
-633 19 -31 41 -62 49 -69 14 -11 9 -17 -32 -41 -63 -36 -115 -91 -150 -159
l-28 -55 -3 -815 -2 -815 30 -62 c35 -71 91 -124 159 -149 40 -16 94 -19 433
-22 l387 -3 3 -482 3 -482 28 -57 c65 -132 208 -195 349 -154 65 19 147 86
181 150 22 41 22 42 25 713 2 575 0 677 -12 708 l-15 35 320 0 319 0 0 -609 0
-609 -103 -4 c-93 -3 -108 -6 -145 -31 -63 -41 -85 -92 -90 -209 l-4 -97 30
-31 30 -30 362 0 362 0 30 30 30 31 -4 97 c-5 117 -27 168 -90 209 -37 25 -52
28 -145 31 l-103 4 0 609 0 609 319 0 320 0 -15 -35 c-12 -31 -14 -133 -12
-708 3 -671 3 -672 25 -713 34 -63 116 -131 181 -150 142 -42 293 28 356 165
20 44 21 62 24 528 l3 482 387 4 c279 2 397 7 422 16 88 32 167 116 190 201 7
26 10 309 8 837 l-3 798 -27 57 c-32 70 -94 138 -152 169 l-44 23 28 35 c96
121 134 309 94 465 -47 182 -191 327 -379 382 -70 20 -208 22 -275 4 -331 -90
-500 -461 -348 -765 57 -112 183 -226 291 -261 29 -9 55 -20 60 -23 4 -4 -116
-129 -267 -279 l-273 -272 -339 0 c-203 0 -354 -4 -376 -10 -58 -16 -119 -69
-151 -130 -27 -51 -29 -61 -24 -142 l4 -88 -107 0 -108 0 5 85 c5 77 3 89 -21
139 -29 60 -85 111 -144 132 -28 10 -123 13 -382 14 l-344 0 -273 272 c-150
150 -269 275 -265 279 4 4 30 14 59 23 108 35 234 149 291 261 52 105 71 269
42 375 -49 182 -199 334 -379 385 -64 18 -156 24 -221 14z m218 -181 c68 -25
163 -113 197 -181 94 -194 13 -424 -183 -515 -50 -24 -70 -27 -157 -27 -90 0
-106 3 -160 29 -76 38 -143 105 -181 181 -26 54 -29 70 -29 160 0 87 3 107 27
157 86 184 292 267 486 196z m3248 21 c123 -22 230 -105 282 -217 24 -50 27
-70 27 -157 0 -90 -3 -106 -29 -160 -38 -76 -105 -143 -181 -181 -54 -26 -70
-29 -160 -29 -87 0 -107 3 -157 27 -190 89 -274 312 -189 503 44 101 168 196
278 215 68 11 64 11 129 -1z m-3520 -903 c49 -23 109 -77 396 -364 l339 -337
375 -5 376 -5 24 -28 c56 -65 15 -158 -77 -172 -24 -3 -206 -5 -404 -3 -281 2
-365 6 -385 17 -14 7 -143 131 -287 274 -234 232 -265 260 -294 260 -23 0 -39
-8 -56 -27 -42 -49 -33 -69 82 -186 l105 -106 0 -332 0 -332 -265 0 -265 0 2
623 3 623 27 41 c40 60 116 96 190 90 31 -3 83 -17 114 -31z m3811 9 c32 -16
61 -41 79 -67 l29 -41 3 -624 2 -623 -265 0 -265 0 0 332 0 332 105 106 c115
117 124 137 82 186 -17 19 -33 27 -56 27 -29 0 -60 -28 -294 -260 -144 -143
-273 -267 -287 -274 -20 -11 -104 -15 -385 -17 -198 -2 -380 0 -404 3 -92 14
-133 107 -77 172 l24 28 376 5 375 5 333 331 c183 182 350 341 371 354 91 54
177 63 254 25z m-3352 -954 c53 -52 107 -94 128 -102 l38 -13 -3 -141 -3 -140
-130 0 -130 0 -3 243 c-1 133 1 242 4 242 4 0 48 -40 99 -89z m2773 -153 l-3
-243 -130 0 -130 0 -2 140 -3 140 48 22 c27 13 80 56 127 103 44 44 83 80 87
80 5 0 7 -109 6 -242z m-428 -108 l0 -140 -1010 0 -1010 0 0 140 0 140 1010 0
1010 0 0 -140z m-1902 -334 l37 -34 3 -649 c2 -636 2 -649 -18 -681 -37 -61
-122 -79 -181 -39 -71 47 -69 33 -69 608 l0 516 -23 21 c-22 21 -30 21 -458
24 -399 3 -437 4 -462 21 -51 33 -67 73 -67 165 l0 82 600 0 600 0 38 -34z
m3022 -48 c0 -92 -16 -132 -67 -165 -25 -17 -63 -18 -462 -21 -428 -3 -436 -3
-458 -24 l-23 -21 0 -516 c0 -575 2 -561 -69 -608 -59 -40 -144 -22 -181 39
-20 32 -20 45 -18 681 l3 649 37 34 38 34 600 0 600 0 0 -82z m-1880 -1317 c5
-11 10 -29 10 -40 0 -21 -4 -21 -260 -21 -256 0 -260 0 -260 21 0 11 5 29 10
40 10 18 24 19 250 19 226 0 240 -1 250 -19z"/>
</g>
</svg>
