<?xml version="1.0" standalone="no"?>
<!DOCTYPE svg PUBLIC "-//W3C//DTD SVG 20010904//EN"
 "http://www.w3.org/TR/2001/REC-SVG-20010904/DTD/svg10.dtd">
<svg version="1.0" xmlns="http://www.w3.org/2000/svg"
 width="512.000000pt" height="512.000000pt" viewBox="0 0 512.000000 512.000000"
 preserveAspectRatio="xMidYMid meet">

<g transform="translate(0.000000,512.000000) scale(0.100000,-0.100000)"
fill="#FFFFFF" stroke="none">
<path d="M190 5111 c-69 -21 -130 -73 -166 -141 -18 -34 -19 -113 -19 -2410
l0 -2375 22 -40 c25 -47 74 -95 123 -121 34 -18 113 -19 2410 -19 l2375 0 40
22 c47 25 95 74 121 123 18 34 19 113 19 2410 0 2297 -1 2376 -19 2410 -26 49
-74 98 -121 123 l-40 22 -2360 2 c-1298 1 -2371 -2 -2385 -6z m4731 -190 l29
-29 0 -226 0 -226 -2390 0 -2390 0 0 226 0 226 29 29 29 29 2332 0 2332 0 29
-29z m29 -2672 l0 -2021 -29 -29 -29 -29 -2332 0 -2332 0 -29 29 -29 29 0
2021 0 2021 2390 0 2390 0 0 -2021z"/>
<path d="M475 4768 c-51 -30 -61 -93 -20 -133 23 -24 30 -25 143 -25 114 0
119 1 142 25 32 34 32 87 2 118 -20 20 -34 22 -135 25 -73 1 -119 -2 -132 -10z"/>
<path d="M1330 4767 c-55 -28 -64 -94 -18 -137 22 -20 30 -20 1248 -20 1218 0
1226 0 1248 20 46 43 37 109 -18 137 -36 18 -2424 18 -2460 0z"/>
<path d="M4400 4767 c-52 -26 -60 -89 -18 -134 20 -21 30 -23 140 -23 113 0
120 1 143 25 42 41 31 105 -22 133 -29 16 -211 15 -243 -1z"/>
<path d="M874 4090 c-109 -23 -214 -112 -253 -213 -38 -102 -23 -222 37 -311
l27 -39 -25 -15 c-14 -9 -55 -45 -91 -81 -96 -97 -138 -197 -139 -329 0 -54 4
-67 25 -87 l24 -25 461 0 461 0 24 26 c20 22 25 37 25 83 0 152 -84 309 -211
395 l-48 32 30 44 c115 172 46 409 -144 495 -60 27 -144 37 -203 25z m157
-193 c39 -26 79 -97 79 -142 0 -40 -38 -114 -71 -138 -55 -40 -144 -40 -198 0
-51 39 -66 70 -66 138 0 71 17 103 75 143 46 31 134 31 181 -1z m69 -514 c25
-12 63 -39 84 -60 36 -35 86 -122 86 -150 0 -10 -73 -13 -330 -13 -366 0 -345
-5 -315 67 26 63 81 119 148 153 60 30 66 31 172 28 89 -2 119 -7 155 -25z"/>
<path d="M1970 3988 c-55 -28 -90 -84 -90 -145 l0 -42 -142 -107 c-191 -143
-198 -150 -198 -194 0 -45 17 -62 201 -199 l137 -102 4 -55 c5 -58 24 -93 72
-128 27 -21 30 -21 1331 -21 1301 0 1304 0 1331 21 15 11 37 33 48 48 20 27
21 39 21 434 l0 407 -24 34 c-13 18 -42 42 -65 52 -39 18 -94 19 -1311 19
l-1271 0 -44 -22z m2550 -488 l0 -340 -1235 0 -1235 0 0 44 c0 25 -4 56 -10
70 -5 14 -63 65 -137 121 -70 53 -129 99 -130 103 -1 4 50 45 113 92 153 113
157 117 162 190 l4 60 1234 0 1234 0 0 -340z"/>
<path d="M874 2810 c-109 -23 -214 -112 -253 -213 -38 -102 -23 -222 37 -311
l27 -39 -25 -15 c-14 -9 -55 -45 -91 -81 -96 -97 -138 -197 -139 -329 0 -54 4
-67 25 -87 l24 -25 461 0 461 0 24 26 c20 22 25 37 25 83 0 152 -84 309 -211
395 l-48 32 30 44 c115 172 46 409 -144 495 -60 27 -144 37 -203 25z m157
-193 c39 -26 79 -97 79 -142 0 -40 -38 -114 -71 -138 -55 -40 -144 -40 -198 0
-51 39 -66 70 -66 138 0 71 17 103 75 143 46 31 134 31 181 -1z m69 -514 c25
-12 63 -39 84 -60 36 -35 86 -122 86 -150 0 -10 -73 -13 -330 -13 -366 0 -345
-5 -315 67 26 63 81 119 148 153 60 30 66 31 172 28 89 -2 119 -7 155 -25z"/>
<path d="M1970 2708 c-55 -28 -90 -84 -90 -145 l0 -42 -142 -107 c-191 -143
-198 -150 -198 -194 0 -45 17 -62 201 -199 l137 -102 4 -55 c5 -58 24 -93 72
-128 27 -21 30 -21 1331 -21 1301 0 1304 0 1331 21 15 11 37 33 48 48 20 27
21 39 21 434 l0 407 -24 34 c-13 18 -42 42 -65 52 -39 18 -94 19 -1311 19
l-1271 0 -44 -22z m2550 -488 l0 -340 -1235 0 -1235 0 0 44 c0 25 -4 56 -10
70 -5 14 -63 65 -137 121 -70 53 -129 99 -130 103 -1 4 50 45 113 92 153 113
157 117 162 190 l4 60 1234 0 1234 0 0 -340z"/>
<path d="M4113 1530 c-101 -21 -195 -96 -238 -191 -51 -114 -42 -231 24 -329
l30 -44 -48 -32 c-127 -86 -211 -243 -211 -395 0 -46 5 -61 25 -83 l24 -26
461 0 461 0 24 25 c21 20 25 33 25 87 -1 132 -43 232 -139 329 -36 36 -77 72
-91 81 l-25 15 27 39 c89 131 75 305 -34 420 -80 84 -207 126 -315 104z m157
-192 c58 -40 75 -72 75 -143 0 -68 -15 -99 -66 -138 -54 -40 -143 -40 -198 0
-33 24 -71 98 -71 138 0 45 40 116 79 142 47 32 135 32 181 1z m78 -519 c66
-32 121 -89 147 -152 30 -72 51 -67 -315 -67 -257 0 -330 3 -330 13 0 20 46
111 69 134 75 79 134 101 267 102 93 1 105 -1 162 -30z"/>
<path d="M524 1431 c-23 -10 -52 -34 -65 -52 l-24 -34 0 -407 c0 -395 1 -407
21 -434 11 -15 33 -37 48 -48 27 -21 30 -21 1331 -21 1301 0 1304 0 1331 21
48 35 67 70 72 128 l4 55 137 102 c184 137 201 154 201 199 0 44 -7 51 -197
194 l-143 107 0 42 c0 61 -35 117 -90 145 l-44 22 -1271 0 c-1217 0 -1272 -1
-1311 -19z m2548 -211 c5 -73 9 -77 162 -190 63 -47 114 -88 113 -92 -1 -4
-60 -50 -130 -103 -74 -56 -132 -107 -137 -121 -6 -14 -10 -45 -10 -70 l0 -44
-1235 0 -1235 0 0 340 0 340 1234 0 1234 0 4 -60z"/>
</g>
</svg>
