<?xml version="1.0" standalone="no"?>
<!DOCTYPE svg PUBLIC "-//W3C//DTD SVG 20010904//EN"
 "http://www.w3.org/TR/2001/REC-SVG-20010904/DTD/svg10.dtd">
<svg version="1.0" xmlns="http://www.w3.org/2000/svg"
 width="512.000000pt" height="512.000000pt" viewBox="0 0 512.000000 512.000000"
 preserveAspectRatio="xMidYMid meet">

<g transform="translate(0.000000,512.000000) scale(0.100000,-0.100000)"
fill="#000000" stroke="none">
<path d="M2112 5100 c-21 -13 -35 -31 -38 -50 -12 -60 -1 -96 38 -120 32 -19
51 -20 831 -20 692 0 802 2 827 15 36 18 52 47 52 90 0 43 -16 72 -52 90 -25
13 -135 15 -827 15 -780 0 -799 -1 -831 -20z"/>
<path d="M1829 4803 c-44 -7 -82 -55 -82 -104 0 -35 6 -48 32 -71 l31 -28
1133 0 c1254 0 1163 -5 1192 64 18 42 9 78 -27 113 l-29 28 -1112 1 c-612 1
-1124 -1 -1138 -3z"/>
<path d="M1640 4471 c-55 -17 -110 -53 -148 -96 -75 -85 -72 -54 -72 -839 0
-643 1 -705 17 -750 24 -66 82 -129 151 -163 l57 -28 1295 0 1295 0 57 28 c61
30 105 74 140 140 l23 42 0 730 0 730 -27 50 c-31 60 -77 104 -138 136 l-45
24 -1290 2 c-709 1 -1301 -2 -1315 -6z m350 -243 c-1 -85 -49 -173 -125 -227
-53 -38 -101 -56 -177 -65 l-58 -7 0 144 0 145 31 26 c30 25 34 26 180 26
l149 0 0 -42z m1695 5 c25 -176 59 -249 159 -348 99 -97 203 -144 359 -160
l57 -6 0 -180 0 -179 -37 0 c-134 -1 -276 -62 -378 -165 -99 -99 -141 -191
-160 -348 l-6 -47 -737 2 -737 3 -6 70 c-17 178 -135 348 -297 426 -66 32
-172 59 -234 59 l-38 0 0 179 0 180 58 6 c150 16 250 57 338 138 106 96 174
234 174 353 l0 54 740 0 739 0 6 -37z m546 8 l29 -29 0 -142 0 -141 -57 7
c-75 9 -126 27 -173 61 -76 57 -122 134 -134 226 l-6 47 156 0 156 0 29 -29z
m-2436 -1120 c104 -46 195 -174 195 -274 l0 -48 -156 3 -156 3 -24 28 c-23 27
-24 34 -24 174 l0 146 61 -7 c33 -3 80 -15 104 -25z m2465 -115 c0 -139 -1
-146 -24 -173 l-24 -28 -162 -3 -162 -3 7 43 c12 82 36 137 81 187 71 79 152
119 247 120 l37 1 0 -144z"/>
<path d="M2795 4246 c-135 -31 -248 -91 -347 -184 -365 -341 -273 -950 177
-1172 115 -56 190 -73 320 -73 125 0 200 16 310 67 344 160 504 573 360 928
-78 191 -250 350 -450 414 -99 32 -276 42 -370 20z m286 -214 c315 -87 470
-447 317 -734 -143 -268 -479 -355 -735 -189 -116 75 -201 206 -225 349 -36
211 78 436 272 537 103 54 255 69 371 37z"/>
<path d="M2053 2419 c-94 -12 -262 -55 -355 -90 -46 -17 -197 -86 -337 -152
-200 -95 -255 -117 -262 -106 -40 70 -107 128 -180 156 -57 21 -458 31 -569
14 -121 -19 -206 -79 -262 -183 l-23 -43 -3 -877 c-2 -867 -2 -877 18 -932 27
-70 93 -139 168 -174 l57 -27 295 0 295 0 57 28 c69 34 140 110 163 175 9 26
19 86 22 134 l6 87 51 10 c500 100 489 100 1271 64 706 -32 784 -32 972 6 234
48 478 160 663 304 36 28 246 201 467 384 330 274 408 344 437 389 120 193 44
455 -162 556 -62 31 -73 33 -172 33 -93 0 -111 -3 -160 -26 -33 -16 -214 -155
-450 -347 -422 -343 -492 -390 -640 -432 -89 -25 -261 -38 -555 -42 l-210 -3
-42 65 c-46 69 -53 108 -25 132 10 9 133 37 314 71 328 61 377 77 456 151 154
145 162 380 17 535 -53 56 -144 107 -208 116 -73 9 -755 35 -907 34 -80 -1
-173 -5 -207 -10z m729 -214 c191 -8 360 -20 375 -26 77 -29 127 -124 104
-200 -14 -47 -60 -102 -98 -117 -16 -7 -160 -36 -321 -67 -160 -30 -309 -62
-330 -70 -89 -38 -155 -143 -155 -248 0 -48 7 -72 44 -145 55 -111 124 -182
198 -207 49 -16 76 -16 379 -5 408 14 508 32 681 120 101 50 121 66 525 394
210 169 395 314 413 322 110 47 239 -27 251 -144 9 -102 19 -91 -437 -470
-229 -191 -448 -370 -488 -398 -142 -102 -350 -193 -518 -228 -184 -38 -233
-38 -930 -5 -755 36 -775 36 -1128 -29 -114 -21 -209 -36 -212 -34 -3 3 -5
270 -5 592 0 458 3 590 13 598 22 18 530 258 612 290 250 95 380 105 1027 77z
m-1959 -172 c23 -3 50 -18 68 -35 l29 -30 0 -844 0 -844 -29 -32 -29 -33 -266
0 -266 0 -32 33 -33 32 0 839 c0 836 0 840 21 868 11 15 36 33 55 40 36 13
413 18 482 6z"/>
</g>
</svg>
