<?xml version="1.0" standalone="no"?>
<!DOCTYPE svg PUBLIC "-//W3C//DTD SVG 20010904//EN"
 "http://www.w3.org/TR/2001/REC-SVG-20010904/DTD/svg10.dtd">
<svg version="1.0" xmlns="http://www.w3.org/2000/svg"
 width="512.000000pt" height="512.000000pt" viewBox="0 0 512.000000 512.000000"
 preserveAspectRatio="xMidYMid meet">

<g transform="translate(0.000000,512.000000) scale(0.100000,-0.100000)"
fill="#FFFFFF" stroke="none">
<path d="M696 5100 c-67 -26 -131 -91 -156 -158 -20 -52 -20 -81 -20 -2148 l0
-2095 25 -24 c31 -32 69 -32 100 0 l25 24 0 1016 0 1015 635 0 c566 0 635 -2
635 -15 0 -27 92 -110 136 -123 30 -9 165 -12 486 -12 510 0 510 0 578 77 22
25 40 52 40 59 0 12 106 14 635 14 l635 0 0 -1242 c0 -1215 -1 -1244 -20
-1275 -41 -68 109 -63 -1870 -63 -1979 0 -1829 -5 -1870 63 -15 24 -20 50 -20
110 0 69 -3 81 -25 102 -31 32 -69 32 -100 0 -23 -22 -25 -32 -25 -109 0 -150
61 -252 178 -296 51 -20 84 -20 1862 -20 1782 0 1810 0 1862 20 68 25 132 90
158 158 20 51 20 86 20 2382 0 2296 0 2331 -20 2382 -26 68 -90 133 -158 158
-52 20 -80 20 -1865 20 -1765 -1 -1813 -1 -1861 -20z m3691 -150 c67 -40 63
24 63 -1075 l0 -995 -635 0 c-529 0 -635 2 -635 14 0 7 -18 34 -40 59 -68 77
-68 77 -578 77 -321 0 -456 -3 -486 -12 -44 -13 -136 -96 -136 -123 0 -13 -69
-15 -635 -15 l-635 0 0 770 0 770 1765 0 1766 0 24 25 c32 31 32 69 0 100
l-24 25 -1766 0 -1765 0 0 150 c0 169 8 197 63 230 31 20 64 20 1827 20 1763
0 1796 0 1827 -20z m-1362 -2095 c14 -13 25 -36 25 -50 0 -14 -11 -37 -25 -50
l-24 -25 -441 0 -441 0 -24 25 c-14 13 -25 36 -25 50 0 14 11 37 25 50 l24 25
441 0 441 0 24 -25z"/>
<path d="M824 4861 c-56 -24 -72 -109 -30 -158 20 -23 32 -28 71 -28 60 0 95
35 95 95 0 70 -72 118 -136 91z"/>
<path d="M1174 4861 c-56 -24 -72 -109 -30 -158 20 -23 32 -28 71 -28 60 0 95
35 95 95 0 70 -72 118 -136 91z"/>
<path d="M1524 4861 c-56 -24 -72 -109 -30 -158 20 -23 32 -28 71 -28 60 0 95
35 95 95 0 70 -72 118 -136 91z"/>
<path d="M1267 4002 c-24 -27 -22 -85 4 -108 20 -18 40 -19 329 -19 289 0 309
1 329 19 27 25 29 86 3 109 -16 15 -55 17 -334 17 -292 0 -316 -1 -331 -18z"/>
<path d="M2127 4002 c-24 -27 -22 -85 4 -108 20 -18 42 -19 429 -19 387 0 409
1 429 19 27 25 29 86 3 109 -17 15 -61 17 -434 17 -389 0 -416 -1 -431 -18z"/>
<path d="M3187 4002 c-24 -27 -22 -85 4 -108 20 -18 40 -19 329 -19 289 0 309
1 329 19 27 25 29 86 3 109 -16 15 -55 17 -334 17 -292 0 -316 -1 -331 -18z"/>
<path d="M1647 3702 c-24 -27 -22 -85 4 -108 20 -18 41 -19 404 -19 363 0 384
1 404 19 27 25 29 86 3 109 -17 15 -60 17 -409 17 -365 0 -391 -1 -406 -18z"/>
<path d="M2657 3702 c-24 -27 -22 -85 4 -108 20 -18 41 -19 404 -19 363 0 384
1 404 19 27 25 29 86 3 109 -17 15 -60 17 -409 17 -365 0 -391 -1 -406 -18z"/>
<path d="M2027 3402 c-24 -27 -22 -85 4 -108 20 -18 44 -19 554 -19 510 0 534
1 554 19 27 25 29 86 3 109 -17 15 -70 17 -559 17 -510 0 -541 -1 -556 -18z"/>
<path d="M1293 2411 c-110 -40 -201 -128 -244 -238 -18 -45 -23 -78 -23 -148
0 -107 23 -177 84 -254 79 -100 187 -151 320 -151 175 0 318 96 381 257 32 82
32 214 0 296 -44 111 -135 199 -247 238 -72 25 -200 25 -271 0z m256 -158 c80
-39 139 -130 140 -216 2 -102 -54 -198 -140 -241 -174 -86 -377 37 -377 229 0
145 111 255 258 255 51 0 78 -6 119 -27z"/>
<path d="M2423 2411 c-110 -40 -201 -128 -244 -238 -18 -45 -23 -78 -23 -148
0 -107 23 -177 84 -254 79 -100 187 -151 320 -151 175 0 318 96 381 257 32 82
32 214 0 296 -44 111 -135 199 -247 238 -72 25 -200 25 -271 0z m256 -158 c80
-39 139 -130 140 -216 2 -102 -54 -198 -140 -241 -174 -86 -377 37 -377 229 0
145 111 255 258 255 51 0 78 -6 119 -27z"/>
<path d="M3553 2411 c-110 -40 -201 -128 -244 -238 -18 -45 -23 -78 -23 -148
0 -107 23 -177 84 -254 79 -100 187 -151 320 -151 175 0 318 96 381 257 32 82
32 214 0 296 -44 111 -135 199 -247 238 -72 25 -200 25 -271 0z m256 -158 c80
-39 139 -130 140 -216 2 -102 -54 -198 -140 -241 -174 -86 -377 37 -377 229 0
145 111 255 258 255 51 0 78 -6 119 -27z"/>
<path d="M1117 1442 c-24 -27 -22 -85 4 -108 20 -18 40 -19 309 -19 269 0 289
1 309 19 27 25 29 86 3 109 -16 15 -53 17 -314 17 -273 0 -296 -1 -311 -18z"/>
<path d="M2247 1442 c-24 -27 -22 -85 4 -108 20 -18 40 -19 309 -19 269 0 289
1 309 19 27 25 29 86 3 109 -16 15 -53 17 -314 17 -273 0 -296 -1 -311 -18z"/>
<path d="M3377 1442 c-24 -27 -22 -85 4 -108 20 -18 40 -19 309 -19 269 0 289
1 309 19 27 25 29 86 3 109 -16 15 -53 17 -314 17 -273 0 -296 -1 -311 -18z"/>
<path d="M1073 1100 c-62 -37 -63 -46 -63 -392 0 -293 1 -315 20 -345 39 -65
16 -63 692 -63 590 0 614 1 645 20 62 37 63 46 63 390 0 344 -1 353 -63 390
-31 19 -55 20 -647 20 -592 0 -616 -1 -647 -20z m1207 -390 l0 -260 -88 0 -87
0 -120 121 c-132 133 -188 169 -265 169 -77 0 -133 -36 -265 -169 l-120 -121
-87 0 -88 0 0 260 0 260 560 0 560 0 0 -260z m-457 -190 l72 -69 -175 -1 -175
0 71 70 c96 94 109 94 207 0z"/>
<path d="M2753 1100 c-62 -37 -63 -46 -63 -392 0 -293 1 -315 20 -345 39 -65
16 -63 692 -63 590 0 614 1 645 20 62 37 63 46 63 390 0 344 -1 353 -63 390
-31 19 -55 20 -647 20 -592 0 -616 -1 -647 -20z m1207 -390 l0 -260 -88 0 -87
0 -120 121 c-132 133 -188 169 -265 169 -77 0 -133 -36 -265 -169 l-120 -121
-87 0 -88 0 0 260 0 260 560 0 560 0 0 -260z m-457 -190 l72 -69 -175 -1 -175
0 71 70 c96 94 109 94 207 0z"/>
</g>
</svg>
