<svg width="645" height="100" viewBox="0 0 645 100" fill="none" xmlns="http://www.w3.org/2000/svg">
<path d="M81.5766 57.1636L29.0623 58.9895C13.1776 59.5418 0 46.8144 0 30.9202V29.6348C0 13.3181 13.3174 0.138684 29.6332 0.308592L361.558 3.76517C370.841 3.86184 376.025 14.5206 370.368 21.8823C364.679 29.2868 369.958 40 379.296 40H615.103C631.615 40 645 53.3852 645 69.8967C645 86.4887 631.489 99.907 614.897 99.7927L95.3876 96.2153C85.0429 96.1441 80.5745 83.0767 88.7097 76.6863C97.0256 70.1539 92.145 56.7962 81.5766 57.1636Z" fill="#040F16"/>
<path d="M29.8799 43C29.6666 43 29.4852 42.936 29.3359 42.808C29.2079 42.6587 29.1439 42.4773 29.1439 42.264V23.48H21.2079V28.632C21.2079 31.192 21.0692 33.3787 20.7919 35.192C20.5146 36.984 20.0879 38.4453 19.5119 39.576C18.9359 40.6853 18.1892 41.5173 17.2719 42.072C16.3759 42.6053 15.2879 42.904 14.0079 42.968C13.7946 42.9893 13.6132 42.9253 13.4639 42.776C13.3146 42.6267 13.2399 42.4347 13.2399 42.2V40.792C13.2399 40.3653 13.4639 40.12 13.9119 40.056C14.5732 39.9493 15.1599 39.6613 15.6719 39.192C16.2052 38.7227 16.6532 38.0293 17.0159 37.112C17.3786 36.1733 17.6559 34.9787 17.8479 33.528C18.0399 32.056 18.1359 30.296 18.1359 28.248V21.336C18.1359 21.1227 18.1999 20.952 18.3279 20.824C18.4772 20.6747 18.6586 20.6 18.8719 20.6H31.5119C31.7466 20.6 31.9279 20.6747 32.0559 20.824C32.2052 20.952 32.2799 21.1333 32.2799 21.368V42.264C32.2799 42.4773 32.2052 42.6587 32.0559 42.808C31.9279 42.936 31.7466 43 31.5119 43H29.8799ZM43.4184 43.32C41.2211 43.32 39.4717 42.648 38.1704 41.304C36.8691 39.9387 36.1544 38.0827 36.0264 35.736C36.0051 35.4587 35.9944 35.1067 35.9944 34.68C35.9944 34.232 36.0051 33.8693 36.0264 33.592C36.1117 32.0773 36.4637 30.7547 37.0824 29.624C37.7011 28.472 38.5437 27.5867 39.6104 26.968C40.6984 26.3493 41.9677 26.04 43.4184 26.04C45.0397 26.04 46.3944 26.3813 47.4824 27.064C48.5917 27.7467 49.4344 28.7173 50.0104 29.976C50.5864 31.2347 50.8744 32.7067 50.8744 34.392V34.936C50.8744 35.1707 50.7997 35.352 50.6504 35.48C50.5224 35.608 50.3517 35.672 50.1384 35.672H39.0664C39.0664 35.6933 39.0664 35.736 39.0664 35.8C39.0664 35.864 39.0664 35.9173 39.0664 35.96C39.1091 36.8347 39.3011 37.656 39.6424 38.424C39.9837 39.1707 40.4744 39.7787 41.1144 40.248C41.7544 40.7173 42.5224 40.952 43.4184 40.952C44.1864 40.952 44.8264 40.8347 45.3384 40.6C45.8504 40.3653 46.2664 40.1093 46.5864 39.832C46.9064 39.5333 47.1197 39.3093 47.2264 39.16C47.4184 38.8827 47.5677 38.7227 47.6744 38.68C47.7811 38.616 47.9517 38.584 48.1864 38.584H49.7224C49.9357 38.584 50.1064 38.648 50.2344 38.776C50.3837 38.8827 50.4477 39.0427 50.4264 39.256C50.4051 39.576 50.2344 39.9707 49.9144 40.44C49.5944 40.888 49.1357 41.336 48.5384 41.784C47.9411 42.232 47.2157 42.6053 46.3624 42.904C45.5091 43.1813 44.5277 43.32 43.4184 43.32ZM39.0664 33.464H47.8344V33.368C47.8344 32.408 47.6531 31.5547 47.2904 30.808C46.9491 30.0613 46.4477 29.4747 45.7864 29.048C45.1251 28.6 44.3357 28.376 43.4184 28.376C42.5011 28.376 41.7117 28.6 41.0504 29.048C40.4104 29.4747 39.9197 30.0613 39.5784 30.808C39.2371 31.5547 39.0664 32.408 39.0664 33.368V33.464ZM54.7967 43C54.5833 43 54.402 42.936 54.2527 42.808C54.1247 42.6587 54.0607 42.4773 54.0607 42.264V27.096C54.0607 26.8827 54.1247 26.712 54.2527 26.584C54.402 26.4347 54.5833 26.36 54.7967 26.36H64.3647C64.578 26.36 64.7487 26.4347 64.8767 26.584C65.0047 26.712 65.0687 26.8827 65.0687 27.096V28.184C65.0687 28.3973 65.0047 28.5787 64.8767 28.728C64.7487 28.856 64.578 28.92 64.3647 28.92H57.0367V42.264C57.0367 42.4773 56.9727 42.6587 56.8447 42.808C56.7167 42.936 56.546 43 56.3327 43H54.7967ZM71.8107 43.32C70.744 43.32 69.7733 43.1067 68.8987 42.68C68.024 42.2533 67.32 41.6773 66.7867 40.952C66.2533 40.2267 65.9867 39.4053 65.9867 38.488C65.9867 37.016 66.584 35.8427 67.7787 34.968C68.9733 34.0933 70.5307 33.5173 72.4507 33.24L77.2187 32.568V31.64C77.2187 30.616 76.92 29.816 76.3227 29.24C75.7467 28.664 74.7973 28.376 73.4747 28.376C72.5147 28.376 71.736 28.568 71.1387 28.952C70.5627 29.336 70.1573 29.8267 69.9227 30.424C69.7947 30.744 69.5707 30.904 69.2507 30.904H67.8107C67.576 30.904 67.3947 30.84 67.2667 30.712C67.16 30.5627 67.1067 30.392 67.1067 30.2C67.1067 29.88 67.224 29.4853 67.4587 29.016C67.7147 28.5467 68.0987 28.088 68.6107 27.64C69.1227 27.192 69.7733 26.8187 70.5627 26.52C71.3733 26.2 72.3547 26.04 73.5067 26.04C74.7867 26.04 75.864 26.2107 76.7387 26.552C77.6133 26.872 78.296 27.3093 78.7867 27.864C79.2987 28.4187 79.6613 29.048 79.8747 29.752C80.1093 30.456 80.2267 31.1707 80.2267 31.896V42.264C80.2267 42.4773 80.152 42.6587 80.0027 42.808C79.8747 42.936 79.704 43 79.4907 43H78.0187C77.784 43 77.6027 42.936 77.4747 42.808C77.3467 42.6587 77.2827 42.4773 77.2827 42.264V40.888C77.0053 41.272 76.632 41.656 76.1627 42.04C75.6933 42.4027 75.1067 42.712 74.4027 42.968C73.6987 43.2027 72.8347 43.32 71.8107 43.32ZM72.4827 40.92C73.3573 40.92 74.1573 40.7387 74.8827 40.376C75.608 39.992 76.1733 39.4053 76.5787 38.616C77.0053 37.8267 77.2187 36.8347 77.2187 35.64V34.744L73.5067 35.288C71.992 35.5013 70.8507 35.864 70.0827 36.376C69.3147 36.8667 68.9307 37.496 68.9307 38.264C68.9307 38.8613 69.1013 39.3627 69.4427 39.768C69.8053 40.152 70.2533 40.44 70.7867 40.632C71.3413 40.824 71.9067 40.92 72.4827 40.92ZM83.3869 43C83.1736 43 82.9922 42.9253 82.8429 42.776C82.6936 42.6267 82.6189 42.4453 82.6189 42.232V41.048C82.6189 40.6 82.8429 40.3653 83.2909 40.344C83.9522 40.3227 84.5069 40.0133 84.9549 39.416C85.4029 38.7973 85.7442 37.8267 85.9789 36.504C86.2136 35.16 86.3309 33.3893 86.3309 31.192V27.096C86.3309 26.8827 86.3949 26.712 86.5229 26.584C86.6722 26.4347 86.8536 26.36 87.0669 26.36H97.2429C97.4562 26.36 97.6269 26.4347 97.7549 26.584C97.9042 26.712 97.9789 26.8827 97.9789 27.096V42.264C97.9789 42.4773 97.9042 42.6587 97.7549 42.808C97.6269 42.936 97.4562 43 97.2429 43H95.7069C95.4936 43 95.3229 42.936 95.1949 42.808C95.0669 42.6587 95.0029 42.4773 95.0029 42.264V28.92H89.2429V31.544C89.2429 33.592 89.1256 35.352 88.8909 36.824C88.6562 38.2747 88.2936 39.4587 87.8029 40.376C87.3336 41.272 86.7256 41.9333 85.9789 42.36C85.2536 42.7867 84.3896 43 83.3869 43ZM102.845 43C102.632 43 102.451 42.936 102.301 42.808C102.173 42.6587 102.109 42.4773 102.109 42.264V27.096C102.109 26.8827 102.173 26.712 102.301 26.584C102.451 26.4347 102.632 26.36 102.845 26.36H104.381C104.595 26.36 104.765 26.4347 104.893 26.584C105.043 26.712 105.117 26.8827 105.117 27.096V31.8H108.701C110.877 31.8 112.467 32.312 113.469 33.336C114.472 34.36 114.973 35.7467 114.973 37.496C114.973 39.3733 114.419 40.76 113.309 41.656C112.2 42.552 110.536 43 108.317 43H102.845ZM105.085 40.6H108.445C109.725 40.6 110.664 40.376 111.261 39.928C111.859 39.4587 112.157 38.648 112.157 37.496C112.157 36.3867 111.869 35.5653 111.293 35.032C110.717 34.4773 109.768 34.2 108.445 34.2H105.085V40.6ZM118.237 43C118.023 43 117.842 42.936 117.693 42.808C117.565 42.6587 117.501 42.4773 117.501 42.264V27.096C117.501 26.8827 117.565 26.712 117.693 26.584C117.842 26.4347 118.023 26.36 118.237 26.36H119.773C119.986 26.36 120.157 26.4347 120.285 26.584C120.413 26.712 120.477 26.8827 120.477 27.096V33.24H129.213V27.096C129.213 26.8827 129.277 26.712 129.405 26.584C129.554 26.4347 129.735 26.36 129.949 26.36H131.453C131.666 26.36 131.837 26.4347 131.965 26.584C132.114 26.712 132.189 26.8827 132.189 27.096V42.264C132.189 42.4773 132.114 42.6587 131.965 42.808C131.837 42.936 131.666 43 131.453 43H129.949C129.735 43 129.554 42.936 129.405 42.808C129.277 42.6587 129.213 42.4773 129.213 42.264V35.8H120.477V42.264C120.477 42.4773 120.413 42.6587 120.285 42.808C120.157 42.936 119.986 43 119.773 43H118.237ZM143.177 43.32C141.555 43.32 140.201 43.0107 139.113 42.392C138.025 41.7733 137.193 40.92 136.617 39.832C136.041 38.7227 135.721 37.464 135.657 36.056C135.635 35.6933 135.625 35.2347 135.625 34.68C135.625 34.104 135.635 33.6453 135.657 33.304C135.721 31.8747 136.041 30.616 136.617 29.528C137.214 28.44 138.057 27.5867 139.145 26.968C140.233 26.3493 141.577 26.04 143.177 26.04C144.777 26.04 146.121 26.3493 147.209 26.968C148.297 27.5867 149.129 28.44 149.705 29.528C150.302 30.616 150.633 31.8747 150.697 33.304C150.718 33.6453 150.729 34.104 150.729 34.68C150.729 35.2347 150.718 35.6933 150.697 36.056C150.633 37.464 150.313 38.7227 149.737 39.832C149.161 40.92 148.329 41.7733 147.241 42.392C146.153 43.0107 144.798 43.32 143.177 43.32ZM143.177 40.856C144.499 40.856 145.555 40.44 146.345 39.608C147.134 38.7547 147.561 37.5173 147.625 35.896C147.646 35.576 147.657 35.1707 147.657 34.68C147.657 34.1893 147.646 33.784 147.625 33.464C147.561 31.8427 147.134 30.616 146.345 29.784C145.555 28.9307 144.499 28.504 143.177 28.504C141.854 28.504 140.787 28.9307 139.977 29.784C139.187 30.616 138.771 31.8427 138.729 33.464C138.707 33.784 138.697 34.1893 138.697 34.68C138.697 35.1707 138.707 35.576 138.729 35.896C138.771 37.5173 139.187 38.7547 139.977 39.608C140.787 40.44 141.854 40.856 143.177 40.856ZM160.72 43.32C158.522 43.32 156.773 42.648 155.472 41.304C154.17 39.9387 153.456 38.0827 153.328 35.736C153.306 35.4587 153.296 35.1067 153.296 34.68C153.296 34.232 153.306 33.8693 153.328 33.592C153.413 32.0773 153.765 30.7547 154.384 29.624C155.002 28.472 155.845 27.5867 156.912 26.968C158 26.3493 159.269 26.04 160.72 26.04C162.341 26.04 163.696 26.3813 164.784 27.064C165.893 27.7467 166.736 28.7173 167.312 29.976C167.888 31.2347 168.176 32.7067 168.176 34.392V34.936C168.176 35.1707 168.101 35.352 167.952 35.48C167.824 35.608 167.653 35.672 167.44 35.672H156.368C156.368 35.6933 156.368 35.736 156.368 35.8C156.368 35.864 156.368 35.9173 156.368 35.96C156.41 36.8347 156.602 37.656 156.944 38.424C157.285 39.1707 157.776 39.7787 158.416 40.248C159.056 40.7173 159.824 40.952 160.72 40.952C161.488 40.952 162.128 40.8347 162.64 40.6C163.152 40.3653 163.568 40.1093 163.888 39.832C164.208 39.5333 164.421 39.3093 164.528 39.16C164.72 38.8827 164.869 38.7227 164.976 38.68C165.082 38.616 165.253 38.584 165.488 38.584H167.024C167.237 38.584 167.408 38.648 167.536 38.776C167.685 38.8827 167.749 39.0427 167.728 39.256C167.706 39.576 167.536 39.9707 167.216 40.44C166.896 40.888 166.437 41.336 165.84 41.784C165.242 42.232 164.517 42.6053 163.664 42.904C162.81 43.1813 161.829 43.32 160.72 43.32ZM156.368 33.464H165.136V33.368C165.136 32.408 164.954 31.5547 164.592 30.808C164.25 30.0613 163.749 29.4747 163.088 29.048C162.426 28.6 161.637 28.376 160.72 28.376C159.802 28.376 159.013 28.6 158.352 29.048C157.712 29.4747 157.221 30.0613 156.88 30.808C156.538 31.5547 156.368 32.408 156.368 33.368V33.464ZM179.27 43C179.078 43 178.907 42.936 178.758 42.808C178.63 42.6587 178.566 42.4987 178.566 42.328V27.096C178.566 26.8827 178.63 26.712 178.758 26.584C178.907 26.4347 179.088 26.36 179.302 26.36H180.838C181.051 26.36 181.222 26.4347 181.35 26.584C181.478 26.712 181.542 26.8827 181.542 27.096V40.664L180.71 39.8L190.406 26.84C190.512 26.712 190.63 26.6053 190.758 26.52C190.886 26.4133 191.046 26.36 191.238 26.36H192.71C192.88 26.36 193.03 26.424 193.158 26.552C193.307 26.68 193.382 26.8293 193.382 27V42.264C193.382 42.4773 193.307 42.6587 193.158 42.808C193.03 42.936 192.859 43 192.646 43H191.142C190.907 43 190.726 42.936 190.598 42.808C190.47 42.6587 190.406 42.4773 190.406 42.264V29.496L191.302 29.464L181.542 42.52C181.456 42.6267 181.35 42.7333 181.222 42.84C181.094 42.9467 180.923 43 180.71 43H179.27ZM210.421 43.32C209.163 43.32 208.096 43.1707 207.221 42.872C206.368 42.552 205.675 42.1573 205.141 41.688C204.629 41.1973 204.256 40.696 204.021 40.184C203.787 39.6507 203.659 39.16 203.637 38.712C203.637 38.52 203.701 38.3707 203.829 38.264C203.957 38.136 204.107 38.072 204.277 38.072H205.781C205.973 38.072 206.133 38.1253 206.261 38.232C206.389 38.3173 206.485 38.4773 206.549 38.712C206.805 39.5227 207.296 40.088 208.021 40.408C208.747 40.728 209.632 40.888 210.677 40.888C211.36 40.888 211.989 40.8027 212.565 40.632C213.141 40.44 213.589 40.1413 213.909 39.736C214.251 39.3307 214.421 38.8293 214.421 38.232C214.421 37.3573 214.165 36.696 213.653 36.248C213.163 35.8 212.395 35.576 211.349 35.576H209.589C209.376 35.576 209.205 35.512 209.077 35.384C208.949 35.256 208.885 35.0853 208.885 34.872V34.008C208.885 33.816 208.949 33.656 209.077 33.528C209.205 33.3787 209.376 33.304 209.589 33.304H211.157C212.032 33.304 212.704 33.1333 213.173 32.792C213.643 32.4507 213.877 31.9067 213.877 31.16C213.877 30.712 213.771 30.2853 213.557 29.88C213.344 29.4747 212.981 29.144 212.469 28.888C211.979 28.6107 211.296 28.472 210.421 28.472C209.184 28.472 208.309 28.6853 207.797 29.112C207.307 29.5173 206.955 30.1253 206.741 30.936C206.656 31.1707 206.549 31.3307 206.421 31.416C206.315 31.5013 206.155 31.544 205.941 31.544H204.501C204.309 31.544 204.149 31.4907 204.021 31.384C203.893 31.2773 203.829 31.128 203.829 30.936C203.851 30.296 203.989 29.688 204.245 29.112C204.523 28.536 204.928 28.0133 205.461 27.544C206.016 27.0747 206.699 26.712 207.509 26.456C208.341 26.1787 209.312 26.04 210.421 26.04C212.021 26.04 213.28 26.2853 214.197 26.776C215.136 27.2667 215.797 27.8747 216.181 28.6C216.587 29.304 216.789 30.008 216.789 30.712C216.789 31.544 216.651 32.2373 216.373 32.792C216.117 33.3467 215.605 33.816 214.837 34.2C215.797 34.5627 216.459 35.1067 216.821 35.832C217.184 36.5573 217.376 37.4 217.397 38.36C217.419 39.4693 217.12 40.3867 216.501 41.112C215.904 41.8373 215.083 42.392 214.037 42.776C212.992 43.1387 211.787 43.32 210.421 43.32ZM225.004 43.32C223.938 43.32 222.967 43.1067 222.092 42.68C221.218 42.2533 220.514 41.6773 219.98 40.952C219.447 40.2267 219.18 39.4053 219.18 38.488C219.18 37.016 219.778 35.8427 220.972 34.968C222.167 34.0933 223.724 33.5173 225.644 33.24L230.412 32.568V31.64C230.412 30.616 230.114 29.816 229.516 29.24C228.94 28.664 227.991 28.376 226.668 28.376C225.708 28.376 224.93 28.568 224.332 28.952C223.756 29.336 223.351 29.8267 223.116 30.424C222.988 30.744 222.764 30.904 222.444 30.904H221.004C220.77 30.904 220.588 30.84 220.46 30.712C220.354 30.5627 220.3 30.392 220.3 30.2C220.3 29.88 220.418 29.4853 220.652 29.016C220.908 28.5467 221.292 28.088 221.804 27.64C222.316 27.192 222.967 26.8187 223.756 26.52C224.567 26.2 225.548 26.04 226.7 26.04C227.98 26.04 229.058 26.2107 229.932 26.552C230.807 26.872 231.49 27.3093 231.98 27.864C232.492 28.4187 232.855 29.048 233.068 29.752C233.303 30.456 233.42 31.1707 233.42 31.896V42.264C233.42 42.4773 233.346 42.6587 233.196 42.808C233.068 42.936 232.898 43 232.684 43H231.212C230.978 43 230.796 42.936 230.668 42.808C230.54 42.6587 230.476 42.4773 230.476 42.264V40.888C230.199 41.272 229.826 41.656 229.356 42.04C228.887 42.4027 228.3 42.712 227.596 42.968C226.892 43.2027 226.028 43.32 225.004 43.32ZM225.676 40.92C226.551 40.92 227.351 40.7387 228.076 40.376C228.802 39.992 229.367 39.4053 229.772 38.616C230.199 37.8267 230.412 36.8347 230.412 35.64V34.744L226.7 35.288C225.186 35.5013 224.044 35.864 223.276 36.376C222.508 36.8667 222.124 37.496 222.124 38.264C222.124 38.8613 222.295 39.3627 222.636 39.768C222.999 40.152 223.447 40.44 223.98 40.632C224.535 40.824 225.1 40.92 225.676 40.92ZM238.117 43C237.903 43 237.722 42.936 237.573 42.808C237.445 42.6587 237.381 42.4773 237.381 42.264V27.096C237.381 26.8827 237.445 26.712 237.573 26.584C237.722 26.4347 237.903 26.36 238.117 26.36H239.621C239.834 26.36 240.005 26.4347 240.133 26.584C240.282 26.712 240.357 26.8827 240.357 27.096V33.24H243.269L247.589 26.84C247.695 26.6907 247.813 26.5733 247.941 26.488C248.069 26.4027 248.239 26.36 248.453 26.36H250.117C250.309 26.36 250.469 26.4027 250.597 26.488C250.725 26.5733 250.789 26.7013 250.789 26.872C250.789 26.9147 250.767 26.9787 250.725 27.064C250.703 27.128 250.671 27.192 250.629 27.256L245.829 34.328L251.269 42.072C251.375 42.2 251.429 42.3387 251.429 42.488C251.429 42.6587 251.365 42.7867 251.237 42.872C251.13 42.9573 250.981 43 250.789 43H248.837C248.645 43 248.485 42.9573 248.357 42.872C248.229 42.7867 248.111 42.6693 248.005 42.52L243.301 35.832H240.357V42.264C240.357 42.4773 240.282 42.6587 240.133 42.808C240.005 42.936 239.834 43 239.621 43H238.117ZM260.713 43.32C259.092 43.32 257.737 43.0107 256.649 42.392C255.561 41.7733 254.729 40.92 254.153 39.832C253.577 38.7227 253.257 37.464 253.193 36.056C253.172 35.6933 253.161 35.2347 253.161 34.68C253.161 34.104 253.172 33.6453 253.193 33.304C253.257 31.8747 253.577 30.616 254.153 29.528C254.75 28.44 255.593 27.5867 256.681 26.968C257.769 26.3493 259.113 26.04 260.713 26.04C262.313 26.04 263.657 26.3493 264.745 26.968C265.833 27.5867 266.665 28.44 267.241 29.528C267.838 30.616 268.169 31.8747 268.233 33.304C268.254 33.6453 268.265 34.104 268.265 34.68C268.265 35.2347 268.254 35.6933 268.233 36.056C268.169 37.464 267.849 38.7227 267.273 39.832C266.697 40.92 265.865 41.7733 264.777 42.392C263.689 43.0107 262.334 43.32 260.713 43.32ZM260.713 40.856C262.036 40.856 263.092 40.44 263.881 39.608C264.67 38.7547 265.097 37.5173 265.161 35.896C265.182 35.576 265.193 35.1707 265.193 34.68C265.193 34.1893 265.182 33.784 265.161 33.464C265.097 31.8427 264.67 30.616 263.881 29.784C263.092 28.9307 262.036 28.504 260.713 28.504C259.39 28.504 258.324 28.9307 257.513 29.784C256.724 30.616 256.308 31.8427 256.265 33.464C256.244 33.784 256.233 34.1893 256.233 34.68C256.233 35.1707 256.244 35.576 256.265 35.896C256.308 37.5173 256.724 38.7547 257.513 39.608C258.324 40.44 259.39 40.856 260.713 40.856ZM272.368 43C272.155 43 271.973 42.936 271.824 42.808C271.696 42.6587 271.632 42.4773 271.632 42.264V27.096C271.632 26.8827 271.696 26.712 271.824 26.584C271.973 26.4347 272.155 26.36 272.368 26.36H273.904C274.117 26.36 274.288 26.4347 274.416 26.584C274.544 26.712 274.608 26.8827 274.608 27.096V33.24H283.344V27.096C283.344 26.8827 283.408 26.712 283.536 26.584C283.685 26.4347 283.867 26.36 284.08 26.36H285.584C285.797 26.36 285.968 26.4347 286.096 26.584C286.245 26.712 286.32 26.8827 286.32 27.096V42.264C286.32 42.4773 286.245 42.6587 286.096 42.808C285.968 42.936 285.797 43 285.584 43H284.08C283.867 43 283.685 42.936 283.536 42.808C283.408 42.6587 283.344 42.4773 283.344 42.264V35.8H274.608V42.264C274.608 42.4773 274.544 42.6587 274.416 42.808C274.288 42.936 274.117 43 273.904 43H272.368ZM291.228 43C291.015 43 290.833 42.936 290.684 42.808C290.556 42.6587 290.492 42.4773 290.492 42.264V27.096C290.492 26.8827 290.556 26.712 290.684 26.584C290.833 26.4347 291.015 26.36 291.228 26.36H292.764C292.977 26.36 293.148 26.4347 293.276 26.584C293.404 26.712 293.468 26.8827 293.468 27.096V33.24H302.204V27.096C302.204 26.8827 302.268 26.712 302.396 26.584C302.545 26.4347 302.727 26.36 302.94 26.36H304.444C304.657 26.36 304.828 26.4347 304.956 26.584C305.105 26.712 305.18 26.8827 305.18 27.096V42.264C305.18 42.4773 305.105 42.6587 304.956 42.808C304.828 42.936 304.657 43 304.444 43H302.94C302.727 43 302.545 42.936 302.396 42.808C302.268 42.6587 302.204 42.4773 302.204 42.264V35.8H293.468V42.264C293.468 42.4773 293.404 42.6587 293.276 42.808C293.148 42.936 292.977 43 292.764 43H291.228ZM316.168 43.32C314.547 43.32 313.192 43.0107 312.104 42.392C311.016 41.7733 310.184 40.92 309.608 39.832C309.032 38.7227 308.712 37.464 308.648 36.056C308.627 35.6933 308.616 35.2347 308.616 34.68C308.616 34.104 308.627 33.6453 308.648 33.304C308.712 31.8747 309.032 30.616 309.608 29.528C310.205 28.44 311.048 27.5867 312.136 26.968C313.224 26.3493 314.568 26.04 316.168 26.04C317.768 26.04 319.112 26.3493 320.2 26.968C321.288 27.5867 322.12 28.44 322.696 29.528C323.293 30.616 323.624 31.8747 323.688 33.304C323.709 33.6453 323.72 34.104 323.72 34.68C323.72 35.2347 323.709 35.6933 323.688 36.056C323.624 37.464 323.304 38.7227 322.728 39.832C322.152 40.92 321.32 41.7733 320.232 42.392C319.144 43.0107 317.789 43.32 316.168 43.32ZM316.168 40.856C317.491 40.856 318.547 40.44 319.336 39.608C320.125 38.7547 320.552 37.5173 320.616 35.896C320.637 35.576 320.648 35.1707 320.648 34.68C320.648 34.1893 320.637 33.784 320.616 33.464C320.552 31.8427 320.125 30.616 319.336 29.784C318.547 28.9307 317.491 28.504 316.168 28.504C314.845 28.504 313.779 28.9307 312.968 29.784C312.179 30.616 311.763 31.8427 311.72 33.464C311.699 33.784 311.688 34.1893 311.688 34.68C311.688 35.1707 311.699 35.576 311.72 35.896C311.763 37.5173 312.179 38.7547 312.968 39.608C313.779 40.44 314.845 40.856 316.168 40.856ZM333.711 43.32C331.514 43.32 329.764 42.648 328.463 41.304C327.162 39.9387 326.447 38.0827 326.319 35.736C326.298 35.4587 326.287 35.1067 326.287 34.68C326.287 34.232 326.298 33.8693 326.319 33.592C326.404 32.0773 326.756 30.7547 327.375 29.624C327.994 28.472 328.836 27.5867 329.903 26.968C330.991 26.3493 332.26 26.04 333.711 26.04C335.332 26.04 336.687 26.3813 337.775 27.064C338.884 27.7467 339.727 28.7173 340.303 29.976C340.879 31.2347 341.167 32.7067 341.167 34.392V34.936C341.167 35.1707 341.092 35.352 340.943 35.48C340.815 35.608 340.644 35.672 340.431 35.672H329.359C329.359 35.6933 329.359 35.736 329.359 35.8C329.359 35.864 329.359 35.9173 329.359 35.96C329.402 36.8347 329.594 37.656 329.935 38.424C330.276 39.1707 330.767 39.7787 331.407 40.248C332.047 40.7173 332.815 40.952 333.711 40.952C334.479 40.952 335.119 40.8347 335.631 40.6C336.143 40.3653 336.559 40.1093 336.879 39.832C337.199 39.5333 337.412 39.3093 337.519 39.16C337.711 38.8827 337.86 38.7227 337.967 38.68C338.074 38.616 338.244 38.584 338.479 38.584H340.015C340.228 38.584 340.399 38.648 340.527 38.776C340.676 38.8827 340.74 39.0427 340.719 39.256C340.698 39.576 340.527 39.9707 340.207 40.44C339.887 40.888 339.428 41.336 338.831 41.784C338.234 42.232 337.508 42.6053 336.655 42.904C335.802 43.1813 334.82 43.32 333.711 43.32ZM329.359 33.464H338.127V33.368C338.127 32.408 337.946 31.5547 337.583 30.808C337.242 30.0613 336.74 29.4747 336.079 29.048C335.418 28.6 334.628 28.376 333.711 28.376C332.794 28.376 332.004 28.6 331.343 29.048C330.703 29.4747 330.212 30.0613 329.871 30.808C329.53 31.5547 329.359 32.408 329.359 33.368V33.464Z" fill="white"/>
<path d="M148.868 76.32C147.353 76.32 146.041 76.032 144.932 75.456C143.844 74.8587 143.001 74.016 142.404 72.928C141.807 71.8187 141.487 70.496 141.444 68.96C141.423 68.64 141.412 68.2133 141.412 67.68C141.412 67.1467 141.423 66.72 141.444 66.4C141.487 64.864 141.807 63.552 142.404 62.464C143.001 61.3547 143.844 60.512 144.932 59.936C146.041 59.3387 147.353 59.04 148.868 59.04C150.105 59.04 151.161 59.2107 152.036 59.552C152.932 59.8933 153.668 60.3307 154.244 60.864C154.82 61.3973 155.247 61.9733 155.524 62.592C155.823 63.2107 155.983 63.7973 156.004 64.352C156.025 64.5653 155.961 64.736 155.812 64.864C155.663 64.992 155.481 65.056 155.268 65.056H153.732C153.519 65.056 153.359 65.0133 153.252 64.928C153.145 64.8213 153.039 64.6507 152.932 64.416C152.548 63.3707 152.025 62.6347 151.364 62.208C150.703 61.7813 149.881 61.568 148.9 61.568C147.62 61.568 146.575 61.9627 145.764 62.752C144.975 63.5413 144.548 64.8107 144.484 66.56C144.463 67.328 144.463 68.0747 144.484 68.8C144.548 70.5707 144.975 71.8507 145.764 72.64C146.575 73.408 147.62 73.792 148.9 73.792C149.881 73.792 150.703 73.5787 151.364 73.152C152.025 72.7253 152.548 71.9893 152.932 70.944C153.039 70.7093 153.145 70.5493 153.252 70.464C153.359 70.3573 153.519 70.304 153.732 70.304H155.268C155.481 70.304 155.663 70.368 155.812 70.496C155.961 70.624 156.025 70.7947 156.004 71.008C155.983 71.456 155.887 71.9147 155.716 72.384C155.545 72.8533 155.268 73.3333 154.884 73.824C154.521 74.2933 154.063 74.72 153.508 75.104C152.953 75.4667 152.281 75.7653 151.492 76C150.724 76.2133 149.849 76.32 148.868 76.32ZM159.9 76C159.687 76 159.506 75.936 159.356 75.808C159.228 75.6587 159.164 75.4773 159.164 75.264V60.096C159.164 59.8827 159.228 59.712 159.356 59.584C159.506 59.4347 159.687 59.36 159.9 59.36H172.604C172.818 59.36 172.988 59.4347 173.116 59.584C173.266 59.712 173.34 59.8827 173.34 60.096V75.264C173.34 75.4773 173.266 75.6587 173.116 75.808C172.988 75.936 172.818 76 172.604 76H171.068C170.855 76 170.684 75.936 170.556 75.808C170.428 75.6587 170.364 75.4773 170.364 75.264V61.92H162.14V75.264C162.14 75.4773 162.076 75.6587 161.948 75.808C161.82 75.936 161.65 76 161.436 76H159.9ZM178.166 76C177.974 76 177.803 75.936 177.654 75.808C177.526 75.6587 177.462 75.4987 177.462 75.328V60.096C177.462 59.8827 177.526 59.712 177.654 59.584C177.803 59.4347 177.984 59.36 178.198 59.36H179.734C179.947 59.36 180.118 59.4347 180.246 59.584C180.374 59.712 180.438 59.8827 180.438 60.096V73.664L179.606 72.8L189.302 59.84C189.408 59.712 189.526 59.6053 189.654 59.52C189.782 59.4133 189.942 59.36 190.134 59.36H191.606C191.776 59.36 191.926 59.424 192.054 59.552C192.203 59.68 192.278 59.8293 192.278 60V75.264C192.278 75.4773 192.203 75.6587 192.054 75.808C191.926 75.936 191.755 76 191.542 76H190.038C189.803 76 189.622 75.936 189.494 75.808C189.366 75.6587 189.302 75.4773 189.302 75.264V62.496L190.198 62.464L180.438 75.52C180.352 75.6267 180.246 75.7333 180.118 75.84C179.99 75.9467 179.819 76 179.606 76H178.166ZM203.042 76.32C201.527 76.32 200.215 76.032 199.106 75.456C198.018 74.8587 197.175 74.016 196.578 72.928C195.98 71.8187 195.66 70.496 195.618 68.96C195.596 68.64 195.586 68.2133 195.586 67.68C195.586 67.1467 195.596 66.72 195.618 66.4C195.66 64.864 195.98 63.552 196.578 62.464C197.175 61.3547 198.018 60.512 199.106 59.936C200.215 59.3387 201.527 59.04 203.042 59.04C204.279 59.04 205.335 59.2107 206.21 59.552C207.106 59.8933 207.842 60.3307 208.418 60.864C208.994 61.3973 209.42 61.9733 209.698 62.592C209.996 63.2107 210.156 63.7973 210.178 64.352C210.199 64.5653 210.135 64.736 209.986 64.864C209.836 64.992 209.655 65.056 209.442 65.056H207.906C207.692 65.056 207.532 65.0133 207.426 64.928C207.319 64.8213 207.212 64.6507 207.106 64.416C206.722 63.3707 206.199 62.6347 205.538 62.208C204.876 61.7813 204.055 61.568 203.074 61.568C201.794 61.568 200.748 61.9627 199.938 62.752C199.148 63.5413 198.722 64.8107 198.658 66.56C198.636 67.328 198.636 68.0747 198.658 68.8C198.722 70.5707 199.148 71.8507 199.938 72.64C200.748 73.408 201.794 73.792 203.074 73.792C204.055 73.792 204.876 73.5787 205.538 73.152C206.199 72.7253 206.722 71.9893 207.106 70.944C207.212 70.7093 207.319 70.5493 207.426 70.464C207.532 70.3573 207.692 70.304 207.906 70.304H209.442C209.655 70.304 209.836 70.368 209.986 70.496C210.135 70.624 210.199 70.7947 210.178 71.008C210.156 71.456 210.06 71.9147 209.89 72.384C209.719 72.8533 209.442 73.3333 209.058 73.824C208.695 74.2933 208.236 74.72 207.682 75.104C207.127 75.4667 206.455 75.7653 205.666 76C204.898 76.2133 204.023 76.32 203.042 76.32ZM217.978 76.32C216.911 76.32 215.941 76.1067 215.066 75.68C214.191 75.2533 213.487 74.6773 212.954 73.952C212.421 73.2267 212.154 72.4053 212.154 71.488C212.154 70.016 212.751 68.8427 213.946 67.968C215.141 67.0933 216.698 66.5173 218.618 66.24L223.386 65.568V64.64C223.386 63.616 223.087 62.816 222.49 62.24C221.914 61.664 220.965 61.376 219.642 61.376C218.682 61.376 217.903 61.568 217.306 61.952C216.73 62.336 216.325 62.8267 216.09 63.424C215.962 63.744 215.738 63.904 215.418 63.904H213.978C213.743 63.904 213.562 63.84 213.434 63.712C213.327 63.5627 213.274 63.392 213.274 63.2C213.274 62.88 213.391 62.4853 213.626 62.016C213.882 61.5467 214.266 61.088 214.778 60.64C215.29 60.192 215.941 59.8187 216.73 59.52C217.541 59.2 218.522 59.04 219.674 59.04C220.954 59.04 222.031 59.2107 222.906 59.552C223.781 59.872 224.463 60.3093 224.954 60.864C225.466 61.4187 225.829 62.048 226.042 62.752C226.277 63.456 226.394 64.1707 226.394 64.896V75.264C226.394 75.4773 226.319 75.6587 226.17 75.808C226.042 75.936 225.871 76 225.658 76H224.186C223.951 76 223.77 75.936 223.642 75.808C223.514 75.6587 223.45 75.4773 223.45 75.264V73.888C223.173 74.272 222.799 74.656 222.33 75.04C221.861 75.4027 221.274 75.712 220.57 75.968C219.866 76.2027 219.002 76.32 217.978 76.32ZM218.65 73.92C219.525 73.92 220.325 73.7387 221.05 73.376C221.775 72.992 222.341 72.4053 222.746 71.616C223.173 70.8267 223.386 69.8347 223.386 68.64V67.744L219.674 68.288C218.159 68.5013 217.018 68.864 216.25 69.376C215.482 69.8667 215.098 70.496 215.098 71.264C215.098 71.8613 215.269 72.3627 215.61 72.768C215.973 73.152 216.421 73.44 216.954 73.632C217.509 73.824 218.074 73.92 218.65 73.92ZM231.09 76C230.877 76 230.696 75.936 230.546 75.808C230.418 75.6587 230.354 75.4773 230.354 75.264V60.096C230.354 59.8827 230.418 59.712 230.546 59.584C230.696 59.4347 230.877 59.36 231.09 59.36H232.626C232.84 59.36 233.01 59.4347 233.138 59.584C233.266 59.712 233.33 59.8827 233.33 60.096V66.24H242.066V60.096C242.066 59.8827 242.13 59.712 242.258 59.584C242.408 59.4347 242.589 59.36 242.802 59.36H244.306C244.52 59.36 244.69 59.4347 244.818 59.584C244.968 59.712 245.042 59.8827 245.042 60.096V75.264C245.042 75.4773 244.968 75.6587 244.818 75.808C244.69 75.936 244.52 76 244.306 76H242.802C242.589 76 242.408 75.936 242.258 75.808C242.13 75.6587 242.066 75.4773 242.066 75.264V68.8H233.33V75.264C233.33 75.4773 233.266 75.6587 233.138 75.808C233.01 75.936 232.84 76 232.626 76H231.09ZM249.918 76C249.726 76 249.556 75.936 249.406 75.808C249.278 75.6587 249.214 75.4987 249.214 75.328V60.096C249.214 59.8827 249.278 59.712 249.406 59.584C249.556 59.4347 249.737 59.36 249.95 59.36H251.486C251.7 59.36 251.87 59.4347 251.998 59.584C252.126 59.712 252.19 59.8827 252.19 60.096V73.664L251.358 72.8L261.054 59.84C261.161 59.712 261.278 59.6053 261.406 59.52C261.534 59.4133 261.694 59.36 261.886 59.36H263.358C263.529 59.36 263.678 59.424 263.806 59.552C263.956 59.68 264.03 59.8293 264.03 60V75.264C264.03 75.4773 263.956 75.6587 263.806 75.808C263.678 75.936 263.508 76 263.294 76H261.79C261.556 76 261.374 75.936 261.246 75.808C261.118 75.6587 261.054 75.4773 261.054 75.264V62.496L261.95 62.464L252.19 75.52C252.105 75.6267 251.998 75.7333 251.87 75.84C251.742 75.9467 251.572 76 251.358 76H249.918ZM274.698 76.32C272.501 76.32 270.752 75.648 269.45 74.304C268.149 72.9387 267.434 71.0827 267.306 68.736C267.285 68.4587 267.274 68.1067 267.274 67.68C267.274 67.232 267.285 66.8693 267.306 66.592C267.392 65.0773 267.744 63.7547 268.362 62.624C268.981 61.472 269.824 60.5867 270.89 59.968C271.978 59.3493 273.248 59.04 274.698 59.04C276.32 59.04 277.674 59.3813 278.762 60.064C279.872 60.7467 280.714 61.7173 281.29 62.976C281.866 64.2347 282.154 65.7067 282.154 67.392V67.936C282.154 68.1707 282.08 68.352 281.93 68.48C281.802 68.608 281.632 68.672 281.418 68.672H270.346C270.346 68.6933 270.346 68.736 270.346 68.8C270.346 68.864 270.346 68.9173 270.346 68.96C270.389 69.8347 270.581 70.656 270.922 71.424C271.264 72.1707 271.754 72.7787 272.394 73.248C273.034 73.7173 273.802 73.952 274.698 73.952C275.466 73.952 276.106 73.8347 276.618 73.6C277.13 73.3653 277.546 73.1093 277.866 72.832C278.186 72.5333 278.4 72.3093 278.506 72.16C278.698 71.8827 278.848 71.7227 278.954 71.68C279.061 71.616 279.232 71.584 279.466 71.584H281.002C281.216 71.584 281.386 71.648 281.514 71.776C281.664 71.8827 281.728 72.0427 281.706 72.256C281.685 72.576 281.514 72.9707 281.194 73.44C280.874 73.888 280.416 74.336 279.818 74.784C279.221 75.232 278.496 75.6053 277.642 75.904C276.789 76.1813 275.808 76.32 274.698 76.32ZM270.346 66.464H279.114V66.368C279.114 65.408 278.933 64.5547 278.57 63.808C278.229 63.0613 277.728 62.4747 277.066 62.048C276.405 61.6 275.616 61.376 274.698 61.376C273.781 61.376 272.992 61.6 272.33 62.048C271.69 62.4747 271.2 63.0613 270.858 63.808C270.517 64.5547 270.346 65.408 270.346 66.368V66.464ZM291.584 79.52C291.371 79.52 291.19 79.4453 291.04 79.296C290.912 79.168 290.848 78.9973 290.848 78.784V74.176C290.848 73.9627 290.912 73.792 291.04 73.664C291.19 73.5147 291.371 73.44 291.584 73.44H291.744C292.32 73.4187 292.811 73.0987 293.216 72.48C293.622 71.84 293.931 70.848 294.144 69.504C294.358 68.1387 294.464 66.368 294.464 64.192V60.096C294.464 59.8827 294.528 59.712 294.656 59.584C294.806 59.4347 294.987 59.36 295.2 59.36H305.408C305.622 59.36 305.792 59.4347 305.92 59.584C306.07 59.712 306.144 59.8827 306.144 60.096V73.376H307.648C307.883 73.376 308.064 73.4507 308.192 73.6C308.32 73.728 308.384 73.8987 308.384 74.112V78.784C308.384 78.9973 308.32 79.168 308.192 79.296C308.064 79.4453 307.883 79.52 307.648 79.52H306.144C305.931 79.52 305.75 79.4453 305.6 79.296C305.472 79.168 305.408 78.9973 305.408 78.784V76H293.824V78.784C293.824 78.9973 293.75 79.168 293.6 79.296C293.472 79.4453 293.302 79.52 293.088 79.52H291.584ZM295.552 73.44L303.168 73.376V61.92H297.376V64.544C297.376 66.8053 297.216 68.6613 296.896 70.112C296.576 71.5413 296.128 72.6507 295.552 73.44ZM317.908 76.32C316.286 76.32 314.932 76.0107 313.844 75.392C312.756 74.7733 311.924 73.92 311.348 72.832C310.772 71.7227 310.452 70.464 310.388 69.056C310.366 68.6933 310.356 68.2347 310.356 67.68C310.356 67.104 310.366 66.6453 310.388 66.304C310.452 64.8747 310.772 63.616 311.348 62.528C311.945 61.44 312.788 60.5867 313.876 59.968C314.964 59.3493 316.308 59.04 317.908 59.04C319.508 59.04 320.852 59.3493 321.94 59.968C323.028 60.5867 323.86 61.44 324.436 62.528C325.033 63.616 325.364 64.8747 325.428 66.304C325.449 66.6453 325.46 67.104 325.46 67.68C325.46 68.2347 325.449 68.6933 325.428 69.056C325.364 70.464 325.044 71.7227 324.468 72.832C323.892 73.92 323.06 74.7733 321.972 75.392C320.884 76.0107 319.529 76.32 317.908 76.32ZM317.908 73.856C319.23 73.856 320.286 73.44 321.076 72.608C321.865 71.7547 322.292 70.5173 322.356 68.896C322.377 68.576 322.388 68.1707 322.388 67.68C322.388 67.1893 322.377 66.784 322.356 66.464C322.292 64.8427 321.865 63.616 321.076 62.784C320.286 61.9307 319.23 61.504 317.908 61.504C316.585 61.504 315.518 61.9307 314.708 62.784C313.918 63.616 313.502 64.8427 313.46 66.464C313.438 66.784 313.428 67.1893 313.428 67.68C313.428 68.1707 313.438 68.576 313.46 68.896C313.502 70.5173 313.918 71.7547 314.708 72.608C315.518 73.44 316.585 73.856 317.908 73.856ZM328.027 76C327.813 76 327.632 75.9253 327.483 75.776C327.333 75.6267 327.259 75.4453 327.259 75.232V74.048C327.259 73.6 327.483 73.3653 327.931 73.344C328.592 73.3227 329.147 73.0133 329.595 72.416C330.043 71.7973 330.384 70.8267 330.619 69.504C330.853 68.16 330.971 66.3893 330.971 64.192V60.096C330.971 59.8827 331.035 59.712 331.163 59.584C331.312 59.4347 331.493 59.36 331.707 59.36H341.883C342.096 59.36 342.267 59.4347 342.395 59.584C342.544 59.712 342.619 59.8827 342.619 60.096V75.264C342.619 75.4773 342.544 75.6587 342.395 75.808C342.267 75.936 342.096 76 341.883 76H340.347C340.133 76 339.963 75.936 339.835 75.808C339.707 75.6587 339.643 75.4773 339.643 75.264V61.92H333.883V64.544C333.883 66.592 333.765 68.352 333.531 69.824C333.296 71.2747 332.933 72.4587 332.443 73.376C331.973 74.272 331.365 74.9333 330.619 75.36C329.893 75.7867 329.029 76 328.027 76ZM347.485 76C347.272 76 347.091 75.936 346.941 75.808C346.813 75.6587 346.749 75.4773 346.749 75.264V60.096C346.749 59.8827 346.813 59.712 346.941 59.584C347.091 59.4347 347.272 59.36 347.485 59.36H357.053C357.267 59.36 357.437 59.4347 357.565 59.584C357.693 59.712 357.757 59.8827 357.757 60.096V61.184C357.757 61.3973 357.693 61.5787 357.565 61.728C357.437 61.856 357.267 61.92 357.053 61.92H349.725V75.264C349.725 75.4773 349.661 75.6587 349.533 75.808C349.405 75.936 349.235 76 349.021 76H347.485ZM366.675 76.32C365.054 76.32 363.699 76.0107 362.611 75.392C361.523 74.7733 360.691 73.92 360.115 72.832C359.539 71.7227 359.219 70.464 359.155 69.056C359.134 68.6933 359.123 68.2347 359.123 67.68C359.123 67.104 359.134 66.6453 359.155 66.304C359.219 64.8747 359.539 63.616 360.115 62.528C360.713 61.44 361.555 60.5867 362.643 59.968C363.731 59.3493 365.075 59.04 366.675 59.04C368.275 59.04 369.619 59.3493 370.707 59.968C371.795 60.5867 372.627 61.44 373.203 62.528C373.801 63.616 374.131 64.8747 374.195 66.304C374.217 66.6453 374.227 67.104 374.227 67.68C374.227 68.2347 374.217 68.6933 374.195 69.056C374.131 70.464 373.811 71.7227 373.235 72.832C372.659 73.92 371.827 74.7733 370.739 75.392C369.651 76.0107 368.297 76.32 366.675 76.32ZM366.675 73.856C367.998 73.856 369.054 73.44 369.843 72.608C370.633 71.7547 371.059 70.5173 371.123 68.896C371.145 68.576 371.155 68.1707 371.155 67.68C371.155 67.1893 371.145 66.784 371.123 66.464C371.059 64.8427 370.633 63.616 369.843 62.784C369.054 61.9307 367.998 61.504 366.675 61.504C365.353 61.504 364.286 61.9307 363.475 62.784C362.686 63.616 362.27 64.8427 362.227 66.464C362.206 66.784 362.195 67.1893 362.195 67.68C362.195 68.1707 362.206 68.576 362.227 68.896C362.27 70.5173 362.686 71.7547 363.475 72.608C364.286 73.44 365.353 73.856 366.675 73.856ZM378.33 76C378.117 76 377.936 75.936 377.786 75.808C377.658 75.6587 377.594 75.4773 377.594 75.264V60.096C377.594 59.8827 377.658 59.712 377.786 59.584C377.936 59.4347 378.117 59.36 378.33 59.36H384.986C386.992 59.36 388.496 59.7653 389.498 60.576C390.522 61.3867 391.034 62.4747 391.034 63.84C391.034 64.8 390.853 65.5253 390.49 66.016C390.128 66.5067 389.616 66.9227 388.954 67.264C389.765 67.6053 390.373 68.16 390.778 68.928C391.205 69.6747 391.418 70.4533 391.418 71.264C391.418 72.8 390.874 73.9733 389.786 74.784C388.698 75.5947 387.184 76 385.242 76H378.33ZM380.538 73.664H384.986C386.01 73.664 386.832 73.472 387.45 73.088C388.09 72.6827 388.41 72.0747 388.41 71.264C388.41 70.4107 388.122 69.792 387.546 69.408C386.97 69.0027 386.117 68.8 384.986 68.8H380.538V73.664ZM380.538 66.432H384.794C385.818 66.432 386.629 66.208 387.226 65.76C387.845 65.312 388.154 64.6827 388.154 63.872C388.154 63.04 387.845 62.4747 387.226 62.176C386.629 61.856 385.818 61.696 384.794 61.696H380.538V66.432ZM402.832 76C402.618 76 402.437 75.936 402.288 75.808C402.16 75.6587 402.096 75.4773 402.096 75.264V60.096C402.096 59.8827 402.16 59.712 402.288 59.584C402.437 59.4347 402.618 59.36 402.832 59.36H409.488C411.493 59.36 412.997 59.7653 414 60.576C415.024 61.3867 415.536 62.4747 415.536 63.84C415.536 64.8 415.354 65.5253 414.992 66.016C414.629 66.5067 414.117 66.9227 413.456 67.264C414.266 67.6053 414.874 68.16 415.28 68.928C415.706 69.6747 415.92 70.4533 415.92 71.264C415.92 72.8 415.376 73.9733 414.288 74.784C413.2 75.5947 411.685 76 409.744 76H402.832ZM405.04 73.664H409.488C410.512 73.664 411.333 73.472 411.952 73.088C412.592 72.6827 412.912 72.0747 412.912 71.264C412.912 70.4107 412.624 69.792 412.048 69.408C411.472 69.0027 410.618 68.8 409.488 68.8H405.04V73.664ZM405.04 66.432H409.296C410.32 66.432 411.13 66.208 411.728 65.76C412.346 65.312 412.656 64.6827 412.656 63.872C412.656 63.04 412.346 62.4747 411.728 62.176C411.13 61.856 410.32 61.696 409.296 61.696H405.04V66.432ZM427.749 76C427.514 76 427.333 75.936 427.205 75.808C427.077 75.6587 427.013 75.4773 427.013 75.264V54.368C427.013 54.1333 427.077 53.952 427.205 53.824C427.333 53.6747 427.514 53.6 427.749 53.6H429.381C429.615 53.6 429.797 53.6747 429.925 53.824C430.074 53.952 430.149 54.1333 430.149 54.368V63.2H433.765L439.461 54.112C439.567 53.9413 439.706 53.8133 439.877 53.728C440.047 53.6427 440.271 53.6 440.549 53.6H442.277C442.511 53.6 442.682 53.664 442.789 53.792C442.895 53.92 442.949 54.0693 442.949 54.24C442.949 54.368 442.895 54.5067 442.789 54.656L436.645 64.448L443.397 74.88C443.461 74.9653 443.493 75.0827 443.493 75.232C443.493 75.4453 443.418 75.6267 443.269 75.776C443.141 75.9253 442.97 76 442.757 76H440.933C440.698 76 440.517 75.9573 440.389 75.872C440.282 75.7653 440.186 75.648 440.101 75.52L433.893 66.08H430.149V75.264C430.149 75.4773 430.074 75.6587 429.925 75.808C429.797 75.936 429.615 76 429.381 76H427.749ZM447.193 82.08C446.98 82.08 446.799 82.0053 446.649 81.856C446.521 81.728 446.457 81.5573 446.457 81.344V60.096C446.457 59.8827 446.521 59.712 446.649 59.584C446.799 59.4347 446.98 59.36 447.193 59.36H448.665C448.879 59.36 449.049 59.4347 449.177 59.584C449.327 59.712 449.401 59.8827 449.401 60.096V61.504C449.913 60.8 450.596 60.2133 451.449 59.744C452.303 59.2747 453.369 59.04 454.649 59.04C455.844 59.04 456.857 59.2427 457.689 59.648C458.543 60.0533 459.236 60.608 459.769 61.312C460.324 62.016 460.74 62.816 461.017 63.712C461.295 64.608 461.444 65.568 461.465 66.592C461.487 66.9333 461.497 67.296 461.497 67.68C461.497 68.064 461.487 68.4267 461.465 68.768C461.444 69.7707 461.295 70.7307 461.017 71.648C460.74 72.544 460.324 73.344 459.769 74.048C459.236 74.7307 458.543 75.2853 457.689 75.712C456.857 76.1173 455.844 76.32 454.649 76.32C453.412 76.32 452.367 76.096 451.513 75.648C450.681 75.1787 449.999 74.6027 449.465 73.92V81.344C449.465 81.5573 449.401 81.728 449.273 81.856C449.145 82.0053 448.964 82.08 448.729 82.08H447.193ZM453.977 73.728C455.087 73.728 455.951 73.4933 456.569 73.024C457.209 72.5333 457.668 71.904 457.945 71.136C458.223 70.3467 458.383 69.504 458.425 68.608C458.447 67.9893 458.447 67.3707 458.425 66.752C458.383 65.856 458.223 65.024 457.945 64.256C457.668 63.4667 457.209 62.8373 456.569 62.368C455.951 61.8773 455.087 61.632 453.977 61.632C452.932 61.632 452.079 61.8773 451.417 62.368C450.777 62.8587 450.297 63.488 449.977 64.256C449.679 65.0027 449.508 65.7707 449.465 66.56C449.444 66.9013 449.433 67.3067 449.433 67.776C449.433 68.2453 449.444 68.6613 449.465 69.024C449.487 69.7707 449.657 70.5067 449.977 71.232C450.319 71.9573 450.82 72.5547 451.481 73.024C452.143 73.4933 452.975 73.728 453.977 73.728ZM469.488 76.32C468.421 76.32 467.451 76.1067 466.576 75.68C465.701 75.2533 464.997 74.6773 464.464 73.952C463.931 73.2267 463.664 72.4053 463.664 71.488C463.664 70.016 464.261 68.8427 465.456 67.968C466.651 67.0933 468.208 66.5173 470.128 66.24L474.896 65.568V64.64C474.896 63.616 474.597 62.816 474 62.24C473.424 61.664 472.475 61.376 471.152 61.376C470.192 61.376 469.413 61.568 468.816 61.952C468.24 62.336 467.835 62.8267 467.6 63.424C467.472 63.744 467.248 63.904 466.928 63.904H465.488C465.253 63.904 465.072 63.84 464.944 63.712C464.837 63.5627 464.784 63.392 464.784 63.2C464.784 62.88 464.901 62.4853 465.136 62.016C465.392 61.5467 465.776 61.088 466.288 60.64C466.8 60.192 467.451 59.8187 468.24 59.52C469.051 59.2 470.032 59.04 471.184 59.04C472.464 59.04 473.541 59.2107 474.416 59.552C475.291 59.872 475.973 60.3093 476.464 60.864C476.976 61.4187 477.339 62.048 477.552 62.752C477.787 63.456 477.904 64.1707 477.904 64.896V75.264C477.904 75.4773 477.829 75.6587 477.68 75.808C477.552 75.936 477.381 76 477.168 76H475.696C475.461 76 475.28 75.936 475.152 75.808C475.024 75.6587 474.96 75.4773 474.96 75.264V73.888C474.683 74.272 474.309 74.656 473.84 75.04C473.371 75.4027 472.784 75.712 472.08 75.968C471.376 76.2027 470.512 76.32 469.488 76.32ZM470.16 73.92C471.035 73.92 471.835 73.7387 472.56 73.376C473.285 72.992 473.851 72.4053 474.256 71.616C474.683 70.8267 474.896 69.8347 474.896 68.64V67.744L471.184 68.288C469.669 68.5013 468.528 68.864 467.76 69.376C466.992 69.8667 466.608 70.496 466.608 71.264C466.608 71.8613 466.779 72.3627 467.12 72.768C467.483 73.152 467.931 73.44 468.464 73.632C469.019 73.824 469.584 73.92 470.16 73.92ZM488.584 76.32C487.07 76.32 485.758 76.032 484.648 75.456C483.56 74.8587 482.718 74.016 482.12 72.928C481.523 71.8187 481.203 70.496 481.16 68.96C481.139 68.64 481.128 68.2133 481.128 67.68C481.128 67.1467 481.139 66.72 481.16 66.4C481.203 64.864 481.523 63.552 482.12 62.464C482.718 61.3547 483.56 60.512 484.648 59.936C485.758 59.3387 487.07 59.04 488.584 59.04C489.822 59.04 490.878 59.2107 491.752 59.552C492.648 59.8933 493.384 60.3307 493.96 60.864C494.536 61.3973 494.963 61.9733 495.24 62.592C495.539 63.2107 495.699 63.7973 495.72 64.352C495.742 64.5653 495.678 64.736 495.528 64.864C495.379 64.992 495.198 65.056 494.984 65.056H493.448C493.235 65.056 493.075 65.0133 492.968 64.928C492.862 64.8213 492.755 64.6507 492.648 64.416C492.264 63.3707 491.742 62.6347 491.08 62.208C490.419 61.7813 489.598 61.568 488.616 61.568C487.336 61.568 486.291 61.9627 485.48 62.752C484.691 63.5413 484.264 64.8107 484.2 66.56C484.179 67.328 484.179 68.0747 484.2 68.8C484.264 70.5707 484.691 71.8507 485.48 72.64C486.291 73.408 487.336 73.792 488.616 73.792C489.598 73.792 490.419 73.5787 491.08 73.152C491.742 72.7253 492.264 71.9893 492.648 70.944C492.755 70.7093 492.862 70.5493 492.968 70.464C493.075 70.3573 493.235 70.304 493.448 70.304H494.984C495.198 70.304 495.379 70.368 495.528 70.496C495.678 70.624 495.742 70.7947 495.72 71.008C495.699 71.456 495.603 71.9147 495.432 72.384C495.262 72.8533 494.984 73.3333 494.6 73.824C494.238 74.2933 493.779 74.72 493.224 75.104C492.67 75.4667 491.998 75.7653 491.208 76C490.44 76.2133 489.566 76.32 488.584 76.32ZM499.617 76C499.403 76 499.222 75.936 499.073 75.808C498.945 75.6587 498.881 75.4773 498.881 75.264V60.096C498.881 59.8827 498.945 59.712 499.073 59.584C499.222 59.4347 499.403 59.36 499.617 59.36H501.153C501.366 59.36 501.537 59.4347 501.665 59.584C501.793 59.712 501.857 59.8827 501.857 60.096V66.24H510.593V60.096C510.593 59.8827 510.657 59.712 510.785 59.584C510.934 59.4347 511.115 59.36 511.329 59.36H512.833C513.046 59.36 513.217 59.4347 513.345 59.584C513.494 59.712 513.569 59.8827 513.569 60.096V75.264C513.569 75.4773 513.494 75.6587 513.345 75.808C513.217 75.936 513.046 76 512.833 76H511.329C511.115 76 510.934 75.936 510.785 75.808C510.657 75.6587 510.593 75.4773 510.593 75.264V68.8H501.857V75.264C501.857 75.4773 501.793 75.6587 501.665 75.808C501.537 75.936 501.366 76 501.153 76H499.617ZM524.556 76.32C522.935 76.32 521.58 76.0107 520.492 75.392C519.404 74.7733 518.572 73.92 517.996 72.832C517.42 71.7227 517.1 70.464 517.036 69.056C517.015 68.6933 517.004 68.2347 517.004 67.68C517.004 67.104 517.015 66.6453 517.036 66.304C517.1 64.8747 517.42 63.616 517.996 62.528C518.594 61.44 519.436 60.5867 520.524 59.968C521.612 59.3493 522.956 59.04 524.556 59.04C526.156 59.04 527.5 59.3493 528.588 59.968C529.676 60.5867 530.508 61.44 531.084 62.528C531.682 63.616 532.012 64.8747 532.076 66.304C532.098 66.6453 532.108 67.104 532.108 67.68C532.108 68.2347 532.098 68.6933 532.076 69.056C532.012 70.464 531.692 71.7227 531.116 72.832C530.54 73.92 529.708 74.7733 528.62 75.392C527.532 76.0107 526.178 76.32 524.556 76.32ZM524.556 73.856C525.879 73.856 526.935 73.44 527.724 72.608C528.514 71.7547 528.94 70.5173 529.004 68.896C529.026 68.576 529.036 68.1707 529.036 67.68C529.036 67.1893 529.026 66.784 529.004 66.464C528.94 64.8427 528.514 63.616 527.724 62.784C526.935 61.9307 525.879 61.504 524.556 61.504C523.234 61.504 522.167 61.9307 521.356 62.784C520.567 63.616 520.151 64.8427 520.108 66.464C520.087 66.784 520.076 67.1893 520.076 67.68C520.076 68.1707 520.087 68.576 520.108 68.896C520.151 70.5173 520.567 71.7547 521.356 72.608C522.167 73.44 523.234 73.856 524.556 73.856ZM534.516 79.52C534.302 79.52 534.121 79.4453 533.972 79.296C533.844 79.168 533.78 78.9973 533.78 78.784V74.176C533.78 73.9627 533.844 73.792 533.972 73.664C534.121 73.5147 534.302 73.44 534.516 73.44H534.676C535.252 73.4187 535.742 73.0987 536.148 72.48C536.553 71.84 536.862 70.848 537.076 69.504C537.289 68.1387 537.396 66.368 537.396 64.192V60.096C537.396 59.8827 537.46 59.712 537.588 59.584C537.737 59.4347 537.918 59.36 538.132 59.36H548.34C548.553 59.36 548.724 59.4347 548.852 59.584C549.001 59.712 549.076 59.8827 549.076 60.096V73.376H550.58C550.814 73.376 550.996 73.4507 551.124 73.6C551.252 73.728 551.316 73.8987 551.316 74.112V78.784C551.316 78.9973 551.252 79.168 551.124 79.296C550.996 79.4453 550.814 79.52 550.58 79.52H549.076C548.862 79.52 548.681 79.4453 548.532 79.296C548.404 79.168 548.34 78.9973 548.34 78.784V76H536.756V78.784C536.756 78.9973 536.681 79.168 536.532 79.296C536.404 79.4453 536.233 79.52 536.02 79.52H534.516ZM538.484 73.44L546.1 73.376V61.92H540.308V64.544C540.308 66.8053 540.148 68.6613 539.828 70.112C539.508 71.5413 539.06 72.6507 538.484 73.44ZM558.663 76.32C557.596 76.32 556.626 76.1067 555.751 75.68C554.876 75.2533 554.172 74.6773 553.639 73.952C553.106 73.2267 552.839 72.4053 552.839 71.488C552.839 70.016 553.436 68.8427 554.631 67.968C555.826 67.0933 557.383 66.5173 559.303 66.24L564.071 65.568V64.64C564.071 63.616 563.772 62.816 563.175 62.24C562.599 61.664 561.65 61.376 560.327 61.376C559.367 61.376 558.588 61.568 557.991 61.952C557.415 62.336 557.01 62.8267 556.775 63.424C556.647 63.744 556.423 63.904 556.103 63.904H554.663C554.428 63.904 554.247 63.84 554.119 63.712C554.012 63.5627 553.959 63.392 553.959 63.2C553.959 62.88 554.076 62.4853 554.311 62.016C554.567 61.5467 554.951 61.088 555.463 60.64C555.975 60.192 556.626 59.8187 557.415 59.52C558.226 59.2 559.207 59.04 560.359 59.04C561.639 59.04 562.716 59.2107 563.591 59.552C564.466 59.872 565.148 60.3093 565.639 60.864C566.151 61.4187 566.514 62.048 566.727 62.752C566.962 63.456 567.079 64.1707 567.079 64.896V75.264C567.079 75.4773 567.004 75.6587 566.855 75.808C566.727 75.936 566.556 76 566.343 76H564.871C564.636 76 564.455 75.936 564.327 75.808C564.199 75.6587 564.135 75.4773 564.135 75.264V73.888C563.858 74.272 563.484 74.656 563.015 75.04C562.546 75.4027 561.959 75.712 561.255 75.968C560.551 76.2027 559.687 76.32 558.663 76.32ZM559.335 73.92C560.21 73.92 561.01 73.7387 561.735 73.376C562.46 72.992 563.026 72.4053 563.431 71.616C563.858 70.8267 564.071 69.8347 564.071 68.64V67.744L560.359 68.288C558.844 68.5013 557.703 68.864 556.935 69.376C556.167 69.8667 555.783 70.496 555.783 71.264C555.783 71.8613 555.954 72.3627 556.295 72.768C556.658 73.152 557.106 73.44 557.639 73.632C558.194 73.824 558.759 73.92 559.335 73.92ZM571.807 82.08C571.594 82.08 571.413 82.0053 571.263 81.856C571.135 81.728 571.071 81.5573 571.071 81.344V60.096C571.071 59.8827 571.135 59.712 571.263 59.584C571.413 59.4347 571.594 59.36 571.807 59.36H573.279C573.493 59.36 573.663 59.4347 573.791 59.584C573.941 59.712 574.015 59.8827 574.015 60.096V61.504C574.527 60.8 575.21 60.2133 576.063 59.744C576.917 59.2747 577.983 59.04 579.263 59.04C580.458 59.04 581.471 59.2427 582.303 59.648C583.157 60.0533 583.85 60.608 584.383 61.312C584.938 62.016 585.354 62.816 585.631 63.712C585.909 64.608 586.058 65.568 586.079 66.592C586.101 66.9333 586.111 67.296 586.111 67.68C586.111 68.064 586.101 68.4267 586.079 68.768C586.058 69.7707 585.909 70.7307 585.631 71.648C585.354 72.544 584.938 73.344 584.383 74.048C583.85 74.7307 583.157 75.2853 582.303 75.712C581.471 76.1173 580.458 76.32 579.263 76.32C578.026 76.32 576.981 76.096 576.127 75.648C575.295 75.1787 574.613 74.6027 574.079 73.92V81.344C574.079 81.5573 574.015 81.728 573.887 81.856C573.759 82.0053 573.578 82.08 573.343 82.08H571.807ZM578.591 73.728C579.701 73.728 580.565 73.4933 581.183 73.024C581.823 72.5333 582.282 71.904 582.559 71.136C582.837 70.3467 582.997 69.504 583.039 68.608C583.061 67.9893 583.061 67.3707 583.039 66.752C582.997 65.856 582.837 65.024 582.559 64.256C582.282 63.4667 581.823 62.8373 581.183 62.368C580.565 61.8773 579.701 61.632 578.591 61.632C577.546 61.632 576.693 61.8773 576.031 62.368C575.391 62.8587 574.911 63.488 574.591 64.256C574.293 65.0027 574.122 65.7707 574.079 66.56C574.058 66.9013 574.047 67.3067 574.047 67.776C574.047 68.2453 574.058 68.6613 574.079 69.024C574.101 69.7707 574.271 70.5067 574.591 71.232C574.933 71.9573 575.434 72.5547 576.095 73.024C576.757 73.4933 577.589 73.728 578.591 73.728ZM596.086 76.32C593.888 76.32 592.139 75.648 590.838 74.304C589.536 72.9387 588.822 71.0827 588.694 68.736C588.672 68.4587 588.662 68.1067 588.662 67.68C588.662 67.232 588.672 66.8693 588.694 66.592C588.779 65.0773 589.131 63.7547 589.75 62.624C590.368 61.472 591.211 60.5867 592.278 59.968C593.366 59.3493 594.635 59.04 596.086 59.04C597.707 59.04 599.062 59.3813 600.15 60.064C601.259 60.7467 602.102 61.7173 602.678 62.976C603.254 64.2347 603.542 65.7067 603.542 67.392V67.936C603.542 68.1707 603.467 68.352 603.318 68.48C603.19 68.608 603.019 68.672 602.806 68.672H591.734C591.734 68.6933 591.734 68.736 591.734 68.8C591.734 68.864 591.734 68.9173 591.734 68.96C591.776 69.8347 591.968 70.656 592.31 71.424C592.651 72.1707 593.142 72.7787 593.782 73.248C594.422 73.7173 595.19 73.952 596.086 73.952C596.854 73.952 597.494 73.8347 598.006 73.6C598.518 73.3653 598.934 73.1093 599.254 72.832C599.574 72.5333 599.787 72.3093 599.894 72.16C600.086 71.8827 600.235 71.7227 600.342 71.68C600.448 71.616 600.619 71.584 600.854 71.584H602.39C602.603 71.584 602.774 71.648 602.902 71.776C603.051 71.8827 603.115 72.0427 603.094 72.256C603.072 72.576 602.902 72.9707 602.582 73.44C602.262 73.888 601.803 74.336 601.206 74.784C600.608 75.232 599.883 75.6053 599.03 75.904C598.176 76.1813 597.195 76.32 596.086 76.32ZM591.734 66.464H600.502V66.368C600.502 65.408 600.32 64.5547 599.958 63.808C599.616 63.0613 599.115 62.4747 598.454 62.048C597.792 61.6 597.003 61.376 596.086 61.376C595.168 61.376 594.379 61.6 593.718 62.048C593.078 62.4747 592.587 63.0613 592.246 63.808C591.904 64.5547 591.734 65.408 591.734 66.368V66.464Z" fill="white"/>
</svg>
