<?xml version="1.0" standalone="no"?>
<!DOCTYPE svg PUBLIC "-//W3C//DTD SVG 20010904//EN"
 "http://www.w3.org/TR/2001/REC-SVG-20010904/DTD/svg10.dtd">
<svg version="1.0" xmlns="http://www.w3.org/2000/svg"
 width="512.000000pt" height="512.000000pt" viewBox="0 0 512.000000 512.000000"
 preserveAspectRatio="xMidYMid meet">

<g transform="translate(0.000000,512.000000) scale(0.100000,-0.100000)"
fill="#000000" stroke="none">
<path d="M340 5109 c-119 -23 -245 -123 -296 -234 -109 -236 6 -500 255 -587
43 -15 76 -19 144 -16 l89 3 114 -239 c63 -132 114 -243 114 -247 0 -5 -27
-26 -59 -49 -274 -186 -440 -498 -441 -830 0 -332 131 -599 407 -830 l42 -35
-77 -137 c-57 -103 -81 -136 -92 -132 -8 4 -47 9 -85 11 -220 16 -410 -137
-447 -360 -28 -171 67 -358 222 -437 237 -120 517 -5 600 246 18 54 22 82 18
153 -5 101 -33 171 -99 247 -21 25 -39 49 -39 55 0 16 149 274 157 272 4 -1
41 -14 81 -27 180 -63 404 -73 582 -27 92 24 242 91 313 140 24 16 48 31 53
33 11 4 334 -346 334 -361 0 -6 -13 -25 -29 -43 -157 -181 -255 -483 -235
-728 l7 -78 -39 -11 c-62 -16 -340 -81 -347 -81 -3 0 -22 25 -43 55 -74 113
-186 176 -322 183 -158 8 -277 -47 -369 -172 -188 -255 -37 -615 280 -668 226
-37 443 124 480 358 11 73 12 75 47 84 83 22 333 80 345 80 7 0 19 -17 25 -38
7 -20 30 -71 52 -112 250 -470 801 -671 1292 -471 301 123 528 387 609 711 16
66 21 116 21 225 0 177 -28 312 -91 439 -14 27 -21 52 -16 56 10 10 448 296
474 311 15 8 28 3 65 -25 68 -52 145 -79 241 -84 127 -6 229 35 321 128 239
243 99 656 -242 712 -205 34 -402 -92 -471 -300 -17 -52 -17 -79 -3 -250 3
-32 0 -34 -242 -192 l-245 -159 -50 56 c-62 70 -175 161 -260 208 -36 20 -65
41 -65 47 0 13 401 1131 410 1140 3 4 21 3 40 -2 19 -6 80 -15 135 -21 300
-31 614 86 827 309 379 398 383 1007 8 1406 -388 414 -1026 434 -1444 46 -59
-54 -151 -174 -196 -253 -24 -42 -37 -56 -49 -52 -9 3 -68 24 -131 48 l-115
43 -2 44 c-5 82 -25 164 -53 220 -80 156 -269 252 -440 222 -171 -31 -304
-150 -346 -312 -53 -204 57 -422 254 -502 47 -19 76 -23 162 -23 99 0 110 2
171 32 64 32 139 94 171 141 l15 22 134 -50 c73 -28 134 -52 136 -54 2 -2 -4
-34 -14 -72 -26 -105 -23 -313 6 -427 13 -49 21 -90 19 -92 -7 -6 -931 -396
-933 -393 -1 2 -23 36 -49 75 -191 292 -508 464 -856 464 -114 0 -227 -17
-312 -47 -23 -8 -45 -11 -49 -7 -9 9 -229 470 -229 479 0 4 21 29 47 58 71 79
106 162 111 267 3 65 0 100 -13 140 -72 218 -275 341 -495 298z m197 -188 c87
-44 134 -117 141 -217 7 -104 -46 -192 -143 -240 -123 -59 -272 -7 -336 118
-87 170 52 378 242 364 30 -2 74 -13 96 -25z m2049 1 c156 -80 190 -285 67
-408 -56 -56 -89 -69 -178 -69 -69 0 -86 4 -126 27 -196 115 -160 397 61 469
40 13 133 3 176 -19z m1722 -1 c250 -66 452 -236 561 -473 59 -128 76 -210 75
-363 -1 -111 -5 -143 -28 -220 -30 -100 -89 -219 -140 -283 l-35 -43 -30 58
c-54 108 -160 213 -268 266 l-42 20 28 36 c236 300 -21 740 -396 681 -221 -35
-380 -237 -360 -455 8 -79 29 -135 76 -204 l39 -57 -53 -28 c-100 -52 -199
-152 -253 -253 -15 -29 -31 -52 -37 -50 -19 6 -104 141 -135 215 -44 105 -62
200 -62 327 -1 130 18 226 64 333 118 273 354 458 655 512 73 14 258 3 341
-19z m-108 -507 c154 -65 198 -284 82 -408 -98 -105 -291 -99 -382 12 -99 120
-73 279 63 382 52 39 161 45 237 14z m-2746 -679 c302 -62 544 -283 642 -585
25 -77 28 -99 28 -240 1 -133 -2 -166 -22 -234 -27 -94 -99 -238 -146 -292
l-33 -39 -33 65 c-41 83 -172 215 -247 249 -29 14 -53 28 -53 32 0 4 11 21 25
37 14 17 38 57 53 89 24 52 27 69 27 168 0 108 -1 113 -37 186 -110 222 -377
305 -589 185 -150 -86 -238 -268 -209 -435 14 -80 30 -120 75 -182 39 -55 41
-59 21 -59 -27 0 -166 -101 -212 -155 -25 -30 -60 -82 -78 -115 l-33 -62 -32
39 c-46 56 -117 198 -143 289 -20 68 -23 101 -22 234 0 141 3 163 28 240 97
299 338 520 636 584 87 19 264 20 354 1z m2890 -14 c42 -17 78 -43 126 -90 68
-67 99 -115 118 -184 10 -37 10 -37 -34 -68 -126 -86 -286 -133 -459 -132
-164 0 -293 34 -427 114 -80 47 -82 55 -39 146 51 108 137 183 256 225 42 15
79 18 225 15 157 -2 181 -5 234 -26z m-1099 -191 c85 -130 258 -284 390 -347
25 -12 34 -22 29 -32 -3 -9 -93 -257 -199 -551 -106 -294 -198 -547 -203 -561
l-11 -27 -63 13 c-258 53 -528 3 -746 -138 -40 -26 -75 -47 -77 -47 -2 0 -79
82 -170 181 l-165 182 25 31 c53 64 134 194 164 264 54 122 73 212 78 367 5
131 -5 219 -38 343 -3 10 142 76 461 212 256 108 468 195 471 191 3 -3 28 -40
54 -81z m-1865 -311 c60 -27 98 -64 126 -124 68 -142 -13 -316 -163 -354 -56
-15 -80 -14 -142 5 -134 39 -208 191 -162 328 44 130 215 202 341 145z m83
-674 c85 -22 134 -51 199 -116 59 -58 104 -138 110 -193 3 -26 -3 -32 -79 -76
-147 -84 -286 -117 -463 -107 -125 8 -197 25 -308 77 -102 48 -142 76 -142 99
0 10 16 50 35 88 57 114 161 200 280 229 73 18 298 17 368 -1z m3321 -175
c138 -52 203 -218 137 -348 -44 -86 -117 -133 -217 -140 -103 -7 -191 45 -238
140 -69 138 0 300 151 354 54 19 104 17 167 -6z m-1584 -521 c247 -63 450
-234 559 -471 59 -127 76 -210 75 -363 0 -149 -21 -241 -80 -358 -31 -61 -111
-187 -120 -187 -1 0 -18 28 -35 62 -44 83 -174 213 -252 251 l-57 28 34 45
c59 77 80 145 80 254 0 114 -24 185 -88 263 -141 175 -385 210 -573 84 -62
-42 -125 -121 -154 -194 -19 -46 -23 -77 -23 -153 0 -109 21 -177 80 -254 l34
-45 -57 -28 c-76 -37 -209 -168 -249 -245 -16 -32 -33 -57 -39 -55 -20 6 -105
141 -135 213 -85 204 -85 449 0 655 84 203 268 385 469 464 61 23 172 51 241
59 64 7 214 -6 290 -25z m-2691 -244 c59 -20 108 -61 139 -114 23 -40 27 -57
27 -126 0 -89 -13 -122 -69 -178 -123 -123 -326 -90 -409 67 -30 57 -30 165 0
221 61 117 194 172 312 130z m2598 -274 c86 -44 128 -116 128 -221 0 -88 -22
-137 -81 -190 -52 -45 -99 -62 -169 -62 -72 0 -119 18 -173 66 -129 117 -99
332 56 411 73 36 163 35 239 -4z m-1799 -507 c203 -101 178 -404 -39 -468 -66
-20 -82 -20 -148 0 -99 29 -181 135 -181 235 0 193 197 318 368 233z m1932
-180 c116 -55 207 -160 238 -275 l10 -37 -72 -40 c-161 -92 -253 -117 -436
-116 -117 1 -147 5 -223 28 -143 43 -267 113 -267 150 0 36 57 143 101 191 48
52 109 91 184 117 42 15 78 18 225 16 173 -3 176 -3 240 -34z"/>
</g>
</svg>
