<?xml version="1.0" standalone="no"?>
<!DOCTYPE svg PUBLIC "-//W3C//DTD SVG 20010904//EN"
 "http://www.w3.org/TR/2001/REC-SVG-20010904/DTD/svg10.dtd">
<svg version="1.0" xmlns="http://www.w3.org/2000/svg"
 width="512.000000pt" height="512.000000pt" viewBox="0 0 512.000000 512.000000"
 preserveAspectRatio="xMidYMid meet">

<g transform="translate(0.000000,512.000000) scale(0.100000,-0.100000)"
fill="#FFFFFF" stroke="none">
<path d="M2475 5107 c-59 -20 -78 -34 -324 -244 l-224 -193 -227 0 c-234 0
-282 -6 -300 -40 -14 -27 -12 -63 4 -86 14 -19 43 -19 1414 -24 770 -3 1404
-9 1409 -13 4 -5 9 -459 11 -1010 l2 -1002 -485 -415 c-266 -228 -488 -416
-493 -418 -5 -1 -128 99 -273 224 -157 135 -284 236 -314 250 -69 33 -161 33
-230 0 -29 -14 -159 -118 -313 -251 -145 -124 -267 -225 -272 -223 -5 2 -228
190 -494 418 l-486 415 3 1002 c1 551 6 1005 10 1010 5 4 72 10 149 13 123 4
141 7 154 24 30 42 12 98 -37 115 -41 14 -213 14 -280 0 -70 -15 -123 -68
-138 -138 -7 -33 -11 -201 -11 -465 l0 -412 -320 -274 c-256 -219 -322 -281
-335 -312 -13 -33 -15 -139 -15 -832 0 -787 0 -793 21 -820 26 -33 77 -36 105
-5 18 20 19 51 24 744 l5 724 762 -652 c419 -359 762 -656 762 -662 0 -5 -343
-303 -762 -661 l-762 -652 -5 460 -5 460 -24 19 c-32 26 -67 24 -96 -6 l-25
-24 0 -508 c0 -508 0 -509 22 -553 17 -33 35 -51 68 -68 l44 -22 2366 0 2366
0 44 22 c33 17 51 35 67 68 l23 44 0 1443 c0 1278 -2 1447 -15 1481 -13 31
-79 93 -335 312 l-320 274 0 412 c0 264 -4 432 -11 465 -15 70 -68 123 -138
138 -34 7 -224 11 -550 11 l-498 0 -234 201 c-129 111 -254 211 -278 222 -56
24 -153 31 -206 14z m138 -151 c23 -10 280 -219 346 -282 2 -2 -177 -4 -398
-4 l-403 0 159 136 c195 169 222 182 296 150z m-1885 -2126 l-3 -200 -231 198
c-127 108 -232 201 -233 206 -2 4 102 98 231 208 l233 199 3 -206 c1 -114 1
-296 0 -405z m3915 400 c177 -151 224 -197 215 -206 -22 -19 -432 -368 -451
-383 -16 -13 -17 8 -17 393 0 337 2 406 13 399 8 -4 116 -96 240 -203z m265
-2328 l-3 -659 -390 334 c-214 184 -400 336 -413 340 -38 9 -76 -26 -80 -74
l-3 -39 381 -327 382 -327 -2222 0 -2222 0 1019 873 c560 480 1048 898 1086
930 62 53 71 57 117 57 58 0 -25 66 709 -563 390 -335 551 -467 568 -467 57 0
96 57 71 103 -7 14 -127 123 -267 243 -140 121 -256 224 -257 229 -2 6 340
303 759 661 l762 651 3 -653 c1 -359 1 -949 0 -1312z"/>
<path d="M1364 4134 c-60 -29 -64 -47 -64 -304 0 -187 3 -237 15 -260 33 -64
-41 -60 1245 -60 1286 0 1212 -4 1245 60 12 23 15 73 15 260 0 201 -2 236 -17
261 -37 62 32 59 -1245 59 -1015 0 -1167 -2 -1194 -16z m2306 -304 l0 -170
-1110 0 -1110 0 0 170 0 170 1110 0 1110 0 0 -170z"/>
<path d="M1358 3144 c-54 -29 -58 -52 -58 -304 0 -258 4 -275 64 -304 30 -14
90 -16 506 -16 456 0 474 1 505 20 55 34 60 60 60 310 0 246 -2 256 -58 290
-31 19 -54 20 -512 20 -405 -1 -484 -3 -507 -16z m932 -304 l0 -170 -420 0
-420 0 0 170 0 170 420 0 420 0 0 -170z"/>
<path d="M2831 3134 c-12 -15 -21 -33 -21 -40 0 -26 23 -62 47 -73 16 -8 164
-11 467 -11 433 0 444 0 470 21 33 26 36 79 6 109 -19 19 -33 20 -484 20
l-465 0 -20 -26z"/>
<path d="M2835 2645 c-14 -13 -25 -36 -25 -50 0 -14 11 -37 25 -50 l24 -25
459 0 c447 0 459 0 480 20 32 30 30 82 -4 109 -26 21 -37 21 -481 21 l-454 0
-24 -25z"/>
</g>
</svg>
