<?xml version="1.0" standalone="no"?>
<!DOCTYPE svg PUBLIC "-//W3C//DTD SVG 20010904//EN"
 "http://www.w3.org/TR/2001/REC-SVG-20010904/DTD/svg10.dtd">
<svg version="1.0" xmlns="http://www.w3.org/2000/svg"
 width="512.000000pt" height="512.000000pt" viewBox="0 0 512.000000 512.000000"
 preserveAspectRatio="xMidYMid meet">

<g transform="translate(0.000000,512.000000) scale(0.100000,-0.100000)"
fill="#FFFFFF" stroke="none">
<path d="M273 4900 c-97 -20 -191 -93 -239 -187 l-29 -58 0 -1835 0 -1835 28
-60 c36 -76 110 -147 183 -175 52 -19 75 -20 543 -20 l488 0 21 23 c31 33 29
87 -4 118 l-26 24 -481 5 -482 5 -34 24 c-18 13 -42 42 -52 65 -18 39 -19 96
-19 1379 l0 1337 2390 0 2390 0 0 -280 c0 -296 3 -319 47 -339 39 -18 63 -13
94 19 l30 29 -3 758 -3 758 -29 58 c-36 70 -99 130 -174 165 l-57 27 -2270 1
c-1249 1 -2289 -2 -2312 -6z m4560 -174 c50 -18 76 -42 98 -91 17 -36 19 -72
19 -397 l0 -358 -2390 0 -2390 0 0 358 c0 325 2 361 19 397 22 49 48 73 98 91
57 20 4489 20 4546 0z"/>
<path d="M551 4558 c-141 -24 -233 -163 -202 -302 33 -146 176 -232 317 -191
47 13 69 27 111 70 55 57 73 99 73 174 0 63 -18 116 -57 160 -64 75 -147 106
-242 89z m108 -194 c56 -72 -12 -164 -95 -129 -85 35 -59 155 35 155 31 0 44
-6 60 -26z"/>
<path d="M1265 4564 c-5 -1 -26 -5 -46 -8 -52 -9 -125 -61 -154 -110 -55 -94
-52 -195 8 -283 98 -144 316 -144 414 0 91 135 42 316 -102 377 -40 18 -101
30 -120 24z m72 -196 c25 -23 31 -74 13 -108 -14 -27 -64 -41 -100 -28 -36 12
-50 35 -50 79 0 70 85 106 137 57z"/>
<path d="M1919 4559 c-63 -9 -100 -30 -146 -83 -60 -68 -78 -156 -52 -251 17
-63 100 -139 173 -160 185 -54 359 112 317 300 -30 131 -155 215 -292 194z
m101 -189 c45 -45 33 -112 -24 -135 -83 -35 -151 57 -95 129 26 33 88 37 119
6z"/>
<path d="M490 3453 c-60 -22 -81 -100 -37 -141 l23 -22 931 0 c1041 0 967 -5
979 71 5 29 1 41 -19 65 l-25 29 -919 2 c-505 1 -925 -1 -933 -4z"/>
<path d="M2793 3453 c-13 -2 -32 -16 -44 -31 -26 -33 -20 -88 12 -114 20 -17
80 -18 953 -18 l933 0 21 23 c31 33 29 87 -4 118 l-26 24 -911 1 c-502 1 -922
-1 -934 -3z"/>
<path d="M4462 3092 c-24 -10 -621 -418 -1328 -907 l-1284 -888 -287 -421
-288 -421 0 -65 c0 -52 5 -72 23 -98 28 -39 89 -72 133 -72 28 0 821 187 957
226 43 12 261 159 1060 711 554 383 1124 777 1267 876 143 99 275 193 294 211
104 97 138 255 82 382 -26 57 -212 327 -265 382 -66 70 -125 95 -231 99 -70 2
-100 -1 -133 -15z m196 -166 c15 -8 39 -27 53 -43 40 -43 209 -291 225 -329
27 -66 11 -137 -42 -185 -30 -27 -421 -298 -435 -302 -9 -2 -390 544 -386 555
2 7 291 208 401 280 48 31 68 38 108 38 27 0 61 -6 76 -14z m-536 -682 c103
-148 187 -272 187 -276 1 -6 -155 -118 -195 -141 -7 -4 -84 98 -198 262 -102
148 -188 275 -191 283 -4 14 182 149 200 144 5 -1 94 -124 197 -272z m-348
-248 c102 -148 186 -272 185 -275 -1 -10 -1522 -1056 -1535 -1056 -10 0 -397
546 -391 551 1 1 348 241 771 533 423 293 773 528 777 524 4 -4 91 -129 193
-277z m-1685 -1165 c89 -129 158 -237 154 -241 -4 -4 -78 -24 -163 -45 -85
-20 -160 -38 -167 -40 -9 -3 -203 262 -203 279 0 6 133 204 178 264 13 19 28
30 32 25 4 -4 80 -113 169 -242z m-424 -287 c30 -43 51 -81 47 -85 -4 -3 -61
-19 -127 -34 -66 -15 -126 -30 -134 -33 -7 -3 23 50 69 117 45 68 84 121 86
118 3 -2 29 -40 59 -83z"/>
<path d="M475 3018 c-52 -28 -62 -92 -20 -133 l24 -25 928 0 c982 1 946 -1
971 47 19 35 14 63 -17 94 l-29 29 -919 0 c-645 -1 -924 -4 -938 -12z"/>
<path d="M2759 3001 c-40 -40 -36 -93 10 -128 23 -18 1009 -18 1032 0 46 35
50 88 10 128 l-29 29 -497 0 -497 0 -29 -29z"/>
<path d="M455 2575 c-42 -41 -31 -105 22 -133 33 -18 1828 -17 1863 1 54 27
63 94 20 137 -20 20 -37 20 -950 20 l-931 0 -24 -25z"/>
<path d="M2772 2593 c-17 -6 -42 -57 -42 -83 0 -12 13 -35 29 -51 l29 -29 192
0 c193 0 220 4 247 39 21 27 15 79 -12 106 -24 25 -24 25 -227 24 -112 0 -209
-3 -216 -6z"/>
<path d="M490 2173 c-60 -22 -81 -100 -37 -141 l23 -22 931 0 c1041 0 967 -5
979 71 5 29 1 41 -19 65 l-25 29 -919 2 c-505 1 -925 -1 -933 -4z"/>
<path d="M4979 2001 l-29 -29 0 -469 c0 -435 -2 -471 -19 -509 -10 -23 -34
-52 -52 -65 l-34 -24 -743 -5 -744 -5 -25 -29 c-20 -24 -24 -36 -19 -65 12
-76 -40 -71 792 -71 725 0 745 1 798 20 73 28 147 99 183 175 l28 60 3 493 3
493 -30 29 c-38 39 -74 39 -112 1z"/>
<path d="M475 1738 c-52 -28 -62 -92 -20 -133 l24 -25 740 0 740 0 25 23 c38
34 39 85 1 122 l-24 25 -733 0 c-511 -1 -739 -4 -753 -12z"/>
<path d="M4655 1568 c-41 -23 -44 -38 -45 -185 l0 -143 -136 0 c-136 0 -166
-6 -191 -39 -21 -27 -15 -79 12 -106 24 -25 25 -25 224 -25 110 0 207 3 216 6
38 15 45 55 45 254 l0 192 -29 29 c-31 30 -63 36 -96 17z"/>
<path d="M455 1295 c-27 -27 -33 -79 -12 -106 29 -38 45 -39 502 -39 l447 0
29 29 c37 38 39 82 4 116 l-24 25 -461 0 -461 0 -24 -25z"/>
</g>
</svg>
