<?xml version="1.0" standalone="no"?>
<!DOCTYPE svg PUBLIC "-//W3C//DTD SVG 20010904//EN"
 "http://www.w3.org/TR/2001/REC-SVG-20010904/DTD/svg10.dtd">
<svg version="1.0" xmlns="http://www.w3.org/2000/svg"
 width="512.000000pt" height="512.000000pt" viewBox="0 0 512.000000 512.000000"
 preserveAspectRatio="xMidYMid meet">

<g transform="translate(0.000000,512.000000) scale(0.100000,-0.100000)"
fill="#FFFFFF" stroke="none">
<path d="M805 5109 c-356 -82 -641 -342 -748 -684 -113 -360 -12 -757 259
-1015 90 -85 155 -131 267 -186 58 -29 76 -42 71 -54 -3 -8 -16 -56 -29 -107
-43 -165 -58 -295 -58 -493 0 -205 15 -325 62 -505 16 -60 28 -111 28 -111 -1
-1 -40 -20 -87 -44 -270 -134 -463 -378 -537 -678 -12 -47 -17 -112 -17 -217
-1 -126 3 -164 23 -240 32 -124 73 -212 106 -227 34 -15 75 -1 95 34 13 25 13
32 -4 75 -100 258 -100 489 3 708 115 246 308 407 572 476 164 43 384 25 543
-46 192 -85 358 -251 442 -442 65 -147 87 -375 50 -526 -63 -264 -233 -473
-478 -586 -129 -60 -201 -75 -358 -75 -110 0 -150 4 -215 22 -108 31 -226 90
-309 157 -79 62 -120 71 -156 33 -44 -48 -22 -89 95 -176 178 -132 416 -202
644 -189 362 21 678 231 841 557 24 47 43 86 44 87 0 1 51 -12 112 -27 311
-80 686 -82 991 -5 53 14 104 27 113 30 14 4 23 -7 41 -52 74 -184 273 -389
474 -490 559 -282 1255 41 1411 655 33 130 35 357 3 482 -74 290 -255 519
-520 655 -52 26 -95 49 -96 49 -1 1 8 41 22 88 91 334 90 744 -5 1072 -11 38
-19 70 -17 71 1 1 40 21 86 44 263 130 454 366 527 650 35 135 35 357 0 493
-85 335 -338 602 -676 714 -82 28 -91 29 -295 29 -204 0 -212 -1 -295 -29
-211 -71 -374 -186 -508 -360 -38 -49 -117 -188 -133 -233 -3 -8 -37 -2 -114
18 -180 47 -300 62 -505 62 -198 0 -328 -15 -493 -58 -51 -13 -99 -26 -107
-29 -11 -5 -25 15 -55 76 -128 265 -369 461 -659 537 -66 17 -108 21 -245 20
-91 -1 -184 -5 -206 -10z m415 -154 c258 -68 478 -257 579 -500 48 -114 64
-196 64 -325 0 -187 -48 -342 -153 -494 -55 -80 -63 -121 -30 -151 26 -24 74
-23 101 1 35 31 99 131 140 218 76 163 109 350 90 518 -6 54 -11 102 -11 107
0 23 244 75 429 92 201 17 456 -8 658 -67 l55 -16 -6 -39 c-54 -335 59 -673
299 -898 226 -211 522 -306 836 -268 l66 8 22 -80 c86 -318 86 -659 -1 -984
l-20 -78 -72 8 c-379 42 -727 -104 -945 -397 -104 -139 -161 -282 -188 -465
-14 -93 -15 -128 -5 -224 6 -63 10 -116 8 -118 -9 -9 -208 -54 -302 -68 -139
-21 -388 -21 -530 0 -95 14 -291 59 -301 69 -2 2 1 51 7 108 32 296 -74 594
-289 809 -223 222 -520 323 -848 286 l-71 -8 -16 55 c-59 201 -84 456 -67 658
17 193 69 428 94 428 7 0 53 -5 102 -11 167 -19 383 20 535 96 93 47 115 92
68 142 -29 31 -48 29 -153 -16 -153 -66 -302 -89 -450 -71 -175 21 -346 100
-475 218 -250 228 -341 579 -234 901 43 129 98 215 209 326 137 137 278 213
457 244 75 14 271 6 348 -14z m3123 -4 c191 -50 374 -180 486 -344 47 -68 106
-200 127 -282 26 -103 24 -303 -4 -410 -137 -512 -699 -782 -1178 -565 -231
104 -409 316 -476 565 -28 108 -30 308 -3 410 69 267 262 492 507 592 160 65
373 79 541 34z m-30 -3106 c299 -61 555 -311 639 -620 33 -123 30 -319 -6
-438 -131 -434 -544 -693 -977 -611 -318 60 -568 290 -665 611 -23 77 -27 106
-27 223 0 159 20 248 82 375 177 359 555 541 954 460z"/>
<path d="M1082 4564 c-64 -24 -137 -102 -159 -170 -17 -55 -18 -56 -50 -51
-59 10 -137 58 -211 129 -63 62 -75 69 -100 64 -59 -14 -91 -96 -99 -252 -8
-155 26 -252 124 -355 l54 -56 -32 -7 c-18 -3 -63 -9 -101 -13 -77 -7 -98 -24
-98 -79 0 -38 19 -56 95 -90 98 -43 198 -64 304 -64 192 0 329 56 456 184 122
123 176 239 195 423 8 70 15 100 34 128 36 53 67 142 60 171 -8 29 -40 54 -71
54 -13 0 -45 -12 -71 -27 l-48 -27 -50 24 c-62 31 -169 37 -232 14z m186 -164
c45 -32 47 -41 43 -145 -9 -225 -149 -407 -360 -469 -67 -20 -177 -22 -147 -3
45 27 66 56 66 90 0 39 -13 52 -88 92 -106 57 -163 147 -170 269 l-5 79 34
-25 c53 -40 114 -68 196 -89 164 -41 223 -16 223 97 0 118 112 174 208 104z"/>
<path d="M3067 3330 c-18 -14 -27 -32 -29 -57 -3 -36 -5 -38 -114 -94 -193
-98 -483 -198 -515 -178 -8 5 -104 9 -214 9 -225 0 -250 -6 -292 -69 -22 -33
-23 -41 -23 -275 0 -223 2 -243 20 -274 29 -47 75 -72 137 -72 28 0 54 -3 56
-7 3 -5 10 -120 17 -258 10 -210 14 -254 29 -275 25 -35 82 -39 112 -9 24 24
24 15 2 425 l-6 121 104 5 c89 5 115 2 184 -18 100 -29 116 -30 143 -1 27 29
29 78 4 101 -18 16 -95 44 -179 66 l-43 11 0 183 0 182 97 28 c131 37 270 90
375 142 48 24 92 44 98 44 7 0 10 -135 10 -399 l0 -400 -64 30 c-71 33 -106
32 -131 -4 -38 -54 -12 -92 105 -153 85 -45 90 -49 90 -80 0 -64 71 -96 121
-55 l24 19 3 624 c1 342 0 633 -3 646 -8 32 -41 62 -69 62 -13 0 -35 -9 -49
-20z m-757 -665 l0 -195 -140 0 -140 0 0 195 0 195 140 0 140 0 0 -195z"/>
<path d="M4189 4696 c-78 -21 -144 -80 -180 -160 -17 -40 -23 -75 -27 -183
l-5 -133 -59 0 c-53 0 -63 -3 -90 -30 -24 -25 -29 -36 -24 -58 11 -46 41 -62
111 -62 l64 0 3 -239 c3 -218 5 -241 22 -260 24 -27 86 -29 109 -3 14 16 17
52 19 258 l3 239 77 5 c88 6 109 19 110 70 1 25 -6 40 -26 57 -23 19 -38 23
-98 23 l-70 0 4 125 c3 105 7 129 24 152 32 44 80 63 157 63 38 0 77 5 88 11
48 25 44 105 -7 128 -32 14 -146 13 -205 -3z"/>
<path d="M3715 1526 c-38 -16 -102 -87 -112 -123 -5 -16 -8 -194 -8 -398 l0
-370 25 -45 c28 -49 73 -84 129 -100 48 -13 704 -13 752 0 56 16 101 51 129
100 l25 45 0 380 c0 416 1 406 -62 469 -54 55 -60 56 -470 56 -289 -1 -385 -4
-408 -14z m780 -160 c14 -20 15 -69 13 -366 -3 -325 -4 -342 -22 -356 -29 -21
-693 -21 -722 0 -18 14 -19 31 -22 356 -2 297 -1 346 13 366 l15 24 355 0 355
0 15 -24z"/>
<path d="M4046 1225 c-125 -44 -181 -195 -118 -316 83 -160 311 -160 394 0 96
184 -80 386 -276 316z m129 -160 c70 -69 -30 -170 -102 -103 -14 13 -23 33
-23 50 0 36 40 78 75 78 14 0 37 -11 50 -25z"/>
<path d="M791 1406 c-49 -27 -50 -39 -51 -379 0 -338 3 -362 49 -387 51 -27
82 -14 361 146 162 93 278 166 288 181 20 32 21 83 0 114 -23 35 -557 339
-594 339 -16 -1 -40 -7 -53 -14z m296 -282 c93 -53 169 -98 171 -99 1 -1 -71
-44 -160 -95 -90 -52 -173 -100 -185 -108 l-23 -14 0 212 c0 183 2 211 15 206
8 -3 90 -49 182 -102z"/>
</g>
</svg>
