<?xml version="1.0" standalone="no"?>
<!DOCTYPE svg PUBLIC "-//W3C//DTD SVG 20010904//EN"
 "http://www.w3.org/TR/2001/REC-SVG-20010904/DTD/svg10.dtd">
<svg version="1.0" xmlns="http://www.w3.org/2000/svg"
 width="512.000000pt" height="512.000000pt" viewBox="0 0 512.000000 512.000000"
 preserveAspectRatio="xMidYMid meet">

<g transform="translate(0.000000,512.000000) scale(0.100000,-0.100000)"
fill="#FFFFFF" stroke="none">
<path d="M1640 4951 c-90 -28 -169 -96 -209 -181 -23 -49 -26 -70 -29 -185 -4
-118 -2 -133 16 -155 27 -33 87 -34 113 -1 16 20 19 41 19 132 0 71 5 121 14
142 16 39 61 82 99 96 19 8 296 11 860 11 790 0 834 -1 873 -19 49 -22 80 -62
93 -122 14 -59 14 -1139 0 -1198 -13 -58 -42 -97 -89 -121 -38 -19 -62 -20
-875 -20 -687 0 -841 2 -868 14 -39 16 -82 61 -96 99 -7 18 -11 156 -11 381 0
342 -1 354 -21 380 -27 34 -77 36 -108 2 l-22 -23 3 -379 3 -379 26 -55 c32
-66 86 -123 154 -158 l50 -27 885 0 885 0 57 28 c67 33 121 90 157 166 l26 56
0 635 0 635 -26 56 c-36 76 -90 133 -157 166 l-57 28 -870 2 c-478 1 -881 -2
-895 -6z"/>
<path d="M2285 4531 c-40 -10 -86 -35 -107 -58 -45 -49 -48 -76 -48 -403 0
-327 3 -354 48 -403 41 -45 121 -70 183 -56 56 13 532 293 569 335 73 84 59
208 -32 277 -18 14 -137 86 -264 160 -251 147 -287 162 -349 148z m292 -288
c129 -76 239 -146 244 -155 6 -12 6 -24 0 -35 -13 -26 -474 -293 -504 -293
-14 0 -28 7 -31 16 -8 20 -8 568 0 588 3 9 17 16 31 16 13 0 130 -62 260 -137z"/>
<path d="M573 4026 c-176 -43 -325 -197 -362 -374 -8 -37 -11 -458 -11 -1402
l0 -1350 -79 0 c-75 0 -81 -2 -101 -27 -21 -26 -22 -36 -18 -168 4 -111 9
-152 26 -200 43 -118 137 -228 242 -284 121 -64 -23 -61 2286 -61 1357 0 2120
4 2155 10 122 23 249 110 324 224 62 92 78 154 83 311 4 132 3 142 -18 168
-20 25 -26 27 -101 27 l-79 0 0 1350 c0 944 -3 1365 -11 1402 -38 183 -194
339 -377 377 -32 7 -177 11 -371 11 -305 0 -318 -1 -339 -20 -29 -27 -29 -80
-1 -106 20 -18 45 -19 358 -24 l336 -5 57 -27 c70 -32 133 -96 167 -168 l26
-55 3 -1367 2 -1368 -862 0 c-839 0 -864 -1 -895 -20 -18 -10 -44 -37 -58 -59
-47 -70 -54 -71 -400 -71 -346 0 -353 1 -400 71 -14 22 -40 49 -58 59 -31 19
-56 20 -890 20 l-857 0 2 1368 3 1367 27 57 c32 70 96 133 168 167 55 26 57
26 358 31 l304 5 19 24 c26 32 24 67 -6 96 l-24 25 -288 -1 c-194 0 -305 -5
-340 -13z m1482 -3318 c17 -23 55 -55 85 -72 l55 -31 360 0 360 0 55 30 c31
17 67 48 85 72 l30 42 944 0 944 1 -5 -84 c-10 -148 -86 -264 -211 -322 l-62
-29 -2135 0 -2135 0 -62 29 c-125 58 -201 174 -211 322 l-5 84 939 -1 939 0
30 -41z"/>
<path d="M610 3697 c-30 -16 -51 -37 -67 -67 l-23 -43 0 -894 c0 -553 4 -901
10 -912 5 -10 22 -24 39 -30 24 -10 34 -10 60 3 17 9 32 18 33 19 2 1 5 405 8
897 l5 895 268 5 c268 5 269 5 288 29 26 32 24 67 -6 96 l-24 25 -274 0 c-267
0 -275 -1 -317 -23z"/>
<path d="M3822 3700 c-29 -27 -29 -80 -1 -106 19 -18 44 -19 323 -24 l301 -5
3 -1172 2 -1173 -545 0 -545 0 0 188 c0 155 -4 203 -20 266 -29 112 -80 202
-172 301 l-81 86 33 67 c43 87 50 152 21 181 -22 22 -61 27 -91 11 -10 -5 -30
-41 -45 -80 -103 -269 -398 -389 -650 -266 -293 144 -357 526 -126 756 232
232 608 164 760 -137 35 -70 45 -82 72 -88 43 -10 83 20 87 65 5 48 -58 166
-130 245 -151 164 -388 239 -594 187 -131 -33 -208 -76 -299 -167 -126 -125
-185 -264 -185 -432 0 -107 14 -171 57 -265 l36 -77 -81 -86 c-92 -99 -143
-189 -172 -301 -16 -63 -20 -111 -20 -266 l0 -188 -545 0 -545 0 0 149 c0 135
-2 151 -21 175 -28 36 -80 36 -108 0 -20 -25 -21 -40 -21 -224 0 -180 2 -200
19 -221 l19 -24 2002 0 2002 0 19 24 c18 23 19 57 19 1256 l0 1232 -23 43
c-16 30 -37 51 -67 67 -42 23 -49 23 -355 23 -299 0 -312 -1 -333 -20z m-1613
-1814 c114 -78 213 -109 351 -108 140 0 238 31 353 109 l82 56 68 -74 c75 -82
122 -166 137 -248 5 -29 10 -132 10 -227 l0 -174 -650 0 -650 0 0 183 c0 262
20 325 146 465 36 39 67 72 69 72 3 0 40 -24 84 -54z"/>
</g>
</svg>
